<?xml version="1.0" encoding="UTF-8" standalone="no"?>
<svg
   xmlns:dc="http://purl.org/dc/elements/1.1/"
   xmlns:cc="http://creativecommons.org/ns#"
   xmlns:rdf="http://www.w3.org/1999/02/22-rdf-syntax-ns#"
   xmlns:svg="http://www.w3.org/2000/svg"
   xmlns="http://www.w3.org/2000/svg"
   xmlns:sodipodi="http://sodipodi.sourceforge.net/DTD/sodipodi-0.dtd"
   xmlns:inkscape="http://www.inkscape.org/namespaces/inkscape"
   id="Layer_1"
   data-name="Layer 1"
   viewBox="0 0 895.91133 267.60883"
   width="1000"
   height="270"
   class="illustration"
   version="1.1"
   sodipodi:docname="question.svg"
   inkscape:export-filename="/Users/nari/Downloads/Money transfer _Monochromatic.png"
   inkscape:export-xdpi="96"
   inkscape:export-ydpi="96"
   inkscape:version="1.0.1 (c497b03c, 2020-09-10)">
  <metadata
     id="metadata5779">
    <rdf:RDF>
      <cc:Work
         rdf:about="">
        <dc:format>image/svg+xml</dc:format>
        <dc:type
           rdf:resource="http://purl.org/dc/dcmitype/StillImage" />
        <dc:title>13</dc:title>
      </cc:Work>
    </rdf:RDF>
  </metadata>
  <sodipodi:namedview
     pagecolor="#ffffff"
     bordercolor="#666666"
     borderopacity="1"
     objecttolerance="10"
     gridtolerance="10"
     guidetolerance="10"
     inkscape:pageopacity="0"
     inkscape:pageshadow="2"
     inkscape:window-width="1440"
     inkscape:window-height="784"
     id="namedview5777"
     showgrid="false"
     inkscape:zoom="0.50490195"
     inkscape:cx="341.8115"
     inkscape:cy="397.55915"
     inkscape:window-x="2560"
     inkscape:window-y="259"
     inkscape:window-maximized="0"
     inkscape:current-layer="Layer_1"
     inkscape:document-rotation="0" />
  <defs
     id="defs5684">
    <linearGradient
       id="linear-gradient"
       x1="206.7"
       y1="169.12"
       x2="203.96001"
       y2="145.92"
       gradientTransform="matrix(1,0,0,-1,0,352)"
       gradientUnits="userSpaceOnUse">
      <stop
         offset="0.01"
         id="stop5675" />
      <stop
         offset="0.08"
         stop-opacity="0.69"
         id="stop5677" />
      <stop
         offset="0.21"
         stop-opacity="0.32"
         id="stop5679" />
      <stop
         offset="1"
         stop-opacity="0"
         id="stop5681" />
    </linearGradient>
  </defs>
  <title
     id="title5686">13</title>
  <path
     d="M 413.04017,5.4830998 C 395.41326,5.5734053 377.8543,6.2002561 360.60459,7.3550374 295.89119,11.924267 242.41014,25.980816 193.94213,40.326665 153.40909,52.324083 93.889039,30.236537 72.791532,46.513884 52.632258,62.127544 23.862906,62.164477 0.51356075,77.369724 -14.257449,87.010184 8.1329408,130.16806 -9.9621249,139.22995 c -30.5337931,15.31582 -44.2263571,53.26821 -17.1239291,69.26476 15.441145,9.09592 42.489931,15.57112 69.485128,21.34009 69.136636,14.77129 165.061316,15.11408 247.494526,18.96858 31.47209,1.47201 43.74262,13.70524 75.53637,14.19024 27.42412,0.43395 55.16993,1.08061 82.13832,-0.54456 67.47459,-4.06722 118.56975,-21.39114 181.11174,-30.39346 44.4737,-6.40714 127.19811,9.21813 174.433,5.37216 47.23489,-3.84599 62.17037,-27.75883 91.87313,-40.07958 26.51266,-11.00188 33.93835,-24.98186 38.54925,-38.40025 4.45005,-12.92488 -12.6288,-46.61787 -27.88229,-58.50465 C 872.67984,74.755191 830.37998,70.354245 770.19703,49.711879 708.64702,28.718012 655.43409,24.175162 566.89353,18.463587 533.78222,16.46332 498.21323,25.216423 464.50937,25.105013 455.87737,25.05396 421.69901,5.4065211 413.04017,5.4831011 Z"
     fill="#68e1fd"
     opacity="0.18"
     style="isolation:isolate;fill:#ffaaaa;stroke-width:0.999998"
     id="path5688-6"
     sodipodi:nodetypes="ccccccccccccscccccccc" />
</svg>
