<?xml version="1.0" encoding="UTF-8" standalone="no"?>
<svg
   xmlns:dc="http://purl.org/dc/elements/1.1/"
   xmlns:cc="http://creativecommons.org/ns#"
   xmlns:rdf="http://www.w3.org/1999/02/22-rdf-syntax-ns#"
   xmlns:svg="http://www.w3.org/2000/svg"
   xmlns="http://www.w3.org/2000/svg"
   xmlns:xlink="http://www.w3.org/1999/xlink"
   xmlns:sodipodi="http://sodipodi.sourceforge.net/DTD/sodipodi-0.dtd"
   xmlns:inkscape="http://www.inkscape.org/namespaces/inkscape"
   version="1.1"
   id="_x34_"
   x="0px"
   y="0px"
   viewBox="0 0 300 300"
   xml:space="preserve"
   sodipodi:docname="adult.svg"
   width="300"
   height="300"
   inkscape:version="1.0.1 (c497b03c, 2020-09-10)"><metadata
   id="metadata882"><rdf:RDF><cc:Work
       rdf:about=""><dc:format>image/svg+xml</dc:format><dc:type
         rdf:resource="http://purl.org/dc/dcmitype/StillImage" /><dc:title /></cc:Work></rdf:RDF></metadata><defs
   id="defs880"><clipPath
     clipPathUnits="userSpaceOnUse"
     id="clipPath900"><rect
       style="fill:#ffe6d5;fill-opacity:0.414925;stroke-width:1"
       id="rect902"
       width="361.06839"
       height="630.4104"
       x="-21.348534"
       y="-20.013029" /></clipPath><linearGradient
     id="5a1f6f01-7714-46af-aba4-b09e98a2a9e8"
     x1="368.48999"
     y1="311.39999"
     x2="368.48999"
     y2="311.39999"
     xlink:href="#8fdda24f-3500-4787-9acd-06391067bf0a"
     gradientTransform="matrix(6.1261027,0,0,6.1261027,-371.01314,-901.40272)" /><linearGradient
     id="8fdda24f-3500-4787-9acd-06391067bf0a"
     x1="373.64999"
     y1="193.72"
     x2="373.64999"
     y2="191.69"
     gradientUnits="userSpaceOnUse"><stop
       offset="0"
       stop-color="gray"
       stop-opacity="0.25"
       id="stop8822" /><stop
       offset="0.54"
       stop-color="gray"
       stop-opacity="0.12"
       id="stop8824" /><stop
       offset="1"
       stop-color="gray"
       stop-opacity="0.1"
       id="stop8826" /></linearGradient><linearGradient
     id="fba3f31e-455c-4283-9b41-fb0bd740b4d7"
     x1="450.66"
     y1="467.97"
     x2="450.66"
     y2="417.39999"
     xlink:href="#8fdda24f-3500-4787-9acd-06391067bf0a"
     gradientTransform="matrix(6.1261027,0,0,6.1261027,-579.03032,-915.24154)" /><linearGradient
     id="03abcd37-863a-4fdf-b76f-be25b3f5f7e8"
     x1="439.35999"
     y1="721.28998"
     x2="439.35999"
     y2="172.56"
     xlink:href="#8fdda24f-3500-4787-9acd-06391067bf0a"
     gradientTransform="translate(-40.580017,-7.4800083)" /><linearGradient
     id="7a137c36-2b0e-489c-9ead-72d7056953bc"
     x1="373.64999"
     y1="192.7"
     x2="373.64999"
     y2="190.66"
     xlink:href="#8fdda24f-3500-4787-9acd-06391067bf0a"
     gradientTransform="matrix(6.1261027,0,0,6.1261027,-579.03032,-915.24154)" /><linearGradient
     inkscape:collect="always"
     xlink:href="#8fdda24f-3500-4787-9acd-06391067bf0a"
     id="linearGradient9700"
     gradientUnits="userSpaceOnUse"
     x1="373.64999"
     y1="193.72"
     x2="373.64999"
     y2="191.69"
     gradientTransform="matrix(6.1261027,0,0,6.1261027,-579.03032,-915.24154)" /></defs><sodipodi:namedview
   pagecolor="#ffffff"
   bordercolor="#666666"
   borderopacity="1"
   objecttolerance="10"
   gridtolerance="10"
   guidetolerance="10"
   inkscape:pageopacity="0"
   inkscape:pageshadow="2"
   inkscape:window-width="1632"
   inkscape:window-height="943"
   id="namedview878"
   showgrid="false"
   inkscape:zoom="1.1992188"
   inkscape:cx="201.5425"
   inkscape:cy="226.75865"
   inkscape:window-x="675"
   inkscape:window-y="206"
   inkscape:window-maximized="0"
   inkscape:current-layer="_x34_"
   inkscape:document-rotation="0" />

<path
   d="m 224.52912,81.347213 a 66.537891,56.185681 0 0 1 -9.96859,10.953882 67.513169,57.009226 0 0 1 -20.59315,12.115095 c -4.68078,1.75642 -9.62624,3.08039 -14.00781,5.32024 -6.76946,3.46667 -11.65162,9.33594 -18.66561,12.41392 -7.66416,3.36705 -16.39855,-2.52166 -23.54775,-4.97772 -10.02038,-3.44722 -21.32964,-3.78005 -31.05082,-7.79573 -8.389159,-3.46667 -14.988864,-9.452562 -20.383139,-15.897576 -0.0432,-0.04371 -0.0748,-0.08987 -0.117995,-0.133591 C 79.373027,85.171019 74.076581,75.82779 72.960329,65.872367 71.844078,55.916959 75.371208,45.295905 83.981885,38.437888 c 4.116903,-3.286902 9.168815,-5.587481 14.200596,-7.759306 7.275769,-3.138701 15.014739,-6.1535 23.159359,-5.910568 5.26481,0.153049 10.06929,1.664092 14.96011,2.881193 3.66809,0.918276 7.38797,1.664091 11.41857,1.564494 8.66534,-0.206499 16.35252,-5.040877 24.59209,-6.867747 5.213,-1.161209 10.64468,-1.474596 16.04183,-1.384713 10.20162,0.170052 20.5845,1.853588 29.31601,6.316278 22.76236,11.641368 18.72314,37.01579 6.85863,54.069723 z"
   fill="#f1a8f0"
   opacity="0.24"
   style="isolation:isolate;fill:#ff00ff;fill-opacity:1;stroke-width:0.966352"
   id="path872" /><path
   d="m 89.564788,187.78958 c -0.181194,-6.17686 0.816179,-13.44412 5.572873,-16.36114 2.358759,-1.4479 5.174579,-1.46912 7.721059,-2.41752 5.71326,-2.12207 9.2718,-8.41645 12.71607,-14.04808 3.44428,-5.63165 7.97408,-11.47059 13.9681,-11.80523 8.2581,-0.46196 13.87505,9.44973 21.48674,13.14539 14.43006,7.00118 31.36415,-9.74355 45.99499,-3.3088 2.12207,0.93371 4.15272,2.41264 5.34597,4.63102 1.17531,2.18572 1.43975,4.88564 2.58566,7.09259 3.62058,6.97344 13.32331,5.40638 18.48157,10.96456 1.77438,1.91149 2.84195,4.50694 3.87034,7.0371 l 3.58139,8.81474 c 0.6709,1.65358 1.35485,3.35776 1.43484,5.17947 0.14039,3.1978 -1.59971,6.25194 -1.29119,9.43341 0.47991,4.9689 5.50758,7.68841 7.10075,12.34226 0.7509,2.1939 0.67091,4.63428 0.48972,6.98324 a 92.435605,92.435605 0 0 1 -2.28531,14.528 c -1.16224,4.82851 -2.90396,9.82679 -6.47556,12.71607 -2.5171,2.03556 -5.6398,2.77502 -8.67273,3.38551 -17.33729,3.51774 -34.96514,4.69794 -52.55381,5.61369 -15.34418,0.79986 -31.04584,1.35486 -45.74686,-3.77402 -6.59474,-2.29509 -13.20415,-6.0234 -17.01245,-12.60344 -2.61177,-4.51021 -3.10148,-9.42035 -4.27841,-14.50025 -0.90922,-3.92745 -3.591189,-6.96037 -5.120712,-10.63971 a 91.812042,91.812042 0 0 1 -6.91304,-32.40886 z"
   fill="#ffc0fc"
   opacity="0.1"
   id="path8837"
   style="stroke-width:0.999998" /><path
   d="m 86.884451,234.76724 a 54.194326,54.194326 0 0 1 18.834159,1.81518 c 2.3604,0.65295 4.73385,1.48545 7.18239,1.41526 3.00517,-0.0865 5.78181,-1.50667 8.55192,-2.67543 4.36819,-1.84457 9.0955,-3.13903 13.81792,-2.70972 8.69068,0.78843 16.33664,7.26073 25.05835,6.96201 7.47457,-0.25465 14.18356,-5.49616 21.65977,-5.34108 5.07337,0.10447 9.7762,2.69666 14.80713,3.36102 6.45761,0.85209 12.89563,-1.51156 19.39406,-1.79558 a 30.75528,30.75528 0 0 1 16.17832,3.79686 c 3.57487,1.98005 7.10403,5.84221 5.69693,9.67826 -0.42931,1.1704 -1.29773,2.21184 -1.35159,3.45733 -0.1208,2.77502 3.4557,3.95031 5.23987,6.07565 2.19553,2.61177 1.30588,6.9163 -1.27488,9.15101 -2.58076,2.23469 -6.31233,2.69829 -9.68151,2.13838 -3.3692,-0.5599 -6.51148,-2.0078 -9.70112,-3.22554 a 74.226634,74.226634 0 0 0 -18.86681,-4.48899 c -4.46613,-0.45869 -9.00735,-0.50929 -13.41799,0.32647 -3.30227,0.62357 -6.4968,1.7352 -9.79416,2.3457 -16.49662,3.04762 -32.80063,-6.5833 -49.56985,-6.51801 -4.71262,0.0195 -9.38116,0.80639 -14.06114,1.36466 -14.50677,1.72867 -29.175152,1.24712 -43.778236,0.76394 -1.477286,-0.0489 -3.075366,-0.14201 -4.211487,-1.08879 -2.12207,-1.77273 -1.305885,-5.20885 0,-7.64433 2.141652,-3.97153 5.060312,-7.39459 7.244406,-11.31062 2.370188,-4.22455 7.512119,-5.49289 12.043548,-5.85364 z"
   fill="#ffc0fc"
   id="path8839"
   style="stroke-width:0.999998" /><g
   opacity="0.05"
   id="g8843"
   transform="matrix(0.16323592,0,0,0.16323592,60.562661,143.14129)"
   style="stroke-width:6.1261"><path
     d="m 373.4,193.72 a 3.49,3.49 0 0 0 0.49,-2 12.71,12.71 0 0 0 -0.49,2 z"
     transform="translate(-40.58,-7.48)"
     fill="url(#8fdda24f-3500-4787-9acd-06391067bf0a)"
     id="path8841"
     style="fill:url(#linearGradient9700);stroke-width:6.1261" /></g><g
   opacity="0.05"
   id="g8847"
   transform="matrix(0.16323592,0,0,0.16323592,60.562661,143.14129)"
   style="stroke-width:6.1261"><path
     d="m 373.4,192.7 a 3.49,3.49 0 0 0 0.49,-2 12.71,12.71 0 0 0 -0.49,2 z"
     transform="translate(-40.58,-7.48)"
     fill="url(#7a137c36-2b0e-489c-9ead-72d7056953bc)"
     id="path8845"
     style="fill:url(#7a137c36-2b0e-489c-9ead-72d7056953bc);stroke-width:6.1261" /></g><path
   d="m 188.05807,250.39545 c -0.37707,0.18935 -3.47856,-0.26281 -6.10013,-0.69212 1.41199,-0.32648 2.44854,-0.75089 2.93825,-1.30589 2.81582,-3.2386 -9.59174,-1.36302 -13.5143,-0.70191 l -3.15699,-0.63172 -3.53569,-0.81618 c -2.43874,-3.42796 -6.13603,-10.37855 -7.9251,-13.82445 0.59418,-0.13386 0.95656,-0.19752 0.95656,-0.19752 -0.0278,-0.10774 -0.0571,-0.2122 -0.0865,-0.31831 l 0.0865,-0.0163 c -3.33491,-12.67038 -9.00246,-10.83725 -9.00246,-10.83725 -0.67743,0 -1.67316,0.2922 -2.85173,0.77211 a 26.987795,26.987795 0 0 0 -1.46913,-3.92746 l -0.13711,-0.29709 c 0.39666,0.0734 0.62846,0.11917 0.62846,0.11917 0,0 -0.0326,-0.0882 -0.0963,-0.24975 l 0.0588,0.0114 0.13875,0.0261 h 0.0294 l 0.0571,0.0114 0.14529,0.0277 c 0,0 -4.57061,-12.42224 -14.30763,-19.89519 a 17.604994,17.604994 0 0 0 -8.90615,-3.60261 c -0.17303,-0.018 -0.33954,-0.031 -0.5044,-0.0425 l -0.14855,-0.0146 c -0.12568,0 -0.24974,-0.0131 -0.37217,-0.0163 h -0.26118 v 0 c -2.20858,-0.0326 -3.81972,0.5142 -5.68061,1.46913 -0.33952,0.16323 -0.68559,0.34769 -1.0447,0.54194 a 7.5594556,7.5594556 0 0 1 -0.82761,-0.14691 q -0.22364,-0.0539 -0.43748,-0.12243 a 9.338727,9.338727 0 0 0 4.77302,-12.06314 6.3662008,6.3662008 0 0 1 2.88928,-2.65095 0.93207709,0.93207709 0 0 0 0.39666,-0.26281 0.87004742,0.87004742 0 0 0 0.11264,-0.49786 v -0.0146 c 0,-0.0326 0,-0.0637 0,-0.0947 0,-0.031 0,-0.0392 0,-0.0571 v -0.0146 a 3.2157476,3.2157476 0 0 0 -2.7587,-3.23043 5.1027549,5.1027549 0 0 1 -1.3369,-0.38687 c -1.03328,-0.46849 -1.87884,-1.51809 -1.93435,-2.61178 a 2.1220669,2.1220669 0 0 1 0.0261,-0.29055 l -0.0245,0.0375 c 0,-0.0685 0.0147,-0.13547 0.0245,-0.20403 -0.23179,0.39502 -0.91411,0.53867 -1.3173,0.23015 -0.36076,-0.27586 -0.50767,-0.72966 -0.52237,-1.19325 a 2.7603194,2.7603194 0 0 1 0.0391,-0.37218 5.2888438,5.2888438 0 0 0 0.1257,-1.0447 c 0.0164,-0.37218 -0.0539,-0.71008 -0.35423,-0.90597 -0.63661,0.78354 -1.66826,1.15734 -2.67543,1.23733 -1.00716,0.08 -2.01433,-0.0979 -3.01496,-0.23016 -2.47139,-0.32648 -5.24967,-0.28729 -7.11382,1.36955 -1.212847,1.07735 -1.823348,2.66074 -2.391409,4.18047 -0.803126,2.14655 -1.602981,4.47593 -1.578493,6.71389 a 7.4353958,7.4353958 0 0 0 0.582749,3.04925 c 0.780267,1.79559 2.363659,3.21575 2.846837,5.11582 0.111,0.43746 0.163236,0.89943 0.380342,1.29608 0.439104,0.80313 1.469124,1.1247 2.375084,1.00064 a 9.3860657,9.3860657 0 0 0 1.11327,0.94677 c -0.008,0.10611 -0.018,0.21058 -0.0278,0.31505 -0.062,0.65294 -0.15018,1.30588 -0.27097,1.92618 -0.0735,-0.1061 -0.1763,-0.0474 -0.47665,-0.0474 h -0.10446 -0.0261 l -0.1208,0.0146 v 0 l -0.13222,0.0228 h -0.0278 l -0.15344,0.0326 v 0 l -0.16324,0.0408 h -0.0228 l -0.18772,0.0506 v 0 l -0.20404,0.0588 h -0.01 c -0.58112,0.17466 -1.28956,0.42931 -2.035554,0.7166 a 9.1412116,9.1412116 0 0 0 -2.448542,-4.9085 4.9884897,4.9884897 0 0 0 0.628461,-1.16061 c 0.251383,-0.67906 -0.0081,-1.14264 -0.445637,-1.54584 -0.341159,-0.37382 -0.856984,-0.6807 -1.314044,-1.02023 a 19.309177,19.309177 0 0 0 -6.828158,-3.2239 c -0.798226,-0.19752 -1.622569,-0.34443 -2.438748,-0.25465 -0.775372,0.0849 -1.513198,0.37871 -2.220005,0.70844 a 21.238625,21.238625 0 0 0 -3.205956,1.85273 c -0.680696,0.47665 -1.348326,1.00226 -2.135129,1.27488 -1.178562,0.40809 -2.541583,0.21873 -3.628732,0.8325 -1.521357,0.86025 -1.862523,2.92192 -1.632357,4.65549 0.230159,1.73356 0.839031,3.4606 0.566425,5.18763 -0.409719,2.58402 -2.649319,4.4188 -4.709353,6.03973 -0.652943,0.50767 -1.343434,1.10511 -1.443004,1.92292 -0.06204,0.51092 0.125688,1.01533 0.282395,1.50667 a 12.80096,12.80096 0 0 1 -0.155071,8.26463 11.52772,11.52772 0 0 1 -5.38679,6.20296 c -0.946767,0.48971 -2.094318,0.99901 -2.316318,2.04372 -0.148542,0.70355 0.182824,1.32221 0.714972,1.81845 a 4.9754308,4.9754308 0 0 0 1.869052,1.17203 16.827991,16.827991 0 0 0 3.201061,0.83578 c 0.959826,0.1518 1.988212,0.21056 2.86479,-0.21059 1.02022,-0.4897 1.642151,-1.52952 2.180829,-2.52525 1.377715,-2.54322 2.961101,-4.23434 4.270252,-6.28296 0.173029,0.74762 0.311783,1.26835 0.326471,1.29773 -1.085521,0.97942 -1.59318,2.58566 -0.999003,5.17295 2.334277,10.1696 5.33455,12.67037 5.33455,12.67037 a 3.53569,3.53569 0 0 1 0.618666,-1.52462 l 0.132217,0.16323 v 0 c 1.423422,1.72867 3.059044,3.52916 4.4188,4.5298 a 23.225207,23.225207 0 0 1 4.183734,3.97479 0.83576789,0.83576789 0 0 1 -0.285659,1.27651 c -2.136759,1.04145 -6.81347,3.71525 -1.238962,4.91013 5.574508,1.1949 10.120625,-1.95882 11.718706,-3.28594 a 0.83740021,0.83740021 0 0 0 0.122431,-1.1704 l -5.076644,-6.34498 -0.625189,-0.7721 c 0.336265,0.23833 0.677425,0.4897 1.03002,0.74598 l -0.905961,-1.44789 2.868054,0.29872 c 0.08325,0.17466 0.163236,0.34605 0.251383,0.50929 0.571325,1.17367 1.176932,2.09105 1.808651,2.60035 a 6.1605236,6.1605236 0 0 0 0.816186,3.37409 c 2.2853,4.14946 14.89038,4.12334 18.41954,4.03356 a 8.2254582,8.2254582 0 0 0 0.99248,0.0963 8.3087082,8.3087082 0 0 0 1.64541,-0.10772 l 0.11427,-0.0195 a 4.2441339,4.2441339 0 0 0 1.89843,-0.77864 l 5.01624,-1.0039 0.11263,0.0278 c 2.83051,0.58275 8.2173,1.51646 11.31061,0.92228 2.96437,-0.56969 4.67998,0.41952 5.47004,1.10184 a 9.1901823,9.1901823 0 0 1 -0.30199,0.89943 h 0.044 c -0.19753,0.43584 -0.92718,2.54485 2.04044,4.91831 1.93925,1.55073 15.14666,1.95882 19.6732,1.00063 3.26471,-0.68885 -1.37282,-2.66728 -2.00128,-2.66728 -1.42179,0 -5.83568,-2.99211 -6.29437,-3.30552 -0.0751,-0.098 -0.24812,-0.32648 -0.48971,-0.65294 3.06883,0.40972 8.47195,1.05776 9.5346,0.70353 1.50014,-0.4995 8.1618,0.32648 8.1618,0.32648 0,0 9.00247,2.00127 13.33801,0.66764 4.33555,-1.33365 -0.15997,-4.16415 -0.82598,-3.83115 z"
   fill="url(#03abcd37-863a-4fdf-b76f-be25b3f5f7e8)"
   id="path8849"
   style="fill:url(#03abcd37-863a-4fdf-b76f-be25b3f5f7e8);stroke-width:0.999998" /><g
   opacity="0.05"
   id="g8853"
   transform="matrix(0.16323592,0,0,0.16323592,60.562661,143.14129)"
   style="stroke-width:6.1261"><path
     d="m 461.1,449 c -3.22,1.38 -10.88,8.59 -20.81,18.95 -3.16,-20.78 -5.2,-39.52 -3.88,-47.32 a 7,7 0 0 1 1.17,-3.25 c 6,-0.41 18.08,14.5 27.75,28 -2.68,2.15 -4.23,3.62 -4.23,3.62 z"
     transform="translate(-40.58,-7.48)"
     fill="url(#fba3f31e-455c-4283-9b41-fb0bd740b4d7)"
     id="path8851"
     style="fill:url(#fba3f31e-455c-4283-9b41-fb0bd740b4d7);stroke-width:6.1261" /></g><g
   opacity="0.05"
   id="g8857"
   transform="matrix(0.16323592,0,0,0.16323592,60.562661,147.14129)"
   style="stroke-width:6.1261"><polygon
     points=""
     fill="url(#5a1f6f01-7714-46af-aba4-b09e98a2a9e8)"
     id="polygon8855"
     style="fill:url(#5a1f6f01-7714-46af-aba4-b09e98a2a9e8);stroke-width:6.1261" /></g><path
   d="m 155.08605,230.06768 c 0,0 8.48827,16.8133 10.61033,17.46624 2.12207,0.65295 3.5912,-0.32647 3.5912,-0.32647 0,0 17.62947,-3.26472 14.36475,0.48971 -3.26471,3.75443 -31.831,1.46912 -31.831,1.46912 l -7.18238,-16.16035 z"
   fill="#ef91a3"
   id="path8859"
   style="stroke-width:0.999998" /><path
   d="m 130.76389,230.39415 c 0,0 13.71182,-9.14121 17.46624,-9.14121 0,0 5.55002,-1.79559 8.81474,10.61034 0,0 -11.26327,1.95883 -11.10004,7.34561 l -2.12206,-4.5706 -9.14122,10.12062 -11.10004,-7.50885 z"
   opacity="0.1"
   id="path8861"
   style="stroke-width:0.999998" /><path
   d="m 130.76389,230.06768 c 0,0 13.71182,-9.14121 17.46624,-9.14121 0,0 5.55002,-1.7956 8.81474,10.61033 0,0 -11.26327,1.95883 -11.10004,7.34562 l -2.12206,-4.57061 -9.14122,10.12063 -11.10004,-7.50885 z"
   fill="#5d526e"
   id="path8863"
   style="stroke-width:0.999998" /><path
   d="m 145.7816,225.49707 c -0.81619,3.91766 -5.06031,4.57061 -5.06031,4.57061 l -6.03974,-3.75443 c 0,0 -0.85209,-5.62347 -1.57196,-9.05143 -0.27586,-1.31732 -0.53215,-2.31142 -0.71334,-2.53831 -0.65293,-0.81618 9.63092,-0.65295 9.63092,-0.65295 a 40.448228,40.448228 0 0 1 1.96862,3.76585 c 1.1198,2.44691 2.22165,5.56472 1.78581,7.66066 z"
   fill="#ef91a3"
   id="path8865"
   style="stroke-width:0.999998" /><path
   d="m 119.66386,195.95137 -3.42796,16.3236 -8.32503,-2.12207 c 0,0 -7.67208,-6.03973 -5.38678,-9.79415 0.74762,-1.22755 1.12796,-3.01334 1.30588,-4.85954 0.35749,-3.80503 -0.16323,-7.87287 -0.16323,-7.87287 0,0 9.1412,-2.44854 7.34562,4.24414 -0.73783,2.74889 0.58928,3.92745 2.40935,4.36329 2.61341,0.62193 6.24215,-0.2824 6.24215,-0.2824 z"
   fill="#ef91a3"
   id="path8867"
   style="stroke-width:0.999998" /><path
   d="m 113.42171,196.23051 a 9.0857113,9.0857113 0 0 1 -4.20495,1.02675 c -2.01596,0 -3.95684,-1.26181 -5.46841,-2.36693 a 37.287981,37.287981 0 0 0 -0.0816,-7.26399 c 0,0 9.14121,-2.44854 7.34563,4.24414 -0.73783,2.74562 0.58928,3.91766 2.40935,4.36003 z"
   opacity="0.1"
   id="path8869"
   style="stroke-width:0.999998" /><circle
   cx="109.21674"
   cy="187.78633"
   fill="#ef91a3"
   id="circle8871"
   r="9.1412115"
   style="stroke-width:0.999998" /><path
   d="m 108.5328,206.85553 2.47956,3.4606 1.41035,-5.11418 a 25.445215,25.445215 0 0 0 0.85536,-6.26825 4.3045312,4.3045312 0 0 1 0.83577,-2.49262 c 2.54321,-1.3875 4.43185,-2.12207 7.6378,-1.79559 a 17.237713,17.237713 0 0 1 8.71516,3.53079 c 9.52809,7.32113 14.00891,19.48547 14.00891,19.48547 0,0 -13.05888,-2.61178 -12.40593,0.32647 0,0 -5.71326,-9.14122 -7.01914,-7.67209 -1.30589,1.46912 2.77501,20.8942 2.77501,20.8942 l -26.77069,1.95883 -7.019143,-18.60889 0.326471,-13.87505 c 0,0 6.937532,-3.1831 8.406652,-3.1831 0.51419,0 0.43584,-0.17957 0.65294,0.65294 0.8374,3.20268 3.18148,6.00707 5.11092,8.70047 z"
   opacity="0.1"
   id="path8873"
   style="stroke-width:0.999998" /><path
   d="m 143.99579,217.83315 c -2.2706,-0.40973 -8.7021,-1.45606 -10.8862,-0.57459 -0.27586,-1.31732 -0.53215,-2.31142 -0.71334,-2.53832 -0.65293,-0.81618 9.63092,-0.65294 9.63092,-0.65294 a 40.448228,40.448228 0 0 1 1.96862,3.76585 z"
   opacity="0.1"
   id="path8875"
   style="stroke-width:0.999998" /><path
   d="m 108.85927,206.6923 2.47955,3.4606 1.41036,-5.11418 a 25.445215,25.445215 0 0 0 0.85536,-6.26827 4.3045312,4.3045312 0 0 1 0.83577,-2.4926 c 2.54321,-1.38752 4.43185,-2.12207 7.6378,-1.79561 a 17.237713,17.237713 0 0 1 8.71517,3.5308 c 9.52807,7.32113 14.0089,19.48547 14.0089,19.48547 0,0 -13.05886,-2.61177 -12.40593,0.32648 0,0 -5.71326,-9.14122 -7.01914,-7.67209 -1.30589,1.46912 2.77501,20.89419 2.77501,20.89419 l -26.77068,1.95884 -7.019152,-18.6089 0.326471,-13.87505 c 0,0 6.937531,-3.18311 8.406651,-3.18311 0.5142,0 0.43584,-0.17955 0.65294,0.65295 0.83741,3.20269 3.18148,6.00708 5.11092,8.70048 z"
   fill="#dfecfb"
   id="path8877"
   style="stroke-width:0.999998" /><path
   d="m 102.87015,194.24556 c -0.91739,0.16323 -1.98495,-0.14529 -2.43222,-0.96309 -0.2122,-0.38851 -0.26444,-0.84067 -0.37381,-1.26835 -0.473383,-1.85925 -2.024123,-3.24839 -2.788072,-5.00807 -1.286297,-2.966 -0.163236,-6.36621 0.979421,-9.39587 0.55663,-1.48707 1.154073,-3.03782 2.340801,-4.09233 1.82498,-1.62256 4.54449,-1.6601 6.96528,-1.34179 0.97941,0.12895 1.95883,0.30362 2.95293,0.22527 0.99411,-0.0784 1.99638,-0.444 2.61178,-1.21121 0.52562,0.34116 0.32647,1.12958 0.22363,1.74662 -0.10284,0.61703 -0.018,1.32221 0.47339,1.69765 0.49133,0.37545 1.40872,0.0653 1.36792,-0.5501 -0.44238,1.30588 0.53378,2.75215 1.79559,3.32348 a 4.9950191,4.9950191 0 0 0 1.30588,0.37871 3.1488208,3.1488208 0 0 1 2.69992,3.16188 v 0.0146 a 0.85209149,0.85209149 0 0 1 -0.10936,0.4897 0.91248875,0.91248875 0 0 1 -0.3885,0.25793 6.2258181,6.2258181 0 0 0 -2.93825,2.80929 c -0.3379,0.66109 -0.59255,1.42667 -1.21611,1.82986 -0.7672,0.48971 -1.76947,0.24813 -2.68033,0.32648 a 3.8033969,3.8033969 0 0 0 -3.28267,2.69665 c -0.21221,0.75579 -0.18283,1.58013 -0.65295,2.25103 a 1.2846666,1.2846666 0 0 1 -0.8929,0.56316 c -0.70844,0.0768 -1.03328,-0.55826 -1.54095,-0.88637 -1.19325,-0.77047 -1.95882,0.24649 -2.33264,1.20632 -0.41625,1.03981 -0.71334,1.48544 -2.08778,1.73846 z"
   opacity="0.1"
   id="path8879"
   style="stroke-width:0.999998" /><path
   d="m 102.87015,194.08233 c -0.91739,0.16323 -1.98495,-0.14529 -2.43222,-0.9631 -0.2122,-0.3885 -0.26444,-0.84067 -0.37381,-1.26834 -0.473383,-1.85926 -2.024123,-3.24839 -2.788072,-5.00808 -1.286297,-2.966 -0.163236,-6.3662 0.979421,-9.39586 0.55663,-1.48708 1.154073,-3.03783 2.340801,-4.09233 1.82498,-1.62256 4.54449,-1.66011 6.96528,-1.3418 0.97941,0.12896 1.95883,0.30362 2.95293,0.22527 0.99411,-0.0784 1.99638,-0.444 2.61178,-1.21121 0.52562,0.34116 0.32647,1.12959 0.22363,1.74663 -0.10284,0.61702 -0.018,1.3222 0.47339,1.69765 0.49133,0.37545 1.40872,0.0653 1.36792,-0.55011 -0.44238,1.30589 0.53378,2.75216 1.79559,3.32349 a 4.9950191,4.9950191 0 0 0 1.30588,0.37871 3.1488208,3.1488208 0 0 1 2.69992,3.16187 v 0.0147 a 0.85209149,0.85209149 0 0 1 -0.10936,0.4897 0.91248875,0.91248875 0 0 1 -0.3885,0.25792 6.2258181,6.2258181 0 0 0 -2.93825,2.80929 c -0.3379,0.6611 -0.59255,1.42668 -1.21611,1.82987 -0.7672,0.48971 -1.76947,0.24812 -2.68033,0.32648 a 3.8033969,3.8033969 0 0 0 -3.28267,2.69665 c -0.21221,0.75578 -0.18283,1.58013 -0.65295,2.25102 a 1.2846666,1.2846666 0 0 1 -0.8929,0.56317 c -0.70844,0.0767 -1.03328,-0.55827 -1.54095,-0.88638 -1.19325,-0.77046 -1.95882,0.2465 -2.33264,1.20632 -0.41625,1.03982 -0.71334,1.48545 -2.08778,1.73847 z"
   fill="#572142"
   id="path8881"
   style="stroke-width:0.999998" /><g
   opacity="0.05"
   id="g8891"
   transform="matrix(0.16323592,0,0,0.16323592,60.562661,143.14129)"
   style="stroke-width:6.1261"><path
     d="m 458.82,342.65 c 54,41.46 81.52,108.31 85.35,118.11 7.45,1.22 12.47,2.22 12.47,2.22 0,0 -27.45,-74.51 -85.82,-119.34 A 105.6,105.6 0 0 0 417.43,322 c -2.72,-0.28 -5.28,-0.42 -7.73,-0.46 a 106.15,106.15 0 0 1 49.12,21.11 z"
     transform="translate(-40.58,-7.48)"
     id="path8883"
     style="stroke-width:6.1261" /><path
     d="m 293.14,342.48 c 5.13,19.64 19.48,36.82 31.31,53.32 l 15.19,21.2 3.14,-11.36 -6.32,-8.82 c -11.83,-16.5 -26.18,-33.68 -31.31,-53.32 -1.33,-5.1 -0.85,-4 -4,-4 a 33.21,33.21 0 0 0 -8.3,1.86 z"
     transform="translate(-40.58,-7.48)"
     id="path8885"
     style="stroke-width:6.1261" /><path
     d="m 475.32,456.78 c 3.25,4.88 5.32,8.2 5.32,8.2 -1.75,-7.85 12.5,-9.23 29.11,-8.3 -13.03,-1.38 -26.56,-1.97 -34.43,0.1 z"
     transform="translate(-40.58,-7.48)"
     id="path8887"
     style="stroke-width:6.1261" /><path
     d="m 436.47,421.21 c -4.73,-4.45 -8.72,-6.6 -10.83,-4.22 -8,9 17,128 17,128 L 290,556.16 l 0.69,1.83 164,-12 c 0,0 -21.81,-103.62 -18.22,-124.78 z"
     transform="translate(-40.58,-7.48)"
     id="path8889"
     style="stroke-width:6.1261" /></g><path
   d="m 100.44936,249.53683 c -1.562172,1.29282 -5.997289,4.39105 -11.473856,3.21738 -5.476567,-1.17367 -0.879843,-3.78708 1.212844,-4.8073 a 0.81617963,0.81617963 0 0 0 0.27913,-1.25039 22.740396,22.740396 0 0 0 -4.103745,-3.89644 c -1.330374,-0.97941 -2.938249,-2.74237 -4.325752,-4.43512 v 0 c -0.732932,-0.88637 -1.405463,-1.75152 -1.958835,-2.47792 a 0.81617963,0.81617963 0 0 1 0.870049,-1.28467 l 10.701745,2.9056 a 0.81617963,0.81617963 0 0 1 0.424413,0.27914 l 3.517738,4.39594 4.970529,6.21275 a 0.81617963,0.81617963 0 0 1 -0.11426,1.14103 z"
   fill="#ef91a3"
   id="path8893"
   style="stroke-width:0.999998" /><path
   d="m 95.597986,242.17815 c -8.930635,-6.51311 -12.301462,-5.34924 -13.560005,-3.81808 -0.732932,-0.88638 -1.405463,-1.75153 -1.958835,-2.47793 a 0.81617963,0.81617963 0 0 1 0.870049,-1.28467 l 10.701745,2.9056 a 0.81617963,0.81617963 0 0 1 0.424413,0.27914 z"
   opacity="0.1"
   id="path8895"
   style="stroke-width:0.999998" /><path
   d="m 88.159326,222.06912 c 0,0 -14.364761,-4.73385 -12.079461,5.22355 2.285306,9.95739 5.223549,12.40593 5.223549,12.40593 0,0 0.816185,-7.83532 14.691237,2.44854 l -4.897077,-7.83533 5.713255,-7.18238 z"
   fill="#5d526e"
   id="path8897"
   style="stroke-width:0.999998" /><path
   d="m 84.731369,213.09114 c 0,0 -1.305885,6.85591 3.427957,15.18095 3.754427,6.59963 -0.701914,9.60806 -2.708084,10.57279 a 1.4152554,1.4152554 0 0 1 -1.607875,-0.26934 c -1.322209,-1.30589 -3.857262,-4.62611 -2.376717,-9.81375 l 0.97942,-2.61178 -5.386791,-3.91766 c 0,0 -1.457691,-5.40473 -0.816178,-6.62085 0.641519,-1.2161 5.876498,-4.47919 5.876498,-4.47919 z"
   opacity="0.1"
   id="path8899"
   style="stroke-width:0.999998" /><path
   d="m 84.731369,212.76467 c 0,0 -1.305885,6.85591 3.427957,15.18094 3.754427,6.59963 -0.701914,9.60807 -2.708084,10.57279 a 1.4152554,1.4152554 0 0 1 -1.607875,-0.26934 c -1.322209,-1.30588 -3.857262,-4.6261 -2.376717,-9.81374 l 0.97942,-2.61177 -5.386791,-3.91767 c 0,0 -1.457691,-5.40474 -0.816178,-6.62084 0.641519,-1.21612 5.876498,-4.4792 5.876498,-4.4792 z"
   fill="#ef91a3"
   id="path8901"
   style="stroke-width:0.999998" /><path
   d="m 96.647594,199.7058 c 0,0 -11.752989,6.69267 -16.650066,11.10004 -4.897077,4.40737 -3.917663,5.87649 -3.917663,5.87649 0,0 4.733841,-8.81474 8.81474,-1.14264 0,0 11.426518,-8.32504 14.527996,-4.73385 3.101489,3.59119 -2.775007,-11.10004 -2.775007,-11.10004 z"
   fill="#dfecfb"
   id="path8903"
   style="stroke-width:0.999998" /><polygon
   points="203.58,596.97 194.06,582.5 254.06,570.5 247.06,601.5 "
   fill="#5d526e"
   id="polygon8905"
   transform="matrix(0.16323592,0,0,0.16323592,60.562661,143.14129)"
   style="stroke-width:6.1261" /><path
   d="m 109.21676,216.68233 -0.32647,3.5912 -11.752989,-1.95884 -3.591191,-2.2853 -5.386784,-1.95883 a 9.3746392,9.3746392 0 0 0 0.285659,-5.45861 8.2858553,8.2858553 0 0 0 -0.938602,-2.21348 c -2.285306,-3.75442 9.630918,-2.12207 9.630918,-2.12207 a 15.758796,15.758796 0 0 0 -0.179559,2.55791 c 0.0245,2.72767 0.79659,6.57188 5.076638,5.93036 l 3.59119,2.12207 z"
   fill="#ffc1cd"
   id="path8907"
   style="stroke-width:0.999998" /><path
   d="m 97.627008,211.62202 c 0,0 6.039732,-2.61177 8.977972,2.77501 2.93825,5.38679 4.24414,5.06032 4.24414,5.06032 l -5.87649,-3.75443 z"
   fill="#ffc1cd"
   id="path8909"
   style="stroke-width:0.999998" /><path
   d="m 102.68732,238.88242 c 0,0 -4.570605,3.75443 -1.95883,8.48827 2.61177,4.73384 18.93537,3.91766 18.93537,3.91766 0,0 -10.36222,-3.89317 -7.79288,-16.96511 0,-0.002 -7.38806,2.11064 -9.18366,4.55918 z"
   fill="#5f5470"
   id="path8911"
   style="stroke-width:0.999998" /><path
   d="m 124.39769,244.43244 -1.63235,6.20297 5.71325,-1.14266 c 0,0 -2.44854,-5.22355 -2.12207,-6.69267 0.32647,-1.46912 -1.95883,1.63236 -1.95883,1.63236 z"
   fill="#5f5470"
   id="path8913"
   style="stroke-width:0.999998" /><path
   d="m 128.9683,236.92359 c 0,0 14.85447,1.46912 18.93537,3.75442 l 3.10148,0.97942 c 0,0 1.14265,-0.32647 3.59119,1.7956 l 12.73239,2.93824 9.79417,1.95883 c 0,0 8.97798,1.63237 9.63092,1.30589 0.65294,-0.32647 5.06031,2.44854 0.81618,3.75442 -4.24414,1.3059 -13.05888,-0.65294 -13.05888,-0.65294 0,0 -6.52943,-0.81618 -7.99856,-0.32647 -1.46913,0.48971 -11.42651,-0.97941 -11.42651,-0.97941 l -9.79415,0.65294 c 0,0 -1.63237,-2.44854 -5.87651,-1.63236 -3.02802,0.58275 -8.30217,-0.32647 -11.07392,-0.90269 a 2.7554224,2.7554224 0 0 1 -2.15471,-2.19879 l -0.97941,-5.22355 z"
   fill="#ffc1cd"
   id="path8915"
   style="stroke-width:0.999998" /><path
   d="m 128.9683,236.92359 c 0,0 14.85447,1.46912 18.93537,3.75442 l 3.10148,0.97942 c 0,0 1.14265,-0.32647 3.59119,1.7956 l 12.73239,2.93824 9.79417,1.95883 c 0,0 8.97798,1.63237 9.63092,1.30589 0.65294,-0.32647 5.06031,2.44854 0.81618,3.75442 -4.24414,1.3059 -13.05888,-0.65294 -13.05888,-0.65294 0,0 -6.52943,-0.81618 -7.99856,-0.32647 -1.46913,0.48971 -11.42651,-0.97941 -11.42651,-0.97941 l -9.79415,0.65294 c 0,0 -1.63237,-2.44854 -5.87651,-1.63236 -3.02802,0.58275 -8.30217,-0.32647 -11.07392,-0.90269 a 2.7554224,2.7554224 0 0 1 -2.15471,-2.19879 l -0.97941,-5.22355 z"
   opacity="0.05"
   id="path8917"
   style="stroke-width:0.999998" /><path
   d="m 96.957742,206.83105 a 8.9942989,8.9942989 0 0 1 -8.512757,1.77763 8.2858553,8.2858553 0 0 0 -0.938602,-2.21021 c -2.285306,-3.75442 9.630918,-2.12207 9.630918,-2.12207 a 15.758796,15.758796 0 0 0 -0.179559,2.55465 z"
   opacity="0.1"
   id="path8919"
   style="stroke-width:0.999998" /><circle
   cx="91.097572"
   cy="199.70255"
   fill="#ffc1cd"
   id="circle8921"
   r="8.9779758"
   style="stroke-width:0.999998" /><path
   d="m 87.343147,212.92791 c 0,0 6.855905,3.75442 7.182376,6.20296 0.326472,2.44854 -0.979413,5.38679 -0.979413,5.38679 0,0 3.101484,18.60889 7.01915,19.91478 l 10.4471,-10.12063 8.81473,-3.91766 c 0,0 -5.22355,-0.32647 -5.71325,-5.22355 -0.48971,-4.89707 0.65294,-6.52943 -5.22355,-8.81474 -5.8765,-2.2853 -9.0596,-4.97869 -9.0596,-4.97869 l -1.518092,0.38361 7.802682,4.10537 c 0,0 4.40736,2.61178 -7.01915,0.65295 l -10.773569,-3.91767 z"
   opacity="0.1"
   id="path8923"
   style="stroke-width:0.999998" /><path
   d="m 87.179911,212.60143 c 0,0 6.855906,3.75443 7.182377,6.20297 0.326471,2.44854 -0.979414,5.38679 -0.979414,5.38679 0,0 3.101484,18.60889 7.019146,19.91478 l 10.4471,-10.12063 8.81474,-3.91766 c 0,0 -5.22355,-0.32647 -5.71325,-5.22355 -0.48971,-4.89708 0.65293,-6.52944 -5.22356,-8.81474 -5.87649,-2.2853 -9.059596,-4.97869 -9.059596,-4.97869 l -1.518092,0.38359 7.802678,4.1054 c 0,0 4.40737,2.61176 -7.019146,0.65294 l -10.773568,-3.91766 z"
   fill="#ff808c"
   id="path8925"
   style="stroke-width:0.999998" /><path
   d="m 89.628447,213.90733 c 0,0 -6.69267,-2.44854 -5.060313,5.38678 1.632357,7.83532 10.120625,21.3839 10.120625,21.3839 l 19.914781,-6.8559 c 0,0 6.20296,-4.73384 4.57061,-5.22355 -1.63237,-0.48971 -10.28386,2.61177 -10.28386,2.61177 l -11.752989,1.7956 -2.775013,-7.83533 c 0,0 2.611777,-1.79559 1.795599,-4.08089 l -0.0245,-0.0685 a 12.626299,12.626299 0 0 0 -6.243775,-6.98323 z"
   opacity="0.1"
   id="path8927"
   style="stroke-width:0.999998" /><path
   d="m 89.301976,213.58084 c 0,0 -6.69267,-2.44853 -5.060313,5.3868 1.632357,7.83532 10.120625,21.3839 10.120625,21.3839 l 19.914782,-6.85591 c 0,0 6.20297,-4.73384 4.57061,-5.22354 -1.63236,-0.48971 -10.28387,2.61177 -10.28387,2.61177 l -11.752981,1.79559 -2.775012,-7.83532 c 0,0 2.611777,-1.79559 1.795599,-4.0809 l -0.0245,-0.0685 a 12.626299,12.626299 0 0 0 -6.243774,-6.98324 z"
   fill="#ffc1cd"
   id="path8929"
   style="stroke-width:0.999998" /><path
   d="m 89.925535,186.82811 c -0.780266,-0.19261 -1.588286,-0.33789 -2.38814,-0.24975 a 7.0077178,7.0077178 0 0 0 -2.172671,0.69376 20.794624,20.794624 0 0 0 -3.139026,1.81355 c -0.667637,0.46685 -1.320579,0.97942 -2.089417,1.24876 -1.154079,0.39992 -2.489346,0.21383 -3.552014,0.81617 -1.490345,0.8423 -1.823346,2.86153 -1.602975,4.55919 0.220365,1.69765 0.816179,3.38877 0.555001,5.07989 -0.39993,2.53016 -2.595453,4.32739 -4.609782,5.90751 -0.63499,0.48971 -1.315686,1.08226 -1.413627,1.88211 -0.06042,0.50113 0.12243,0.99411 0.275872,1.46913 a 12.533254,12.533254 0 0 1 -0.125695,8.07527 11.287764,11.287764 0 0 1 -5.277413,6.07728 c -0.927185,0.4897 -2.050247,0.97942 -2.267347,2.00127 -0.275872,1.30589 1.123062,2.30326 2.366918,2.76359 a 16.475401,16.475401 0 0 0 3.134131,0.81618 c 0.940238,0.14854 1.945769,0.20731 2.804395,-0.20568 0.999003,-0.47992 1.607869,-1.49851 2.135123,-2.47139 2.055141,-3.7936 4.570606,-5.65287 5.907509,-9.75661 0.287295,-0.88474 0.744355,-1.93762 1.669904,-2.02739 0.579484,-0.0555 1.103474,0.30851 1.59481,0.61865 2.375089,1.49688 4.870966,-0.18118 7.081177,-1.90985 0.510931,-0.39993 0.950032,-0.9027 1.518092,-1.21447 1.20958,-0.66438 2.972532,-0.47339 3.697298,-1.64869 a 3.2647184,3.2647184 0 0 0 0.347689,-0.99083 c 0.297089,-1.27651 0.594178,-2.61179 0.251383,-3.88176 -0.318307,-1.1704 -1.14265,-2.12207 -1.632357,-3.24023 -0.489707,-1.11817 -0.515825,-2.62646 0.481548,-3.31533 0.298719,-0.2073 0.652943,-0.31341 0.953297,-0.52725 0.856984,-0.62192 0.876573,-1.86415 0.871678,-2.92355 a 1.5572706,1.5572706 0 0 1 0.130589,-0.76558 1.836404,1.836404 0 0 1 0.603972,-0.555 c 0.902696,-0.63662 1.744992,-1.58828 2.133494,-2.63626 0.432577,-1.16714 -0.675796,-1.69439 -1.560534,-2.3506 a 18.904352,18.904352 0 0 0 -6.682882,-3.15209 z"
   opacity="0.1"
   id="path8931"
   style="stroke-width:0.999998" /><path
   d="m 89.7623,186.66488 c -0.780267,-0.19262 -1.588286,-0.33789 -2.388141,-0.24975 a 7.0077178,7.0077178 0 0 0 -2.172671,0.69375 20.794624,20.794624 0 0 0 -3.139025,1.81355 c -0.667637,0.46686 -1.32058,0.97942 -2.089417,1.24876 -1.154079,0.39992 -2.489348,0.21383 -3.552015,0.81618 -1.490345,0.8423 -1.823345,2.86152 -1.60298,4.55918 0.22037,1.69765 0.816184,3.38877 0.555006,5.0799 -0.39993,2.53016 -2.595453,4.32738 -4.609781,5.90751 -0.634991,0.4897 -1.315686,1.08225 -1.413627,1.88211 -0.06042,0.50113 0.122429,0.9941 0.275871,1.46912 a 12.533254,12.533254 0 0 1 -0.125695,8.07528 11.287764,11.287764 0 0 1 -5.277413,6.07728 c -0.927185,0.4897 -2.050247,0.97941 -2.267347,2.00126 -0.275872,1.3059 1.123062,2.30327 2.366918,2.76359 a 16.475401,16.475401 0 0 0 3.134131,0.81619 c 0.940238,0.14854 1.94577,0.2073 2.80439,-0.20569 0.999008,-0.47991 1.607874,-1.49851 2.135129,-2.47139 2.05514,-3.79361 4.570605,-5.65286 5.907509,-9.75662 0.287295,-0.88473 0.744355,-1.9376 1.669904,-2.02738 0.579484,-0.0555 1.103473,0.30852 1.59481,0.61866 2.375082,1.49688 4.870965,-0.18119 7.081176,-1.90986 0.510932,-0.39993 0.950032,-0.90269 1.518093,-1.21447 1.209579,-0.66437 2.972531,-0.47338 3.697298,-1.64868 a 3.2647184,3.2647184 0 0 0 0.347688,-0.99085 c 0.297089,-1.27651 0.594178,-2.61177 0.251383,-3.88174 -0.318306,-1.1704 -1.142649,-2.12208 -1.632357,-3.24024 -0.489707,-1.11816 -0.515825,-2.62646 0.481548,-3.31532 0.298719,-0.20731 0.652944,-0.31341 0.953297,-0.52725 0.856984,-0.62194 0.876572,-1.86416 0.871679,-2.92356 a 1.5572706,1.5572706 0 0 1 0.130589,-0.76557 1.836404,1.836404 0 0 1 0.603971,-0.555 c 0.902697,-0.63662 1.744993,-1.5883 2.133494,-2.63627 0.432578,-1.16714 -0.675796,-1.69439 -1.560533,-2.35059 A 18.904352,18.904352 0 0 0 89.7623,186.66488 Z"
   fill="#b46d86"
   id="path8933"
   style="stroke-width:0.999998" /><path
   d="m 165.778,258.22261 c -4.43185,0.93534 -17.36341,0.53869 -19.26183,-0.97942 -2.90561,-2.32447 -2.19064,-4.38941 -1.99802,-4.81545 h -0.0425 c 0,0 1.63236,-3.91767 0,-6.85591 0,0 -0.16323,-3.59119 -3.59119,-6.36621 -3.42795,-2.775 -7.18238,-10.61032 -7.18238,-10.61032 l -1.95883,4.08089 c 0,0 -2.93825,8.96002 -5.99892,12.93808 a 6.3417154,6.3417154 0 0 0 -1.21447,2.69176 c -0.20242,1.079 -0.90107,2.43874 -3.07047,2.81582 l -0.11264,0.0195 a 8.093237,8.093237 0 0 1 -7.99856,-3.39693 c -1.46911,-2.10411 -3.11617,-5.02277 -3.48998,-7.86797 a 6.9163057,6.9163057 0 0 1 1.60135,-5.36557 l 0.018,-0.0212 c 3.5112,-4.15436 15.70166,-18.44403 17.65396,-19.27653 0,0 8.81474,-8.48827 12.24269,2.93825 3.42795,11.42651 4.57061,14.85447 4.57061,14.85447 0,0 4.09885,7.32113 5.22354,9.79416 1.16224,2.55627 5.99729,8.93227 6.48863,9.57705 0.4489,0.30688 4.76976,3.23696 6.16216,3.23696 0.6154,-0.003 5.15173,1.93435 1.95883,2.60851 z"
   fill="#ffc1cd"
   id="path8935"
   style="stroke-width:0.999998" /><g
   opacity="0.05"
   id="g8939"
   transform="matrix(0.16323592,0,0,0.16323592,60.562661,143.14129)"
   style="stroke-width:6.1261"><path
     d="m 558.73,649.07 c 0.85,-7.77 0.39,-17 -4.09,-25.09 0,0 -1,-22 -22,-39 -21,-17 -44,-65 -44,-65 l -12,25 c 0,0 -18,54.89 -36.75,79.26 a 38.85,38.85 0 0 0 -7.44,16.49 c -1.24,6.61 -5.52,14.94 -18.81,17.25 l -0.69,0.12 a 49.58,49.58 0 0 1 -49,-20.81 C 355.1,624.55 345.1,606.91 342.66,589.67 a 41.52,41.52 0 0 0 -0.09,11.42 c 2.29,17.42 12.43,35.31 21.38,48.2 a 49.58,49.58 0 0 0 49,20.81 l 0.69,-0.12 c 13.29,-2.31 17.57,-10.64 18.81,-17.25 a 38.85,38.85 0 0 1 7.44,-16.49 C 458.6,611.87 476.64,557 476.64,557 l 12,-25 c 0,0 23,48 44,65 21,17 22,39 22,39 a 35.73,35.73 0 0 1 4.09,13.07 z"
     transform="translate(-40.58,-7.48)"
     id="path8937"
     style="stroke-width:6.1261" /></g><path
   d="m 102.6057,226.71808 c 0,0 7.01915,-0.16324 6.52944,-2.44854"
   opacity="0.05"
   id="path8941"
   style="stroke-width:0.999998" /><path
   d="m 82.477081,252.07025 a 54.194326,54.194326 0 0 1 18.834159,1.81519 c 2.3604,0.65293 4.73384,1.48544 7.18238,1.41525 3.00518,-0.0865 5.78181,-1.50667 8.55193,-2.67544 4.36819,-1.84457 9.0955,-3.13902 13.81792,-2.70971 8.69068,0.78843 16.33665,7.26073 25.05834,6.962 7.47458,-0.25464 14.18357,-5.49615 21.65978,-5.34107 5.07337,0.10447 9.7762,2.69666 14.80713,3.36103 6.45761,0.85208 12.89564,-1.51157 19.39406,-1.7956 a 30.75528,30.75528 0 0 1 16.17832,3.79687 c 3.57486,1.98005 7.10402,5.84221 5.69693,9.67825 -0.4293,1.17041 -1.29772,2.21185 -1.35159,3.45734 -0.1208,2.77501 3.4557,3.95031 5.23987,6.07564 2.19552,2.61178 1.30589,6.91631 -1.27487,9.15101 -2.58076,2.2347 -6.31233,2.69829 -9.68152,2.13839 -3.3692,-0.5599 -6.51149,-2.0078 -9.70112,-3.22554 a 74.226634,74.226634 0 0 0 -18.86681,-4.48899 c -4.46614,-0.45869 -9.00736,-0.50929 -13.41799,0.32647 -3.30227,0.62356 -6.49679,1.7352 -9.79415,2.3457 -16.49663,3.04761 -32.80063,-6.58331 -49.56986,-6.51801 -4.71261,0.0195 -9.38116,0.80639 -14.06114,1.36466 -14.506773,1.72866 -29.175152,1.24711 -43.778236,0.76394 -1.477286,-0.0489 -3.075367,-0.14202 -4.211487,-1.08878 -2.12207,-1.77275 -1.305885,-5.20886 0,-7.64434 2.141653,-3.97153 5.060313,-7.39459 7.244413,-11.31062 2.370182,-4.22454 7.512113,-5.49289 12.043541,-5.85364 z"
   fill="#ffc0fc"
   id="path8943"
   style="stroke-width:0.999998" /><circle
   cx="190.7531"
   cy="170.07523"
   fill="#ffc0fc"
   opacity="0.1"
   id="circle8945"
   r="11.263279"
   style="stroke-width:0.999998" /><path
   d="m 195.13761,220.94279 c 0,0 -11.03964,6.66003 9.30446,16.9145 0,0 4.48245,-8.32502 -0.4734,-15.11074 a 6.6828787,6.6828787 0 0 0 -8.66782,-1.90006 z"
   fill="#ffc0fc"
   id="path8947"
   style="stroke-width:0.999998" /><path
   d="m 195.26167,220.80241 c 0,0 9.4481,7.22808 9.1804,17.05488"
   fill="none"
   stroke="#535461"
   stroke-miterlimit="10"
   id="path8949"
   style="stroke-width:0.999998" /><path
   d="m 203.83645,237.81485 c 0,0 -3.45897,-11.75298 0.65295,-20.38979 a 18.551762,18.551762 0 0 0 1.50014,-11.63872 31.199281,31.199281 0 0 0 -1.64706,-5.46188"
   fill="none"
   stroke="#535461"
   stroke-miterlimit="10"
   stroke-width="0.999998"
   id="path8951" /><path
   d="m 206.8906,194.86259 c 0,1.43974 -2.61178,5.61368 -2.61178,5.61368 0,0 -2.61177,-4.17394 -2.61177,-5.61368 a 2.6117747,2.6117747 0 1 1 5.21212,0 z"
   fill="#ffc0fc"
   id="path8953"
   style="stroke-width:0.999998" /><path
   d="m 211.20166,202.83503 c -0.7819,1.20795 -5.23824,3.29574 -5.23824,3.29574 0,0 0.0816,-4.91993 0.86352,-6.12788 a 2.6117747,2.6117747 0 0 1 4.37472,2.83377 z"
   fill="#ffc0fc"
   id="path8955"
   style="stroke-width:0.999998" /><path
   d="m 211.01394,216.46033 c -1.28467,0.65295 -6.18501,0.20078 -6.18501,0.20078 0,0 2.55137,-4.20659 3.83767,-4.85463 a 2.6117747,2.6117747 0 0 1 2.34734,4.65385 z"
   fill="#ffc0fc"
   id="path8957"
   style="stroke-width:0.999998" /><path
   d="m 208.55071,226.73766 c -1.15735,0.85537 -6.06259,1.24223 -6.06259,1.24223 0,0 1.8054,-4.57061 2.96273,-5.43413 a 2.6117747,2.6117747 0 0 1 3.10148,4.19028 z"
   fill="#ffc0fc"
   id="path8959"
   style="stroke-width:0.999998" /><path
   d="m 200.49175,206.40989 c 1.03165,1.00228 5.84221,2.04209 5.84221,2.04209 0,0 -1.17856,-4.77792 -2.21021,-5.78019 a 2.6117747,2.6117747 0 1 0 -3.632,3.7381 z"
   fill="#ffc0fc"
   id="path8961"
   style="stroke-width:0.999998" /><path
   d="m 197.76245,218.46487 c 1.28466,0.65295 6.185,0.20078 6.185,0.20078 0,0 -2.55301,-4.20658 -3.83931,-4.85464 a 2.6117747,2.6117747 0 1 0 -2.34733,4.65386 z"
   fill="#ffc0fc"
   id="path8963"
   style="stroke-width:0.999998" /><path
   d="m 196.71774,230.54596 c 1.15734,0.85535 6.06257,1.24222 6.06257,1.24222 0,0 -1.80538,-4.5706 -2.96273,-5.43411 a 2.6117747,2.6117747 0 1 0 -3.10148,4.19026 z"
   fill="#ffc0fc"
   id="path8965"
   style="stroke-width:0.999998" /><path
   d="m 206.8906,194.86259 c 0,1.43974 -2.61178,5.61368 -2.61178,5.61368 0,0 -2.61177,-4.17394 -2.61177,-5.61368 a 2.6117747,2.6117747 0 1 1 5.21212,0 z"
   opacity="0.25"
   id="path8967"
   style="stroke-width:0.999998" /><path
   d="m 211.20166,202.83503 c -0.7819,1.20795 -5.23824,3.29574 -5.23824,3.29574 0,0 0.0816,-4.91993 0.86352,-6.12788 a 2.6117747,2.6117747 0 0 1 4.37472,2.83377 z"
   opacity="0.25"
   id="path8969"
   style="stroke-width:0.999998" /><path
   d="m 211.01394,216.46033 c -1.28467,0.65295 -6.18501,0.20078 -6.18501,0.20078 0,0 2.55137,-4.20659 3.83767,-4.85463 a 2.6117747,2.6117747 0 0 1 2.34734,4.65385 z"
   opacity="0.25"
   id="path8971"
   style="stroke-width:0.999998" /><path
   d="m 208.55071,226.73766 c -1.15735,0.85537 -6.06259,1.24223 -6.06259,1.24223 0,0 1.8054,-4.57061 2.96273,-5.43413 a 2.6117747,2.6117747 0 0 1 3.10148,4.19028 z"
   opacity="0.25"
   id="path8973"
   style="stroke-width:0.999998" /><path
   d="m 200.49175,206.40989 c 1.03165,1.00228 5.84221,2.04209 5.84221,2.04209 0,0 -1.17856,-4.77792 -2.21021,-5.78019 a 2.6117747,2.6117747 0 1 0 -3.632,3.7381 z"
   opacity="0.25"
   id="path8975"
   style="stroke-width:0.999998" /><path
   d="m 197.76245,218.46487 c 1.28466,0.65295 6.185,0.20078 6.185,0.20078 0,0 -2.55301,-4.20658 -3.83931,-4.85464 a 2.6117747,2.6117747 0 1 0 -2.34733,4.65386 z"
   opacity="0.25"
   id="path8977"
   style="stroke-width:0.999998" /><path
   d="m 196.71774,230.54596 c 1.15734,0.85535 6.06257,1.24222 6.06257,1.24222 0,0 -1.80538,-4.5706 -2.96273,-5.43411 a 2.6117747,2.6117747 0 1 0 -3.10148,4.19026 z"
   opacity="0.25"
   id="path8979"
   style="stroke-width:0.999998" /><path
   d="m 213.80037,241.79291 c 0,0 -3.45896,-11.75298 0.65295,-20.38979 a 18.551762,18.551762 0 0 0 1.50013,-11.63872 31.199281,31.199281 0 0 0 -1.64704,-5.46188"
   fill="none"
   stroke="#535461"
   stroke-miterlimit="10"
   stroke-width="0.999998"
   id="path8981" /><path
   d="m 216.85778,198.84064 c 0,1.43975 -2.61177,5.61369 -2.61177,5.61369 0,0 -2.61178,-4.17394 -2.61178,-5.61369 a 2.6117747,2.6117747 0 0 1 5.21213,0 z"
   fill="#ffc0fc"
   id="path8983"
   style="stroke-width:0.999998" /><path
   d="m 221.16558,206.81309 c -0.7819,1.20794 -5.23824,3.29573 -5.23824,3.29573 0,0 0.0816,-4.91993 0.86352,-6.12788 a 2.6117747,2.6117747 0 1 1 4.37472,2.83378 z"
   fill="#ffc0fc"
   id="path8985"
   style="stroke-width:0.999998" /><path
   d="m 220.97785,220.43676 c -1.28466,0.65295 -6.185,0.20078 -6.185,0.20078 0,0 2.55301,-4.20659 3.83931,-4.85464 a 2.6117747,2.6117747 0 1 1 2.34569,4.65386 z"
   fill="#ffc0fc"
   id="path8987"
   style="stroke-width:0.999998" /><path
   d="m 218.513,230.72062 c -1.15735,0.85536 -6.06258,1.24223 -6.06258,1.24223 0,0 1.80538,-4.57061 2.96273,-5.43412 a 2.6117747,2.6117747 0 0 1 3.10148,4.19026 z"
   fill="#ffc0fc"
   id="path8989"
   style="stroke-width:0.999998" /><path
   d="m 210.45404,210.38796 c 1.03165,1.00227 5.84221,2.04208 5.84221,2.04208 0,0 -1.17856,-4.77792 -2.21021,-5.78018 a 2.6117747,2.6117747 0 1 0 -3.632,3.7381 z"
   fill="#ffc0fc"
   id="path8991"
   style="stroke-width:0.999998" /><path
   d="m 207.72636,222.44293 c 1.28467,0.65294 6.18501,0.20078 6.18501,0.20078 0,0 -2.553,-4.20659 -3.8393,-4.85464 a 2.6117747,2.6117747 0 0 0 -2.34734,4.65386 z"
   fill="#ffc0fc"
   id="path8993"
   style="stroke-width:0.999998" /><path
   d="m 206.68165,234.52402 c 1.15735,0.85535 6.06259,1.24223 6.06259,1.24223 0,0 -1.80539,-4.57061 -2.96274,-5.43413 a 2.6117747,2.6117747 0 1 0 -3.10148,4.19027 z"
   fill="#ffc0fc"
   id="path8995"
   style="stroke-width:0.999998" /><path
   d="m 144.87401,164.2934 h -0.96473 a 0.67579887,0.67579887 0 1 0 0,-1.35159 h -7.81573 a 0.67579887,0.67579887 0 1 0 0,1.35159 h 0.96472 a 0.6758,0.6758 0 1 0 0,1.3516 h -1.35159 a 0.67579671,0.67579671 0 1 0 0,1.35159 h 7.81573 a 0.67579671,0.67579671 0 1 0 0,-1.35159 h 1.3516 a 0.6758,0.6758 0 0 0 0,-1.3516 z"
   fill="#ffc0fc"
   opacity="0.1"
   id="path8997"
   style="stroke-width:0.999998" /><path
   d="m 204.78159,178.00522 h -0.96472 a 0.6758,0.6758 0 1 0 0,-1.3516 h -7.81574 a 0.6758,0.6758 0 1 0 0,1.3516 h 0.96472 a 0.67579671,0.67579671 0 1 0 0,1.35159 h -1.35159 a 0.67579671,0.67579671 0 1 0 0,1.35159 H 203.43 a 0.67579671,0.67579671 0 1 0 0,-1.35159 h 1.35159 a 0.67579671,0.67579671 0 0 0 0,-1.35159 z"
   fill="#ffc0fc"
   opacity="0.1"
   id="path8999"
   style="stroke-width:0.999998" /><path
   d="m 153.85198,182.08612 h -0.96472 a 0.6758,0.6758 0 1 0 0,-1.3516 h -7.81574 a 0.6758,0.6758 0 1 0 0,1.3516 h 0.96473 a 0.67579671,0.67579671 0 1 0 0,1.35159 h -1.3516 a 0.67579671,0.67579671 0 1 0 0,1.35159 h 7.81574 a 0.67579671,0.67579671 0 1 0 0,-1.35159 h 1.35159 a 0.67579671,0.67579671 0 0 0 0,-1.35159 z"
   fill="#ffc0fc"
   opacity="0.1"
   id="path9001"
   style="stroke-width:0.999998" /><text
   xml:space="preserve"
   style="font-size:29.3333px;line-height:1.25;font-family:'Noto Sans JP';-inkscape-font-specification:'Noto Sans JP'"
   x="111.73942"
   y="83.387627"
   id="text9908"><tspan
     sodipodi:role="line"
     id="tspan9906"
     x="111.73942"
     y="83.387627"
     style="font-style:normal;font-variant:normal;font-weight:bold;font-stretch:normal;font-size:29.3333px;font-family:Mamelon;-inkscape-font-specification:Mamelon;fill:#ffffff">下ネタ</tspan></text></svg>
