<?xml version="1.0" encoding="UTF-8" standalone="no"?>
<svg
   xmlns:dc="http://purl.org/dc/elements/1.1/"
   xmlns:cc="http://creativecommons.org/ns#"
   xmlns:rdf="http://www.w3.org/1999/02/22-rdf-syntax-ns#"
   xmlns:svg="http://www.w3.org/2000/svg"
   xmlns="http://www.w3.org/2000/svg"
   xmlns:xlink="http://www.w3.org/1999/xlink"
   xmlns:sodipodi="http://sodipodi.sourceforge.net/DTD/sodipodi-0.dtd"
   xmlns:inkscape="http://www.inkscape.org/namespaces/inkscape"
   version="1.1"
   id="_x34_"
   x="0px"
   y="0px"
   viewBox="0 0 300 300"
   xml:space="preserve"
   sodipodi:docname="cool.svg"
   width="300"
   height="300"
   inkscape:version="1.0.1 (c497b03c, 2020-09-10)"><metadata
   id="metadata882"><rdf:RDF><cc:Work
       rdf:about=""><dc:format>image/svg+xml</dc:format><dc:type
         rdf:resource="http://purl.org/dc/dcmitype/StillImage" /><dc:title /></cc:Work></rdf:RDF></metadata><defs
   id="defs880"><clipPath
     clipPathUnits="userSpaceOnUse"
     id="clipPath900"><rect
       style="fill:#ffe6d5;fill-opacity:0.414925;stroke-width:1"
       id="rect902"
       width="361.06839"
       height="630.4104"
       x="-21.348534"
       y="-20.013029" /></clipPath><linearGradient
     id="5a1f6f01-7714-46af-aba4-b09e98a2a9e8"
     x1="368.48999"
     y1="311.39999"
     x2="368.48999"
     y2="311.39999"
     xlink:href="#8fdda24f-3500-4787-9acd-06391067bf0a"
     gradientTransform="matrix(6.1261027,0,0,6.1261027,-371.01314,-901.40272)" /><linearGradient
     id="8fdda24f-3500-4787-9acd-06391067bf0a"
     x1="373.64999"
     y1="193.72"
     x2="373.64999"
     y2="191.69"
     gradientUnits="userSpaceOnUse"><stop
       offset="0"
       stop-color="gray"
       stop-opacity="0.25"
       id="stop8822" /><stop
       offset="0.54"
       stop-color="gray"
       stop-opacity="0.12"
       id="stop8824" /><stop
       offset="1"
       stop-color="gray"
       stop-opacity="0.1"
       id="stop8826" /></linearGradient><linearGradient
     id="fba3f31e-455c-4283-9b41-fb0bd740b4d7"
     x1="450.66"
     y1="467.97"
     x2="450.66"
     y2="417.39999"
     xlink:href="#8fdda24f-3500-4787-9acd-06391067bf0a"
     gradientTransform="matrix(6.1261027,0,0,6.1261027,-579.03032,-939.74596)" /><linearGradient
     id="03abcd37-863a-4fdf-b76f-be25b3f5f7e8"
     x1="439.35999"
     y1="721.28998"
     x2="439.35999"
     y2="172.56"
     xlink:href="#8fdda24f-3500-4787-9acd-06391067bf0a"
     gradientTransform="translate(-40.580017,-7.4800083)" /><linearGradient
     id="7a137c36-2b0e-489c-9ead-72d7056953bc"
     x1="373.64999"
     y1="192.7"
     x2="373.64999"
     y2="190.66"
     xlink:href="#8fdda24f-3500-4787-9acd-06391067bf0a"
     gradientTransform="matrix(6.1261027,0,0,6.1261027,-579.03032,-939.74596)" /><linearGradient
     id="e02598f3-6440-4dab-b616-a11e89bded72"
     x1="698.5"
     y1="537.03003"
     x2="941.5"
     y2="537.03003"
     xlink:href="#a2a092df-2c92-4a00-bfa3-7775e0a35a00"
     gradientTransform="matrix(4.4171755,0,0,4.4171755,-675.57623,-1286.0291)" /><linearGradient
     id="a2a092df-2c92-4a00-bfa3-7775e0a35a00"
     x1="460.5"
     y1="532.56"
     x2="460.5"
     y2="81.559998"
     gradientUnits="userSpaceOnUse"><stop
       offset="0"
       stop-color="gray"
       stop-opacity="0.25"
       id="stop18998" /><stop
       offset="0.54"
       stop-color="gray"
       stop-opacity="0.12"
       id="stop19000" /><stop
       offset="1"
       stop-color="gray"
       stop-opacity="0.1"
       id="stop19002" /></linearGradient></defs><sodipodi:namedview
   pagecolor="#ffffff"
   bordercolor="#666666"
   borderopacity="1"
   objecttolerance="10"
   gridtolerance="10"
   guidetolerance="10"
   inkscape:pageopacity="0"
   inkscape:pageshadow="2"
   inkscape:window-width="2560"
   inkscape:window-height="1395"
   id="namedview878"
   showgrid="false"
   inkscape:zoom="1.6959514"
   inkscape:cx="235.99443"
   inkscape:cy="75.45082"
   inkscape:window-x="0"
   inkscape:window-y="23"
   inkscape:window-maximized="1"
   inkscape:current-layer="_x34_"
   inkscape:document-rotation="0" />

<g
   opacity="0.05"
   id="g8857"
   transform="matrix(0.16323592,0,0,0.16323592,60.562661,147.14129)"
   style="stroke-width:6.1261"><polygon
     points=""
     fill="url(#5a1f6f01-7714-46af-aba4-b09e98a2a9e8)"
     id="polygon8855"
     style="fill:url(#5a1f6f01-7714-46af-aba4-b09e98a2a9e8);stroke-width:6.1261" /></g><path
   d="m 233.51391,106.59802 c -2.40182,1.99972 -5.06708,3.45148 -7.94927,4.18803 -22.72284,5.80169 -29.35188,-9.07347 -88.28189,2.89462 a 129.50654,74.345552 0 0 1 -13.96779,2.36266 c -33.439628,4.42109 -48.386738,-3.23087 -53.075728,-9.44531 -1.90596,-2.52278 -2.1229,-4.8036 -1.19936,-5.95825 3.48962,-4.341031 0.30991,-11.418341 -6.33153,-31.700221 -6.64144,-20.28188 22.72284,-27.01227 45.557238,-30.19866 14.6341,-2.04064 21.76211,-4.84452 24.9945,-6.59517 a 38.922001,22.343873 0 0 1 13.05044,-4.72888 c 32.85081,-7.03639 48.80514,-0.71165 68.38546,8.25864 4.32329,1.97303 8.82633,4.09196 13.70747,6.20199 25.63292,11.10344 21.66293,50.93599 5.11046,64.720551 z"
   fill="#ff0000"
   opacity="0.27"
   style="isolation:isolate;fill:#0000ff;fill-opacity:1;stroke-width:0.999997"
   id="path857" /><text
   xml:space="preserve"
   style="font-size:29.3333px;line-height:1.25;font-family:'Noto Sans JP';-inkscape-font-specification:'Noto Sans JP'"
   x="86.524666"
   y="85.574417"
   id="text9908-7"><tspan
     sodipodi:role="line"
     x="86.524666"
     y="85.574417"
     style="font-style:normal;font-variant:normal;font-weight:bold;font-stretch:normal;font-size:29.3333px;font-family:Mamelon;-inkscape-font-specification:Mamelon;fill:#ffffff"
     id="tspan25460">かっこいい</tspan><tspan
     sodipodi:role="line"
     x="86.524666"
     y="122.24104"
     style="font-style:normal;font-variant:normal;font-weight:bold;font-stretch:normal;font-size:29.3333px;font-family:Mamelon;-inkscape-font-specification:Mamelon;fill:#ffffff"
     id="tspan22199" /></text><path
   d="m 196.27958,233.30801 c 0,0 18.63611,0.96349 14.29536,6.83009 -4.34074,5.86661 -15.74667,-3.44138 -15.74667,-3.44138 z"
   fill="#ffb8b8"
   id="path24771"
   style="stroke-width:0.999998" /><path
   d="m 161.93644,177.42952 3.79328,0.94832 c 0,0 2.21274,6.63823 3.79328,12.64426 1.58053,6.00602 4.7416,24.02411 4.7416,24.02411 l 24.50685,17.17504 -2.92294,6.53868 -32.64757,-12.86699 -7.27053,-28.54871 z"
   fill="#575a89"
   id="path24773"
   style="stroke-width:0.999998" /><polygon
   points="457.138,445.772 472.5,491.607 427.5,458.607 464.5,291.607 "
   opacity="0.2"
   id="polygon24775"
   transform="matrix(0.19204449,0,0,0.19204449,76.300814,133.21101)"
   style="stroke-width:5.20713" /><path
   d="m 170.62938,241.75721 c 0,0 4.10939,11.06374 4.7416,18.65029 0.63221,7.58656 1.26442,13.59258 1.26442,13.59258 h -19.28251 l -3.79327,-5.68991 v 5.68991 h -22.44358 c 0,0 -6.32212,-20.54692 -3.79327,-23.07578 2.52885,-2.52885 26.55296,-13.27647 26.55296,-13.27647 z"
   fill="#2f2e41"
   id="path24777"
   style="stroke-width:0.999998" /><rect
   x="95.793327"
   y="273.71204"
   width="111.57785"
   height="0.38408899"
   fill="#3f3d56"
   id="rect24779"
   style="stroke-width:0.999998" /><circle
   cx="146.44722"
   cy="153.40541"
   r="12.012052"
   fill="#ffb8b8"
   id="circle24781"
   style="stroke-width:0.999998" /><path
   d="m 137.28013,158.46312 -0.94832,13.90869 12.01205,16.12144 6.00602,-15.17312 c 0,0 -5.37381,-3.47717 -2.21273,-10.74762 z"
   fill="#ffb8b8"
   id="path24783"
   style="stroke-width:0.999998" /><path
   d="m 172.36722,244.44381 c 0,2.8461 -7.90263,7.27081 -7.90263,7.27081 v 1.58053 l -3.16105,1.58053 -6.95393,-13.90787 -1.89548,15.17151 c 0,0 -13.90979,2.21428 -18.33449,0 -4.42663,-2.21234 -6.63898,-1.26364 -12.96109,-3.476 -6.32209,-2.21235 2.52923,-31.9274 2.52923,-31.9274 l -6.3221,-45.83525 13.81183,-6.90592 0.72786,-0.36489 1.89932,-0.34952 2.91139,-0.53772 9.7309,6.57752 0.78354,4.10975 0.48203,2.52923 2.5273,-2.8461 1.90893,-6.27794 13.58138,7.54351 -3.79287,30.34495 c 0,0 10.42993,32.87609 10.42993,35.72027 z"
   fill="#575a89"
   id="path24785"
   style="stroke-width:0.999998" /><path
   d="m 125.9003,254.24342 c 0,0 14.5409,11.69595 7.58655,13.9087 -6.95434,2.21274 -10.74762,-12.01205 -10.74762,-12.01205 z"
   fill="#ffb8b8"
   id="path24787"
   style="stroke-width:0.999998" /><path
   d="m 120.52648,175.53288 -3.16107,-0.63221 c 0,0 -4.7416,2.52885 -5.05771,7.58655 -0.3161,5.05771 -4.42549,40.46166 -4.42549,40.46166 l 13.27647,35.72004 10.74764,-4.10939 -10.43152,-33.5073 7.90265,-29.08181 z"
   fill="#575a89"
   id="path24789"
   style="stroke-width:0.999998" /><circle
   cx="147.83739"
   cy="184.02724"
   r="1.152267"
   fill="#2f2e41"
   id="circle24791"
   style="stroke-width:0.999998" /><circle
   cx="147.83739"
   cy="191.51697"
   r="1.152267"
   fill="#2f2e41"
   id="circle24793"
   style="stroke-width:0.999998" /><circle
   cx="154.3669"
   cy="240.87242"
   r="1.152267"
   fill="#2f2e41"
   id="circle24795"
   style="stroke-width:0.999998" /><path
   d="m 136.30557,141.09962 -2.22049,-0.88897 c 0,0 4.64284,-5.11151 11.10251,-4.66702 l -1.81681,-2.00017 c 0,0 4.44099,-1.77789 8.47825,2.88912 2.12231,2.45334 4.57784,5.33713 6.10861,8.58567 h 2.378 l -0.99249,2.18535 3.4737,2.18534 -3.56542,-0.39254 a 12.211917,12.211917 0 0 1 0.0968,3.62481 4.6899972,4.6899972 0 0 1 -1.71744,3.0681 v 0 c 0,0 -2.75382,-5.70013 -2.75382,-6.5891 v 2.2224 c 0,0 -2.22049,-2.00015 -2.22049,-3.33358 l -1.21117,1.55568 h -8.07449 l 1.21116,-2.00015 -4.64285,0.66671 1.81682,-2.44465 -7.18842,10.09481 c 0,0 -4.11593,-11.42824 1.73808,-14.76181 z"
   fill="#2f2e41"
   id="path24797"
   style="stroke-width:0.999998" /><polygon
   points="290,629.803 258,499.803 250.005,504.87 "
   opacity="0.2"
   id="polygon24805"
   transform="matrix(0.19204449,0,0,0.19204449,76.300814,133.21101)"
   style="stroke-width:5.20713" /></svg>
