<?xml version="1.0" encoding="UTF-8" standalone="no"?>
<svg
   xmlns:dc="http://purl.org/dc/elements/1.1/"
   xmlns:cc="http://creativecommons.org/ns#"
   xmlns:rdf="http://www.w3.org/1999/02/22-rdf-syntax-ns#"
   xmlns:svg="http://www.w3.org/2000/svg"
   xmlns="http://www.w3.org/2000/svg"
   xmlns:xlink="http://www.w3.org/1999/xlink"
   xmlns:sodipodi="http://sodipodi.sourceforge.net/DTD/sodipodi-0.dtd"
   xmlns:inkscape="http://www.inkscape.org/namespaces/inkscape"
   version="1.1"
   id="_x34_"
   x="0px"
   y="0px"
   viewBox="0 0 300 300"
   xml:space="preserve"
   sodipodi:docname="crazy.svg"
   width="300"
   height="300"
   inkscape:version="1.0.1 (c497b03c, 2020-09-10)"><metadata
   id="metadata882"><rdf:RDF><cc:Work
       rdf:about=""><dc:format>image/svg+xml</dc:format><dc:type
         rdf:resource="http://purl.org/dc/dcmitype/StillImage" /><dc:title /></cc:Work></rdf:RDF></metadata><defs
   id="defs880"><clipPath
     clipPathUnits="userSpaceOnUse"
     id="clipPath900"><rect
       style="fill:#ffe6d5;fill-opacity:0.414925;stroke-width:1"
       id="rect902"
       width="361.06839"
       height="630.4104"
       x="-21.348534"
       y="-20.013029" /></clipPath><linearGradient
     id="5a1f6f01-7714-46af-aba4-b09e98a2a9e8"
     x1="368.48999"
     y1="311.39999"
     x2="368.48999"
     y2="311.39999"
     xlink:href="#8fdda24f-3500-4787-9acd-06391067bf0a"
     gradientTransform="matrix(6.1261027,0,0,6.1261027,-371.01314,-901.40272)" /><linearGradient
     id="8fdda24f-3500-4787-9acd-06391067bf0a"
     x1="373.64999"
     y1="193.72"
     x2="373.64999"
     y2="191.69"
     gradientUnits="userSpaceOnUse"><stop
       offset="0"
       stop-color="gray"
       stop-opacity="0.25"
       id="stop8822" /><stop
       offset="0.54"
       stop-color="gray"
       stop-opacity="0.12"
       id="stop8824" /><stop
       offset="1"
       stop-color="gray"
       stop-opacity="0.1"
       id="stop8826" /></linearGradient><linearGradient
     id="fba3f31e-455c-4283-9b41-fb0bd740b4d7"
     x1="450.66"
     y1="467.97"
     x2="450.66"
     y2="417.39999"
     xlink:href="#8fdda24f-3500-4787-9acd-06391067bf0a"
     gradientTransform="matrix(6.1261027,0,0,6.1261027,-579.03032,-939.74596)" /><linearGradient
     id="03abcd37-863a-4fdf-b76f-be25b3f5f7e8"
     x1="439.35999"
     y1="721.28998"
     x2="439.35999"
     y2="172.56"
     xlink:href="#8fdda24f-3500-4787-9acd-06391067bf0a"
     gradientTransform="translate(-40.580017,-7.4800083)" /><linearGradient
     id="7a137c36-2b0e-489c-9ead-72d7056953bc"
     x1="373.64999"
     y1="192.7"
     x2="373.64999"
     y2="190.66"
     xlink:href="#8fdda24f-3500-4787-9acd-06391067bf0a"
     gradientTransform="matrix(6.1261027,0,0,6.1261027,-579.03032,-939.74596)" /></defs><sodipodi:namedview
   pagecolor="#ffffff"
   bordercolor="#666666"
   borderopacity="1"
   objecttolerance="10"
   gridtolerance="10"
   guidetolerance="10"
   inkscape:pageopacity="0"
   inkscape:pageshadow="2"
   inkscape:window-width="2560"
   inkscape:window-height="1395"
   id="namedview878"
   showgrid="false"
   inkscape:zoom="0.84797571"
   inkscape:cx="184.17926"
   inkscape:cy="151.32009"
   inkscape:window-x="0"
   inkscape:window-y="23"
   inkscape:window-maximized="1"
   inkscape:current-layer="_x34_"
   inkscape:document-rotation="0" />

<g
   opacity="0.05"
   id="g8857"
   transform="matrix(0.16323592,0,0,0.16323592,60.562661,147.14129)"
   style="stroke-width:6.1261"><polygon
     points=""
     fill="url(#5a1f6f01-7714-46af-aba4-b09e98a2a9e8)"
     id="polygon8855"
     style="fill:url(#5a1f6f01-7714-46af-aba4-b09e98a2a9e8);stroke-width:6.1261" /></g><path
   d="m 233.51391,106.59802 c -2.40182,1.99972 -5.06708,3.45148 -7.94927,4.18803 -22.72284,5.80169 -29.35188,-9.07347 -88.28189,2.89462 a 129.50654,74.345552 0 0 1 -13.96779,2.36266 c -33.439628,4.42109 -48.386738,-3.23087 -53.075728,-9.44531 -1.90596,-2.52278 -2.1229,-4.8036 -1.19936,-5.95825 3.48962,-4.341031 0.30991,-11.418341 -6.33153,-31.700221 -6.64144,-20.28188 22.72284,-27.01227 45.557238,-30.19866 14.6341,-2.04064 21.76211,-4.84452 24.9945,-6.59517 a 38.922001,22.343873 0 0 1 13.05044,-4.72888 c 32.85081,-7.03639 48.80514,-0.71165 68.38546,8.25864 4.32329,1.97303 8.82633,4.09196 13.70747,6.20199 25.63292,11.10344 21.66293,50.93599 5.11046,64.720551 z"
   fill="#ff0000"
   opacity="0.27"
   style="isolation:isolate;fill:#6a00f2;fill-opacity:1;stroke-width:0.999997"
   id="path857" /><text
   xml:space="preserve"
   style="font-size:29.3333px;line-height:1.25;font-family:'Noto Sans JP';-inkscape-font-specification:'Noto Sans JP'"
   x="84.524666"
   y="85.574417"
   id="text9908-7"><tspan
     sodipodi:role="line"
     x="84.524666"
     y="85.574417"
     style="font-style:normal;font-variant:normal;font-weight:bold;font-stretch:normal;font-size:29.3333px;font-family:Mamelon;-inkscape-font-specification:Mamelon;fill:#ffffff"
     id="tspan18976">クレイジー</tspan><tspan
     sodipodi:role="line"
     x="84.524666"
     y="122.24104"
     style="font-style:normal;font-variant:normal;font-weight:bold;font-stretch:normal;font-size:29.3333px;font-family:Mamelon;-inkscape-font-specification:Mamelon;fill:#ffffff"
     id="tspan959" /></text><circle
   cx="63.598682"
   cy="187.48077"
   fill="#f2f2f2"
   id="circle17951"
   style="stroke-width:1"
   r="2.6351473" /><circle
   cx="82.157852"
   cy="203.58917"
   fill="#f2f2f2"
   id="circle17953"
   style="stroke-width:1"
   r="2.6351473" /><circle
   cx="71.869965"
   cy="201.67577"
   fill="#f2f2f2"
   id="circle17955"
   style="stroke-width:1"
   r="2.6351473" /><path
   d="m 86.058186,236.29367 c -0.0707,-0.0543 -1.75099,-1.37106 -3.468847,-4.78528 -1.575957,-3.1324 -3.474106,-8.70336 -3.56646,-17.45527 -0.174841,-16.57995 -11.306157,-25.73901 -11.418745,-25.82959 l 0.254556,-0.31568 c 0.02852,0.023 2.887018,2.35033 5.723184,6.71479 a 36.296351,36.296353 0 0 1 5.846486,19.42624 c 0.174574,16.55164 6.810186,21.87172 6.877176,21.92361 z"
   fill="#f2f2f2"
   id="path17957"
   style="stroke-width:1" /><circle
   cx="75.471214"
   cy="191.82562"
   fill="#f2f2f2"
   id="circle17959"
   style="stroke-width:1"
   r="2.6351473" /><circle
   cx="75.616638"
   cy="213.69926"
   fill="#f2f2f2"
   id="circle17961"
   style="stroke-width:1"
   r="2.6351473" /><path
   d="m 87.579156,235.81376 c 0,0 -4.784599,-5.11142 0.85246,-12.48615 z"
   fill="#f2f2f2"
   id="path17963"
   style="stroke-width:1" /><path
   d="m 84.511406,236.86525 c 0,0 -3.59151,-6.00999 -12.236074,-2.62849 z"
   fill="#f2f2f2"
   id="path17965"
   style="stroke-width:1" /><circle
   cx="63.598682"
   cy="187.48077"
   fill="#f2f2f2"
   id="circle17967"
   style="stroke-width:1"
   r="2.6351473" /><circle
   cx="82.157852"
   cy="203.58917"
   fill="#f2f2f2"
   id="circle17969"
   style="stroke-width:1"
   r="2.6351473" /><circle
   cx="71.869965"
   cy="201.67577"
   fill="#f2f2f2"
   id="circle17971"
   style="stroke-width:1"
   r="2.6351473" /><path
   d="m 86.058186,236.29367 c -0.0707,-0.0543 -1.75099,-1.37106 -3.468847,-4.78528 -1.575957,-3.1324 -3.474106,-8.70336 -3.56646,-17.45527 -0.174841,-16.57995 -11.306157,-25.73901 -11.418745,-25.82959 l 0.254556,-0.31568 c 0.02852,0.023 2.887018,2.35033 5.723184,6.71479 a 36.296351,36.296353 0 0 1 5.846486,19.42624 c 0.174574,16.55164 6.810186,21.87172 6.877176,21.92361 z"
   fill="#f2f2f2"
   id="path17973"
   style="stroke-width:1" /><circle
   cx="75.471214"
   cy="191.82562"
   fill="#f2f2f2"
   id="circle17975"
   style="stroke-width:1"
   r="2.6351473" /><circle
   cx="75.616638"
   cy="213.69926"
   fill="#f2f2f2"
   id="circle17977"
   style="stroke-width:1"
   r="2.6351473" /><path
   d="m 87.579156,235.81376 c 0,0 -4.784599,-5.11142 0.85246,-12.48615 z"
   fill="#f2f2f2"
   id="path17979"
   style="stroke-width:1" /><path
   d="m 84.511406,236.86525 c 0,0 -3.59151,-6.00999 -12.236074,-2.62849 z"
   fill="#f2f2f2"
   id="path17981"
   style="stroke-width:1" /><polygon
   points="142.249,523.575 149.249,523.575 149.249,540.575 139.249,540.575 "
   fill="#3f3d56"
   id="polygon17983"
   transform="matrix(0.20270364,0,0,0.20270364,60.962811,125.08143)"
   style="stroke-width:4.93331" /><ellipse
   cx="90.434677"
   cy="244.67522"
   rx="11.930238"
   ry="10.295458"
   fill="#f65c26"
   id="ellipse17985"
   style="stroke-width:1" /><path
   d="m 82.505176,252.56132 c -2.017333,-8.65549 0.662256,-16.18571 0.689568,-16.26073 l 0.380862,0.13856 c -0.0267,0.0739 -2.664535,7.49628 -0.675511,16.03012 z"
   opacity="0.1"
   id="path17987"
   style="stroke-width:1" /><path
   d="m 97.155766,253.3658 -0.37611,-0.15143 c 3.847604,-9.54895 0.0473,-16.98495 0.009,-17.05888 l 0.35909,-0.18845 c 0.0396,0.0757 3.925404,7.67799 0.009,17.39876 z"
   opacity="0.1"
   id="path17989"
   style="stroke-width:1" /><path
   d="m 86.784816,254.63567 c -4.870426,-7.49904 -0.077,-19.76053 -0.0279,-19.88355 l 0.3765,0.15004 c -0.0481,0.12105 -4.764315,12.19023 -0.009,19.5126 z"
   opacity="0.1"
   id="path17991"
   style="stroke-width:1" /><path
   d="m 94.084526,254.63567 -0.34008,-0.22091 c 4.7576,-7.32505 0.0396,-19.39155 -0.009,-19.5126 l 0.3765,-0.15004 c 0.0491,0.12301 4.84252,12.38451 -0.0279,19.88355 z"
   opacity="0.1"
   id="path17993"
   style="stroke-width:1" /><polygon
   points="137.249,584.336 122.749,584.336 108.249,584.336 115.499,571.779 122.749,559.222 129.999,571.779 "
   opacity="0.1"
   id="polygon17995"
   transform="matrix(0.20270364,0,0,0.20270364,60.962811,125.08143)"
   style="stroke-width:4.93331" /><polygon
   points="134.167,581.667 122.749,581.667 111.331,581.667 117.04,571.779 122.749,561.891 128.458,571.779 "
   fill="#3f3d56"
   id="polygon17997"
   transform="matrix(0.20270364,0,0,0.20270364,60.962811,125.08143)"
   style="stroke-width:4.93331" /><polygon
   points="139.249,587.284 146.749,587.284 154.249,587.284 150.499,593.779 146.749,600.274 142.999,593.779 "
   opacity="0.1"
   id="polygon17999"
   transform="matrix(0.20270364,0,0,0.20270364,60.962811,125.08143)"
   style="stroke-width:4.93331" /><polygon
   points="140.843,588.664 146.749,588.664 152.655,588.664 149.702,593.779 146.749,598.894 143.796,593.779 "
   fill="#3f3d56"
   id="polygon18001"
   transform="matrix(0.20270364,0,0,0.20270364,60.962811,125.08143)"
   style="stroke-width:4.93331" /><polygon
   points="183.249,584.336 168.749,584.336 154.249,584.336 161.499,571.779 168.749,559.222 175.999,571.779 "
   opacity="0.1"
   id="polygon18003"
   transform="matrix(0.20270364,0,0,0.20270364,60.962811,125.08143)"
   style="stroke-width:4.93331" /><polygon
   points="180.167,581.667 168.749,581.667 157.331,581.667 163.04,571.779 168.749,561.891 174.458,571.779 "
   fill="#3f3d56"
   id="polygon18005"
   transform="matrix(0.20270364,0,0,0.20270364,60.962811,125.08143)"
   style="stroke-width:4.93331" /><rect
   x="85.743217"
   y="247.62032"
   width="9.7297745"
   height="2.048373"
   opacity="0.1"
   id="rect18007"
   style="stroke-width:1" /><rect
   x="86.756721"
   y="247.83369"
   width="7.7027388"
   height="1.6216291"
   fill="#3f3d56"
   id="rect18009"
   style="stroke-width:1" /><polygon
   points="129.843,600.575 135.749,600.575 141.655,600.575 138.702,605.69 135.749,610.804 132.796,605.69 "
   fill="#f65c26"
   id="polygon18011"
   transform="matrix(0.20270364,0,0,0.20270364,60.962811,125.08143)"
   style="stroke-width:4.93331" /><polygon
   points="149.843,600.575 155.749,600.575 161.655,600.575 158.702,605.69 155.749,610.804 152.796,605.69 "
   fill="#f65c26"
   id="polygon18013"
   transform="matrix(0.20270364,0,0,0.20270364,60.962811,125.08143)"
   style="stroke-width:4.93331" /><path
   d="m 155.30381,181.78148 -4.05932,-15.40804 0.5969,-0.15257 c 0,0 -4.11526,-20.10909 -6.32362,-21.2125 -1.72928,-0.86406 -2.52721,-0.53133 -2.52721,-0.53133 l -8.1658,0.4564 a 8.93321,8.93321 0 0 1 -2.71445,-2.56005 c 2.75961,-0.73429 5.30287,-1.98052 6.93088,-4.04576 l -0.58018,-1.64232 c 0,0 1.0145,0.048 1.30475,1.49719 l 0.57944,-0.86971 c 0,0 -1.01481,-1.30404 -3.57557,-2.80089 -1.68078,-0.98246 -2.65432,-3.29706 -3.12493,-4.77184 a 6.4046949,6.4046951 0 0 0 -2.13079,-3.13028 c -1.77989,-1.38485 -4.7685,-2.63706 -8.3694,0.0799 0,0 -3.62326,-0.5304 -4.82951,4.73556 -1.20624,5.26595 -3.5234,11.25681 -3.5234,11.25681 l 2.02898,0.0961 c 0,0 -0.19419,-3.47815 0.91669,-4.20308 l 0.38769,4.44426 a 45.392166,45.392168 0 0 0 7.63122,0.27407 l -0.14949,3.1576 -8.74994,3.95198 c 0,0 -0.7316,-0.1993 -0.66452,1.86226 0.067,2.06156 2.53347,23.00912 2.53347,23.00912 l 0.58126,-0.14549 2.14959,15.50678 c 0,0 -1.46031,9.97577 2.8621,9.11004 1.82299,-0.36512 2.04862,-2.25576 1.70002,-4.3202 0.28971,0.6792 0.60762,1.36542 0.95947,2.05838 6.85346,13.49809 7.98511,17.42142 7.98511,17.42142 l 7.78816,26.79831 a 10.762029,10.762029 0 0 0 2.88706,-0.1303 l 1.83637,6.44672 c 0,0 -1.32808,7.18263 3.12755,6.98188 q 0.0668,-0.003 0.13216,-0.007 a 3.4976977,3.4976979 0 0 0 3.04234,-4.77001 l -1.38126,-3.53654 c 0,0 -0.77437,-5.19933 -2.50109,-7.08175 0.0127,-0.0114 0.0259,-0.0217 0.0385,-0.0333 l -6.25841,-26.06721 -3.19653,-15.95969 5.52444,17.2226 3.5295,17.62214 c 0,0 0.15634,0.10398 0.42713,0.25359 a 8.631285,8.6312852 0 0 0 0.50471,2.67227 c 0.73206,1.92836 2.19667,7.51415 2.19667,7.51415 0,0 1.1987,5.98489 3.52615,5.51873 0.83123,-0.16648 1.39082,-1.02846 1.7668,-2.0679 a 8.6048767,8.6048769 0 0 0 -0.46379,-6.75994 l -2.23774,-4.47239 -0.30135,-1.50462 c 0.9943,-0.30071 1.93517,-1.01457 2.62787,-2.41967 l -3.26409,-19.7503 c 0,0 -2.62367,-20.94065 -4.53236,-27.95863 0.93612,-0.46275 1.5318,-0.83608 1.5318,-0.83608 l -5.92164,-10.57224 a 14.976608,14.976608 0 0 1 -1.57689,-2.86582 l -0.004,6.1e-4 c -0.62155,-1.48018 -1.14479,-3.38466 -0.93385,-5.3359 a 7.3201512,7.3201514 0 0 1 0.71554,-2.50534 7.2536036,7.2536038 0 0 0 0.45245,-1.19428 l 1.54442,7.71097 0.39773,-0.10167 6.52235,13.93225 c 0,0 -0.66212,10.50755 3.6603,9.64183 4.32241,-0.86571 -0.86715,-9.50957 -0.86715,-9.50957 z m -29.44596,-14.56519 c 0.78713,1.53 0.4984,3.50721 0.40544,4.00997 -0.0153,0.0792 -0.0239,0.12239 -0.0239,0.12239 a 4.6646808,4.664681 0 0 0 -0.82502,1.06092 l -1.44605,-7.21986 c 0.4005,0.37038 0.82741,0.72704 1.27215,1.17153 a 3.4439671,3.4439673 0 0 1 0.61737,0.85505 z m -1.11554,6.55216 q -0.0521,0.12461 -0.10342,0.25273 l 0.01,-0.22928 z m -0.75902,15.66947 0.026,-0.61259 q 0.11128,0.59668 0.25042,1.20733 c -0.16801,-0.37463 -0.2765,-0.59474 -0.2765,-0.59474 z"
   fill="#f2f2f2"
   id="path18015"
   style="stroke-width:1" /><rect
   x="71.571335"
   y="254.4622"
   width="158.18036"
   height="0.56392354"
   fill="#3f3d56"
   id="rect18017"
   style="stroke-width:1" /><polygon
   points="452.249,35.575 459.249,35.575 459.249,52.575 449.249,52.575 "
   fill="#3f3d56"
   id="polygon18019"
   transform="matrix(0.20270364,0,0,0.20270364,60.962811,125.08143)"
   style="stroke-width:4.93331" /><path
   d="m 137.50388,183.3988 -1.01729,16.95484 c 0,0 -3.39097,9.49472 1.01729,9.49472 4.40827,0 1.69548,-10.17292 1.69548,-10.17292 l 4.06918,-16.61575 z"
   fill="#c686ff"
   id="path18021"
   style="stroke-width:1" /><path
   d="m 170.39628,181.36422 1.0173,16.95484 c 0,0 3.39096,9.49472 -1.0173,9.49472 -4.40825,0 -1.69548,-10.17292 -1.69548,-10.17292 l -4.06916,-16.61575 z"
   fill="#c686ff"
   id="path18023"
   style="stroke-width:1" /><path
   d="m 150.05047,253.25277 0.6782,8.47742 c 0,0 -2.71279,6.78194 1.69547,7.46013 q 0.0661,0.0102 0.13094,0.0193 a 3.4976938,3.4976938 0 0 0 3.91985,-4.07962 l -0.6598,-3.73893 c 0,0 0.33909,-6.78195 -1.69549,-8.13833 -2.03458,-1.35639 -4.06917,0 -4.06917,0 z"
   fill="#2f2e41"
   id="path18025"
   style="stroke-width:1" /><path
   d="m 156.49331,245.79263 c 0,0 -0.67819,2.03459 -0.3391,4.06917 0.3391,2.03458 0.6782,7.79922 0.6782,7.79922 0,0 0,6.10374 2.37368,6.10374 0.84774,0 1.56572,-0.73528 2.1385,-1.68065 a 8.6049961,8.6049965 0 0 0 0.87282,-6.71937 l -1.31584,-4.82476 v -3.73006 z"
   fill="#2f2e41"
   id="path18027"
   style="stroke-width:1" /><path
   d="m 143.94671,183.73789 c 0,0 -7.46013,9.83381 -3.39097,24.41498 4.06916,14.58117 4.40827,18.65034 4.40827,18.65034 l 2.37368,27.80594 c 0,0 4.06916,1.35639 7.46013,-0.67819 l -1.0173,-26.78866 v -16.27665 l 2.0346,17.97214 v 17.97213 c 0,0 4.74735,4.74736 8.13833,0.3391 l 0.67819,-20.00672 c 0,0 2.03458,-27.80595 0.67819,-30.51872 -1.35638,-2.71278 -4.40826,-12.20749 -4.40826,-12.20749 z"
   fill="#2f2e41"
   id="path18029"
   style="stroke-width:1" /><ellipse
   cx="153.2728"
   cy="145.75584"
   rx="11.930238"
   ry="10.295458"
   fill="#c686ff"
   id="ellipse18031"
   style="stroke-width:1" /><path
   d="m 150.72867,151.86278 -2.03459,8.13832 6.10375,17.63305 4.74735,-18.65033 c 0,0 -4.40826,-3.05188 -3.39097,-7.12104 z"
   fill="#c686ff"
   id="path18033"
   style="stroke-width:1" /><path
   d="m 167.34441,198.31906 c 0,0 -9.83381,3.73007 -11.86839,-2.03459 -2.03458,-5.76464 -1.69549,-10.1729 -1.69549,-10.1729 0,0 -3.05186,11.86839 -8.13832,11.86839 -5.08646,0 -7.79922,-1.69549 -7.79922,-1.69549 0,0 3.73006,-11.86839 7.12102,-13.90297 0,0 0.0169,-0.0407 0.0475,-0.1153 0.1899,-0.47472 0.8613,-2.35673 0.38995,-4.01152 a 3.4425157,3.4425159 0 0 0 -0.43743,-0.95963 c -1.35639,-2.03459 -2.71278,-2.71278 -2.37368,-7.79923 l -2.71278,-9.49471 9.35569,-2.15665 4.88637,15.38143 4.44896,-15.05931 8.09765,1.15634 c 0,0 0.67819,12.20748 -2.71279,16.61575 a 7.3198654,7.3198656 0 0 0 -1.19363,2.31601 c -0.59002,1.87182 -0.45098,3.84198 -0.13222,5.41539 h 0.004 a 14.97615,14.97615 0 0 0 0.9834,3.11969 z"
   fill="#3f3d56"
   id="path18035"
   style="stroke-width:1" /><path
   d="m 164.63164,159.66201 2.03458,-0.3391 c 0,0 0.84774,-0.16955 2.37367,1.01729 1.94865,1.51562 2.03458,22.0413 2.03458,22.0413 l -6.44283,0.3391 z"
   fill="#3f3d56"
   id="path18037"
   style="stroke-width:1" /><path
   d="m 141.57305,160.6793 -1.69549,-0.6782 c 0,0 -0.6782,-0.3391 -1.01729,1.69548 -0.3391,2.03458 -2.03458,23.05859 -2.03458,23.05859 l 7.12102,-0.33908 v -15.25937 z"
   fill="#3f3d56"
   id="path18039"
   style="stroke-width:1" /><path
   d="m 145.34332,153.64194 c -2.01734,-8.65548 0.66224,-16.1857 0.68956,-16.26073 l 0.38087,0.13857 c -0.0268,0.0739 -2.66455,7.49627 -0.67552,16.03012 z"
   opacity="0.1"
   id="path18041"
   style="stroke-width:1" /><path
   d="m 159.99389,154.44642 -0.37611,-0.15143 c 3.84762,-9.54894 0.0473,-16.98494 0.009,-17.05887 l 0.35908,-0.18846 c 0.0396,0.0757 3.92541,7.678 0.009,17.39876 z"
   opacity="0.1"
   id="path18043"
   style="stroke-width:1" /><path
   d="m 149.62296,155.7163 c -4.87044,-7.49904 -0.077,-19.76054 -0.0279,-19.88356 l 0.37651,0.15004 c -0.0481,0.12106 -4.76433,12.19023 -0.009,19.51261 z"
   opacity="0.1"
   id="path18045"
   style="stroke-width:1" /><path
   d="m 156.92266,155.7163 -0.34008,-0.22091 c 4.75759,-7.32505 0.0396,-19.39155 -0.009,-19.51261 l 0.37651,-0.15004 c 0.0491,0.12301 4.84251,12.38451 -0.0279,19.88356 z"
   opacity="0.1"
   id="path18047"
   style="stroke-width:1" /><polygon
   points="447.249,96.336 432.749,96.336 418.249,96.336 425.499,83.779 432.749,71.222 439.999,83.779 "
   opacity="0.1"
   id="polygon18049"
   transform="matrix(0.20270364,0,0,0.20270364,60.962811,125.08143)"
   style="stroke-width:4.93331" /><polygon
   points="444.167,93.667 432.749,93.667 421.331,93.667 427.04,83.779 432.749,73.891 438.458,83.779 "
   fill="#3f3d56"
   id="polygon18051"
   transform="matrix(0.20270364,0,0,0.20270364,60.962811,125.08143)"
   style="stroke-width:4.93331" /><polygon
   points="449.249,99.284 456.749,99.284 464.249,99.284 460.499,105.779 456.749,112.274 452.999,105.779 "
   opacity="0.1"
   id="polygon18053"
   transform="matrix(0.20270364,0,0,0.20270364,60.962811,125.08143)"
   style="stroke-width:4.93331" /><polygon
   points="450.843,100.664 456.749,100.664 462.655,100.664 459.702,105.779 456.749,110.894 453.796,105.779 "
   fill="#3f3d56"
   id="polygon18055"
   transform="matrix(0.20270364,0,0,0.20270364,60.962811,125.08143)"
   style="stroke-width:4.93331" /><polygon
   points="493.249,96.336 478.749,96.336 464.249,96.336 471.499,83.779 478.749,71.222 485.999,83.779 "
   opacity="0.1"
   id="polygon18057"
   transform="matrix(0.20270364,0,0,0.20270364,60.962811,125.08143)"
   style="stroke-width:4.93331" /><polygon
   points="490.167,93.667 478.749,93.667 467.331,93.667 473.04,83.779 478.749,73.891 484.458,83.779 "
   fill="#3f3d56"
   id="polygon18059"
   transform="matrix(0.20270364,0,0,0.20270364,60.962811,125.08143)"
   style="stroke-width:4.93331" /><rect
   x="148.58133"
   y="148.70097"
   width="9.7297745"
   height="2.048373"
   opacity="0.1"
   id="rect18061"
   style="stroke-width:1" /><rect
   x="149.59483"
   y="148.91435"
   width="7.7027388"
   height="1.6216291"
   fill="#3f3d56"
   id="rect18063"
   style="stroke-width:1" /><polygon
   points="439.843,112.575 445.749,112.575 451.655,112.575 448.702,117.69 445.749,122.804 442.796,117.69 "
   fill="#c686ff"
   id="polygon18065"
   transform="matrix(0.20270364,0,0,0.20270364,60.962811,125.08143)"
   style="stroke-width:4.93331" /><polygon
   points="459.843,112.575 465.749,112.575 471.655,112.575 468.702,117.69 465.749,122.804 462.796,117.69 "
   fill="#c686ff"
   id="polygon18067"
   transform="matrix(0.20270364,0,0,0.20270364,60.962811,125.08143)"
   style="stroke-width:4.93331" /><polygon
   points="458.493,257.396 460.498,257.396 460.498,262.265 457.634,262.265 "
   fill="#2f2e41"
   id="polygon18069"
   transform="matrix(0.20270364,0,0,0.20270364,60.962811,125.08143)"
   style="stroke-width:4.93331" /><ellipse
   cx="154.08359"
   cy="181.11223"
   rx="3.4166853"
   ry="2.9485028"
   fill="#c686ff"
   id="ellipse18071"
   style="stroke-width:1" /><path
   d="m 151.67195,183.40355 a 9.0538997,9.0538997 0 0 1 0.20231,-4.73918 l 0.38106,0.13846 a 8.8080911,8.8080914 0 0 0 -0.18865,4.50867 z"
   opacity="0.1"
   id="path18073"
   style="stroke-width:1" /><path
   d="m 156.14272,183.65514 -0.37611,-0.15143 c 1.07351,-2.66445 0.0192,-4.74384 0.009,-4.76452 l 0.35909,-0.18816 c 0.0477,0.091 1.15485,2.25864 0.009,5.10411 z"
   opacity="0.1"
   id="path18075"
   style="stroke-width:1" /><path
   d="m 152.91689,184.04353 c -1.43516,-2.20985 -0.0794,-5.68006 -0.0209,-5.82674 l 0.37651,0.14994 c -0.0135,0.034 -1.33599,3.42281 -0.0154,5.45608 z"
   opacity="0.1"
   id="path18077"
   style="stroke-width:1" /><path
   d="m 155.25016,184.04353 -0.34008,-0.22072 c 1.32212,-2.03585 -0.002,-5.42203 -0.0154,-5.45597 l 0.3765,-0.15005 c 0.0584,0.14669 1.41417,3.6169 -0.0209,5.82674 z"
   opacity="0.1"
   id="path18079"
   style="stroke-width:1" /><path
   d="m 212.43297,270.73923 h -4.45948 v -21.28388 q 2.22975,-1.28326 4.45948,0 z"
   fill="#d0cde1"
   id="path18081"
   style="stroke-width:1" /><rect
   x="190.13548"
   y="270.53641"
   width="41.75695"
   height="0.40540728"
   fill="#3f3d56"
   id="rect18083"
   style="stroke-width:1" /><path
   d="m 203.91942,275.40141 h -4.45948 v -21.28389 q 2.22975,-1.28325 4.45948,0 z"
   fill="#d0cde1"
   id="path18085"
   style="stroke-width:1" /><rect
   x="201.28427"
   y="250.06346"
   width="0.8108145"
   height="4.2567763"
   fill="#3f3d56"
   id="rect18087"
   style="stroke-width:1" /><path
   d="m 204.12213,248.23912 a 2.4324453,2.4324453 0 0 1 -4.86489,0 c 0,-1.3434 2.43245,-5.6757 2.43245,-5.6757 0,0 2.43244,4.3323 2.43244,5.6757 z"
   fill="#c686ff"
   id="path18089"
   style="stroke-width:1" /><rect
   x="209.79785"
   y="245.40126"
   width="0.8108145"
   height="4.2567763"
   fill="#3f3d56"
   id="rect18091"
   style="stroke-width:1" /><path
   d="m 212.63568,243.57694 a 2.4324437,2.4324437 0 0 1 -4.86488,0 c 0,-1.34341 2.43244,-5.6757 2.43244,-5.6757 0,0 2.43244,4.33229 2.43244,5.6757 z"
   fill="#c686ff"
   id="path18093"
   style="stroke-width:1" /><path
   d="m 220.94653,275.40141 h -4.45948 v -21.28389 q 2.22974,-1.28325 4.45948,0 z"
   fill="#d0cde1"
   id="path18095"
   style="stroke-width:1" /><rect
   x="218.3114"
   y="250.06346"
   width="0.8108145"
   height="4.2567763"
   fill="#3f3d56"
   id="rect18097"
   style="stroke-width:1" /><path
   d="m 221.14923,248.23912 a 2.4324437,2.4324437 0 0 1 -4.86488,0 c 0,-1.3434 2.43244,-5.6757 2.43244,-5.6757 0,0 2.43244,4.3323 2.43244,5.6757 z"
   fill="#c686ff"
   id="path18099"
   style="stroke-width:1" /><rect
   x="190.13548"
   y="275.19861"
   width="41.75695"
   height="0.40540728"
   fill="#3f3d56"
   id="rect18101"
   style="stroke-width:1" /><path
   d="m 105.99849,164.95652 a 5.4195068,5.4195068 0 0 1 0.008,1.48689 c -0.0135,0.1119 -0.0306,0.22184 -0.0504,0.33049 l 1.2e-4,8.1e-4 a 8.8065668,8.8065671 0 0 1 -1.38078,3.25712 c -0.0442,0.0636 -0.0694,0.0968 -0.0694,0.0968 l -0.0947,-0.0723 a 9.096226,9.096226 0 0 1 -1.92844,-2.11692 c -0.0461,-0.0728 -0.0923,-0.14644 -0.13635,-0.22207 a 5.8027077,5.8027079 0 0 1 -0.77748,-2.08836 l -0.002,-0.0107 c -0.0118,-0.0788 -0.0219,-0.15779 -0.0294,-0.23636 a 5.9626753,5.9626755 0 0 1 0.17567,-2.05876 c 0.021,-0.0837 0.0431,-0.16582 0.067,-0.24741 a 9.0988368,9.0988377 0 0 1 1.20963,-2.53279 c 0.0442,-0.0636 0.0694,-0.0968 0.0694,-0.0968 0,0 0.0339,0.0243 0.0947,0.0723 a 9.0971103,9.0971103 0 0 1 1.88391,2.04893 c 0.0456,0.0695 0.0905,0.13998 0.13487,0.2122 a 6.2005238,6.2005239 0 0 1 0.69605,1.57122 c 0.027,0.0966 0.051,0.19539 0.0717,0.29463 0.0228,0.10228 0.0416,0.206 0.0573,0.31103 z"
   fill="#f2f2f2"
   id="path18103"
   style="stroke-width:1" /><path
   d="m 188.14701,163.86174 a 5.4196302,5.4196305 0 0 1 0.7872,1.26143 c 0.0472,0.10233 0.0903,0.2049 0.13047,0.3078 l 6e-4,6.2e-4 a 8.8065851,8.8065853 0 0 1 0.53376,3.4972 c -0.004,0.0774 -0.008,0.11881 -0.008,0.11881 l -0.11852,-0.0119 a 9.0961752,9.0961761 0 0 1 -2.75246,-0.79012 c -0.0774,-0.0378 -0.15543,-0.0762 -0.23259,-0.11748 a 5.8026813,5.8026816 0 0 1 -1.75769,-1.36975 l -0.007,-0.008 c -0.0513,-0.0609 -0.10143,-0.12283 -0.14908,-0.18575 a 5.9627037,5.9627039 0 0 1 -0.93078,-1.84472 c -0.0259,-0.0823 -0.0503,-0.16383 -0.0727,-0.2458 a 9.0988984,9.0988984 0 0 1 -0.29937,-2.79081 c 0.004,-0.0774 0.008,-0.11881 0.008,-0.11881 0,0 0.0415,0.003 0.1185,0.0119 a 9.0971361,9.097137 0 0 1 2.67886,0.7556 c 0.0753,0.0352 0.15053,0.0717 0.22617,0.10986 a 6.200546,6.2005462 0 0 1 1.417,0.97226 c 0.0737,0.0681 0.14593,0.13956 0.21564,0.21319 q 0.10965,0.11266 0.21203,0.23468 z"
   fill="#f2f2f2"
   id="path18105"
   style="stroke-width:1" /><path
   d="m 200.31489,199.66829 a 5.4196221,5.4196224 0 0 1 -0.66934,1.32774 c -0.0629,0.0935 -0.12821,0.18361 -0.19532,0.27133 l -2.1e-4,8.1e-4 a 8.8065504,8.8065509 0 0 1 -2.71178,2.27197 c -0.0683,0.0365 -0.10586,0.0546 -0.10586,0.0546 l -0.0514,-0.10744 a 9.0961048,9.0961048 0 0 1 -0.75387,-2.7626 c -0.008,-0.0858 -0.0156,-0.17241 -0.0203,-0.25978 a 5.8026185,5.8026187 0 0 1 0.25802,-2.2134 l 0.004,-0.0103 c 0.0254,-0.0755 0.0523,-0.15047 0.0814,-0.22385 a 5.9626996,5.9626999 0 0 1 1.09329,-1.75331 c 0.0569,-0.0649 0.11392,-0.12801 0.1723,-0.18979 a 9.0989001,9.0989001 0 0 1 2.22971,-1.70489 c 0.0683,-0.0365 0.10585,-0.0546 0.10585,-0.0546 0,0 0.0191,0.0371 0.0514,0.10744 a 9.0972565,9.0972565 0 0 1 0.74513,2.68178 c 0.009,0.0826 0.0169,0.16584 0.0235,0.25034 a 6.2006271,6.2006273 0 0 1 -0.0952,1.71584 c -0.0199,0.0983 -0.0435,0.19718 -0.0702,0.29498 -0.0262,0.10147 -0.0566,0.2024 -0.0905,0.30306 z"
   fill="#f2f2f2"
   id="path18107"
   style="stroke-width:1" /><path
   d="m 196.35059,139.71863 a 5.4196302,5.4196305 0 0 1 0.7872,1.26143 c 0.0472,0.10233 0.0903,0.2049 0.13047,0.3078 l 6e-4,6.2e-4 a 8.8065851,8.8065853 0 0 1 0.53376,3.4972 c -0.004,0.0774 -0.008,0.11881 -0.008,0.11881 l -0.11852,-0.0119 a 9.0961752,9.0961761 0 0 1 -2.75246,-0.79012 c -0.0774,-0.0378 -0.15543,-0.0762 -0.23259,-0.11748 a 5.8026813,5.8026816 0 0 1 -1.75769,-1.36975 l -0.007,-0.008 c -0.0513,-0.0609 -0.10143,-0.12283 -0.14908,-0.18575 a 5.9627037,5.9627039 0 0 1 -0.93078,-1.84472 c -0.0259,-0.0823 -0.0503,-0.16383 -0.0727,-0.2458 a 9.0988984,9.0988984 0 0 1 -0.29937,-2.79081 c 0.004,-0.0774 0.008,-0.11881 0.008,-0.11881 0,0 0.0415,0.003 0.1185,0.0119 a 9.0971361,9.097137 0 0 1 2.67886,0.7556 c 0.0753,0.0352 0.15053,0.0717 0.22617,0.10986 a 6.200546,6.2005462 0 0 1 1.417,0.97226 c 0.0737,0.0681 0.14593,0.13956 0.21564,0.21319 q 0.10965,0.11266 0.21203,0.23468 z"
   fill="#f2f2f2"
   id="path18105-3"
   style="stroke-width:1" /><path
   d="m 208.51847,175.52518 a 5.4196221,5.4196224 0 0 1 -0.66934,1.32774 c -0.0629,0.0935 -0.12821,0.18361 -0.19532,0.27133 l -2.1e-4,8.1e-4 a 8.8065504,8.8065509 0 0 1 -2.71178,2.27197 c -0.0683,0.0365 -0.10586,0.0546 -0.10586,0.0546 l -0.0514,-0.10744 a 9.0961048,9.0961048 0 0 1 -0.75387,-2.7626 c -0.008,-0.0858 -0.0156,-0.17241 -0.0203,-0.25978 a 5.8026185,5.8026187 0 0 1 0.25802,-2.2134 l 0.004,-0.0103 c 0.0254,-0.0755 0.0523,-0.15047 0.0814,-0.22385 a 5.9626996,5.9626999 0 0 1 1.09329,-1.75331 c 0.0569,-0.0649 0.11392,-0.12801 0.1723,-0.18979 a 9.0989001,9.0989001 0 0 1 2.22971,-1.70489 c 0.0683,-0.0365 0.10585,-0.0546 0.10585,-0.0546 0,0 0.0191,0.0371 0.0514,0.10744 a 9.0972565,9.0972565 0 0 1 0.74513,2.68178 c 0.009,0.0826 0.0169,0.16584 0.0235,0.25034 a 6.2006271,6.2006273 0 0 1 -0.0952,1.71584 c -0.0199,0.0983 -0.0435,0.19718 -0.0702,0.29498 -0.0262,0.10147 -0.0566,0.2024 -0.0905,0.30306 z"
   fill="#f2f2f2"
   id="path18107-2"
   style="stroke-width:1" /></svg>
