<?xml version="1.0" encoding="UTF-8" standalone="no"?>
<svg
   xmlns:dc="http://purl.org/dc/elements/1.1/"
   xmlns:cc="http://creativecommons.org/ns#"
   xmlns:rdf="http://www.w3.org/1999/02/22-rdf-syntax-ns#"
   xmlns:svg="http://www.w3.org/2000/svg"
   xmlns="http://www.w3.org/2000/svg"
   xmlns:xlink="http://www.w3.org/1999/xlink"
   xmlns:sodipodi="http://sodipodi.sourceforge.net/DTD/sodipodi-0.dtd"
   xmlns:inkscape="http://www.inkscape.org/namespaces/inkscape"
   version="1.1"
   id="_x34_"
   x="0px"
   y="0px"
   viewBox="0 0 300 300"
   xml:space="preserve"
   sodipodi:docname="cute.svg"
   width="300"
   height="300"
   inkscape:version="1.0.1 (c497b03c, 2020-09-10)"><metadata
   id="metadata882"><rdf:RDF><cc:Work
       rdf:about=""><dc:format>image/svg+xml</dc:format><dc:type
         rdf:resource="http://purl.org/dc/dcmitype/StillImage" /><dc:title /></cc:Work></rdf:RDF></metadata><defs
   id="defs880"><clipPath
     clipPathUnits="userSpaceOnUse"
     id="clipPath900"><rect
       style="fill:#ffe6d5;fill-opacity:0.414925;stroke-width:1"
       id="rect902"
       width="361.06839"
       height="630.4104"
       x="-21.348534"
       y="-20.013029" /></clipPath><linearGradient
     id="5a1f6f01-7714-46af-aba4-b09e98a2a9e8"
     x1="368.48999"
     y1="311.39999"
     x2="368.48999"
     y2="311.39999"
     xlink:href="#8fdda24f-3500-4787-9acd-06391067bf0a"
     gradientTransform="matrix(6.1261027,0,0,6.1261027,-371.01314,-901.40272)" /><linearGradient
     id="8fdda24f-3500-4787-9acd-06391067bf0a"
     x1="373.64999"
     y1="193.72"
     x2="373.64999"
     y2="191.69"
     gradientUnits="userSpaceOnUse"><stop
       offset="0"
       stop-color="gray"
       stop-opacity="0.25"
       id="stop8822" /><stop
       offset="0.54"
       stop-color="gray"
       stop-opacity="0.12"
       id="stop8824" /><stop
       offset="1"
       stop-color="gray"
       stop-opacity="0.1"
       id="stop8826" /></linearGradient><linearGradient
     id="fba3f31e-455c-4283-9b41-fb0bd740b4d7"
     x1="450.66"
     y1="467.97"
     x2="450.66"
     y2="417.39999"
     xlink:href="#8fdda24f-3500-4787-9acd-06391067bf0a"
     gradientTransform="matrix(6.1261027,0,0,6.1261027,-579.03032,-939.74596)" /><linearGradient
     id="03abcd37-863a-4fdf-b76f-be25b3f5f7e8"
     x1="439.35999"
     y1="721.28998"
     x2="439.35999"
     y2="172.56"
     xlink:href="#8fdda24f-3500-4787-9acd-06391067bf0a"
     gradientTransform="translate(-40.580017,-7.4800083)" /><linearGradient
     id="7a137c36-2b0e-489c-9ead-72d7056953bc"
     x1="373.64999"
     y1="192.7"
     x2="373.64999"
     y2="190.66"
     xlink:href="#8fdda24f-3500-4787-9acd-06391067bf0a"
     gradientTransform="matrix(6.1261027,0,0,6.1261027,-579.03032,-939.74596)" /><linearGradient
     id="e02598f3-6440-4dab-b616-a11e89bded72"
     x1="698.5"
     y1="537.03003"
     x2="941.5"
     y2="537.03003"
     xlink:href="#a2a092df-2c92-4a00-bfa3-7775e0a35a00"
     gradientTransform="matrix(4.4171755,0,0,4.4171755,-675.57623,-1286.0291)" /><linearGradient
     id="a2a092df-2c92-4a00-bfa3-7775e0a35a00"
     x1="460.5"
     y1="532.56"
     x2="460.5"
     y2="81.559998"
     gradientUnits="userSpaceOnUse"><stop
       offset="0"
       stop-color="gray"
       stop-opacity="0.25"
       id="stop18998" /><stop
       offset="0.54"
       stop-color="gray"
       stop-opacity="0.12"
       id="stop19000" /><stop
       offset="1"
       stop-color="gray"
       stop-opacity="0.1"
       id="stop19002" /></linearGradient></defs><sodipodi:namedview
   pagecolor="#ffffff"
   bordercolor="#666666"
   borderopacity="1"
   objecttolerance="10"
   gridtolerance="10"
   guidetolerance="10"
   inkscape:pageopacity="0"
   inkscape:pageshadow="2"
   inkscape:window-width="2560"
   inkscape:window-height="1395"
   id="namedview878"
   showgrid="false"
   inkscape:zoom="0.84797571"
   inkscape:cx="352.80136"
   inkscape:cy="75.67674"
   inkscape:window-x="0"
   inkscape:window-y="23"
   inkscape:window-maximized="1"
   inkscape:current-layer="_x34_"
   inkscape:document-rotation="0" />

<g
   opacity="0.05"
   id="g8857"
   transform="matrix(0.16323592,0,0,0.16323592,60.562661,147.14129)"
   style="stroke-width:6.1261"><polygon
     points=""
     fill="url(#5a1f6f01-7714-46af-aba4-b09e98a2a9e8)"
     id="polygon8855"
     style="fill:url(#5a1f6f01-7714-46af-aba4-b09e98a2a9e8);stroke-width:6.1261" /></g><path
   d="m 233.51391,106.59802 c -2.40182,1.99972 -5.06708,3.45148 -7.94927,4.18803 -22.72284,5.80169 -29.35188,-9.07347 -88.28189,2.89462 a 129.50654,74.345552 0 0 1 -13.96779,2.36266 c -33.439628,4.42109 -48.386738,-3.23087 -53.075728,-9.44531 -1.90596,-2.52278 -2.1229,-4.8036 -1.19936,-5.95825 3.48962,-4.341031 0.30991,-11.418341 -6.33153,-31.700221 -6.64144,-20.28188 22.72284,-27.01227 45.557238,-30.19866 14.6341,-2.04064 21.76211,-4.84452 24.9945,-6.59517 a 38.922001,22.343873 0 0 1 13.05044,-4.72888 c 32.85081,-7.03639 48.80514,-0.71165 68.38546,8.25864 4.32329,1.97303 8.82633,4.09196 13.70747,6.20199 25.63292,11.10344 21.66293,50.93599 5.11046,64.720551 z"
   fill="#ff0000"
   opacity="0.27"
   style="isolation:isolate;fill:#cc007b;fill-opacity:1;stroke-width:0.999997"
   id="path857" /><text
   xml:space="preserve"
   style="font-size:29.3333px;line-height:1.25;font-family:'Noto Sans JP';-inkscape-font-specification:'Noto Sans JP'"
   x="99.496735"
   y="85.574417"
   id="text9908-7"><tspan
     sodipodi:role="line"
     x="99.496735"
     y="85.574417"
     style="font-style:normal;font-variant:normal;font-weight:bold;font-stretch:normal;font-size:29.3333px;font-family:Mamelon;-inkscape-font-specification:Mamelon;fill:#ffffff"
     id="tspan23564">かわいい</tspan><tspan
     sodipodi:role="line"
     x="99.496735"
     y="122.24104"
     style="font-style:normal;font-variant:normal;font-weight:bold;font-stretch:normal;font-size:29.3333px;font-family:Mamelon;-inkscape-font-specification:Mamelon;fill:#ffffff"
     id="tspan22199" /></text><path
   d="m 176.95404,253.19519 a 8.4282373,8.4282373 0 0 0 8.13872,-1.43368 c 2.85063,-2.3926 3.74438,-6.3344 4.4716,-9.9843 l 2.15097,-10.7957 -4.50328,3.10077 c -3.23849,2.2299 -6.54993,4.53124 -8.79225,7.76114 -2.24232,3.2299 -3.22109,7.63901 -1.41945,11.13391"
   fill="#e6e6e6"
   id="path8201"
   style="stroke-width:1" /><path
   d="m 177.33897,266.26563 c -0.45579,-3.31999 -0.92446,-6.68265 -0.60475,-10.03824 0.28394,-2.98013 1.19313,-5.89087 3.04413,-8.27748 a 13.769754,13.769754 0 0 1 3.53282,-3.20133 c 0.35329,-0.223 0.67844,0.33688 0.3267,0.5589 a 13.090588,13.090588 0 0 0 -5.17801,6.24764 c -1.12732,2.86735 -1.30835,5.99299 -1.11409,9.03893 0.11748,1.842 0.36647,3.67191 0.61737,5.4995 a 0.33535769,0.33535769 0 0 1 -0.22605,0.39812 0.32561834,0.32561834 0 0 1 -0.39811,-0.22605 z"
   fill="#f2f2f2"
   id="path8203"
   style="stroke-width:1" /><path
   d="m 181.72908,260.39079 a 6.2042563,6.2042563 0 0 0 5.40582,2.79007 c 2.73652,-0.1299 5.0179,-2.03982 7.07159,-3.85306 l 6.07436,-5.3632 -4.02022,-0.1924 c -2.89111,-0.13836 -5.8568,-0.26741 -8.61048,0.62416 -2.75368,0.89157 -5.29326,3.03723 -5.79679,5.88751"
   fill="#e6e6e6"
   id="path8205"
   style="stroke-width:1" /><path
   d="m 176.05087,268.17414 c 2.19379,-3.88178 4.7384,-8.19593 9.28519,-9.5748 a 10.361257,10.361257 0 0 1 3.9055,-0.40325 c 0.41465,0.0357 0.31111,0.67492 -0.10279,0.63923 a 9.6259017,9.6259017 0 0 0 -6.23256,1.6489 c -1.75735,1.19618 -3.12563,2.85918 -4.28374,4.62272 -0.70937,1.08022 -1.34478,2.20627 -1.98032,3.33081 -0.2031,0.35938 -0.79675,0.1 -0.59128,-0.26362 z"
   fill="#f2f2f2"
   id="path8207"
   style="stroke-width:1" /><path
   d="m 121.98078,240.90383 a 16.61086,16.61086 0 0 1 -16.04025,-2.82556 c -5.61819,-4.71548 -7.37965,-12.48421 -8.81288,-19.67766 q -2.11964,-10.63839 -4.23927,-21.27678 l 8.87533,6.1112 c 6.38259,4.39482 12.90898,8.93043 17.32826,15.29611 4.41929,6.36568 6.34831,15.05539 2.79755,21.94335"
   fill="#e6e6e6"
   id="path8209"
   style="stroke-width:1" /><path
   d="m 121.22212,266.66379 c 0.8983,-6.54325 1.82199,-13.17054 1.19188,-19.78393 -0.55961,-5.87339 -2.35149,-11.61006 -5.99954,-16.31372 a 27.138162,27.138162 0 0 0 -6.96269,-6.30937 c -0.69628,-0.43949 -1.33711,0.66395 -0.64387,1.10152 a 25.799646,25.799646 0 0 1 10.20511,12.31321 c 2.2218,5.65113 2.57858,11.81132 2.19571,17.81444 -0.23153,3.63031 -0.72224,7.23683 -1.21673,10.83872 a 0.66093859,0.66093859 0 0 0 0.4455,0.78463 0.64173801,0.64173801 0 0 0 0.78463,-0.4455 z"
   fill="#f2f2f2"
   id="path8211"
   style="stroke-width:1" /><path
   d="m 112.56985,255.08534 a 12.22769,12.22769 0 0 1 -10.65408,5.49882 c -5.39328,-0.25603 -9.88957,-4.0202 -13.93708,-7.59384 l -11.9717,-10.5701 7.92329,-0.37918 c 5.69795,-0.27268 11.5429,-0.52704 16.97001,1.23012 5.42711,1.75716 10.43227,5.98596 11.42465,11.60345"
   fill="#e6e6e6"
   id="path8213"
   style="stroke-width:1" /><path
   d="m 123.76077,270.4252 c -4.32365,-7.65043 -9.33871,-16.15301 -18.29977,-18.87057 a 20.420584,20.420584 0 0 0 -7.69718,-0.79474 c -0.81721,0.0705 -0.61315,1.33017 0.20258,1.25983 a 18.971274,18.971274 0 0 1 12.28349,3.24976 c 3.46347,2.3575 6.16017,5.63504 8.44264,9.11073 1.39807,2.12896 2.65037,4.34824 3.90292,6.56454 0.40029,0.70828 1.5703,0.19701 1.16533,-0.51955 z"
   fill="#f2f2f2"
   id="path8215"
   style="stroke-width:1" /><path
   d="m 165.47681,211.30231 1.35851,13.28263 0.0268,0.27277 0.40373,3.93906 3.31609,32.4324 v 0.005 l 0.64439,6.29234 a 7.5056092,7.5056092 0 0 0 -0.6658,1.07234 7.7236749,7.7236749 0 0 0 0.22459,7.3941 q 2.42673,-0.60972 4.78675,-1.39058 a 72.103,72.103 0 0 0 9.49867,-3.8936 7.7318873,7.7318873 0 0 0 -2.59662,-4.50598 l -3.32941,-40.003 -0.29144,-3.50852 -0.94928,-11.38931 z"
   fill="#ffb8b8"
   id="path8223"
   style="stroke-width:1" /><circle
   cx="-0.089667924"
   cy="229.99289"
   r="17.582024"
   transform="rotate(-45)"
   fill="#ffb8b8"
   id="circle8225"
   style="stroke-width:1" /><path
   d="m 129.79524,235.26025 c 0.003,0.0348 0.005,0.0695 0.008,0.10162 a 3.2265696,3.2265696 0 0 0 2.52179,2.87741 l 26.23892,5.73076 a 3.2489605,3.2489605 0 0 0 0.6927,0.0749 3.2163462,3.2163462 0 0 0 3.09933,-2.3613 c 0.0562,-0.20859 0.11765,-0.42252 0.1845,-0.64448 v -0.003 c 0.88517,-3.00577 2.46565,-7.09726 4.72525,-12.2397 q 0.76621,-1.7449 1.63923,-3.6556 c 0.10708,-0.23533 0.21663,-0.47333 0.3237,-0.71133 q 1.80096,-3.91098 4.01923,-8.46644 a 21.073727,21.073727 0 0 0 1.62853,-4.66109 21.310117,21.310117 0 0 0 -1.07763,-12.7371 21.046002,21.046002 0 0 0 -1.1633,-2.39339 21.408318,21.408318 0 0 0 -16.93818,-10.7796 c -0.55364,-0.0455 -1.10441,-0.0668 -1.65805,-0.0668 a 21.526487,21.526487 0 0 0 -14.83893,6.02224 21.011157,21.011157 0 0 0 -5.21738,8.17763 c -0.0695,0.19521 -0.13371,0.3931 -0.19783,0.59099 a 79.576407,79.576407 0 0 0 -2.37476,9.55216 c -0.35556,1.9174 -0.64439,3.80802 -0.87707,5.65053 a 116.58146,116.58146 0 0 0 -0.73815,19.94133 z"
   fill="#ff639f"
   id="path8227"
   style="stroke-width:1" /><path
   d="m 118.24014,268.85859 a 71.143375,71.143375 0 0 0 52.54494,7.13471 q 2.42673,-0.60972 4.78675,-1.39058 a 119.64307,119.64307 0 0 0 -4.98992,-13.3682 v -0.005 c -3.2145,-7.2069 -6.16667,-11.61662 -7.60548,-13.56342 a 2.5008651,2.5008651 0 0 1 -0.35568,-2.27037 l 0.44669,-1.33977 a 3.2147257,3.2147257 0 0 0 -0.52687,-3.01647 v -0.003 c -0.0294,-0.0374 -0.0615,-0.0749 -0.0936,-0.11232 -11.68882,-13.31739 -32.06595,-6.05166 -32.27187,-5.97678 l -0.10172,0.0374 -0.0641,0.0883 c -0.0696,0.0963 -0.13905,0.18986 -0.20591,0.28881 -5.52489,7.74174 -9.19653,19.64182 -11.5632,33.49672 z"
   fill="#2f2e41"
   id="path8229"
   style="stroke-width:1" /><path
   d="m 94.21387,183.11631 a 7.535461,7.535461 0 0 1 0.1713,1.17409 l 30.75111,17.74019 7.4745,-4.30293 7.96824,10.43157 -12.49183,8.90342 a 5.7268036,5.7268036 0 0 1 -6.87087,-0.1674 L 89.50664,191.87927 a 7.5143538,7.5143538 0 1 1 4.70723,-8.76296 z"
   fill="#ffb8b8"
   id="path8231"
   style="stroke-width:1" /><path
   d="m 125.60757,201.75818 v 0.003 a 3.2094041,3.2094041 0 0 0 0.55625,1.10978 l 5.24663,6.79776 2.50038,3.24377 2.19288,2.83998 a 3.220657,3.220657 0 0 0 4.86967,0.26742 l 7.96364,-8.26856 3.28656,-3.41492 a 8.9463589,8.9463589 0 0 0 -10.96947,-14.13569 l -2.05368,1.14722 -12.05795,6.74427 a 3.2278612,3.2278612 0 0 0 -1.5349,3.6663 z"
   fill="#ff639f"
   id="path8233"
   style="stroke-width:1" /><path
   d="m 160.38791,206.02081 0.50272,16.05843 0.003,0.10162 a 3.2203602,3.2203602 0 0 0 3.79203,3.06995 l 2.17682,-0.3931 0.55625,-0.10162 h 0.003 l 1.80781,-0.32625 9.62429,-1.73822 1.84255,-0.33159 a 3.2243393,3.2243393 0 0 0 2.47896,-4.20113 l -5.19062,-15.36849 a 8.9450833,8.9450833 0 0 0 -17.59603,3.2304 z"
   fill="#ff639f"
   id="path8235"
   style="stroke-width:1" /><path
   d="m 159.78336,158.64886 c -4.51896,3.09284 -10.45245,6.27209 -15.06787,2.97847 -3.03057,-2.16265 -3.9854,-6.16737 -2.75646,-9.68178 2.21002,-6.31993 8.28199,-9.10226 14.08831,-11.23498 7.54822,-2.77252 15.76713,-4.97819 23.55944,-2.99264 7.79232,1.98554 14.67895,9.53005 13.27229,17.44736 -1.13121,6.36695 -7.13703,11.66473 -6.28443,18.07493 0.85807,6.45135 8.1133,9.84717 14.51852,11.00018 6.40521,1.15301 13.5728,1.52347 18.17597,6.12424 5.8722,5.86911 4.40581,16.35951 -1.11969,22.55612 -5.52549,6.19662 -13.86375,9.00549 -21.94354,10.91499 -10.70521,2.52997 -22.28374,3.85958 -32.45099,-0.33916 -10.16725,-4.19874 -18.07928,-15.50127 -15.13399,-26.09974 1.24409,-4.47678 4.17478,-8.26026 7.00715,-11.94361 2.83236,-3.68336 5.70038,-7.53505 6.7808,-12.05412 0.90034,-3.76589 0.23396,-8.13828 -2.26339,-10.96313 a 3.176263,3.176263 0 0 1 -0.4255,-3.71271 z"
   fill="#2f2e41"
   id="path8237"
   style="stroke-width:1" /></svg>
