<?xml version="1.0" encoding="UTF-8" standalone="no"?>
<svg
   xmlns:dc="http://purl.org/dc/elements/1.1/"
   xmlns:cc="http://creativecommons.org/ns#"
   xmlns:rdf="http://www.w3.org/1999/02/22-rdf-syntax-ns#"
   xmlns:svg="http://www.w3.org/2000/svg"
   xmlns="http://www.w3.org/2000/svg"
   xmlns:xlink="http://www.w3.org/1999/xlink"
   xmlns:sodipodi="http://sodipodi.sourceforge.net/DTD/sodipodi-0.dtd"
   xmlns:inkscape="http://www.inkscape.org/namespaces/inkscape"
   version="1.1"
   id="_x34_"
   x="0px"
   y="0px"
   viewBox="0 0 300 300"
   xml:space="preserve"
   sodipodi:docname="everyday.svg"
   width="300"
   height="300"
   inkscape:version="1.0.1 (c497b03c, 2020-09-10)"><metadata
   id="metadata882"><rdf:RDF><cc:Work
       rdf:about=""><dc:format>image/svg+xml</dc:format><dc:type
         rdf:resource="http://purl.org/dc/dcmitype/StillImage" /><dc:title /></cc:Work></rdf:RDF></metadata><defs
   id="defs880"><clipPath
     clipPathUnits="userSpaceOnUse"
     id="clipPath900"><rect
       style="fill:#ffe6d5;fill-opacity:0.414925;stroke-width:1"
       id="rect902"
       width="361.06839"
       height="630.4104"
       x="-21.348534"
       y="-20.013029" /></clipPath><linearGradient
     id="5a1f6f01-7714-46af-aba4-b09e98a2a9e8"
     x1="368.48999"
     y1="311.39999"
     x2="368.48999"
     y2="311.39999"
     xlink:href="#8fdda24f-3500-4787-9acd-06391067bf0a"
     gradientTransform="matrix(6.1261027,0,0,6.1261027,-371.01314,-901.40272)" /><linearGradient
     id="8fdda24f-3500-4787-9acd-06391067bf0a"
     x1="373.64999"
     y1="193.72"
     x2="373.64999"
     y2="191.69"
     gradientUnits="userSpaceOnUse"><stop
       offset="0"
       stop-color="gray"
       stop-opacity="0.25"
       id="stop8822" /><stop
       offset="0.54"
       stop-color="gray"
       stop-opacity="0.12"
       id="stop8824" /><stop
       offset="1"
       stop-color="gray"
       stop-opacity="0.1"
       id="stop8826" /></linearGradient><linearGradient
     id="fba3f31e-455c-4283-9b41-fb0bd740b4d7"
     x1="450.66"
     y1="467.97"
     x2="450.66"
     y2="417.39999"
     xlink:href="#8fdda24f-3500-4787-9acd-06391067bf0a"
     gradientTransform="matrix(6.1261027,0,0,6.1261027,-579.03032,-939.74596)" /><linearGradient
     id="03abcd37-863a-4fdf-b76f-be25b3f5f7e8"
     x1="439.35999"
     y1="721.28998"
     x2="439.35999"
     y2="172.56"
     xlink:href="#8fdda24f-3500-4787-9acd-06391067bf0a"
     gradientTransform="translate(-40.580017,-7.4800083)" /><linearGradient
     id="7a137c36-2b0e-489c-9ead-72d7056953bc"
     x1="373.64999"
     y1="192.7"
     x2="373.64999"
     y2="190.66"
     xlink:href="#8fdda24f-3500-4787-9acd-06391067bf0a"
     gradientTransform="matrix(6.1261027,0,0,6.1261027,-579.03032,-939.74596)" /></defs><sodipodi:namedview
   pagecolor="#ffffff"
   bordercolor="#666666"
   borderopacity="1"
   objecttolerance="10"
   gridtolerance="10"
   guidetolerance="10"
   inkscape:pageopacity="0"
   inkscape:pageshadow="2"
   inkscape:window-width="2560"
   inkscape:window-height="1395"
   id="namedview878"
   showgrid="false"
   inkscape:zoom="0.59960938"
   inkscape:cx="125.63211"
   inkscape:cy="381.77867"
   inkscape:window-x="0"
   inkscape:window-y="23"
   inkscape:window-maximized="1"
   inkscape:current-layer="_x34_"
   inkscape:document-rotation="0" />

<g
   opacity="0.05"
   id="g8857"
   transform="matrix(0.16323592,0,0,0.16323592,60.562661,147.14129)"
   style="stroke-width:6.1261"><polygon
     points=""
     fill="url(#5a1f6f01-7714-46af-aba4-b09e98a2a9e8)"
     id="polygon8855"
     style="fill:url(#5a1f6f01-7714-46af-aba4-b09e98a2a9e8);stroke-width:6.1261" /></g><path
   d="m 233.51391,106.59802 c -2.40182,1.99972 -5.06708,3.45148 -7.94927,4.18803 -22.72284,5.80169 -29.35188,-9.07347 -88.28189,2.89462 a 129.50654,74.345552 0 0 1 -13.96779,2.36266 c -33.439628,4.42109 -48.386738,-3.23087 -53.075728,-9.44531 -1.90596,-2.52278 -2.1229,-4.8036 -1.19936,-5.95825 3.48962,-4.341031 0.30991,-11.418341 -6.33153,-31.700221 -6.64144,-20.28188 22.72284,-27.01227 45.557238,-30.19866 14.6341,-2.04064 21.76211,-4.84452 24.9945,-6.59517 a 38.922001,22.343873 0 0 1 13.05044,-4.72888 c 32.85081,-7.03639 48.80514,-0.71165 68.38546,8.25864 4.32329,1.97303 8.82633,4.09196 13.70747,6.20199 25.63292,11.10344 21.66293,50.93599 5.11046,64.720551 z"
   fill="#ff0000"
   opacity="0.27"
   style="isolation:isolate;fill:#00be00;fill-opacity:1;stroke-width:0.999997;opacity:0.44110276"
   id="path857" /><text
   xml:space="preserve"
   style="font-size:29.3333px;line-height:1.25;font-family:'Noto Sans JP';-inkscape-font-specification:'Noto Sans JP'"
   x="123.08232"
   y="84.395142"
   id="text9908-7"><tspan
     sodipodi:role="line"
     id="tspan9906-3"
     x="123.08232"
     y="84.395142"
     style="font-style:normal;font-variant:normal;font-weight:bold;font-stretch:normal;font-size:29.3333px;font-family:Mamelon;-inkscape-font-specification:Mamelon;fill:#ffffff">日 常</tspan></text><path
   d="m 118.17064,211.9333 c 0,-8.85451 7.18285,-29.86582 16.04336,-29.86582 8.86051,0 16.04336,21.01131 16.04336,29.86582 a 16.043366,16.043356 0 0 1 -32.08672,0 z"
   fill="#f2f2f2"
   id="path17061"
   style="stroke-width:1" /><path
   d="m 134.214,250.93855 a 0.13187423,0.13187415 0 0 1 -0.13192,-0.13183 v -55.2748 a 0.131922,0.13192192 0 0 1 0.26384,0 v 55.2748 a 0.13187196,0.13187187 0 0 1 -0.13192,0.13183 z"
   fill="#3f3d56"
   id="path17063"
   style="stroke-width:1" /><path
   d="m 134.214,206.20311 a 0.13155118,0.13155111 0 0 1 -0.0933,-0.0386 l -6.34994,-6.3456 a 0.13187547,0.13187538 0 0 1 0.18658,-0.18642 l 6.34994,6.3456 a 0.131831,0.13183093 0 0 1 -0.0933,0.22504 z"
   fill="#3f3d56"
   id="path17065"
   style="stroke-width:1" /><path
   d="m 134.214,217.18863 a 0.13183328,0.13183319 0 0 1 -0.0933,-0.22505 l 10.63412,-10.62697 a 0.13187547,0.13187538 0 0 1 0.18657,0.18643 l -10.63411,10.62695 a 0.13156256,0.13156248 0 0 1 -0.0933,0.0386 z"
   fill="#3f3d56"
   id="path17067"
   style="stroke-width:1" /><path
   d="m 90.871257,202.57141 c 0,-10.97973 8.90685,-37.03409 19.894023,-37.03409 10.98717,0 19.89403,26.05436 19.89403,37.03409 a 19.894034,19.894021 0 0 1 -39.788053,0 z"
   fill="#e6e6e6"
   id="path17069"
   style="stroke-width:1" /><path
   d="m 110.76528,250.93855 a 0.16352332,0.16352321 0 0 1 -0.16359,-0.16347 v -68.54165 a 0.163585,0.1635849 0 0 1 0.32717,0 v 68.54165 a 0.16352559,0.16352548 0 0 1 -0.16358,0.16347 z"
   fill="#3f3d56"
   id="path17071"
   style="stroke-width:1" /><path
   d="m 110.76528,195.46589 a 0.16311383,0.16311372 0 0 1 -0.11569,-0.0479 l -7.87402,-7.86865 a 0.16352912,0.16352901 0 0 1 0.23137,-0.23116 l 7.87402,7.86865 a 0.16347327,0.16347316 0 0 1 -0.11568,0.27906 z"
   fill="#3f3d56"
   id="path17073"
   style="stroke-width:1" /><path
   d="m 110.76528,209.08811 a 0.16347554,0.16347543 0 0 1 -0.11569,-0.27906 l 13.18649,-13.17761 a 0.16352912,0.16352901 0 1 1 0.23136,0.23117 l -13.18648,13.1776 a 0.16315477,0.16315467 0 0 1 -0.11568,0.0479 z"
   fill="#3f3d56"
   id="path17075"
   style="stroke-width:1" /><path
   d="m 64.771127,183.62914 c 0,-15.27978 12.38671,-51.53793 27.6665,-51.53793 15.279783,0 27.666503,36.25815 27.666503,51.53793 a 27.666503,27.666485 0 0 1 -55.333003,0 z"
   fill="#86ff8b"
   id="path17077"
   style="stroke-width:1" /><path
   d="m 92.437617,250.93855 a 0.22749487,0.22749473 0 0 1 -0.22749,-0.2275 v -95.38494 a 0.22749493,0.22749478 0 1 1 0.45498,0 v 95.38494 a 0.22749487,0.22749473 0 0 1 -0.22749,0.2275 z"
   fill="#3f3d56"
   id="path17079"
   style="stroke-width:1" /><path
   d="m 92.437617,173.74086 a 0.22677371,0.22677357 0 0 1 -0.16087,-0.0667 l -10.95036,-10.95029 a 0.22749487,0.22749473 0 0 1 0.32175,-0.32169 l 10.95036,10.95029 a 0.22749487,0.22749473 0 0 1 -0.16088,0.38833 z"
   fill="#3f3d56"
   id="path17081"
   style="stroke-width:1" /><path
   d="m 92.437617,192.69801 a 0.22749487,0.22749473 0 0 1 -0.16087,-0.38834 l 18.338363,-18.33843 a 0.22749487,0.22749473 0 1 1 0.32175,0.32169 l -18.338363,18.33844 a 0.2268124,0.22681225 0 0 1 -0.16088,0.0667 z"
   fill="#3f3d56"
   id="path17083"
   style="stroke-width:1" /><path
   d="M 238.32592,251.10775 H 69.297237 a 0.22749514,0.227495 0 0 1 0,-0.45499 H 238.32592 a 0.22749514,0.227495 0 0 1 0,0.45499 z"
   fill="#3f3d56"
   id="path17085"
   style="stroke-width:1" /><path
   d="m 224.91303,233.09766 a 0.59526142,0.59526104 0 1 0 0,-1.19052 h -5.65498 v -2.38104 h 5.65498 a 0.59526538,0.595265 0 1 0 0,-1.19053 h -48.21618 a 0.59526538,0.595265 0 0 0 0,1.19053 h 5.65499 v 2.38104 h -5.65498 a 0.59526142,0.59526104 0 0 0 0,1.19052 h 5.65498 v 2.38105 h -5.65498 a 0.59526195,0.59526156 0 0 0 0,1.19052 h 5.65498 v 2.38104 h -5.05971 a 1.1905257,1.190525 0 0 0 0,2.38105 h 4.81673 a 0.887255,0.88725445 0 0 0 -0.0547,0.29762 v 8.33366 a 0.892895,0.89289446 0 0 0 1.78579,0 v -8.33366 a 0.88725275,0.88725221 0 0 0 -0.0547,-0.29762 h 34.03917 a 0.887255,0.88725445 0 0 0 -0.0546,0.29762 v 8.33366 a 0.892895,0.89289446 0 0 0 1.78579,0 v -8.33366 a 0.88725275,0.88725221 0 0 0 -0.0547,-0.29762 h 4.81674 a 1.1905257,1.190525 0 1 0 0,-2.38105 h -5.05972 v -2.38105 h 5.65498 a 0.59526536,0.595265 0 1 0 0,-1.19053 h -5.65498 v -2.38103 z m -41.37066,-3.57156 h 34.52515 v 2.38104 h -34.52515 z m 34.52515,9.52417 h -34.52515 v -2.38105 h 34.52515 z m 0,-3.57156 h -34.52515 v -2.38105 h 34.52515 z"
   fill="#3f3d56"
   id="path17087"
   style="stroke-width:1" /><path
   d="m 137.17911,240.92127 a 1.8932716,1.8932703 0 0 0 -1.9309,-2.16784 l -12.12588,-12.26026 -2.39544,3.3487 12.67258,10.99846 a 1.9035202,1.9035189 0 0 0 3.77964,0.081 z"
   fill="#ffb8b8"
   id="path17089"
   style="stroke-width:1" /><path
   d="m 130.52517,234.75182 -2.18497,2.18156 a 0.79544724,0.79544669 0 0 1 -1.11645,0.005 l -8.45719,-8.31452 a 3.1022997,3.1022979 0 1 1 4.39485,-4.37931 l 7.3708,9.3927 a 0.79579297,0.79579251 0 0 1 -0.007,1.11508 z"
   fill="#86ff8b"
   id="path17091"
   style="stroke-width:1" /><ellipse
   cx="120.58074"
   cy="213.42841"
   fill="#ffb8b8"
   id="circle17093"
   style="stroke-width:1"
   rx="4.3285632"
   ry="4.3285608" /><polygon
   points="219.711,583.041 212.601,570.961 181.031,589.544 185.849,597.728 "
   fill="#ffb8b8"
   id="polygon17095"
   style="stroke-width:4.39571"
   transform="matrix(0.22749468,0,0,0.22749468,64.771117,132.09121)" /><path
   d="m 106.28308,265.37652 2.15843,3.66693 9e-5,1.5e-4 a 2.7115887,2.711587 0 0 1 -0.96147,3.71236 l -0.0759,0.0447 -3.53397,-6.00387 z"
   fill="#2f2e41"
   id="path17097"
   style="stroke-width:1" /><polygon
   points="250.868,582.396 236.851,582.397 236.852,619.03 246.35,619.03 "
   fill="#ffb8b8"
   id="polygon17099"
   style="stroke-width:4.39571"
   transform="matrix(0.22749468,0,0,0.22749468,64.771117,132.09121)" /><path
   d="m 118.10268,272.21186 4.25503,-1.8e-4 h 1.8e-4 a 2.7115933,2.7115915 0 0 1 2.71167,2.71162 v 0.0881 l -6.96675,2.2e-4 z"
   fill="#2f2e41"
   id="path17101"
   style="stroke-width:1" /><path
   d="m 109.96731,267.86807 a 0.79185956,0.79185909 0 0 1 -0.63869,-0.32304 l -2.08378,-2.83012 a 0.79299478,0.79299432 0 0 1 0.19818,-1.1297 l 9.27254,-6.19325 -5.59492,-14.71132 11.96458,0.98738 0.40299,12.64207 a 6.3526032,6.3525993 0 0 1 -3.18023,5.71428 l -9.94444,5.73716 a 0.7906038,0.79060333 0 0 1 -0.39623,0.10654 z"
   fill="#2f2e41"
   id="path17103"
   style="stroke-width:1" /><path
   d="m 118.71901,271.22534 a 0.79304712,0.79304665 0 0 1 -0.79109,-0.76483 l -0.43848,-12.31576 5.42957,-0.28604 -0.43234,12.40422 a 0.79082676,0.79082629 0 0 1 -0.74014,0.76363 l -2.97361,0.19706 c -0.018,7.8e-4 -0.036,0.002 -0.0539,0.002 z"
   fill="#2f2e41"
   id="path17105"
   style="stroke-width:1" /><path
   d="m 122.64994,246.11366 c -1.38141,0 -4.38649,-1.55377 -6.06156,-2.10761 -0.2506,0.2005 -1.62723,1.22987 -3.23414,1.04176 -0.99151,-0.11635 -1.86439,-0.67758 -2.59438,-1.66822 -1.61204,-2.18784 1.63907,-10.27556 3.59325,-17.76115 0.82211,-3.14903 2.69944,-6.3706 5.88259,-5.67941 v 0 a 6.0927677,6.0927638 0 0 1 4.59761,4.47253 c 0.36791,1.49767 0.0514,3.25935 -0.17969,4.54584 a 6.1781714,6.1781676 0 0 0 -0.16513,1.31731 c 0.11342,0.90734 -1.07646,15.13727 -1.4816,15.74497 -0.0431,0.0647 -0.16793,0.094 -0.35695,0.094 z"
   fill="#86ff8b"
   id="path17107"
   style="stroke-width:1" /><path
   d="m 119.41632,246.13886 a 1.8932556,1.8932544 0 0 0 0.16594,-2.89835 l 0.0856,-17.24364 -4.06136,0.67629 1.193,16.73729 a 1.9035202,1.9035189 0 0 0 2.61687,2.72841 z"
   fill="#ffb8b8"
   id="path17109"
   style="stroke-width:1" /><path
   d="m 120.35566,237.07084 h -4.37452 a 0.79544724,0.79544669 0 0 1 -0.79306,-0.78584 l -0.1074,-11.85933 a 3.1022997,3.1022979 0 1 1 6.20426,0.008 l -0.13627,11.85366 a 0.79579297,0.79579251 0 0 1 -0.79301,0.78394 z"
   fill="#86ff8b"
   id="path17111"
   style="stroke-width:1" /><path
   d="m 119.47857,217.73891 a 4.3917453,4.3917426 0 0 1 -4.19494,-3.51473 5.0529636,5.0529604 0 0 1 0.16201,-2.29351 6.1601766,6.1601727 0 0 1 8.44796,-3.86888 c 0.53019,0.23991 1.05239,0.58447 1.29515,1.11336 0.24276,0.52888 0.0908,1.26807 -0.44022,1.50605 -0.34703,0.15552 -0.78253,0.0791 -1.09041,0.30238 -0.44223,0.32064 -0.32839,1.00302 -0.13092,1.5123 0.19747,0.50929 0.42081,1.12561 0.0898,1.56012 -0.30845,0.40489 -0.92501,0.39232 -1.41066,0.23992 -0.48564,-0.15239 -0.96499,-0.40759 -1.47134,-0.35568 -0.7385,0.0757 -1.26921,0.81029 -1.36744,1.54614 -0.0982,0.73584 0.13302,1.47138 0.36132,2.17779 z"
   fill="#2f2e41"
   id="path17113"
   style="stroke-width:1" /><path
   d="m 135.76244,240.82098 c 2.81183,-0.63565 5.9974,1.56382 6.09615,4.51654 0.0278,0.83052 -0.21564,1.7027 -0.8547,2.26769 a 2.1031173,2.1031159 0 0 1 -1.99478,0.4737 c -1.3125,-0.43873 -1.38257,-2.26762 -0.67851,-3.24442 0.95334,-1.32262 2.84196,-1.54846 4.34058,-1.39115 a 10.285539,10.285532 0 0 1 5.0348,2.09679 c 2.92531,2.20436 4.78802,5.58281 6.29569,8.84699 a 44.605072,44.605044 0 0 1 3.3413,10.50003 q 0.12753,0.68288 0.23367,1.36946 a 0.26621679,0.2662166 0 0 0 0.32777,0.17995 0.27111019,0.27111001 0 0 0 0.17994,-0.32776 45.194087,45.19406 0 0 0 -3.38983,-11.46631 c -1.57863,-3.53752 -3.56882,-7.2069 -6.73483,-9.5677 a 10.739189,10.739182 0 0 0 -5.41444,-2.17093 c -1.66046,-0.14743 -3.6267,0.20385 -4.65928,1.648 -0.81462,1.13929 -0.73187,3.03274 0.52858,3.82621 a 2.4056013,2.4055998 0 0 0 2.29302,0.0461 2.9366813,2.9366795 0 0 0 1.54841,-1.91944 c 0.44756,-1.63992 -0.23203,-3.41369 -1.39722,-4.58587 a 5.8721954,5.8721918 0 0 0 -4.13305,-1.73807 5.2043252,5.2043219 0 0 0 -1.11109,0.13247 c -0.33194,0.075 -0.1836,0.58263 0.14782,0.50771 z"
   fill="#cccccc"
   id="path17115"
   style="stroke-width:1" /><path
   d="m 149.32271,273.29483 -1.74734,-2.98336 2.15461,-1.262 1.74734,2.98327 v 9e-5 a 1.2484981,1.2484973 0 0 1 -2.15461,1.262 z"
   fill="#86ff8b"
   id="path17117"
   style="stroke-width:1" /><ellipse
   cx="143.54524"
   cy="265.55713"
   fill="#86ff8b"
   id="circle17119"
   style="stroke-width:1"
   rx="1.5366049"
   ry="1.536604" /><path
   d="m 156.08344,273.29483 -1.74735,-2.98336 2.15458,-1.262 1.74734,2.98327 a 1.2485036,1.2485028 0 0 1 -2.15457,1.26209 z"
   fill="#86ff8b"
   id="path17121"
   style="stroke-width:1" /><path
   d="m 143.83716,268.65276 a 3.2689671,3.2689651 0 0 1 3.2653,-3.26529 h 10.33648 a 1.3817447,1.3817438 0 0 1 1.38013,1.38017 v 1.17619 a 3.9787123,3.9787098 0 0 1 -3.97422,3.97422 h -7.74239 a 3.2689671,3.2689651 0 0 1 -3.2653,-3.26529 z"
   fill="#3f3d56"
   id="path17123"
   style="stroke-width:1" /><path
   d="m 146.22085,273.67955 v -3.45736 h 2.49699 v 3.45735 a 1.248495,1.2484942 0 1 1 -2.49699,0 z"
   fill="#3f3d56"
   id="path17125"
   style="stroke-width:1" /><path
   d="m 153.46641,273.67955 v -3.45736 h 2.49699 v 3.45735 a 1.248495,1.2484942 0 1 1 -2.49699,0 z"
   fill="#3f3d56"
   id="path17127"
   style="stroke-width:1" /><path
   d="m 163.62561,260.00073 a 1.5366073,1.5366063 0 0 1 2.39609,1.92441 l -2.52579,3.14488 -2.39609,-1.92442 z"
   fill="#86ff8b"
   id="path17129"
   style="stroke-width:1" /><path
   d="m 157.54136,266.19594 2.02348,-2.51945 a 2.962827,2.9628255 0 0 1 4.16057,-0.45422 l 0.63223,0.50777 a 3.5325586,3.5325564 0 0 1 0.54156,4.96064 l -1.66713,2.07574 a 1.1092923,1.1092916 0 0 1 -1.55772,0.17002 l -3.96294,-3.1828 a 1.109265,1.1092643 0 0 1 -0.17005,-1.5577 z"
   fill="#3f3d56"
   id="path17131"
   style="stroke-width:1" /><path
   d="m 163.9263,259.62635 a 1.0564158,1.0564151 0 1 1 1.64731,1.32302 l -2.82648,3.51927 -1.64731,-1.32304 z"
   fill="#3f3d56"
   id="path17133"
   style="stroke-width:1" /><path
   d="m 159.87717,265.50891 4.34291,3.488 a 1.5366055,1.5366045 0 1 1 -1.9244,2.39609 l -4.34292,-3.48799 z"
   fill="#3f3d56"
   id="path17135"
   style="stroke-width:1" /><ellipse
   cx="-108.40507"
   cy="297.87338"
   rx="0.64825547"
   ry="0.36014253"
   transform="rotate(-51.230433)"
   fill="#86ff8b"
   id="ellipse17137"
   style="stroke-width:1" /><ellipse
   cx="203.23441"
   cy="222.08144"
   fill="#2f2e41"
   id="circle17139"
   style="stroke-width:1"
   rx="3.2359209"
   ry="3.2359192" /><polygon
   points="564.054,493.249 573.246,493.249 573.245,517.272 567.017,517.271 "
   fill="#a0616a"
   id="polygon17141"
   style="stroke-width:4.39571"
   transform="matrix(0.22749468,0,0,0.22749468,64.771117,132.09121)" /><path
   d="m 192.75261,249.36287 h 2.73248 v 1.72046 h -4.45295 v 0 a 1.720455,1.7204539 0 0 1 1.72047,-1.72046 z"
   fill="#2f2e41"
   id="path17143"
   style="stroke-width:1" /><polygon
   points="561.946,488.123 570.716,490.875 563.523,513.796 557.581,511.931 "
   fill="#a0616a"
   id="polygon17145"
   style="stroke-width:4.39571"
   transform="matrix(0.22749468,0,0,0.22749468,64.771117,132.09121)" /><path
   d="m 190.77357,247.8635 2.60712,0.81815 -0.51513,1.64153 -4.24866,-1.33329 v 0 a 1.720455,1.7204539 0 0 1 2.15667,-1.12639 z"
   fill="#2f2e41"
   id="path17147"
   style="stroke-width:1" /><path
   d="m 193.43074,246.79652 a 0.51565126,0.51565094 0 0 1 -0.18168,-0.0331 l -1.04234,-0.39084 a 0.52187324,0.52187292 0 0 1 -0.32521,-0.59906 c 0.26242,-1.17994 1.15681,-5.1972 1.64654,-7.35192 0.58083,-2.55582 9.05397,-3.03074 9.41436,-3.0497 l 0.0297,-0.002 0.95316,1.19779 c 0.34442,1.10704 0.23526,1.97053 -0.32447,2.56654 -1.63326,1.73896 -6.50968,0.6599 -7.09117,0.52334 l -2.59188,6.80364 a 0.52155702,0.5215567 0 0 1 -0.48694,0.33487 z"
   fill="#2f2e41"
   id="path17149"
   style="stroke-width:1" /><path
   d="m 194.93313,247.6055 a 0.51570358,0.51570326 0 0 1 -0.18167,-0.0331 l -1.04235,-0.39084 a 0.52187324,0.52187292 0 0 1 -0.32521,-0.59906 c 0.26243,-1.17994 1.15681,-5.19719 1.64654,-7.35192 0.58083,-2.55583 9.05397,-3.03074 9.41436,-3.0497 l 0.0296,-0.002 0.95316,1.19779 c 0.34443,1.10704 0.23526,1.97053 -0.32447,2.56654 -1.63326,1.73884 -6.50966,0.6599 -7.09117,0.52334 l -2.59188,6.80364 a 0.52155702,0.5215567 0 0 1 -0.48694,0.33486 z"
   fill="#2f2e41"
   id="path17151"
   style="stroke-width:1" /><path
   d="m 191.91739,230.96131 a 1.2161876,1.2161869 0 0 1 0.10227,0.16198 l 5.69988,0.60052 0.82049,-1.12494 1.85958,1.01637 -1.61155,2.72987 -6.99045,-1.78236 a 1.2129845,1.2129837 0 1 1 0.11978,-1.60144 z"
   fill="#a0616a"
   id="path17153"
   style="stroke-width:1" /><path
   d="m 205.16307,237.83556 a 0.52011926,0.52011894 0 0 1 -0.23687,-0.0579 c -1.13977,-0.57953 -3.35916,-1.5832 -5.41722,-1.79323 a 0.50760703,0.50760671 0 0 1 -0.35773,-0.20224 0.52220538,0.52220506 0 0 1 -0.0964,-0.40574 c 0.18571,-1.02804 0.61174,-3.64582 0.55685,-5.74389 a 2.8425483,2.8425465 0 0 1 2.1475,-2.8277 v 0 a 9.2299218,9.2299164 0 0 1 1.14562,-0.22584 2.8655754,2.8655738 0 0 1 3.18499,3.32395 c -0.36702,2.17425 -0.73701,5.21097 -0.41544,7.33082 a 0.52085406,0.52085374 0 0 1 -0.21018,0.50257 0.51183388,0.51183356 0 0 1 -0.30116,0.0992 z"
   fill="#cccccc"
   id="path17155"
   style="stroke-width:1" /><path
   d="m 199.71723,232.30541 a 0.51961194,0.51961162 0 0 1 -0.20647,-0.0431 l -1.48481,-0.64273 a 0.52071529,0.52071497 0 0 1 -0.27067,-0.68383 l 1.14779,-2.65141 a 1.3290101,1.3290093 0 1 1 2.43933,1.05581 l -1.14777,2.65142 a 0.52129085,0.52129053 0 0 1 -0.4774,0.31385 z"
   fill="#cccccc"
   id="path17157"
   style="stroke-width:1" /><ellipse
   cx="203.11609"
   cy="222.83853"
   fill="#a0616a"
   id="circle17159"
   style="stroke-width:1"
   rx="2.8384855"
   ry="2.8384838" /><path
   d="m 200.22651,221.44397 a 10.238296,10.238289 0 0 0 4.4293,1.45945 l -0.46688,-0.55942 a 3.4309752,3.4309732 0 0 0 1.05985,0.21045 1.1607129,1.1607122 0 0 0 0.94609,-0.44282 1.0796338,1.0796331 0 0 0 0.0722,-0.99733 2.0448673,2.0448659 0 0 0 -0.6433,-0.80438 3.8298876,3.829885 0 0 0 -3.56465,-0.63706 2.2889532,2.2889519 0 0 0 -1.06467,0.68293 c -0.26909,0.33195 -0.78713,0.62772 -0.64935,1.03222 z"
   fill="#2f2e41"
   id="path17161"
   style="stroke-width:1" /><path
   d="m 203.59335,219.1533 a 8.7236911,8.7236857 0 0 0 -3.17386,-2.0524 4.4655219,4.4655191 0 0 0 -2.40441,-0.29843 c -0.80211,0.16142 -1.56065,0.7163 -1.78443,1.50329 -0.18298,0.64352 0.006,1.33641 0.28993,1.94219 0.28397,0.60578 0.66308,1.16753 0.89272,1.79592 a 4.0989821,4.0989797 0 0 1 -4.12453,5.4967 c 0.78811,0.10568 1.51455,0.47604 2.28488,0.67316 0.77034,0.19712 1.67953,0.18377 2.252,-0.36811 0.60568,-0.5839 0.61781,-1.53327 0.58853,-2.37406 l -0.1306,-3.74962 c -0.0222,-0.63741 -0.0412,-1.29525 0.18872,-1.89018 0.22987,-0.59494 0.77617,-1.11589 1.41395,-1.11048 0.48336,0.004 0.91119,0.29692 1.29883,0.5857 0.38764,0.28879 0.79794,0.59688 1.27942,0.63983 0.48147,0.043 1.03121,-0.31335 0.99518,-0.7954"
   fill="#2f2e41"
   id="path17163"
   style="stroke-width:1" /><path
   d="m 198.3439,237.10642 a 1.2717646,1.2717638 0 1 1 0.49024,-2.44584 h 3e-5 a 1.2211765,1.2211758 0 0 1 0.15157,0.0768 l 5.17063,-2.32142 0.14524,-1.40233 2.22884,-0.0596 -0.0148,2.33467 a 1.2573914,1.2573907 0 0 1 -0.90849,1.1953 l -6.04678,1.72118 a 1.1849025,1.1849018 0 0 1 -0.0415,0.11777 1.2764737,1.2764729 0 0 1 -1.17501,0.78353 z"
   fill="#a0616a"
   id="path17165"
   style="stroke-width:1" /><path
   d="m 206.34168,232.09844 a 0.51963242,0.51963209 0 0 1 -0.2036,0.055 l -1.61491,0.0993 a 0.52071756,0.52071725 0 0 1 -0.55098,-0.48713 l -0.17725,-2.88375 a 1.3290091,1.3290083 0 1 1 2.65299,-0.16323 l 0.17728,2.88374 a 0.52129313,0.52129281 0 0 1 -0.28351,0.49602 z"
   fill="#cccccc"
   id="path17167"
   style="stroke-width:1" /><rect
   x="-203.23639"
   y="-237.39798"
   width="9.9389019"
   height="0.80898035"
   rx="1.7780201"
   transform="scale(-1)"
   fill="#3f3d56"
   id="rect17169"
   ry="1.77802"
   style="stroke-width:1" /><path
   d="m 189.71485,236.64679 v -5.66286 a 0.75204799,0.75204754 0 0 1 0.75119,-0.75118 h 10.28561 a 0.75204799,0.75204754 0 0 1 0.75119,0.75118 v 5.66286 a 0.75204572,0.75204526 0 0 1 -0.75119,0.75119 h -10.2856 a 0.75204572,0.75204526 0 0 1 -0.7512,-0.75119 z"
   fill="#3f3d56"
   id="path17171"
   style="stroke-width:1" /><ellipse
   cx="195.60887"
   cy="233.81537"
   fill="#ffffff"
   id="circle17173"
   style="stroke-width:1"
   rx="0.69341117"
   ry="0.69341075" /><path
   d="m 121.06421,220.7273 h -2.50244 a 0.90998054,0.90998 0 0 1 0,-1.81996 h 2.50244 a 0.90998054,0.90998 0 0 1 0,1.81996 z"
   fill="#86ff8b"
   id="path17175"
   style="stroke-width:1" /></svg>
