<?xml version="1.0" encoding="UTF-8" standalone="no"?>
<svg
   xmlns:dc="http://purl.org/dc/elements/1.1/"
   xmlns:cc="http://creativecommons.org/ns#"
   xmlns:rdf="http://www.w3.org/1999/02/22-rdf-syntax-ns#"
   xmlns:svg="http://www.w3.org/2000/svg"
   xmlns="http://www.w3.org/2000/svg"
   xmlns:xlink="http://www.w3.org/1999/xlink"
   xmlns:sodipodi="http://sodipodi.sourceforge.net/DTD/sodipodi-0.dtd"
   xmlns:inkscape="http://www.inkscape.org/namespaces/inkscape"
   version="1.1"
   id="_x34_"
   x="0px"
   y="0px"
   viewBox="0 0 300 300"
   xml:space="preserve"
   sodipodi:docname="love.svg"
   width="300"
   height="300"
   inkscape:version="1.0.1 (c497b03c, 2020-09-10)"><metadata
   id="metadata882"><rdf:RDF><cc:Work
       rdf:about=""><dc:format>image/svg+xml</dc:format><dc:type
         rdf:resource="http://purl.org/dc/dcmitype/StillImage" /><dc:title /></cc:Work></rdf:RDF></metadata><defs
   id="defs880"><clipPath
     clipPathUnits="userSpaceOnUse"
     id="clipPath900"><rect
       style="fill:#ffe6d5;fill-opacity:0.414925;stroke-width:1"
       id="rect902"
       width="361.06839"
       height="630.4104"
       x="-21.348534"
       y="-20.013029" /></clipPath><linearGradient
     id="5a1f6f01-7714-46af-aba4-b09e98a2a9e8"
     x1="368.48999"
     y1="311.39999"
     x2="368.48999"
     y2="311.39999"
     xlink:href="#8fdda24f-3500-4787-9acd-06391067bf0a"
     gradientTransform="matrix(6.1261027,0,0,6.1261027,-371.01314,-901.40272)" /><linearGradient
     id="8fdda24f-3500-4787-9acd-06391067bf0a"
     x1="373.64999"
     y1="193.72"
     x2="373.64999"
     y2="191.69"
     gradientUnits="userSpaceOnUse"><stop
       offset="0"
       stop-color="gray"
       stop-opacity="0.25"
       id="stop8822" /><stop
       offset="0.54"
       stop-color="gray"
       stop-opacity="0.12"
       id="stop8824" /><stop
       offset="1"
       stop-color="gray"
       stop-opacity="0.1"
       id="stop8826" /></linearGradient><linearGradient
     id="fba3f31e-455c-4283-9b41-fb0bd740b4d7"
     x1="450.66"
     y1="467.97"
     x2="450.66"
     y2="417.39999"
     xlink:href="#8fdda24f-3500-4787-9acd-06391067bf0a"
     gradientTransform="matrix(6.1261027,0,0,6.1261027,-579.03032,-939.74596)" /><linearGradient
     id="03abcd37-863a-4fdf-b76f-be25b3f5f7e8"
     x1="439.35999"
     y1="721.28998"
     x2="439.35999"
     y2="172.56"
     xlink:href="#8fdda24f-3500-4787-9acd-06391067bf0a"
     gradientTransform="translate(-40.580017,-7.4800083)" /><linearGradient
     id="7a137c36-2b0e-489c-9ead-72d7056953bc"
     x1="373.64999"
     y1="192.7"
     x2="373.64999"
     y2="190.66"
     xlink:href="#8fdda24f-3500-4787-9acd-06391067bf0a"
     gradientTransform="matrix(6.1261027,0,0,6.1261027,-579.03032,-939.74596)" /></defs><sodipodi:namedview
   pagecolor="#ffffff"
   bordercolor="#666666"
   borderopacity="1"
   objecttolerance="10"
   gridtolerance="10"
   guidetolerance="10"
   inkscape:pageopacity="0"
   inkscape:pageshadow="2"
   inkscape:window-width="2560"
   inkscape:window-height="1395"
   id="namedview878"
   showgrid="false"
   inkscape:zoom="0.59960938"
   inkscape:cx="125.63211"
   inkscape:cy="248.35847"
   inkscape:window-x="0"
   inkscape:window-y="23"
   inkscape:window-maximized="1"
   inkscape:current-layer="_x34_"
   inkscape:document-rotation="0" />

<path
   d="m 224.52912,81.347213 a 66.537891,56.185681 0 0 1 -9.96859,10.953882 67.513169,57.009226 0 0 1 -20.59315,12.115095 c -4.68078,1.75642 -9.62624,3.08039 -14.00781,5.32024 -6.76946,3.46667 -11.65162,9.33594 -18.66561,12.41392 -7.66416,3.36705 -16.39855,-2.52166 -23.54775,-4.97772 -10.02038,-3.44722 -21.32964,-3.78005 -31.05082,-7.79573 -8.389159,-3.46667 -14.988864,-9.452562 -20.383139,-15.897576 -0.0432,-0.04371 -0.0748,-0.08987 -0.117995,-0.133591 C 79.373027,85.171019 74.076581,75.82779 72.960329,65.872367 71.844078,55.916959 75.371208,45.295905 83.981885,38.437888 c 4.116903,-3.286902 9.168815,-5.587481 14.200596,-7.759306 7.275769,-3.138701 15.014739,-6.1535 23.159359,-5.910568 5.26481,0.153049 10.06929,1.664092 14.96011,2.881193 3.66809,0.918276 7.38797,1.664091 11.41857,1.564494 8.66534,-0.206499 16.35252,-5.040877 24.59209,-6.867747 5.213,-1.161209 10.64468,-1.474596 16.04183,-1.384713 10.20162,0.170052 20.5845,1.853588 29.31601,6.316278 22.76236,11.641368 18.72314,37.01579 6.85863,54.069723 z"
   fill="#f1a8f0"
   opacity="0.24"
   style="isolation:isolate;fill:#ff0018;fill-opacity:1;stroke-width:0.966352;opacity:0.38345865"
   id="path872" /><g
   opacity="0.05"
   id="g8857"
   transform="matrix(0.16323592,0,0,0.16323592,60.562661,147.14129)"
   style="stroke-width:6.1261"><polygon
     points=""
     fill="url(#5a1f6f01-7714-46af-aba4-b09e98a2a9e8)"
     id="polygon8855"
     style="fill:url(#5a1f6f01-7714-46af-aba4-b09e98a2a9e8);stroke-width:6.1261" /></g><text
   xml:space="preserve"
   style="font-size:29.3333px;line-height:1.25;font-family:'Noto Sans JP';-inkscape-font-specification:'Noto Sans JP'"
   x="120.07818"
   y="83.387627"
   id="text9908"><tspan
     sodipodi:role="line"
     id="tspan9906"
     x="120.07818"
     y="83.387627"
     style="font-style:normal;font-variant:normal;font-weight:bold;font-stretch:normal;font-size:29.33330000000000126px;font-family:Mamelon;-inkscape-font-specification:Mamelon;fill:#ffffff">恋 愛</tspan></text><path
   d="m 219.14286,222.49325 0.79467,-0.49364 0.22811,-0.14771 a 7.5858584,7.5858584 0 0 1 -6.29381,-7.12028 7.5091957,7.5091957 0 0 1 0.65631,-3.45542 7.5989471,7.5989471 0 0 1 4.86153,-4.20148 l -0.0224,3.12633 1.71649,-3.4012 h 0.0206 a 7.5858584,7.5858584 0 0 1 7.93178,7.22499 c 0,0.14397 0,0.28795 0,0.43006 a 9.0761048,9.0761048 0 0 0 1.49585,-2.212 c 0.7255,-1.62301 0.74794,-3.45917 0.68249,-5.68987 -0.11406,-4.42399 -0.30478,-8.88164 -0.56095,-13.32433 a 7.5802489,7.5802489 0 0 1 -6.73135,-7.17637 c -0.0112,-0.23186 0,-0.46185 0,-0.6881 0,-0.0579 0,-0.11406 0,-0.17015 0.013,-0.22063 0.0356,-0.43941 0.0673,-0.65443 0,-0.0355 0.015,-0.0692 0.0206,-0.10471 q 0.0449,-0.273 0.11218,-0.53851 c 0.015,-0.0673 0.0318,-0.13276 0.0505,-0.20007 0.0523,-0.18698 0.11219,-0.38519 0.18698,-0.57217 0.0224,-0.0617 0.0486,-0.12341 0.0729,-0.18698 q 0.0804,-0.20755 0.17389,-0.40949 c 0.0336,-0.0711 0.0655,-0.14211 0.0991,-0.21129 0,-0.0168 0.0168,-0.0356 0.0262,-0.0542 v 0 a 7.5821188,7.5821188 0 0 1 8.90782,-3.84622 l -0.0523,4.06686 1.69967,-3.36568 a 7.548462,7.548462 0 0 1 3.61623,8.17486 v 0 c -0.0112,0.0542 -0.028,0.10657 -0.0411,0.15893 -0.0224,0.10097 -0.0486,0.20007 -0.0767,0.29917 -0.0355,0.12714 -0.0748,0.25056 -0.1178,0.37397 -0.0318,0.0935 -0.0617,0.18698 -0.0972,0.2786 -0.0524,0.13463 -0.11033,0.26552 -0.16829,0.3964 -0.0355,0.0767 -0.0655,0.15519 -0.10284,0.22999 -0.0954,0.18698 -0.20007,0.38705 -0.31226,0.57403 -0.0392,0.0654 -0.0841,0.12715 -0.12527,0.18699 -0.0823,0.12527 -0.16268,0.25055 -0.25243,0.37396 -0.0542,0.0748 -0.11219,0.14585 -0.17016,0.21876 -0.0823,0.10472 -0.16641,0.20943 -0.25616,0.30853 -0.0898,0.0991 -0.12715,0.14211 -0.18698,0.21128 -0.0598,0.0692 -0.18698,0.18699 -0.28608,0.28609 -0.0655,0.0617 -0.1309,0.12527 -0.19821,0.18698 -0.11219,0.0991 -0.22998,0.18698 -0.34778,0.28609 -0.0599,0.0468 -0.1178,0.0953 -0.18698,0.14023 -0.18699,0.13276 -0.36462,0.25803 -0.56095,0.37397 -0.0355,0.0224 -0.0729,0.0411 -0.11032,0.0617 -0.15894,0.0935 -0.32347,0.18699 -0.4899,0.26552 -0.0711,0.0355 -0.14583,0.0654 -0.21876,0.0991 -0.13837,0.0617 -0.27673,0.12153 -0.41697,0.17576 -0.0823,0.0318 -0.16641,0.0599 -0.25056,0.0879 -0.13836,0.0486 -0.28046,0.0916 -0.42257,0.13089 -0.0861,0.0243 -0.17015,0.0468 -0.25617,0.0673 -0.15519,0.0374 -0.31226,0.0673 -0.47307,0.0954 h -0.0299 q 0.15707,2.80474 0.27861,5.62629 a 7.5802489,7.5802489 0 0 1 10.52708,-3.29089 l -1.34066,3.67233 2.75799,-2.64766 a 7.5596809,7.5596809 0 0 1 2.45133,5.23549 7.4381426,7.4381426 0 0 1 -0.18698,2.09046 7.5821188,7.5821188 0 0 1 -13.94698,2.06615 c 0,0.18698 0.013,0.37397 0.0187,0.57029 0.0505,1.97079 0.11406,4.42026 -0.86759,6.60795 -0.66566,1.48464 -1.73707,2.6888 -2.79352,3.76769 q -1.03401,1.05457 -2.13347,2.03997 a 7.6082962,7.6082962 0 0 1 -2.72245,2.29239 q -1.80251,1.38742 -3.73964,2.59906 l -0.80403,0.49924 c -0.72174,0.44688 -1.46219,0.90687 -2.18767,1.38554 0.12714,-0.0131 0.25428,-0.028 0.38331,-0.0337 a 7.589598,7.589598 0 0 1 7.46992,4.9382 l -4.73999,3.85556 5.21306,-1.2079 a 7.5914678,7.5914678 0 0 1 -10.87487,6.83232 l 0.35152,0.43754 c 0.23373,0.28982 0.46558,0.57777 0.69183,0.86385 3.08521,3.90606 3.94158,7.61391 2.41581,10.44108 l -1.84551,-1.00222 c 1.48651,-2.75238 -0.74792,-6.27512 -2.21386,-8.12998 -0.22251,-0.28234 -0.45063,-0.56094 -0.67875,-0.8489 -1.96891,-2.44759 -4.2127,-5.22241 -4.15474,-8.62735 0.0823,-5.13078 5.06347,-8.21785 9.06676,-10.6991 z"
   fill="#f2f2f2"
   id="path10694"
   style="stroke-width:0.999997" /><path
   d="m 187.39332,190.01634 -0.40762,-0.84515 c -0.0374,-0.0804 -0.0729,-0.16268 -0.11219,-0.24494 a 7.5839885,7.5839885 0 0 0 8.56003,-12.06222 l -1.64357,2.65889 0.37396,-3.79012 a 0.1327572,0.1327572 0 0 0 -0.0168,-0.0131 7.5858584,7.5858584 0 0 0 -10.56822,1.84551 c -0.0841,0.1178 -0.15706,0.24121 -0.23185,0.36275 a 9.0517974,9.0517974 0 0 1 -0.0785,-2.67197 c 0.25616,-1.7595 1.22847,-3.31706 2.47377,-5.17006 2.46817,-3.67232 5.0186,-7.33156 7.61204,-10.94779 a 7.5821188,7.5821188 0 0 0 9.53608,-2.44759 c 0.13462,-0.18699 0.25429,-0.38519 0.37396,-0.58151 0.028,-0.0486 0.0561,-0.0991 0.0823,-0.14959 0.10658,-0.18698 0.20568,-0.38892 0.29356,-0.58712 l 0.0393,-0.0991 c 0.0711,-0.17016 0.13649,-0.34218 0.18697,-0.51607 0.0224,-0.0655 0.0449,-0.12902 0.0636,-0.18699 0.0599,-0.18698 0.11219,-0.38518 0.1552,-0.57964 0.015,-0.0654 0.0262,-0.13089 0.0392,-0.18698 0.028,-0.14585 0.0524,-0.29357 0.0711,-0.43941 0.0112,-0.0785 0.0224,-0.1552 0.0299,-0.23186 0,-0.0206 0,-0.0392 0,-0.0599 v 0 a 7.5765093,7.5765093 0 0 0 -5.44491,-8.03648 l -2.1372,3.46103 0.37396,-3.73964 a 7.5353732,7.5353732 0 0 0 -7.43441,4.95877 v 0 c -0.0187,0.0524 -0.0318,0.1047 -0.0505,0.15706 -0.0336,0.0972 -0.0655,0.18699 -0.0954,0.29356 -0.0299,0.10658 -0.0692,0.25243 -0.10097,0.37397 -0.0224,0.0954 -0.0468,0.18698 -0.0673,0.28794 -0.028,0.14024 -0.0486,0.28235 -0.0692,0.42446 -0.013,0.0823 -0.028,0.16454 -0.0374,0.24681 -0.0243,0.2169 -0.0392,0.43568 -0.043,0.65257 0,0.0767 0,0.15333 0,0.22999 0,0.14959 0,0.29917 0.013,0.44689 0,0.0935 0.0168,0.18698 0.028,0.27673 0.013,0.13275 0.028,0.26739 0.0486,0.39827 0.015,0.0954 0.0318,0.18698 0.0505,0.28048 0.0262,0.13275 0.0561,0.26551 0.0879,0.3964 0.0224,0.0879 0.0449,0.17576 0.0692,0.26364 0.0411,0.1421 0.0898,0.28421 0.14024,0.42632 0.0243,0.0711 0.0468,0.14398 0.0748,0.21503 0.0804,0.20755 0.16828,0.41322 0.26738,0.6133 0.0187,0.0374 0.0411,0.0748 0.0617,0.11219 0.0841,0.16454 0.17389,0.32722 0.27112,0.48615 0.0411,0.0673 0.0879,0.13463 0.13089,0.20194 0.0841,0.12528 0.16828,0.24869 0.25803,0.37397 0.0542,0.0711 0.10845,0.14023 0.16454,0.20941 0.0916,0.11407 0.18699,0.22625 0.28796,0.33658 0.0579,0.0654 0.11593,0.13088 0.17763,0.18697 0.11219,0.11406 0.22999,0.22439 0.34966,0.33284 l 0.0224,0.0224 q -1.63983,2.28866 -3.25348,4.59788 a 7.5783791,7.5783791 0 0 0 -7.12028,-8.41419 l -0.83768,3.82004 -0.90873,-3.71346 a 7.5503318,7.5503318 0 0 0 -4.87649,3.10577 7.4231841,7.4231841 0 0 0 -0.95922,1.86982 7.5821188,7.5821188 0 0 0 10.65797,9.22195 c -0.10657,0.15894 -0.21502,0.316 -0.32161,0.47307 -1.09945,1.63609 -2.46629,3.67045 -2.80472,6.04325 -0.23374,1.60992 0.0243,3.19927 0.33656,4.67455 q 0.30852,1.4435 0.70679,2.86644 a 7.610166,7.610166 0 0 0 1.09011,3.39185 c 0.51981,1.4248 1.10319,2.82717 1.75763,4.19587 l 0.40949,0.85077 c 0.37397,0.76476 0.74793,1.55008 1.10506,2.34289 -0.10097,-0.0785 -0.20007,-0.15894 -0.30665,-0.23373 a 7.5914678,7.5914678 0 0 0 -8.95269,0.16267 l 1.93339,5.79645 -3.75273,-3.81444 a 7.5877281,7.5877281 0 0 0 5.51597,11.59288 l -0.53103,0.18699 -1.0471,0.359 c -4.69699,1.64357 -7.4101,4.31367 -7.63634,7.51855 l 2.10542,0.14959 c 0.22064,-3.12073 3.9958,-4.8952 6.22836,-5.67491 0.33844,-0.11967 0.68249,-0.23559 1.02841,-0.35339 2.97488,-1.00971 6.35739,-2.15404 8.12623,-5.05787 2.67198,-4.38659 0.12154,-9.66322 -1.92217,-13.90398 z"
   fill="#f2f2f2"
   id="path10696"
   style="stroke-width:0.999997" /><path
   d="m 110.06879,176.03196 -0.9349,-0.0692 -0.26925,-0.0262 a 7.5839885,7.5839885 0 0 0 -6.17042,-13.444 l 1.48464,2.75051 -3.09829,-2.21574 a 0.05796441,0.05796441 0 0 0 -0.0187,0.009 7.5839885,7.5839885 0 0 0 -3.672326,10.0802 c 0.05988,0.13089 0.130887,0.2543 0.198208,0.37396 a 9.0891935,9.0891935 0 0 1 -2.355973,-1.26587 c -1.406104,-1.0901 -2.264359,-2.7131 -3.255356,-4.71381 -1.952098,-3.9715 -3.851836,-8.00844 -5.691738,-12.05846 a 7.5821188,7.5821188 0 0 0 2.634582,-9.48373 c -0.09723,-0.21129 -0.20755,-0.41136 -0.321611,-0.60956 l -0.08606,-0.14585 c -0.115935,-0.18698 -0.235598,-0.37396 -0.364621,-0.54599 -0.02057,-0.0299 -0.04491,-0.0561 -0.06539,-0.0841 -0.112187,-0.14772 -0.229987,-0.28982 -0.349659,-0.42632 l -0.138363,-0.15332 c -0.136499,-0.14585 -0.276735,-0.28795 -0.424448,-0.42258 -0.04859,-0.0449 -0.100973,-0.0861 -0.149587,-0.13089 -0.112187,-0.0972 -0.228122,-0.18698 -0.345921,-0.28234 -0.06172,-0.0468 -0.121537,-0.0954 -0.186976,-0.14024 l -0.04859,-0.0374 v 0 a 7.5783791,7.5783791 0 0 0 -9.67257,0.72736 l 1.93339,3.57884 -3.064633,-2.18395 a 7.5372431,7.5372431 0 0 0 0.588996,8.91717 v 0 c 0.03554,0.043 0.07476,0.0804 0.110314,0.12154 0.06732,0.0785 0.136498,0.15519 0.207549,0.22811 0.07109,0.0729 0.186985,0.18699 0.276735,0.27861 0.08975,0.0916 0.14211,0.13649 0.216899,0.20194 0.108449,0.0935 0.220637,0.18698 0.332833,0.27112 0.06539,0.0523 0.129014,0.10658 0.196326,0.15707 0.175762,0.12902 0.357135,0.24868 0.544121,0.36274 0.06539,0.0393 0.132751,0.0729 0.200072,0.11032 0.129014,0.0748 0.259901,0.14772 0.394526,0.21316 0.08413,0.0411 0.168286,0.0767 0.252424,0.11406 0.123411,0.0561 0.244948,0.10845 0.37397,0.1552 0.08975,0.0355 0.177627,0.0673 0.26925,0.0972 0.127149,0.0449 0.256171,0.0841 0.385185,0.12154 l 0.263647,0.0711 c 0.145839,0.0356 0.291688,0.0654 0.439409,0.0916 0.07476,0.015 0.147713,0.0318 0.222502,0.043 0.220646,0.0337 0.443147,0.0599 0.667531,0.0729 0.04115,0 0.08413,0 0.127149,0 0.186976,0 0.373961,0.0112 0.560938,0 0.07853,0 0.158936,-0.009 0.239345,-0.015 0.149577,0 0.301037,-0.0206 0.450623,-0.0374 l 0.261774,-0.0374 c 0.145848,-0.0224 0.291688,-0.0505 0.435671,-0.0823 0.08606,-0.0168 0.172024,-0.0355 0.258036,-0.0579 0.155189,-0.0393 0.308513,-0.0861 0.461838,-0.13463 l 0.03178,-0.009 q 1.164903,2.56352 2.363459,5.11208 a 7.5821188,7.5821188 0 0 0 -10.844959,1.97079 l 2.892609,2.63271 -3.694757,-1.05832 a 7.5578111,7.5578111 0 0 0 0.259901,5.77587 7.4044858,7.4044858 0 0 0 1.140592,1.76137 7.5821188,7.5821188 0 0 0 13.313111,-4.64276 c 0.08229,0.17202 0.164547,0.34405 0.248686,0.51607 0.869469,1.76698 1.950225,3.96776 3.835001,5.45052 1.278956,1.0041 2.784169,1.57439 4.22206,2.03998 q 1.404231,0.45436 2.836506,0.81711 a 7.6120359,7.6120359 0 0 0 3.48348,0.74793 c 1.49586,0.26177 3.00106,0.45623 4.51375,0.57029 l 0.93491,0.0692 c 0.84702,0.0617 1.71649,0.12529 2.58035,0.2113 -0.1178,0.0486 -0.23747,0.0954 -0.3534,0.14959 a 7.589598,7.589598 0 0 0 -4.31741,7.84949 l 5.98342,1.21725 -5.17753,1.34815 a 7.5877281,7.5877281 0 0 0 12.80265,1.00409 c -0.0355,0.18698 -0.0711,0.37396 -0.10845,0.5516 -0.0711,0.37396 -0.14398,0.72735 -0.21129,1.08636 -0.91808,4.89145 0.043,8.57313 2.7075,10.37002 l 1.17985,-1.75015 c -2.59343,-1.74828 -2.24377,-5.90676 -1.81185,-8.22721 0.0655,-0.35339 0.1365,-0.71053 0.20755,-1.06766 0.61705,-3.08895 1.30327,-6.58925 -0.31787,-9.58096 -2.46255,-4.49879 -8.3076,-4.92136 -13.00272,-5.2598 z"
   fill="#f2f2f2"
   id="path10698"
   style="stroke-width:0.999997" /><rect
   x="85.044998"
   y="244.05414"
   width="17.389322"
   height="36.087521"
   fill="#3f3d56"
   id="rect10700"
   style="stroke-width:0.999997" /><rect
   x="85.044998"
   y="244.05414"
   width="17.389322"
   height="36.087521"
   opacity="0.1"
   id="rect10702"
   style="stroke-width:0.999997" /><path
   d="m 183.21053,193.94297 v 0 c -0.20007,-23.77662 -19.52839,-42.99276 -43.3499,-43.00585 -24.02718,-0.0131 -43.409732,19.69668 -43.409732,43.71264 v 78.75306 a 7.6662606,7.6662606 0 0 0 7.666262,7.66627 h 79.09337 c 23.958,0 43.37981,-19.79578 43.37981,-43.75378 0,-23.95801 -19.42181,-43.37234 -43.37981,-43.37234 z"
   fill="#ff8586"
   id="path10704"
   style="stroke-width:0.999997" /><path
   d="M 96.282612,253.00309 H 116.1401 v 28.0473 h -12.18001 a 7.6662606,7.6662606 0 0 1 -7.666255,-7.66627 v -20.38103 z"
   fill="#5f5478"
   id="path10706"
   style="stroke-width:0.999997" /><rect
   x="102.43058"
   y="239.03928"
   width="21.265459"
   height="21.265459"
   fill="#d4a1a1"
   id="rect10708"
   style="stroke-width:0.999997" /><rect
   x="102.43058"
   y="241.09608"
   width="21.265459"
   height="21.265459"
   opacity="0.1"
   id="rect10710"
   style="stroke-width:0.999997" /><path
   d="m 140.73571,238.65597 c 0,0 20.62411,9.47998 19.98463,14.21997 -0.63948,4.74 -4.86153,5.37947 -4.86153,5.37947 l -12.42495,-6.02081 -8.71149,-6.91834 z"
   fill="#5f5478"
   id="path10712"
   style="stroke-width:0.999997" /><path
   d="m 120.85392,248.75487 c 0.14397,0.9349 0.22998,1.92216 -0.11033,2.80472 -0.37396,0.96857 -1.20603,1.68284 -1.66226,2.61775 -0.68249,1.3874 -0.42632,3.09829 0.32722,4.45017 0.75353,1.35188 1.939,2.40646 3.15812,3.36568 1.81373,1.41732 3.78451,2.69067 5.98343,3.35445 2.63457,0.7928 5.44678,0.67314 8.19541,0.54599 a 4.1136032,4.1136032 0 0 0 1.33505,-0.21316 4.0257217,4.0257217 0 0 0 0.84142,-0.51046 c 1.43602,-1.04336 2.89449,-2.12973 3.86492,-3.61623 a 7.6157755,7.6157755 0 0 0 0.66566,-6.93703 c -0.90312,-2.20078 -2.8253,-3.91167 -3.47974,-6.19845 -0.47493,-1.66041 -0.22438,-3.42926 -0.22999,-5.15696 a 1.6342224,1.6342224 0 0 0 -0.16267,-0.84142 c -0.2599,-0.43006 -0.82459,-0.53851 -1.32383,-0.60209 -3.38437,-0.44314 -6.80054,-0.7741 -10.21857,-0.6563 a 31.62613,31.62613 0 0 0 -5.15322,0.58151 c -0.91808,0.18698 -3.12821,0.35527 -3.36568,1.53512 -0.13836,0.70492 0.48802,1.76324 0.67875,2.43077 a 25.192081,25.192081 0 0 1 0.65631,3.04594 z"
   fill="#fbbebe"
   id="path10714"
   style="stroke-width:0.999997" /><path
   d="m 120.85392,248.75487 c 0.14397,0.9349 0.22998,1.92216 -0.11033,2.80472 -0.37396,0.96857 -1.20603,1.68284 -1.66226,2.61775 -0.68249,1.3874 -0.42632,3.09829 0.32722,4.45017 0.75353,1.35188 1.939,2.40646 3.15812,3.36568 1.81373,1.41732 3.78451,2.69067 5.98343,3.35445 2.63457,0.7928 5.44678,0.67314 8.19541,0.54599 a 4.1136032,4.1136032 0 0 0 1.33505,-0.21316 4.0257217,4.0257217 0 0 0 0.84142,-0.51046 c 1.43602,-1.04336 2.89449,-2.12973 3.86492,-3.61623 a 7.6157755,7.6157755 0 0 0 0.66566,-6.93703 c -0.90312,-2.20078 -2.8253,-3.91167 -3.47974,-6.19845 -0.47493,-1.66041 -0.22438,-3.42926 -0.22999,-5.15696 a 1.6342224,1.6342224 0 0 0 -0.16267,-0.84142 c -0.2599,-0.43006 -0.82459,-0.53851 -1.32383,-0.60209 -3.38437,-0.44314 -6.80054,-0.7741 -10.21857,-0.6563 a 31.62613,31.62613 0 0 0 -5.15322,0.58151 c -0.91808,0.18698 -3.12821,0.35527 -3.36568,1.53512 -0.13836,0.70492 0.48802,1.76324 0.67875,2.43077 a 25.192081,25.192081 0 0 1 0.65631,3.04594 z"
   opacity="0.1"
   id="path10716"
   style="stroke-width:0.999997" /><circle
   cx="106.1459"
   cy="231.2253"
   r="16.142153"
   fill="#d4a1a1"
   id="circle10718"
   style="stroke-width:0.999997" /><circle
   cx="130.03847"
   cy="233.46721"
   r="16.142153"
   fill="#fbbebe"
   id="circle10720"
   style="stroke-width:0.999997" /><path
   d="m 139.25107,224.51639 c -0.69557,0.30665 -1.29392,0.79842 -1.97079,1.14433 -1.94649,0.99288 -4.28376,0.67313 -6.41722,0.1982 -1.13124,-0.25243 -2.45881,-0.74792 -2.67384,-1.88478 -0.22999,-1.2079 0.96482,-2.18395 1.34627,-3.35072 a 7.4792786,7.4792786 0 0 0 -5.25233,0.95736 c -1.96518,1.20229 -3.40119,3.33202 -5.62815,3.9154 a 2.0568017,2.0568017 0 0 1 -1.26213,0 1.897867,1.897867 0 0 1 -0.94426,-0.97792 c -1.02092,-2.11102 0.37397,-4.52683 0.72362,-6.84728 0.28608,-1.93339 -0.10284,-4.16783 1.20417,-5.62068 1.35,-1.49585 3.70411,-1.28082 5.6749,-1.71649 a 7.87942,7.87942 0 0 0 3.61623,-1.88104 6.5200612,6.5200612 0 0 1 0.90125,-0.77037 3.576965,3.576965 0 0 1 1.35749,-0.4525 7.9654318,7.9654318 0 0 1 5.36639,1.08076 c 1.12188,0.68623 2.08297,1.66228 3.33949,2.02876 0.67313,0.1982 1.38554,0.20381 2.07924,0.30291 a 7.9224259,7.9224259 0 0 1 6.27511,5.2972 c 0.16455,0.51233 0.28048,1.05084 0.57591,1.49585 0.58525,0.89191 1.7221,1.2266 2.52426,1.92966 0.80215,0.70305 1.21912,1.75389 1.5669,2.76359 a 30.680001,30.680001 0 0 1 1.56878,8.44972 c 0.0673,1.56503 -0.0336,3.26657 -1.03588,4.46886 a 10.284008,10.284008 0 0 0 -0.67313,0.78533 c -0.69371,1.03775 -0.31974,2.43077 -0.4712,3.66297 a 4.261319,4.261319 0 0 1 -1.33318,2.59531 0.98539492,0.98539492 0 0 1 -0.67313,0.32349 c -0.29918,-0.015 -0.53104,-0.26552 -0.69371,-0.51795 -0.57216,-0.89003 -0.71801,-1.98388 -1.13872,-2.95618 -0.42071,-0.97231 -1.32383,-1.90161 -2.3728,-1.75389 -0.26738,0.0374 -0.51981,0.14211 -0.78719,0.18698 -0.74793,0.11967 -1.51642,-0.30291 -1.98575,-0.90499 -0.46933,-0.60208 -0.69184,-1.35936 -0.8489,-2.10542 -0.44502,-2.12224 -0.42818,-4.30058 -0.25803,-6.46023 0.0655,-0.83393 0.54598,-2.3167 0.32348,-3.10577 -0.22251,-0.78906 -1.37432,-0.56842 -2.02315,-0.28047 z"
   fill="#ffffff"
   id="path10722"
   style="stroke-width:0.999997" /><path
   d="m 131.94569,262.81591 a 12.423081,12.423081 0 0 1 -6.09188,-5.23549 c -1.02279,-1.75016 -1.60991,-3.73964 -2.77107,-5.40752 -1.69219,-2.43077 -4.88397,-1.20604 -7.84015,-1.221 -3.78639,-0.0187 -6.88094,-0.51794 -9.99045,1.64357 -2.07176,1.43789 -4.30058,3.09642 -4.86153,5.55149 -0.495507,2.12786 0.38892,4.39783 -0.10658,6.52755 -0.334702,1.43602 0.0916,2.75611 -0.15146,4.2127 -0.342178,2.0568 -0.617039,3.9771 0.43567,5.774 l 3.63493,6.20407 39.4532,0.14958 c -0.0243,0 -0.0729,0.0729 -0.0972,0.0729 h 28.25298 c -0.0505,-1.33693 -0.13463,-2.65141 -0.56094,-3.9154 -0.45064,-1.30888 -1.09572,-2.54296 -1.73707,-3.76957 l -7.12775,-13.61041 c -1.36123,-2.60279 -2.85148,-5.3402 -5.39443,-6.80988 -1.38927,-0.80216 -2.99171,-1.15555 -4.467,-1.76324 -1.93527,-0.79093 -2.4532,-0.23747 -4.47261,-0.77972 -2.0194,-0.54225 -5.76652,-1.95583 -6.86785,-0.18698 -0.8676,1.39862 -0.6133,3.18991 -0.93491,4.80357 -0.29169,1.46594 -1.06953,2.78977 -1.93152,4.01263 -0.79094,1.1219 -1.68283,2.20452 -2.80473,2.99171 -1.12189,0.7872 -2.28866,1.26587 -3.56761,0.75541 z"
   fill="#3f3d56"
   id="path10724"
   style="stroke-width:0.999997" /><path
   d="m 131.83163,270.61866 c 0,0 -13.32246,1.02466 -13.19532,3.84248 0,0 12.68298,3.45917 12.68298,3.33202 0,-0.12715 0.51234,-7.1745 0.51234,-7.1745 z"
   fill="#fbbebe"
   id="path10726"
   style="stroke-width:0.999997" /><path
   d="m 115.43517,264.59785 c 0,0 1.02467,8.07014 4.73813,9.60713 3.71346,1.53699 15.50268,1.79315 15.50268,1.79315 l 7.94112,5.12518 h -39.20077 c 0,0 -1.79316,-21.12896 0,-21.12896 1.79316,0 11.01884,4.6035 11.01884,4.6035 z"
   fill="#3f3d56"
   id="path10728"
   style="stroke-width:0.999997" /><path
   d="m 146.56394,261.52199 9.22942,7.68683 -25.10793,0.64135 c 0,0 -3.64241,4.48756 -2.14095,5.76653 1.50147,1.27895 8.54508,2.17646 8.54508,2.17646 l 6.53315,3.33015 27.46017,-0.0337 -9.13968,-16.49181 z"
   fill="#3f3d56"
   id="path10730"
   style="stroke-width:0.999997" /><path
   d="m 146.56394,261.52199 9.22942,7.68683 -25.10793,0.64135 c 0,0 -3.64241,4.48756 -2.14095,5.76653 1.50147,1.27895 8.54508,2.17646 8.54508,2.17646 l 6.53315,3.33015 27.46017,-0.0337 -9.13968,-16.49181 z"
   opacity="0.1"
   id="path10732"
   style="stroke-width:0.999997" /><polygon
   points="404.62,697.28 475.19,604.79 427.23,578.07 342.27,647.95 "
   fill="#5f5478"
   id="polygon10734"
   transform="matrix(0.18698197,0,0,0.18698197,71.61221,141.58428)"
   style="stroke-width:5.3481" /><path
   d="m 142.97762,263.82935 c 0,0 10.63179,-1.92217 12.55397,-2.81969 1.92217,-0.89751 9.61088,-4.22766 7.55407,-1.66414 -2.0568,2.56352 -2.94496,2.68881 -2.94496,2.68881 0,0 7.94112,0.64134 7.68495,2.17833 -0.25616,1.537 -1.1518,1.79316 -1.1518,1.79316 0,0 3.33015,1.92217 2.56164,2.43077 -0.76849,0.50858 -0.25616,2.30548 -0.38517,2.69066 -0.12902,0.38519 0.89751,2.43077 -0.12715,2.69067 -1.02467,0.25991 -11.91449,-0.25616 -14.21063,-0.76849 -2.29614,-0.51233 -12.68299,0.12715 -12.68299,0.12715 z"
   fill="#e0aaaa"
   id="path10736"
   style="stroke-width:0.999997" /><path
   d="m 93.591941,246.59896 c 0,0 -4.09864,4.99616 0,11.01698 4.098649,6.02082 12.553969,12.93915 17.166819,14.09096 4.61284,1.15181 35.22927,1.66601 35.22927,1.66601 0,0 1.40984,-13.83667 0,-14.349 -1.40984,-0.51233 -26.39063,1.15368 -29.8498,-1.40797 -3.45917,-2.56166 -13.83667,-9.99232 -16.908784,-10.24849 a 55.78046,55.78046 0 0 1 -5.637505,-0.76849 z"
   fill="#5f5478"
   id="path10738"
   style="stroke-width:0.999997" /><path
   d="m 116.64308,219.81005 a 19.259142,19.259142 0 0 0 -3.48161,-1.0901 c -5.87871,-1.23595 -11.54052,5.6749 -10.13816,11.42086 0.56095,2.31858 2.14282,4.46513 1.89226,6.8398 -0.2356,2.25687 -2.08111,4.06686 -2.46256,6.30316 a 2.4775111,2.4775111 0 0 0 0.14024,1.51456 c 0.35527,0.71987 1.18734,1.0901 1.60618,1.77445 0.70492,1.15181 -0.0823,2.73555 -1.25652,3.40494 -1.17424,0.6694 -2.58783,0.69558 -3.926616,0.8059 a 27.860313,27.860313 0 0 0 -4.973721,0.86947 c -0.923693,0.25055 -1.854863,0.56094 -2.600921,1.15928 -1.765113,1.41359 -2.008187,4.07434 -1.363102,6.24146 0.645093,2.16712 1.98575,4.05003 2.952445,6.09374 0.966703,2.04371 1.544476,4.48756 0.590869,6.53502 -0.998491,2.14468 -3.565752,3.67232 -3.461041,6.03765 0.02801,0.6376 0.263648,1.26213 0.218773,1.89787 -0.0991,1.46968 -1.737064,2.47377 -3.203005,2.32231 -1.46594,-0.15145 -2.716847,-1.15742 -3.655493,-2.29613 a 12.340809,12.340809 0 0 1 -2.759857,-6.64909 c -0.228122,-2.37092 0.235598,-4.80543 -0.32161,-7.12213 -0.517936,-2.14843 -1.860466,-3.98647 -3.017884,-5.86937 a 39.341006,39.341006 0 0 1 -5.807664,-20.13609 c -0.01681,-1.79315 0.09349,-3.61062 0.635735,-5.31963 0.680619,-2.14095 2.00445,-4.01077 2.991717,-6.03018 1.045231,-2.1372 3.489081,-8.38987 5.697341,-14.1807 a 14.180712,14.180712 0 0 1 14.377041,-9.10042 9.1209807,9.1209807 0 0 0 2.398975,-0.0561 c 1.424804,-0.27673 2.733678,-0.97791 4.137908,-1.35562 3.92663,-1.05458 8.45907,0.8059 10.51213,4.32303 0.59647,1.02279 0.99849,2.16151 1.6978,3.11699 0.62452,0.85264 1.45659,1.5239 2.18021,2.2924 a 11.362894,11.362894 0 0 1 1.10132,1.36683"
   fill="#3f3d56"
   id="path10740"
   style="stroke-width:0.999997" /><path
   d="m 183.21053,193.56901 v 0 c -0.20007,-23.77663 -19.52839,-42.99277 -43.3499,-43.00586 -13.02516,0 -24.68162,5.78523 -32.6321,14.91555 a 42.917971,42.917971 0 0 1 26.27471,-8.93212 c 23.82151,0.013 43.14983,19.22922 43.34991,43.00584 v 0 c 23.95799,0 43.3798,19.42183 43.3798,43.37982 a 43.220881,43.220881 0 0 1 -10.6187,28.43436 43.306893,43.306893 0 0 0 16.97609,-34.41778 c 0,-23.958 -19.42181,-43.37981 -43.37981,-43.37981 z"
   opacity="0.1"
   id="path10742"
   style="stroke-width:0.999997" /></svg>
