<?xml version="1.0" encoding="UTF-8" standalone="no"?>
<svg
   xmlns:dc="http://purl.org/dc/elements/1.1/"
   xmlns:cc="http://creativecommons.org/ns#"
   xmlns:rdf="http://www.w3.org/1999/02/22-rdf-syntax-ns#"
   xmlns:svg="http://www.w3.org/2000/svg"
   xmlns="http://www.w3.org/2000/svg"
   xmlns:xlink="http://www.w3.org/1999/xlink"
   xmlns:sodipodi="http://sodipodi.sourceforge.net/DTD/sodipodi-0.dtd"
   xmlns:inkscape="http://www.inkscape.org/namespaces/inkscape"
   version="1.1"
   id="_x34_"
   x="0px"
   y="0px"
   viewBox="0 0 300 300"
   xml:space="preserve"
   sodipodi:docname="scared.svg"
   width="300"
   height="300"
   inkscape:version="1.0.1 (c497b03c, 2020-09-10)"><metadata
   id="metadata882"><rdf:RDF><cc:Work
       rdf:about=""><dc:format>image/svg+xml</dc:format><dc:type
         rdf:resource="http://purl.org/dc/dcmitype/StillImage" /><dc:title /></cc:Work></rdf:RDF></metadata><defs
   id="defs880"><clipPath
     clipPathUnits="userSpaceOnUse"
     id="clipPath900"><rect
       style="fill:#ffe6d5;fill-opacity:0.414925;stroke-width:1"
       id="rect902"
       width="361.06839"
       height="630.4104"
       x="-21.348534"
       y="-20.013029" /></clipPath><linearGradient
     id="5a1f6f01-7714-46af-aba4-b09e98a2a9e8"
     x1="368.48999"
     y1="311.39999"
     x2="368.48999"
     y2="311.39999"
     xlink:href="#8fdda24f-3500-4787-9acd-06391067bf0a"
     gradientTransform="matrix(6.1261027,0,0,6.1261027,-371.01314,-901.40272)" /><linearGradient
     id="8fdda24f-3500-4787-9acd-06391067bf0a"
     x1="373.64999"
     y1="193.72"
     x2="373.64999"
     y2="191.69"
     gradientUnits="userSpaceOnUse"><stop
       offset="0"
       stop-color="gray"
       stop-opacity="0.25"
       id="stop8822" /><stop
       offset="0.54"
       stop-color="gray"
       stop-opacity="0.12"
       id="stop8824" /><stop
       offset="1"
       stop-color="gray"
       stop-opacity="0.1"
       id="stop8826" /></linearGradient><linearGradient
     id="fba3f31e-455c-4283-9b41-fb0bd740b4d7"
     x1="450.66"
     y1="467.97"
     x2="450.66"
     y2="417.39999"
     xlink:href="#8fdda24f-3500-4787-9acd-06391067bf0a"
     gradientTransform="matrix(6.1261027,0,0,6.1261027,-579.03032,-939.74596)" /><linearGradient
     id="03abcd37-863a-4fdf-b76f-be25b3f5f7e8"
     x1="439.35999"
     y1="721.28998"
     x2="439.35999"
     y2="172.56"
     xlink:href="#8fdda24f-3500-4787-9acd-06391067bf0a"
     gradientTransform="translate(-40.580017,-7.4800083)" /><linearGradient
     id="7a137c36-2b0e-489c-9ead-72d7056953bc"
     x1="373.64999"
     y1="192.7"
     x2="373.64999"
     y2="190.66"
     xlink:href="#8fdda24f-3500-4787-9acd-06391067bf0a"
     gradientTransform="matrix(6.1261027,0,0,6.1261027,-579.03032,-939.74596)" /></defs><sodipodi:namedview
   pagecolor="#ffffff"
   bordercolor="#666666"
   borderopacity="1"
   objecttolerance="10"
   gridtolerance="10"
   guidetolerance="10"
   inkscape:pageopacity="0"
   inkscape:pageshadow="2"
   inkscape:window-width="2560"
   inkscape:window-height="1395"
   id="namedview878"
   showgrid="false"
   inkscape:zoom="0.84797571"
   inkscape:cx="168.83383"
   inkscape:cy="228.98302"
   inkscape:window-x="0"
   inkscape:window-y="23"
   inkscape:window-maximized="1"
   inkscape:current-layer="_x34_"
   inkscape:document-rotation="0" />

<g
   opacity="0.05"
   id="g8857"
   transform="matrix(0.16323592,0,0,0.16323592,60.562661,147.14129)"
   style="stroke-width:6.1261"><polygon
     points=""
     fill="url(#5a1f6f01-7714-46af-aba4-b09e98a2a9e8)"
     id="polygon8855"
     style="fill:url(#5a1f6f01-7714-46af-aba4-b09e98a2a9e8);stroke-width:6.1261" /></g><path
   d="m 233.51391,106.59802 c -2.40182,1.99972 -5.06708,3.45148 -7.94927,4.18803 -22.72284,5.80169 -29.35188,-9.07347 -88.28189,2.89462 a 129.50654,74.345552 0 0 1 -13.96779,2.36266 c -33.439628,4.42109 -48.386738,-3.23087 -53.075728,-9.44531 -1.90596,-2.52278 -2.1229,-4.8036 -1.19936,-5.95825 3.48962,-4.341031 0.30991,-11.418341 -6.33153,-31.700221 -6.64144,-20.28188 22.72284,-27.01227 45.557238,-30.19866 14.6341,-2.04064 21.76211,-4.84452 24.9945,-6.59517 a 38.922001,22.343873 0 0 1 13.05044,-4.72888 c 32.85081,-7.03639 48.80514,-0.71165 68.38546,8.25864 4.32329,1.97303 8.82633,4.09196 13.70747,6.20199 25.63292,11.10344 21.66293,50.93599 5.11046,64.720551 z"
   fill="#ff0000"
   opacity="0.27"
   style="isolation:isolate;fill:#6c63ff;fill-opacity:1;stroke-width:0.999997;opacity:0.54887218"
   id="path857" /><text
   xml:space="preserve"
   style="font-size:29.3333px;line-height:1.25;font-family:'Noto Sans JP';-inkscape-font-specification:'Noto Sans JP'"
   x="113.64809"
   y="84.395142"
   id="text9908-7"><tspan
     sodipodi:role="line"
     x="113.64809"
     y="84.395142"
     style="font-style:normal;font-variant:normal;font-weight:bold;font-stretch:normal;font-size:29.3333px;font-family:Mamelon;-inkscape-font-specification:Mamelon;fill:#ffffff"
     id="tspan18976">こわい</tspan></text><path
   d="m 219.89333,220.0919 c -6.07457,9.68972 -4.85015,22.92234 -2.10003,33.36962 0.9214,3.4971 1.98022,7.19152 1.23324,11.09912 -0.91436,4.77438 -4.3269,8.50933 -7.79054,10.63402 -6.31416,3.87588 -13.54797,3.72437 -18.8368,-0.39112 -4.57001,-3.557 -7.60025,-9.73022 -12.26541,-13.09696 -7.80638,-5.63765 -18.44569,-2.30615 -27.67734,2.86815 -6.53087,3.66095 -13.71359,8.30673 -19.78111,5.62004 -4.26876,-1.89038 -6.95545,-7.1704 -8.22745,-12.9067 -0.61485,-2.76949 -0.99187,-5.79269 -2.37661,-7.90857 -0.82276,-1.2579 -1.95028,-2.10354 -3.11833,-2.79592 -10.6534,-6.33002 -24.988899,-1.16805 -35.270561,-8.32611 -6.943114,-4.83428 -10.931752,-14.75832 -12.284797,-25.35533 -1.353034,-10.59702 -0.352353,-21.92165 0.912596,-33.07011 0.900267,-7.92795 2.133497,-16.40556 6.342364,-22.83073 4.457264,-6.79689 11.528992,-9.80423 17.693415,-9.13299 6.164413,0.67123 11.536043,4.53478 16.173013,9.23342 5.79621,5.87196 11.0357,13.36123 18.49854,15.28684 5.08622,1.31075 10.62697,-0.14271 16.01798,-0.95312 9.02376,-1.35655 17.92068,-0.90202 26.75593,-0.32064 8.45648,0.55143 16.96757,1.23324 24.86204,4.19125 5.58656,2.09473 9.88879,6.41459 15.10715,9.23693 3.40197,1.83929 7.22324,2.09298 10.39442,4.53831 3.90935,3.01262 7.30781,8.55338 5.78916,15.52468 -1.43584,6.62248 -6.82332,10.35919 -10.05087,15.48592 z"
   fill="#6c63ff"
   opacity="0.1"
   id="path943"
   style="stroke-width:0.999999" /><path
   d="m 123.80132,243.57095 c 2.42067,0.66948 4.73034,1.67897 7.24262,2.02076 5.90016,0.8016 11.48672,-2.14584 17.23536,-3.52354 13.33128,-3.20289 27.3796,2.10003 41.22532,1.80934 3.83361,-0.081 8.08651,-0.48978 11.09913,1.51864 1.03768,0.69061 1.85514,1.63492 3.032,2.13702 2.44004,1.04296 5.97943,0.0281 7.70949,1.82167 1.67191,1.73357 0.0299,4.55063 1.34951,6.4921 1.35128,1.98903 5.49319,2.71136 5.05098,4.97699 -0.19908,1.0183 -1.33894,1.67192 -2.05774,2.50523 -1.60673,1.85867 -1.03592,4.53479 -2.2903,6.58196 -1.76177,2.89987 -6.40049,3.46891 -10.20062,2.97034 -3.80013,-0.49858 -7.64607,-1.6913 -11.38982,-0.94431 -5.75393,1.14868 -10.04206,6.66652 -15.9017,5.99 -2.74131,-0.31887 -5.2342,-2.02426 -7.97727,-1.71243 -1.33014,0.15151 -2.51228,0.76813 -3.73847,1.23324 a 17.663465,17.663465 0 0 1 -11.37396,0.31711 c -2.11412,-0.66947 -4.01683,-1.73181 -6.06048,-2.54047 -4.05205,-1.60849 -8.60446,-2.18458 -13.08287,-2.14935 -5.73631,0.0458 -12.15619,0.8985 -16.62402,-2.15464 -2.07184,-1.40941 -3.49534,-3.56582 -5.93891,-4.4555 -2.21631,-0.80689 -4.75678,-0.38406 -7.11225,0.0564 -2.35549,0.44043 -4.888897,0.88087 -7.115777,0.0881 -2.226875,-0.79279 -3.713803,-3.34736 -2.218065,-4.95937 0.542624,-0.58314 1.361844,-0.93373 1.937945,-1.48869 1.2068,-1.15219 1.02182,-3.1518 -0.382311,-4.12958 -0.750503,-0.52853 -1.793473,-0.79808 -2.25682,-1.52216 -1.224421,-1.90976 2.628551,-3.28217 3.597521,-5.28531 0.49155,-1.02006 0.17619,-2.18106 0.3136,-3.27688 0.24489,-1.93795 2.08946,-3.64685 4.339237,-4.02564 2.1053,-0.35235 2.93333,0.81218 4.65987,1.11696 1.83047,0.32418 2.01193,0.36469 4.35861,0.0776 4.33746,-0.53911 8.32963,-0.71881 12.57019,0.45453 z"
   fill="#635151"
   id="path945"
   style="stroke-width:0.999999" /><path
   d="m 183.74541,140.13592 c 0,0 -15.92637,15.92637 -6.93607,39.56045 8.99029,23.63409 -15.41369,62.93557 -15.41369,62.93557 0,0 0.26074,-0.0388 0.74699,-0.12332 32.71071,-5.77331 48.96476,-43.18618 30.77453,-70.97979 -6.76166,-10.331 -12.31122,-22.45195 -9.17176,-31.39291 z"
   fill="#6c63ff"
   id="path947"
   style="stroke-width:0.999999" /><path
   d="m 183.74541,140.40018 c 0,0 -15.92637,15.92637 -6.93607,39.56046 8.99029,23.63409 -15.41369,62.93556 -15.41369,62.93556 0,0 0.26074,-0.0388 0.74699,-0.12332 32.71247,-5.76803 48.96476,-43.18617 30.77629,-70.97978 -6.76342,-10.33277 -12.31298,-22.45372 -9.17352,-31.39292 z"
   opacity="0.1"
   id="path949"
   style="stroke-width:0.999999" /><path
   d="m 183.74541,140.13592 c 0,0 -8.985,19.52389 0,35.45025 8.98501,15.92637 1.54155,60.62413 -22.348,67.04577"
   fill="none"
   stroke="#535461"
   stroke-miterlimit="10"
   id="path951"
   style="stroke-width:0.999999" /><path
   d="m 212.11336,204.55489 c 0,0 -18.17437,-2.89458 -19.83043,13.38942 -1.65606,16.28401 -34.94815,18.54964 -34.94815,18.54964 0,0 0.2167,0.14798 0.62366,0.41577 27.48355,18.044 53.76381,11.49376 49.80336,-12.46625 -1.47107,-8.90925 -1.35127,-17.8555 4.35156,-19.88858 z"
   fill="#6c63ff"
   id="path953"
   style="stroke-width:0.999999" /><path
   d="m 212.11336,204.55489 c 0,0 -14.10646,3.09718 -12.94897,15.92284 1.15748,12.82566 -20.94916,28.20411 -41.82961,16.01622"
   fill="none"
   stroke="#535461"
   stroke-miterlimit="10"
   id="path955"
   style="stroke-width:0.999999" /><path
   d="m 180.89311,246.63291 h -72.09498 v -62.76468 c 0,-19.90795 16.13954,-36.04749 36.04749,-36.04749 v 0 c 19.90795,0 36.04749,16.13954 36.04749,36.04749 z"
   fill="#a1a1aa"
   id="path957"
   style="stroke-width:0.999999" /><rect
   x="118.97582"
   y="189.59398"
   width="51.73954"
   height="2.9685755"
   rx="5.0399995"
   ry="5.0399995"
   opacity="0.1"
   id="rect959"
   style="stroke-width:0.999999" /><rect
   x="124.27702"
   y="195.74252"
   width="41.137234"
   height="2.9685755"
   rx="5.0399995"
   ry="5.0399995"
   opacity="0.1"
   id="rect961"
   style="stroke-width:0.999999" /><path
   d="m 108.39469,250.70259 c 0,0 4.27932,-29.11142 1.69305,-39.56927 -2.58627,-10.45784 -3.27865,-20.83288 -3.27865,-20.83288"
   fill="none"
   stroke="#535461"
   stroke-miterlimit="10"
   stroke-width="2"
   id="path963" /><path
   d="m 118.75738,208.18413 -8.74187,4.84485 c 0,0 8.55337,6.15737 8.74187,-4.84485 z"
   fill="#6c63ff"
   id="path965"
   style="stroke-width:0.999999" /><path
   d="m 100.6341,210.25245 9.78485,2.5475 c 0,0 -7.67073,7.88919 -9.78485,-2.5475 z"
   fill="#6c63ff"
   id="path967"
   style="stroke-width:0.999999" /><path
   d="m 116.3702,199.72941 -7.70068,4.75677 c 0,0 9.84827,2.64442 7.70068,-4.75677 z"
   fill="#6c63ff"
   id="path969"
   style="stroke-width:0.999999" /><path
   d="m 101.52204,202.8865 7.10519,1.37769 c 0,0 -5.32405,5.72223 -7.10519,-1.37769 z"
   fill="#6c63ff"
   id="path971"
   style="stroke-width:0.999999" /><path
   d="m 107.394,196.12308 c 0,0 5.91954,-4.7832 7.05939,-4.829 1.13987,-0.0458 2.46647,4.47313 -0.15855,5.87725 -2.62503,1.40413 -6.90084,-1.04825 -6.90084,-1.04825 z"
   fill="#6c63ff"
   id="path973"
   style="stroke-width:0.999999" /><path
   d="m 100.61472,193.0717 c 0,0 6.07634,2.15992 6.69472,3.04081 0.61838,0.88088 -2.01194,4.84837 -5.4192,2.42419 -3.407247,-2.42419 -1.27552,-5.465 -1.27552,-5.465 z"
   fill="#6c63ff"
   id="path975"
   style="stroke-width:0.999999" /><circle
   cx="21.702673"
   cy="217.75037"
   r="2.1211662"
   transform="rotate(-24.099999)"
   fill="#ffd037"
   id="circle977"
   style="stroke-width:0.999999" /><circle
   cx="17.886316"
   cy="216.6906"
   r="2.1211662"
   transform="rotate(-24.099999)"
   fill="#ffd037"
   id="circle979"
   style="stroke-width:0.999999" /><path
   d="m 176.39885,252.86075 c 0,0 -31.20087,-6.97307 8.49171,-47.78966 0,0 17.11379,16.21881 10.83486,36.38047 -2.52461,8.10412 -10.64459,13.11105 -18.86851,11.50785 z"
   fill="#6c63ff"
   id="path981"
   style="stroke-width:0.999999" /><path
   d="m 176.39885,252.86075 c -0.68533,-0.15328 -30.52965,-7.66544 8.49876,-47.79318 0,0 17.11379,16.21881 10.83485,36.38046 -2.5246,8.10413 -10.64458,13.11106 -18.8685,11.50785 z"
   fill="#ffffff"
   opacity="0.2"
   id="path983"
   style="stroke-width:0.999999" /><path
   d="m 176.80758,253.09506 c 0,0 16.47955,-24.8268 8.08298,-48.02397"
   fill="none"
   stroke="#535461"
   stroke-miterlimit="10"
   id="path985"
   style="stroke-width:0.999999" /><path
   d="m 196.68558,253.24658 c 0,0 -7.47869,-1.49574 -9.47301,-3.49006 -1.99432,-1.99432 -10.96875,-5.48438 -11.96592,-2.995 -0.99716,2.48937 -13.46341,10.96875 -4.98579,12.46449 8.47762,1.49574 19.94495,1.99432 22.43785,0.99716 2.49289,-0.99716 3.98687,-6.97659 3.98687,-6.97659 z"
   fill="#a8a8a8"
   id="path987"
   style="stroke-width:0.999999" /><path
   d="m 170.2591,258.30284 c 8.47585,1.49574 19.94494,1.99433 22.43784,0.99716 1.89919,-0.75932 3.21876,-4.40441 3.74023,-6.10628 l 0.25018,0.0529 c 0,0 -1.49575,5.99 -3.98864,6.98011 -2.4929,0.99011 -13.96199,0.49859 -22.43785,-0.99715 -2.4471,-0.43164 -3.14652,-1.44641 -2.88226,-2.72898 0.20613,0.83684 1.05882,1.48165 2.8805,1.80228 z"
   opacity="0.2"
   id="path989"
   style="stroke-width:0.999999" /><path
   d="m 102.52096,242.88387 c 0,0 3.94811,-0.12157 5.1373,-0.96898 1.18919,-0.8474 6.07281,-1.85866 6.36702,-0.50033 0.29422,1.35832 5.93188,6.75637 1.47636,6.79337 -4.4555,0.037 -10.35566,-0.69414 -11.54308,-1.40941 -1.18743,-0.71529 -1.4376,-3.91465 -1.4376,-3.91465 z"
   fill="#a8a8a8"
   id="path991"
   style="stroke-width:0.999999" /><path
   d="m 115.58093,247.73401 c -4.45728,0.0352 -10.35566,-0.69413 -11.54309,-1.40941 -0.90379,-0.55143 -1.26495,-2.52638 -1.38476,-3.43897 h -0.13212 c 0,0 0.25017,3.18351 1.4376,3.9076 1.18742,0.72408 7.08582,1.45346 11.54308,1.40941 1.2861,-0.0105 1.73006,-0.46863 1.70716,-1.14514 -0.1797,0.41401 -0.67476,0.66946 -1.62787,0.67651 z"
   opacity="0.2"
   id="path993"
   style="stroke-width:0.999999" /><path
   d="m 129.72966,261.72948 c 0,0 1.84106,-0.0564 2.39777,-0.45277 0.55672,-0.3964 2.83292,-0.86679 2.97034,-0.23256 0.13742,0.63424 2.76773,3.15357 0.68885,3.17119 -2.07889,0.0176 -4.83076,-0.32418 -5.38572,-0.66067 -0.55495,-0.33649 -0.67124,-1.82519 -0.67124,-1.82519 z"
   fill="#a8a8a8"
   id="path995"
   style="stroke-width:0.999999" /><path
   d="m 135.82362,263.99335 c -2.07889,0.0176 -4.83077,-0.32417 -5.38572,-0.66066 -0.42106,-0.25722 -0.59019,-1.17862 -0.64657,-1.60497 h -0.0616 c 0,0 0.11628,1.48517 0.67123,1.82343 0.55496,0.33825 3.30683,0.67828 5.38572,0.66066 0.60076,0 0.80689,-0.21846 0.79631,-0.52853 -0.0845,0.18674 -0.31711,0.30479 -0.75931,0.31007 z"
   opacity="0.2"
   id="path997"
   style="stroke-width:0.999999" /><polygon
   points="364.98,268.74 363.88,285.28 345.38,288.31 350.1,268.74 "
   fill="#535461"
   id="polygon999"
   transform="matrix(0.1761766,0,0,0.1761766,70.751027,140.10069)"
   style="stroke-width:5.67612" /><polygon
   points="452.09,259.36 441.62,280.31 426.18,270.39 437.75,251.09 "
   fill="#535461"
   id="polygon1001"
   transform="matrix(0.1761766,0,0,0.1761766,70.751027,140.10069)"
   style="stroke-width:5.67612" /><path
   d="m 158.65435,195.70026 c 0,0 2.23391,-1.74768 4.27404,-0.48625 2.04012,1.26142 -2.13703,3.594 -2.13703,3.594 z"
   fill="#535461"
   id="path1003"
   style="stroke-width:0.999999" /><polygon
   points="586.61,376.79 577.79,384.51 560.62,374.59 "
   fill="#535461"
   id="polygon1005"
   transform="matrix(0.1761766,0,0,0.1761766,70.751027,140.10069)"
   style="stroke-width:5.67612" /><polygon
   points="336.59,373.21 343.76,389.75 333.28,396.36 329.42,373.21 "
   fill="#535461"
   id="polygon1007"
   transform="matrix(0.1761766,0,0,0.1761766,70.751027,140.10069)"
   style="stroke-width:5.67612" /><path
   d="m 138.30594,253.4439 1.26319,-13.7964 c 0,0 -0.29069,-2.91395 0,-4.37093 0.2907,-1.45698 -1.26319,-4.0785 -1.26319,-4.0785 0,0 -4.66162,-6.40754 -6.79689,-6.50443 0,0 -0.88088,-3.49711 -2.33082,-4.37094 0,0 -3.4971,-3.20466 -2.62326,-5.63766 0,0 2.23392,-0.29068 3.01085,-6.79865 0,0 2.91396,-0.88089 4.0785,1.36008 1.16452,2.24097 -0.19381,6.02172 -0.19381,6.02172 l 1.26319,2.72016 c 0,0 -0.48624,-7.188 0.38936,-7.86804 0,0 -3.7878,-5.53547 -4.56474,-6.31417 0,0 -1.26318,-5.34167 -2.62327,-6.79865 0,0 -0.1938,-2.52461 1.16629,-3.30155 1.36008,-0.77695 3.49711,-4.66164 3.49711,-4.66164 0,0 2.33081,-1.74766 3.30155,1.55389 0.97073,3.30154 -0.77694,5.63764 -0.77694,5.63764 0,0 -0.77695,4.66164 0.0968,5.05099 0.87384,0.38934 4.37094,5.14787 4.37094,5.14787 0,0 0.88088,-2.62326 0,-4.46783 -0.88088,-1.84457 -0.88088,-3.01086 0.38935,-4.85719 1.27024,-1.84633 1.06235,-5.82793 1.06235,-5.82793 0,0 4.85718,-1.36008 4.85718,-3.4971 0,0 2.72017,-2.62327 3.20466,0.88088 0.48448,3.50416 -2.9122,6.40931 -2.9122,6.40931 0,0 0.68003,4.95408 -0.48625,5.73102 0,0 0.58314,5.92483 2.04012,7.09111 0,0 3.49711,-0.29069 3.20466,-6.41106 0,0 4.37094,-3.6909 4.95409,-5.63766 0,0 4.56473,-1.06763 6.1186,0.38935 1.55389,1.45698 -3.20464,5.34167 -3.20464,5.34167 l -2.52462,4.0785 -0.58314,4.66163 c 0,0 3.98158,-2.04013 5.43857,-3.40021 0,0 0.68004,-0.38935 2.91396,0 2.23391,0.38935 3.594,-1.26318 3.594,-1.26318 l 4.17715,0.97073 c 0,0 2.81882,2.04012 0,3.40021 l -7.2849,0.19908 -3.9816,5.53546 c 0,0 -1.55563,3.97807 -0.97249,4.56122 0.58315,0.58314 2.33082,8.35252 -1.84456,12.91726 v 0 l -0.58315,20.20218 z"
   fill="#d6d6e3"
   id="path1009"
   style="stroke-width:0.999999" /><path
   d="m 129.03025,249.31608 c 0,0 3.01085,1.84457 1.74767,2.62327 -1.26318,0.77869 -1.84457,1.06763 -2.91397,0.68004 -1.06938,-0.38759 -1.46401,0.76989 -1.46401,0.76989 0,0 4.17713,0.2907 4.66162,1.36008 0.48449,1.06939 -0.77693,2.04013 -0.77693,2.04013 l 2.91396,-1.36009 1.36008,1.36009 c 0,0 0.38935,1.26318 -1.45698,1.16629 0,0 1.65077,1.16628 5.73102,0 4.08026,-1.16629 6.50797,1.16628 6.50797,1.16628 0,0 -0.1938,1.74768 -0.88089,1.84457 -0.68708,0.0968 2.13703,0.2907 2.62328,-0.88087 0.48624,-1.17158 3.01085,-1.36009 3.01085,-1.36009 l 1.93795,1.65077 1.36008,-1.45698 c 0,0 4.07848,-1.16628 4.75676,-0.29068 0.67829,0.87559 1.16629,-2.13703 1.16629,-2.13703 0,0 0.38936,-2.04012 5.34168,-1.36008 4.95233,0.68004 6.02172,-0.58315 6.02172,-0.58315 l -6.3917,-1.15924 c 0,0 -1.74766,-0.88089 0.1938,-3.4971 1.94147,-2.61622 1.93794,-4.8572 1.93794,-4.8572 l -2.91396,2.91396 -0.58314,1.93795 -1.84457,0.97073 c 0,0 0.97073,-2.72017 0.77694,-3.4002 -0.1938,-0.68005 0.0968,-4.0785 0.0968,-4.0785 l -1.45698,0.68005 h -1.55388 c 0,0 -1.36007,-1.16629 0,-2.33082 1.36008,-1.16453 2.81883,-6.41107 2.81883,-6.41107 l -3.6909,6.11862 c 0,0 -0.77694,2.33082 -1.84457,1.84457 -1.06763,-0.48625 -3.4002,2.62326 -2.81882,3.4971 0.58138,0.87384 1.65077,2.52462 0.77694,3.30155 -0.87384,0.77694 -2.52462,0.1938 -2.52462,0.1938 l -0.29068,-2.62327 -2.3273,3.70499 c 0,0 -2.42771,-1.74767 -1.16628,-2.52461 1.26141,-0.77694 1.74766,-2.52461 1.16628,-2.42771 -0.58138,0.0968 -1.65077,0.38935 -2.33082,0.48624 -0.68004,0.0969 -3.10775,-0.97073 -1.45698,-1.74767 1.65078,-0.77693 1.55388,-2.52461 1.65078,-2.91396 0.0969,-0.38935 -2.72017,0.88089 -2.72017,0.88089 0,0 -0.38935,3.78779 -0.0968,4.17715 0.29245,0.38935 1.74767,1.16628 1.26318,2.42771 -0.48449,1.26142 -1.55388,3.4002 -2.13702,2.81882 -0.58314,-0.58138 -0.97073,-0.38935 -1.45698,-1.84457 -0.48624,-1.45522 -0.29069,-4.75677 0.58315,-5.92481 0.87383,-1.16806 2.03308,-4.48018 2.33081,-5.45091 0.29774,-0.97073 -0.19379,-1.93795 -0.97073,-1.36008 -0.77694,0.57786 -1.06763,0.58314 -1.93795,1.84457 -0.8703,1.26142 -1.65077,0.88087 -1.26318,-0.58315 0.38759,-1.46402 -1.45699,-3.40021 -1.65078,-2.33081 -0.19379,1.06939 -0.0968,5.34167 -0.0968,5.34167 0,0 -1.93794,-1.65078 -2.13703,-0.58314 -0.19908,1.06763 0.97074,3.01085 -0.19379,3.20464 -1.16452,0.1938 -3.4002,-1.65077 -3.4971,-1.06763 -0.0969,0.58315 -1.55388,-2.33081 -2.33081,-1.93794 -0.77695,0.39288 -0.77695,2.23392 0,3.30155 0.77693,1.06764 2.13701,1.55388 1.26317,2.52462 -0.87382,0.97073 -1.65077,-2.23393 -2.91395,-2.04013 -1.26318,0.1938 0.0916,3.6909 0.0916,3.6909 z"
   fill="#635151"
   id="path1011"
   style="stroke-width:0.999999" /><path
   d="m 131.36107,233.67688 c 0,0 -0.2907,1.84457 0.38935,2.33082 0.68003,0.48625 0.58138,-1.64549 -0.38935,-2.33082 z"
   fill="#635151"
   id="path1013"
   style="stroke-width:0.999999" /><path
   d="m 132.72115,235.52321 2.52461,0.58315 c 0,0 -1.45698,1.65078 -1.26319,1.74767 0.1938,0.0969 2.23392,0.68004 1.65078,1.45698 -0.58315,0.77693 -1.55389,0.58314 -2.04013,0.29069 -0.48625,-0.29245 -1.55388,-1.06763 -1.16629,-1.55388 0.38759,-0.48624 0.29422,-2.52461 0.29422,-2.52461 z"
   fill="#635151"
   id="path1015"
   style="stroke-width:0.999999" /><path
   d="m 129.90409,237.66023 c 0,0 0.97073,0.38935 1.06762,0.77694 0.0969,0.38759 1.36009,-0.19379 0.97074,-0.77694 -0.38935,-0.58314 -2.03836,0 -2.03836,0 z"
   fill="#635151"
   id="path1017"
   style="stroke-width:0.999999" /><polygon
   points="328.05,564.24 333.01,564.24 330.25,558.73 "
   fill="#635151"
   id="polygon1019"
   transform="matrix(0.1761766,0,0,0.1761766,70.751027,140.10069)"
   style="stroke-width:5.67612" /><polygon
   points="337.97,572.51 333.01,575.26 333.01,572.51 "
   fill="#635151"
   id="polygon1021"
   transform="matrix(0.1761766,0,0,0.1761766,70.751027,140.10069)"
   style="stroke-width:5.67612" /><path
   d="m 126.39994,241.83562 c 0,0 -0.48626,1.06763 0.29068,1.93795 0.77694,0.8703 0.58314,-1.84458 0.68005,-1.93795 0.0968,-0.0934 -0.97073,0 -0.97073,0 z"
   fill="#635151"
   id="path1023"
   style="stroke-width:0.999999" /><path
   d="m 151.94554,242.99486 c 0,0 -0.1938,1.55388 0.38935,1.65077 0.58314,0.0968 0.29774,-0.96368 -0.38935,-1.65077 z"
   fill="#635151"
   id="path1025"
   style="stroke-width:0.999999" /><path
   d="m 149.71867,245.52652 0.77693,-0.88089 c 0,0 1.74768,0.77695 1.74768,0.88089 0,0.1039 0.19379,0.77693 0,1.06763 -0.19379,0.29069 -0.48625,0.88089 -0.97074,0.58314 -0.48448,-0.29774 -1.55387,-1.26318 -1.55387,-1.26318 z"
   fill="#635151"
   id="path1027"
   style="stroke-width:0.999999" /><polygon
   points="406.88,605.59 409.09,605.59 406.88,602.83 "
   fill="#635151"
   id="polygon1029"
   transform="matrix(0.1761766,0,0,0.1761766,70.751027,140.10069)"
   style="stroke-width:5.67612" /><path
   d="m 142.432,248.14978 v 1.45699 c 0,0 0.77694,0.58314 0.77694,0 0,-0.58315 -0.77694,-1.45699 -0.77694,-1.45699 z"
   fill="#635151"
   id="path1031"
   style="stroke-width:0.999999" /><path
   d="m 143.2107,246.9835 c 0,0 0.19379,2.13702 0.48625,2.23392 0.29246,0.0968 0,-0.88089 0,-0.88089 l 0.0968,-0.88087 z"
   fill="#635151"
   id="path1033"
   style="stroke-width:0.999999" /><rect
   x="152.63264"
   y="248.44225"
   width="0.48624739"
   height="0.7769388"
   fill="#635151"
   id="rect1035"
   style="stroke-width:0.999999" /><rect
   x="149.03864"
   y="243.00191"
   width="0.68004161"
   height="1.2631862"
   fill="#635151"
   id="rect1037"
   style="stroke-width:0.999999" /><path
   d="m 138.55612,214.7379 c 0,0 0.68004,-1.55388 1.06763,-1.45698"
   fill="none"
   stroke="#000000"
   stroke-miterlimit="10"
   stroke-width="2"
   opacity="0.1"
   id="path1039" /><path
   d="m 149.42621,222.50728 c 0,0 -9.94693,-5.34696 -10.50893,-8.50052"
   opacity="0.1"
   id="path1041"
   style="stroke-width:0.999999" /><path
   d="m 142.53066,212.11463 c 0,0 6.79866,5.92482 7.18801,8.45648"
   opacity="0.1"
   id="path1043"
   style="stroke-width:0.999999" /><path
   d="m 142.92001,210.27005 c 0,0 2.81882,0.77695 4.46784,3.01087 1.64901,2.23392 5.43857,5.63765 6.31417,5.63765"
   opacity="0.1"
   id="path1045"
   style="stroke-width:0.999999" /><path
   d="m 150.00759,211.14389 c 0,0 5.14789,2.04013 4.9541,3.40022 0,0 -2.04014,-2.13703 -3.49712,-1.74768 -1.45698,0.38935 -1.45698,-1.65254 -1.45698,-1.65254 z"
   opacity="0.1"
   id="path1047"
   style="stroke-width:0.999999" /><path
   d="m 138.55612,219.88578 c 0,0 2.04012,1.36008 1.74766,2.23391 -0.29244,0.87384 -0.29068,2.52462 -0.29068,2.52462"
   fill="none"
   stroke="#000000"
   stroke-miterlimit="10"
   stroke-width="2"
   opacity="0.1"
   id="path1049" /><path
   d="m 134.08123,223.67358 0.1938,0.97073 c 0,0 0.58314,-0.2907 0.68003,0 0.097,0.29069 0.77694,0.97073 0.77694,0.97073 l 0.38936,-0.58315 z"
   opacity="0.1"
   id="path1051"
   style="stroke-width:0.999999" /><line
   x1="129.22401"
   y1="214.5441"
   x2="126.76637"
   y2="217.05463"
   fill="none"
   stroke="#000000"
   stroke-miterlimit="10"
   stroke-width="2"
   opacity="0.1"
   id="line1053" /><path
   d="m 128.83646,217.06872 a 2.9033902,2.9033902 0 0 1 -0.2907,1.16628 c -0.29069,0.58315 -0.90554,0.32769 -0.90554,0.32769"
   fill="none"
   stroke="#000000"
   stroke-miterlimit="10"
   stroke-width="2"
   opacity="0.1"
   id="path1055" /><path
   d="m 129.71029,216.09798 c 0,0 2.42771,-2.23392 3.6909,-0.88088 l 0.54438,1.11696 a 4.2159059,4.2159059 0 0 0 -4.23528,-0.23608 z"
   opacity="0.1"
   id="path1057"
   style="stroke-width:0.999999" /><path
   d="m 140.78299,198.80977 c 0,0 1.84457,-0.48625 2.62326,0"
   fill="none"
   stroke="#000000"
   stroke-miterlimit="10"
   stroke-width="2"
   opacity="0.1"
   id="path1059" /><path
   d="m 134.85641,192.00936 c 0,0 -0.68004,1.65077 -0.48625,3.20465"
   fill="none"
   stroke="#000000"
   stroke-miterlimit="10"
   stroke-width="2"
   opacity="0.1"
   id="path1061" /><path
   d="m 131.36107,196.86654 c 0,0 -0.77695,1.36009 0.68003,3.59401"
   fill="none"
   stroke="#000000"
   stroke-miterlimit="10"
   stroke-width="2"
   opacity="0.1"
   id="path1063" /><polygon
   points="358.92,347.02 358.92,349.78 350.1,353.09 "
   opacity="0.1"
   id="polygon1065"
   transform="matrix(0.1761766,0,0,0.1761766,70.751027,140.10069)"
   style="stroke-width:5.67612" /><line
   x1="136.60582"
   y1="207.35609"
   x2="138.54906"
   y2="206.96851"
   fill="none"
   stroke="#000000"
   stroke-miterlimit="10"
   stroke-width="2"
   opacity="0.1"
   id="line1067" /><path
   d="m 136.0227,208.32683 c 0,0 2.62326,-0.97073 2.91396,-0.77693 0.29069,0.19379 1.06763,-0.1938 1.06763,-0.1938"
   fill="none"
   stroke="#000000"
   stroke-miterlimit="10"
   stroke-width="2"
   opacity="0.1"
   id="path1069" /><path
   d="m 142.04441,199.7805 c 0,0 2.33082,-1.06763 3.59401,0.97073"
   fill="none"
   stroke="#000000"
   stroke-miterlimit="10"
   stroke-width="2"
   opacity="0.1"
   id="path1071" /><path
   d="m 131.55486,195.89581 c 0,0 2.62327,-0.48625 3.49711,0.2907"
   fill="none"
   stroke="#000000"
   stroke-miterlimit="10"
   stroke-width="2"
   opacity="0.1"
   id="path1073" /><path
   d="m 148.55237,190.35858 c 0,0 -0.68003,2.23392 -1.93794,3.20465"
   fill="none"
   stroke="#000000"
   stroke-miterlimit="10"
   stroke-width="2"
   opacity="0.1"
   id="path1075" /><path
   d="m 152.04949,201.72197 c 0,0 1.55387,3.78779 4.17713,3.10776"
   opacity="0.1"
   id="path1077"
   style="stroke-width:0.999999" /><path
   d="m 157.19736,229.01525 c 0,0 2.94743,-2.42771 3.17118,-5.34167"
   opacity="0.1"
   id="path1079"
   style="stroke-width:0.999999" /><line
   x1="157.00354"
   y1="218.62434"
   x2="159.83823"
   y2="217.84389"
   fill="none"
   stroke="#000000"
   stroke-miterlimit="10"
   stroke-width="2"
   opacity="0.1"
   id="line1081" /><path
   d="m 145.15393,232.31856 c 0,0 4.75677,-1.55388 4.85718,-7.67249"
   opacity="0.1"
   id="path1083"
   style="stroke-width:0.999999" /><line
   x1="147.97096"
   y1="240.5742"
   x2="148.5524"
   y2="232.31856"
   fill="none"
   stroke="#000000"
   stroke-miterlimit="10"
   stroke-width="2"
   opacity="0.1"
   id="line1085" /><line
   x1="149.71866"
   y1="240.1866"
   x2="150.59248"
   y2="232.31856"
   fill="none"
   stroke="#000000"
   stroke-miterlimit="10"
   stroke-width="2"
   opacity="0.1"
   id="line1087" /></svg>
