<?xml version="1.0" encoding="UTF-8" standalone="no"?>
<svg
   xmlns:dc="http://purl.org/dc/elements/1.1/"
   xmlns:cc="http://creativecommons.org/ns#"
   xmlns:rdf="http://www.w3.org/1999/02/22-rdf-syntax-ns#"
   xmlns:svg="http://www.w3.org/2000/svg"
   xmlns="http://www.w3.org/2000/svg"
   xmlns:xlink="http://www.w3.org/1999/xlink"
   xmlns:sodipodi="http://sodipodi.sourceforge.net/DTD/sodipodi-0.dtd"
   xmlns:inkscape="http://www.inkscape.org/namespaces/inkscape"
   version="1.1"
   id="_x34_"
   x="0px"
   y="0px"
   viewBox="0 0 300 300"
   xml:space="preserve"
   sodipodi:docname="study.svg"
   width="300"
   height="300"
   inkscape:version="1.0.1 (c497b03c, 2020-09-10)"><metadata
   id="metadata882"><rdf:RDF><cc:Work
       rdf:about=""><dc:format>image/svg+xml</dc:format><dc:type
         rdf:resource="http://purl.org/dc/dcmitype/StillImage" /><dc:title /></cc:Work></rdf:RDF></metadata><defs
   id="defs880"><clipPath
     clipPathUnits="userSpaceOnUse"
     id="clipPath900"><rect
       style="fill:#ffe6d5;fill-opacity:0.414925;stroke-width:1"
       id="rect902"
       width="361.06839"
       height="630.4104"
       x="-21.348534"
       y="-20.013029" /></clipPath><linearGradient
     id="5a1f6f01-7714-46af-aba4-b09e98a2a9e8"
     x1="368.48999"
     y1="311.39999"
     x2="368.48999"
     y2="311.39999"
     xlink:href="#8fdda24f-3500-4787-9acd-06391067bf0a"
     gradientTransform="matrix(6.1261027,0,0,6.1261027,-371.01314,-901.40272)" /><linearGradient
     id="8fdda24f-3500-4787-9acd-06391067bf0a"
     x1="373.64999"
     y1="193.72"
     x2="373.64999"
     y2="191.69"
     gradientUnits="userSpaceOnUse"><stop
       offset="0"
       stop-color="gray"
       stop-opacity="0.25"
       id="stop8822" /><stop
       offset="0.54"
       stop-color="gray"
       stop-opacity="0.12"
       id="stop8824" /><stop
       offset="1"
       stop-color="gray"
       stop-opacity="0.1"
       id="stop8826" /></linearGradient><linearGradient
     id="fba3f31e-455c-4283-9b41-fb0bd740b4d7"
     x1="450.66"
     y1="467.97"
     x2="450.66"
     y2="417.39999"
     xlink:href="#8fdda24f-3500-4787-9acd-06391067bf0a"
     gradientTransform="matrix(6.1261027,0,0,6.1261027,-579.03032,-939.74596)" /><linearGradient
     id="03abcd37-863a-4fdf-b76f-be25b3f5f7e8"
     x1="439.35999"
     y1="721.28998"
     x2="439.35999"
     y2="172.56"
     xlink:href="#8fdda24f-3500-4787-9acd-06391067bf0a"
     gradientTransform="translate(-40.580017,-7.4800083)" /><linearGradient
     id="7a137c36-2b0e-489c-9ead-72d7056953bc"
     x1="373.64999"
     y1="192.7"
     x2="373.64999"
     y2="190.66"
     xlink:href="#8fdda24f-3500-4787-9acd-06391067bf0a"
     gradientTransform="matrix(6.1261027,0,0,6.1261027,-579.03032,-939.74596)" /><linearGradient
     id="5f966abe-ca91-49e1-9c3c-162f077ee9a1"
     x1="602.84998"
     y1="654.57001"
     x2="602.84998"
     y2="287.56"
     gradientUnits="userSpaceOnUse"
     gradientTransform="translate(-70.440008,-55.290003)"><stop
       offset="0"
       stop-color="gray"
       stop-opacity="0.25"
       id="stop2188" /><stop
       offset="0.54"
       stop-color="gray"
       stop-opacity="0.12"
       id="stop2190" /><stop
       offset="1"
       stop-color="gray"
       stop-opacity="0.1"
       id="stop2192" /></linearGradient></defs><sodipodi:namedview
   pagecolor="#ffffff"
   bordercolor="#666666"
   borderopacity="1"
   objecttolerance="10"
   gridtolerance="10"
   guidetolerance="10"
   inkscape:pageopacity="0"
   inkscape:pageshadow="2"
   inkscape:window-width="2560"
   inkscape:window-height="1395"
   id="namedview878"
   showgrid="false"
   inkscape:zoom="0.84797571"
   inkscape:cx="168.83383"
   inkscape:cy="228.98302"
   inkscape:window-x="0"
   inkscape:window-y="23"
   inkscape:window-maximized="1"
   inkscape:current-layer="_x34_"
   inkscape:document-rotation="0" />

<g
   opacity="0.05"
   id="g8857"
   transform="matrix(0.16323592,0,0,0.16323592,60.562661,147.14129)"
   style="stroke-width:6.1261"><polygon
     points=""
     fill="url(#5a1f6f01-7714-46af-aba4-b09e98a2a9e8)"
     id="polygon8855"
     style="fill:url(#5a1f6f01-7714-46af-aba4-b09e98a2a9e8);stroke-width:6.1261" /></g><path
   d="m 233.51391,106.59802 c -2.40182,1.99972 -5.06708,3.45148 -7.94927,4.18803 -22.72284,5.80169 -29.35188,-9.07347 -88.28189,2.89462 a 129.50654,74.345552 0 0 1 -13.96779,2.36266 c -33.439628,4.42109 -48.386738,-3.23087 -53.075728,-9.44531 -1.90596,-2.52278 -2.1229,-4.8036 -1.19936,-5.95825 3.48962,-4.341031 0.30991,-11.418341 -6.33153,-31.700221 -6.64144,-20.28188 22.72284,-27.01227 45.557238,-30.19866 14.6341,-2.04064 21.76211,-4.84452 24.9945,-6.59517 a 38.922001,22.343873 0 0 1 13.05044,-4.72888 c 32.85081,-7.03639 48.80514,-0.71165 68.38546,8.25864 4.32329,1.97303 8.82633,4.09196 13.70747,6.20199 25.63292,11.10344 21.66293,50.93599 5.11046,64.720551 z"
   fill="#ff0000"
   opacity="0.27"
   style="isolation:isolate;fill:#c54700;fill-opacity:1;stroke-width:0.999997;opacity:0.45864662"
   id="path857" /><text
   xml:space="preserve"
   style="font-size:29.3333px;line-height:1.25;font-family:'Noto Sans JP';-inkscape-font-specification:'Noto Sans JP'"
   x="86.524666"
   y="86.7537"
   id="text9908-7"><tspan
     sodipodi:role="line"
     x="86.524666"
     y="86.7537"
     style="font-style:normal;font-variant:normal;font-weight:bold;font-stretch:normal;font-size:29.3333px;font-family:Mamelon;-inkscape-font-specification:Mamelon;fill:#ffffff"
     id="tspan18976">ためになる</tspan></text><path
   d="m 260.43655,191.85229 c -0.0391,0.23061 -0.0783,0.46122 -0.12149,0.69184 -1.39604,7.85324 -3.67541,15.42439 -7.06461,22.37576 q -0.16679,0.34592 -0.33975,0.69184 a 63.948099,63.948099 0 0 1 -7.96031,12.27609 c -1.68843,2.03641 -3.52922,3.96987 -5.718,5.36591 -3.06799,1.9561 -6.65487,2.75089 -10.17997,3.40156 -3.66306,0.67742 -7.37348,1.23543 -11.07567,1.85314 q -1.96845,0.32122 -3.9122,0.67332 c -3.57658,0.64654 -7.12639,1.39398 -10.59178,2.38439 -4.2849,1.23543 -8.44214,2.82708 -12.35434,5.08175 q -0.46946,0.26767 -0.92863,0.54976 c -0.30681,0.18532 -0.61772,0.37475 -0.91628,0.5683 -0.29857,0.19355 -0.59919,0.38505 -0.89569,0.58066 l -0.45711,0.30885 c -0.15032,0.0988 -0.29857,0.20591 -0.44682,0.30475 -0.44063,0.30061 -0.87509,0.61771 -1.30956,0.92246 l -0.0165,0.0123 c -0.28622,0.20591 -0.57037,0.41181 -0.85452,0.61772 -1.604,1.18808 -3.173,2.43174 -4.73582,3.67953 l -0.98629,0.78862 q -0.76391,0.60536 -1.52782,1.20867 c -0.29856,0.23679 -0.60124,0.47152 -0.90187,0.70625 -0.21825,0.1709 -0.43446,0.3418 -0.65684,0.51064 -1.11395,0.85864 -2.24231,1.69873 -3.39332,2.50176 -0.27385,0.19149 -0.55183,0.38299 -0.82363,0.57036 a 43.42343,43.42343 0 0 1 -7.31788,4.03163 l -0.033,0.0144 a 29.032688,29.032688 0 0 1 -3.88749,1.34045 c -0.75979,0.20591 -1.51959,0.36858 -2.28967,0.49623 a 20.236401,20.236401 0 0 1 -6.20806,0.10707 c -4.05428,-0.57447 -7.85323,-2.47086 -11.89722,-3.10505 -8.3433,-1.29514 -16.44569,2.88267 -24.29686,6.16275 q -2.88268,1.20661 -5.82919,2.26496 -1.95198,0.7042 -3.92249,1.34045 a 123.49806,123.49806 0 0 1 -24.611904,5.265 c -3.413912,0.37269 -6.97402,0.54977 -10.449709,0.2821 a 35.296336,35.296336 0 0 1 -3.9122,-0.50859 c -4.400205,-0.82363 -8.508019,-2.57176 -11.816922,-5.76536 -2.748838,-2.61294 -4.688472,-6.02891 -6.166872,-9.59314 q -0.891574,-2.1476 -1.571062,-4.39403 A 49.00553,49.00553 0 0 1 46.45732,251.2457 c -0.08027,-0.54771 -0.152374,-1.09747 -0.205907,-1.64724 q -0.160609,-1.41457 -0.238856,-2.8415 a 49.211436,49.211436 0 0 1 1.463995,-15.03111 c 1.40221,-5.43385 3.7413,-10.63709 4.770824,-16.12241 0.04322,-0.23061 0.08235,-0.46123 0.121489,-0.69184 q 0.205907,-1.23543 0.312974,-2.51617 c 0.518879,-6.7084 -1.488693,-13.27473 -3.074169,-19.85136 -0.05562,-0.23061 -0.111188,-0.46122 -0.164722,-0.69184 q -0.257383,-1.09335 -0.487995,-2.18878 c -1.468109,-6.95548 -1.869622,-14.39897 -0.566243,-21.34005 0.04122,-0.23061 0.08854,-0.46329 0.135894,-0.69184 0.879216,-4.29931 2.431751,-8.3886 4.809961,-12.03107 2.439978,-3.73924 5.64387,-6.85047 9.059839,-9.58491 q 2.501756,-1.99728 5.174411,-3.73718 1.921098,-1.24779 3.912209,-2.36174 c 10.72562,-5.97126 22.96259,-8.88894 35.061596,-8.23622 q 0.96158,0.0495 1.91905,0.13178 1.00481,0.0865 2.00345,0.20591 c 7.78941,0.8998 15.36879,3.12976 22.90288,5.56974 2.5244,0.82363 5.04263,1.64724 7.56085,2.47087 q 1.68019,0.54771 3.35832,1.081 c 5.48739,1.73167 11.06537,3.29449 16.69483,4.47228 q 1.95816,0.41181 3.9122,0.75155 a 92.46808,92.46808 0 0 0 13.71125,1.41251 q 2.67678,0.0659 5.35355,-0.0556 1.35281,-0.0618 2.70766,-0.18119 c 9.32958,-0.79892 18.3256,-3.47775 27.35867,-5.99392 1.30545,-0.36445 2.61295,-0.72684 3.91221,-1.07689 1.71726,-0.46122 3.43656,-0.90804 5.16206,-1.31985 10.74415,-2.58 20.31876,-1.09748 30.30724,4.22312 2.26496,1.20867 4.52992,2.66649 5.93008,4.92321 1.40016,2.25673 1.7399,5.05086 1.99934,7.73999 0.36652,3.82572 0.61772,7.70498 0.69802,11.60072 0,0.23061 0,0.46123 0.0144,0.69185 0.18119,7.88824 -0.29857,15.83619 -1.61224,23.52471 z"
   fill="#ffb463"
   opacity="0.1"
   id="path2199"
   style="stroke-width:1" /><path
   d="m 189.17469,214.91989 h -0.70215 v 0.3068 0.38504 h 0.7948 z m -7.95826,0 a 0.04529923,0.04529923 0 0 0 0,0.0165 l -0.0618,0.57242 v 0.0515 0.0515 h 6.0948 v -0.0411 l 0.43446,-0.65066 z m -16.29743,0 v -22.37576 h 7.00079 c -0.0741,-0.0618 -0.15031,-0.12354 -0.22855,-0.1812 l -0.10296,-0.0783 c -0.0432,-0.035 -0.0864,-0.0679 -0.13178,-0.0988 -0.0453,-0.0309 -0.15236,-0.10913 -0.23267,-0.16267 -0.0803,-0.0535 -0.12972,-0.0885 -0.2059,-0.13178 l -0.0474,-0.0309 h -0.0103 -6.04127 v -1.22513 l -0.16267,0.0783 -0.17295,0.0968 h -0.0123 l -0.037,0.0226 -0.10707,0.07 c -0.0371,0.0226 -0.0741,0.0453 -0.10913,0.07 -0.10707,0.072 -0.2059,0.1503 -0.31915,0.23061 l -0.10295,0.0823 c -0.07,0.0535 -0.13591,0.10913 -0.20591,0.16472 -0.27385,0.22445 -0.54359,0.45918 -0.82363,0.67538 -0.07,0.0556 -0.14001,0.10913 -0.2059,0.16061 a 5.3144233,5.3144233 0 0 1 -0.46535,0.30474 2.211426,2.211426 0 0 1 -0.2059,0.11324 l -0.11531,0.0535 -0.10501,0.0453 v 0 a 4.3734347,4.3734347 0 0 1 -0.76597,0.24297 v 21.87335 h -10.50119 c 0,0.0247 0.0144,0.0474 0.0206,0.0721 0.0576,0.2059 0.11531,0.41181 0.1709,0.61772 h 10.31175 v 23.98594 h 0.16061 l 0.18326,0.0123 0.33356,0.0247 0.53948,0.0536 0.24296,0.0288 0.26768,0.033 h 0.0391 c 0.15443,0.0206 0.31092,0.0453 0.46947,0.07 l 0.10089,0.0165 0.22649,0.0371 0.32533,0.0576 v 0 l 0.78039,-0.0412 v 0 l 0.10707,0.0226 c 0.0432,0 0.0864,0.0165 0.13178,0.0268 v -24.3257 h 16.22742 v -0.0515 -0.0515 l 0.0618,-0.57242 a 0.04529923,0.04529923 0 0 1 0,-0.0165 z m 24.25569,0 h -0.70215 v 0.3068 0.38504 h 0.7948 z m -8.39683,0 -0.07,0.69184 h 6.78047 l 0.46123,-0.69184 z m -15.85474,0 v -22.37576 h 7.00079 c -0.0741,-0.0618 -0.15031,-0.12354 -0.22855,-0.1812 l -0.10295,-0.0783 c -0.0432,-0.035 -0.0865,-0.0679 -0.13179,-0.0988 -0.0453,-0.0309 -0.15237,-0.10913 -0.23266,-0.16267 -0.0803,-0.0535 -0.12973,-0.0885 -0.20591,-0.13178 l -0.0474,-0.0309 h -0.0144 -6.04127 v -1.22513 l -0.16266,0.0783 -0.17296,0.0968 h -0.0123 l -0.0371,0.0226 -0.10706,0.07 c -0.0371,0.0226 -0.0741,0.0453 -0.10913,0.07 -0.10708,0.072 -0.20591,0.1503 -0.31916,0.23061 l -0.10295,0.0823 c -0.07,0.0535 -0.1359,0.10913 -0.20591,0.16472 -0.27385,0.22445 -0.54359,0.45918 -0.82362,0.67538 -0.07,0.0556 -0.14002,0.10913 -0.20591,0.16061 a 5.3144233,5.3144233 0 0 1 -0.46535,0.30474 2.211426,2.211426 0 0 1 -0.20589,0.11324 l -0.11531,0.0535 -0.10501,0.0453 v 0 a 4.3734347,4.3734347 0 0 1 -0.76598,0.24297 v 21.87335 H 150.5015 c 0,0.0247 0.0144,0.0474 0.0206,0.0721 0.0576,0.2059 0.11737,0.41181 0.17296,0.61772 h 10.30969 v 23.98387 l 0.16061,0.0103 0.18326,0.0123 0.33357,0.0247 0.53947,0.0535 0.24297,0.0288 0.26767,0.033 h 0.0391 c 0.15443,0.0206 0.31093,0.0453 0.46947,0.07 l 0.1009,0.0165 0.22649,0.0371 0.32533,0.0576 v 0 l 0.78038,-0.0412 v 0 l 0.10708,0.0226 c 0.0432,0 0.0864,0.0165 0.13177,0.0268 V 215.6115 h 15.79502 l 0.0741,-0.69184 z m 53.05363,-46.59643 h 44.11116 c 0,-0.23062 0,-0.46123 -0.0144,-0.69185 h -44.09675 v -27.16718 c -1.30956,0.35004 -2.61706,0.71243 -3.9122,1.07689 v 26.09029 h -47.976 l -0.12149,-0.13178 0.18326,-0.2059 v 0 l 17.84378,-19.58368 q -2.67677,0.12354 -5.35355,0.0556 l -13.72156,15.0517 v -16.45803 q -1.96434,-0.33974 -3.9122,-0.75156 v 16.45186 l -20.06139,-22.00513 c -2.51822,-0.82362 -5.03645,-1.66166 -7.56085,-2.47086 l 27.26808,29.91601 -0.12149,0.13178 h -50.04946 v -35.62166 q -1.0007,-0.11325 -2.00346,-0.20591 -0.95747,-0.0844 -1.91904,-0.13178 v 35.95935 H 71.497586 v -27.71487 q -1.995223,1.11189 -3.912208,2.36174 v 25.35315 H 48.516461 c -0.04738,0.22856 -0.09472,0.46124 -0.135894,0.69185 h 19.18834 v 23.52883 H 49.443041 c 0.05354,0.23062 0.109123,0.46123 0.164721,0.69184 h 17.969381 v 22.37576 H 52.362779 c -0.03914,0.23062 -0.07827,0.46124 -0.121481,0.69185 h 15.335845 v 62.56442 a 35.296336,35.296336 0 0 0 3.912208,0.50858 v -63.073 h 35.069839 v 57.5259 q 1.97257,-0.64036 3.9225,-1.34044 v -56.18546 h 50.51687 v 50.26156 a 29.032688,29.032688 0 0 0 3.8875,-1.34045 l 0.033,-0.0144 v -48.9067 h 49.13319 v 23.57002 q 1.95405,-0.3521 3.91221,-0.67332 v -22.8967 h 34.936 q 0.17296,-0.34592 0.33974,-0.69185 h -35.26339 v -22.37576 h 42.34036 c 0.0432,-0.23061 0.0824,-0.46122 0.12149,-0.69184 h -42.46185 z m -146.477107,0 h 35.059547 v 23.52883 H 71.497586 Z m 0,46.59643 v -22.37576 h 35.059547 v 22.37576 z m 38.984107,-46.59643 h 50.51481 v 23.52883 h -50.51687 z m 0,46.59643 v -22.37576 h 50.51481 v 22.37576 z m 103.5705,0 H 164.919 v -22.37576 h 49.1332 z m 0,-23.06142 H 164.919 v -22.90495 l 0.68979,-0.63006 h 48.44341 z m -32.83576,23.06142 a 0.04529923,0.04529923 0 0 0 0,0.0165 l -0.0618,0.57242 v 0.0515 0.0515 h 6.09481 v -0.0411 l 0.43446,-0.65066 z m 7.95825,0 h -0.70213 v 0.3068 0.38504 h 0.79479 z m -24.25567,0 v -22.37576 h 7.00078 c -0.0741,-0.0618 -0.15031,-0.12354 -0.22855,-0.1812 l -0.10295,-0.0783 c -0.0432,-0.035 -0.0865,-0.0679 -0.13178,-0.0988 -0.0453,-0.0309 -0.15238,-0.10913 -0.23268,-0.16267 -0.0803,-0.0535 -0.12972,-0.0885 -0.20591,-0.13178 l -0.0474,-0.0309 h -0.0103 -6.04334 v -1.22513 l -0.16266,0.0783 -0.17296,0.0968 h -0.0123 l -0.0371,0.0226 -0.10706,0.07 c -0.0371,0.0226 -0.0741,0.0453 -0.10914,0.07 -0.10707,0.072 -0.2059,0.1503 -0.31915,0.23061 l -0.10295,0.0823 c -0.07,0.0535 -0.1359,0.10913 -0.20591,0.16472 -0.27385,0.22445 -0.54359,0.45918 -0.82362,0.67538 -0.07,0.0556 -0.14002,0.10913 -0.20591,0.16061 a 5.3144233,5.3144233 0 0 1 -0.46535,0.30474 2.211426,2.211426 0 0 1 -0.2059,0.11324 l -0.11531,0.0535 -0.10501,0.0453 v 0 a 4.3734347,4.3734347 0 0 1 -0.76597,0.24297 v 21.87335 h -10.50118 c 0,0.0247 0.0144,0.0474 0.0206,0.0721 0.0576,0.2059 0.11531,0.41181 0.1709,0.61772 h 10.31175 v 23.98594 h 0.16061 l 0.18326,0.0123 0.33356,0.0247 0.53948,0.0536 0.24297,0.0288 0.26767,0.033 h 0.0391 c 0.15443,0.0206 0.31092,0.0453 0.46947,0.07 l 0.10089,0.0165 0.22649,0.0371 0.32533,0.0576 v 0 l 0.78039,-0.0412 v 0 l 0.10707,0.0226 c 0.0432,0 0.0864,0.0165 0.13178,0.0268 v -24.3257 h 16.22742 v -0.0515 -0.0515 l 0.0618,-0.57242 a 0.04529923,0.04529923 0 0 1 0,-0.0165 z"
   fill="#ffb463"
   opacity="0.1"
   id="path2201"
   style="stroke-width:1" /><path
   d="m 88.355072,152.1228 h 0.312982 a 0.74949635,0.74949635 0 0 1 -0.372693,-0.6033 v 0 c 0,-0.4777 0.58477,-0.86687 1.299265,-0.86687 h 9.090732 c 0.714495,0 1.299265,0.38917 1.299265,0.86687 v 0 c 0,0.47564 -0.58477,0.86686 -1.299265,0.86686 h -0.302681 a 0.75155541,0.75155541 0 0 1 0.370628,0.60331 c 0,0.4118 -0.424161,0.74949 -0.992461,0.84215 h 2.617056 c 0.71244,0 1.29721,0.38916 1.29721,0.86686 0,0.4777 -0.58477,0.8648 -1.29721,0.8648 h -9.101024 c -0.712429,0 -1.297208,-0.38915 -1.297208,-0.8648 0,-0.41181 0.42417,-0.74949 0.99247,-0.84215 h -2.617066 c -0.712429,0 -1.297199,-0.38917 -1.297199,-0.86686 0,-0.47771 0.580648,-0.86687 1.297199,-0.86687 z"
   fill="#ffb463"
   opacity="0.1"
   id="path2203"
   style="stroke-width:1" /><path
   d="m 186.88502,160.37344 h 0.30473 a 0.75155541,0.75155541 0 0 1 -0.37269,-0.60536 v 0 c 0,-0.47565 0.58477,-0.86481 1.29927,-0.86481 h 9.09073 c 0.71449,0 1.29926,0.38916 1.29926,0.86481 v 0 c 0,0.4777 -0.58477,0.86686 -1.29926,0.86686 h -0.30268 a 0.75361446,0.75361446 0 0 1 0.37063,0.60536 c 0,0.41182 -0.42417,0.74744 -0.99247,0.8401 h 2.61706 c 0.71244,0 1.29721,0.39122 1.29721,0.86686 0,0.47564 -0.58477,0.86686 -1.29721,0.86686 h -9.08867 c -0.71243,0 -1.2972,-0.38916 -1.2972,-0.86686 0,-0.41181 0.42416,-0.74949 0.99246,-0.8401 h -2.62117 c -0.71244,0 -1.29721,-0.39122 -1.29721,-0.86686 0,-0.47564 0.58889,-0.86686 1.29721,-0.86686 z"
   fill="#ffb463"
   opacity="0.1"
   id="path2205"
   style="stroke-width:1" /><path
   d="m 74.40909,195.68007 h 0.304738 a 0.75361446,0.75361446 0 0 1 -0.370629,-0.60536 v 0 c 0,-0.47564 0.582714,-0.86686 1.297208,-0.86686 h 9.090733 c 0.714486,0 1.299265,0.39122 1.299265,0.86686 v 0 c 0,0.4777 -0.584779,0.86687 -1.299265,0.86687 h -0.302681 a 0.75361446,0.75361446 0 0 1 0.370628,0.60535 c 0,0.41181 -0.42417,0.74744 -0.992461,0.8401 h 2.617056 c 0.714495,0 1.297209,0.38916 1.297209,0.86687 0,0.47769 -0.582714,0.86685 -1.297209,0.86685 h -9.092789 c -0.712438,0 -1.297208,-0.39122 -1.297208,-0.86685 0,-0.41182 0.426227,-0.74951 0.992461,-0.84216 H 74.40909 c -0.71243,0 -1.297209,-0.38916 -1.297209,-0.86481 0,-0.47564 0.584779,-0.86686 1.297209,-0.86686 z"
   fill="#ffb463"
   opacity="0.1"
   id="path2207"
   style="stroke-width:1" /><path
   d="m 179.54654,254.98912 q -0.76392,0.60536 -1.52782,1.20867 c -0.29856,0.23679 -0.60124,0.47153 -0.90187,0.70625 -0.21826,0.1709 -0.43446,0.34181 -0.65684,0.51065 -1.11395,0.85863 -2.24231,1.69872 -3.39333,2.50175 -0.27385,0.19149 -0.55182,0.38299 -0.82361,0.57036 a 43.42343,43.42343 0 0 1 -7.31789,4.03163 l -0.033,0.0144 v -9.54372 z"
   fill="#65617d"
   id="path2209"
   style="stroke-width:1" /><path
   d="m 202.45971,217.48136 0.23062,-7.11404 c -0.13796,-0.10708 -0.27798,-0.20591 -0.41181,-0.30474 a 37.923691,37.923691 0 0 0 -0.3624,-6.34395 c -0.93069,-7.11404 -6.97403,-7.26847 -8.67892,-5.80037 a 4.1181118,4.1181118 0 0 1 -0.73508,0.50654 c 0.15443,-1.01512 0.34592,-2.03229 0.48388,-3.03711 0.74538,-5.41944 -0.41181,-11.51631 -4.6164,-15.01876 -1.7605,-1.46398 -3.91221,-2.36379 -5.84567,-3.58893 -3.46333,-2.18466 -6.19981,-5.4112 -9.70227,-7.53821 -3.50245,-2.127 -8.42154,-2.92386 -11.47718,-0.18943 -1.18395,1.05836 -1.94786,2.52646 -3.16271,3.54775 -2.26496,1.90258 -5.79624,2.02818 -7.77293,4.15312 v 0 c -0.0988,0.10707 -0.19356,0.2162 -0.28415,0.33151 -1.64725,2.11259 -1.19632,5.10852 -0.67126,7.7297 0.63214,3.15447 0.37063,5.68299 3.07624,6.58897 0.0103,0.1256 0.0185,0.25121 0.033,0.37475 a 13.365332,13.365332 0 0 0 5.88066,9.61991 l -0.43857,0.15649 c -1.16954,0.41181 -2.22172,0.81126 -2.89503,1.08512 -2.47087,1.00688 -7.67205,2.31849 -7.67205,2.31849 0,0 -0.12354,1.48253 -0.10089,3.66924 -1.73372,1.88404 -4.6267,5.19501 -5.47709,7.15728 -1.23543,2.86209 -8.21563,11.0592 -10.07496,12.29669 -1.85933,1.23749 -3.87514,2.7056 -3.87514,2.7056 0,0 -2.94446,1.62459 -4.33843,1.77902 -0.9657,0.10707 -3.95339,-0.46534 -3.95339,-0.46534 0,0 -11.93222,-14.6193 -11.15801,-3.40157 0.77419,11.21774 10.30557,11.59867 10.30557,11.59867 l 9.6096,-0.15443 c 0,0 5.19294,0.69596 7.51762,-1.23543 1.98493,-1.64725 12.27197,-10.68445 15.57675,-14.78403 0.0762,0.0844 0.15238,0.16678 0.23268,0.24709 0,0 1.31574,-1.70078 1.47222,0 0.15649,1.70078 -0.85451,2.47086 -0.31091,3.08858 0.54359,0.61772 2.17024,2.78384 2.24643,3.63424 0.0762,0.85039 -2.16819,4.32401 1.62665,6.95961 0.0597,0.0411 0.12354,0.0803 0.19356,0.11942 0.67742,1.54224 2.83119,3.05152 2.83119,3.05152 l 11.62338,-0.15443 21.931,1.70079 c 0,0 0.65272,-0.57448 1.53605,-1.51341 1.17984,1.08306 2.8168,2.01169 4.6617,1.44134 0,0 2.6356,-3.16889 2.71384,-5.25677 0,0 -1.7049,-4.40844 -2.47087,-5.72212 -0.76596,-1.31368 0.5436,-4.17576 0.5436,-4.17576 0,0 0.92863,-2.78385 1.47222,-2.78385 0.54359,0 0.15443,-1.85315 0.15443,-1.85315 a 2.2526072,2.2526072 0 0 1 -0.23267,-2.08788 c 0.45505,-1.17161 0.76596,-3.33773 0.76596,-3.33773 z"
   fill="url(#5f966abe-ca91-49e1-9c3c-162f077ee9a1)"
   id="path2211"
   style="fill:url(#5f966abe-ca91-49e1-9c3c-162f077ee9a1);stroke-width:1" /><path
   d="m 189.31264,215.87941 -0.82362,0.96364 v 0 l -3.32744,3.87514 -4.34666,0.26356 -6.95755,0.42828 c 0,0 -9.38107,-11.30422 -7.61851,-13.76479 0.64037,-0.88745 0.74538,-2.05905 0.61772,-3.16476 -0.0165,-0.15237 -0.0391,-0.30475 -0.0659,-0.45506 a 13.155309,13.155309 0 0 0 -1.09542,-3.37684 l 0.23062,-0.10501 0.14825,-0.0679 8.20328,-3.74337 2.03023,-0.92658 a 5.4812069,5.4812069 0 0 0 0.55595,1.60195 c 0.0391,0.0783 0.0823,0.15649 0.12766,0.23061 2.79825,4.63288 11.77162,1.70285 11.77162,1.70285 z"
   fill="#ee8e9e"
   id="path2213"
   style="stroke-width:1" /><path
   d="m 201.44254,210.09552 c -0.0618,2.80444 -0.51889,4.01516 -0.51889,4.01516 l -11.61101,1.76873 -0.43447,-3.01446 -1.7193,-11.9034 1.61429,-1.6143 a 4.309604,4.309604 0 0 0 3.69189,-0.92245 c 1.69049,-1.46193 7.68852,-1.3075 8.61098,5.76535 a 39.14883,39.14883 0 0 1 0.36651,5.90537 z"
   fill="#ee8e9e"
   id="path2215"
   style="stroke-width:1" /><path
   d="m 198.69369,242.94364 c 0,0 2.61295,-3.15241 2.6912,-5.22794 l -2.615,-4.38373 -2.30615,-2.47087 -4.30755,8.31447 c 0,0 2.84562,4.92114 6.5375,3.76807 z"
   fill="#dfe5ee"
   id="path2217"
   style="stroke-width:1" /><path
   d="m 198.69369,242.94364 c 0,0 2.61295,-3.15241 2.6912,-5.22794 l -2.615,-4.38373 -2.30615,-2.47087 -4.30755,8.31447 c 0,0 2.84562,4.92114 6.5375,3.76807 z"
   opacity="0.1"
   id="path2219"
   style="stroke-width:1" /><path
   d="m 177.11685,256.90404 c -0.21826,0.1709 -0.43446,0.34181 -0.65684,0.51065 -1.11395,0.85863 -2.24231,1.69872 -3.39333,2.50175 -0.27385,0.19149 -0.55182,0.38299 -0.82361,0.57036 h -11.24451 -50.51687 -3.9225 l -19.43337,-0.69596 -15.628234,-0.13178 -3.912208,-0.20591 -19.51985,-1.02952 a 49.00553,49.00553 0 0 1 -1.608116,-7.17787 c -0.08027,-0.54771 -0.152374,-1.09748 -0.205907,-1.64725 l 21.325638,1.1819 3.912208,0.22032 35.061599,1.9561 3.9225,0.21826 50.51687,2.82091 3.88751,0.21826 h 0.033 z"
   fill="#d48a9b"
   id="path2221"
   style="stroke-width:1" /><path
   d="m 203.46041,241.56614 c -4.28489,1.23543 -8.44212,2.82708 -12.35433,5.08175 -0.31092,0.17914 -0.61772,0.36239 -0.92864,0.54976 -0.31092,0.18737 -0.61771,0.37475 -0.91628,0.5683 -0.29856,0.19355 -0.59918,0.38505 -0.89569,0.58066 l -0.45711,0.30885 -0.44681,0.30475 c -0.44064,0.30268 -0.8751,0.61771 -1.30956,0.92246 l -0.0165,0.0123 c -0.28621,0.20591 -0.57036,0.41181 -0.85451,0.61772 -1.60401,1.18808 -3.173,2.43174 -4.73583,3.67953 q -0.49417,0.39534 -0.9904,0.78862 l -1.5237,1.20867 c -0.29857,0.23679 -0.60125,0.47152 -0.90187,0.70625 -0.21826,0.1709 -0.43446,0.3418 -0.65684,0.51064 l -11.53072,-0.54976 h -0.033 l -3.8875,-0.1812 -50.53953,-2.39468 -3.9225,-0.18737 -35.061596,-1.66578 -3.912208,-0.18737 -21.127966,-0.99453 c -0.08027,-0.54771 -0.152374,-1.09747 -0.205907,-1.64724 q -0.160609,-1.41457 -0.238856,-2.8415 l 21.570672,-7.61851 3.912209,-1.38574 3.553928,-1.25603 6.475733,0.33769 14.967272,0.76803 v 0 l 10.072899,0.52917 3.9225,0.20591 2.50587,0.13178 v 0 l 0.59919,0.033 v 0 l 21.08884,1.1016 v 0 l 0.22238,0.0144 v 0 l 9.40989,0.49005 h 0.10707 0.0618 v 0 l 0.94099,0.0474 v 0 l 3.20801,0.16883 4.01104,0.20591 v 0 l 1.32191,0.07 v 0 l 0.24915,0.0144 1.86962,0.0968 v 0 l 0.53329,0.0267 v 0 l 1.78521,0.0947 v 0 l 0.71037,0.0391 h 0.0226 0.14825 v 0 l 1.66989,0.0885 2.58618,0.13589 h 0.0123 l 0.80303,0.0412 h 0.0865 l 0.47976,0.0267 1.17778,0.0618 v 0 l 1.02952,0.0535 h 0.0103 l 1.15513,0.0597 h 0.0186 l 0.87509,0.0474 v 0 l 0.67125,0.035 2.38234,0.12561 v 0 l 0.42828,0.0226 h 0.14825 l 0.20591,0.0123 v 0 l 0.69801,0.037 v 0 l 0.31298,0.0165 v 0 l 2.42969,0.1256 h 0.22238 l 3.58687,-0.0309 h 0.0247 l 13.63712,-0.11119 v 0 h 0.26151 0.27591 0.81127 v 0 l 4.3899,-0.035 h 0.65478 z"
   fill="#efc6cd"
   id="path2223"
   style="stroke-width:1" /><path
   d="m 111.42268,241.84823 1.26838,6.74752 34.48506,-0.51888 c 0,0 2.59441,0.7495 2.53675,-1.32603 0,0 5.24854,-4.96027 31.83301,0.80715 l -10.20674,-8.01591 -27.90021,1.49899 -32.35188,-0.8648 z"
   fill="#ffb463"
   id="path2225"
   style="stroke-width:1" /><path
   d="m 112.05687,240.23393 1.21072,7.32406 c 0,0 29.6504,-0.8648 34.31211,-0.0576 l -3.52305,-6.68987 c 0,0 -17.9282,-1.67195 -31.99978,-0.57654 z"
   fill="#ffffff"
   id="path2227"
   style="stroke-width:1" /><path
   d="m 112.05687,240.23393 1.21072,7.32406 c 0,0 29.6504,-0.8648 34.31211,-0.0576 l -3.52305,-6.68987 c 0,0 -17.9282,-1.67195 -31.99978,-0.57654 z"
   opacity="0.1"
   id="path2229"
   style="stroke-width:1" /><path
   d="m 112.49957,240.20715 1.19424,6.81137 c 0,0 29.2736,-0.80304 33.88589,-0.0535 l -3.47363,-6.22042 c 0,0 -17.712,-1.55665 -31.6065,-0.53741 z"
   fill="#ffffff"
   id="path2231"
   style="stroke-width:1" /><path
   d="m 113.03697,240.41718 1.16337,6.37073 c 0,0 28.63117,-0.75156 33.1508,-0.0495 l -3.39744,-5.82095 c 0,0 -17.3249,-1.46193 -30.91673,-0.50035 z"
   opacity="0.1"
   id="path2233"
   style="stroke-width:1" /><path
   d="m 113.26759,240.18451 1.16955,6.38308 c 0,0 28.63117,-0.75156 33.15079,-0.0495 l -3.40567,-5.82713 c 0,0 -17.32285,-1.45987 -30.91467,-0.50653 z"
   fill="#ffffff"
   id="path2235"
   style="stroke-width:1" /><path
   d="m 93.010603,222.86167 c 0,0 1.498993,1.95816 -0.689789,4.91703 -2.188773,2.95886 -3.996626,5.45443 -3.265661,7.29935 0,0 3.294489,-5.49356 5.99185,-5.55945 2.69737,-0.0659 0.922458,-3.3542 -2.0364,-6.65693 z"
   fill="#ffb463"
   id="path2237"
   style="stroke-width:1" /><path
   d="m 93.010603,222.86167 a 2.3802686,2.3802686 0 0 1 0.306795,0.61771 c 2.623236,3.08859 4.021341,5.97127 1.498993,6.03304 -2.349382,0.0659 -5.166167,4.26637 -5.841542,5.32884 q 0.03497,0.11942 0.08027,0.24091 c 0,0 3.294488,-5.49356 5.99185,-5.55945 2.69737,-0.0659 0.922457,-3.35832 -2.0364,-6.66105 z"
   opacity="0.1"
   id="path2239"
   style="stroke-width:1" /><path
   d="m 95.796504,225.35931 c 0,0.68772 -0.07827,1.24778 -0.172957,1.24778 -0.09472,0 -0.172966,-0.56006 -0.172966,-1.24778 0,-0.68773 0.09677,-0.36652 0.191493,-0.36652 0.09472,0 0.15443,-0.32327 0.15443,0.36652 z"
   fill="#ffd037"
   id="path2241"
   style="stroke-width:1" /><path
   d="m 96.751903,226.18087 c -0.605363,0.33151 -1.132478,0.53123 -1.177776,0.44681 -0.0453,-0.0844 0.411813,-0.41181 1.013054,-0.74949 0.601241,-0.33769 0.366515,-0.0906 0.411813,0 0.0453,0.0906 0.358272,-0.0268 -0.247091,0.30268 z"
   fill="#ffd037"
   id="path2243"
   style="stroke-width:1" /><path
   d="m 85.097647,222.86167 c 0,0 -1.498993,1.95816 0.691845,4.91703 2.190839,2.95886 3.99457,5.45443 3.265661,7.29935 0,0 -3.30478,-5.49356 -5.993906,-5.55945 -2.689135,-0.0659 -0.922458,-3.3542 2.0364,-6.65693 z"
   fill="#ffb463"
   id="path2245"
   style="stroke-width:1" /><path
   d="m 85.097647,222.86167 a 2.4708671,2.4708671 0 0 0 -0.306795,0.61771 c -2.623236,3.08859 -4.021341,5.97127 -1.498993,6.03304 2.349382,0.0659 5.168232,4.26637 5.843599,5.32884 q -0.03298,0.11942 -0.08027,0.24091 c 0,0 -3.304781,-5.49356 -5.993907,-5.55945 -2.689134,-0.0659 -0.922458,-3.35832 2.0364,-6.66105 z"
   opacity="0.1"
   id="path2247"
   style="stroke-width:1" /><path
   d="m 82.311746,225.35931 c 0,0.68772 0.07827,1.24778 0.172966,1.24778 0.09471,0 0.172957,-0.56006 0.172957,-1.24778 0,-0.68773 -0.09678,-0.36652 -0.191493,-0.36652 -0.09472,0 -0.15443,-0.32327 -0.15443,0.36652 z"
   fill="#ffd037"
   id="path2249"
   style="stroke-width:1" /><path
   d="m 81.356347,226.18087 c 0.605363,0.33151 1.134534,0.53123 1.179833,0.44681 0.0453,-0.0844 -0.411805,-0.41181 -1.013055,-0.74949 -0.60124,-0.33769 -0.366506,-0.0906 -0.411804,0 -0.0453,0.0906 -0.360337,-0.0268 0.245026,0.30268 z"
   fill="#ffd037"
   id="path2251"
   style="stroke-width:1" /><path
   d="m 97.110183,232.43628 -0.07411,0.61772 -0.10501,0.86275 -0.04322,0.36033 -0.10501,0.8648 -0.0453,0.36033 -0.107066,0.86481 -1.198369,9.82581 c -0.107075,0.87716 -1.540177,1.56077 -3.269783,1.56077 h -6.222471 c -1.729605,0 -3.160651,-0.68361 -3.267718,-1.56077 l -1.200433,-9.82581 -0.10501,-0.86481 -0.04322,-0.36033 -0.107067,-0.8648 -0.04321,-0.36033 -0.10501,-0.86275 -0.07619,-0.61772 c -0.0597,-0.49623 0.714494,-0.91421 1.694607,-0.91421 h 12.737314 c 0.978057,0 1.75432,0.41798 1.686373,0.91421 z"
   fill="#65617d"
   id="path2253"
   style="stroke-width:1" /><polygon
   points="171.16,555.79 170.65,551.59 248.23,551.59 247.72,555.79 "
   fill="#9d9cb5"
   id="polygon2255"
   transform="matrix(0.20590559,0,0,0.20590559,45.930288,119.47235)"
   style="stroke-width:4.85659" /><polygon
   points="171.89,561.74 171.37,557.54 247.51,557.54 247,561.74 "
   fill="#9d9cb5"
   id="polygon2257"
   transform="matrix(0.20590559,0,0,0.20590559,45.930288,119.47235)"
   style="stroke-width:4.85659" /><polygon
   points="172.61,567.68 172.1,563.49 246.78,563.49 246.27,567.68 "
   fill="#9d9cb5"
   id="polygon2259"
   transform="matrix(0.20590559,0,0,0.20590559,45.930288,119.47235)"
   style="stroke-width:4.85659" /><path
   d="m 116.11321,231.64149 c 0,0 -3.99869,-3.84426 -3.84426,1.15307 0.15443,4.99732 3.84426,-1.15307 3.84426,-1.15307 z"
   fill="#ee8e9e"
   id="path2261"
   style="stroke-width:1" /><path
   d="m 152.02108,222.87608 c -0.0885,0.38711 -0.51888,1.02953 -1.19013,1.83462 -3.46746,4.17577 -13.33239,12.85469 -15.26584,14.46487 -2.30615,1.92316 -7.45791,1.23543 -7.45791,1.23543 l -9.53342,0.15443 c 0,0 -9.45724,-0.38504 -10.22733,-11.53071 -0.77009,-11.14567 11.07153,3.38303 11.07153,3.38303 0,0 2.96505,0.5683 3.9225,0.46123 1.3837,-0.15237 4.30549,-1.76667 4.30549,-1.76667 0,0 1.99935,-1.46193 3.84426,-2.69118 1.84492,-1.22927 8.7654,-9.38107 9.99672,-12.22668 0.78038,-1.8058 3.29449,-4.75849 5.03027,-6.67341 0.99659,-1.10159 1.73579,-1.85315 1.73579,-1.85315 0,0 4.30548,12.82381 3.76807,15.20819 z"
   fill="#ee8e9e"
   id="path2263"
   style="stroke-width:1" /><path
   d="m 152.02108,222.87608 c -0.0885,0.38711 -0.51888,1.02953 -1.19013,1.83462 -3.5004,-3.56423 -4.23136,-10.67621 -4.31373,-15.19789 0.99659,-1.10159 1.73579,-1.85315 1.73579,-1.85315 0,0 4.30548,12.83204 3.76807,15.21642 z"
   opacity="0.1"
   id="path2265"
   style="stroke-width:1" /><path
   d="m 188.48695,216.84305 v 0 l -3.32537,3.87514 -4.34666,0.26356 -6.95755,0.42828 c 0,0 -9.38107,-11.30422 -7.61851,-13.76479 0.64037,-0.88745 0.74538,-2.05905 0.61772,-3.16476 -0.0165,-0.15237 -0.0391,-0.30475 -0.0659,-0.45506 a 13.155309,13.155309 0 0 0 -1.09542,-3.37684 l 0.23062,-0.10501 0.14825,-0.0679 a 14.76549,14.76549 0 0 1 0.75362,3.15241 c 0.0226,0.14619 0.0432,0.29856 0.0639,0.45505 0.0721,0.55594 0.13796,1.17366 0.2059,1.85315 0.53536,6.22247 4.44963,8.56362 6.21629,9.30899 a 17.9282,17.9282 0 0 1 1.66372,0.80509 8.87659,8.87659 0 0 0 5.58004,1.00894 c 4.36108,-0.57241 7.91707,-3.74131 7.91707,-3.74131 l 0.0185,3.11948 z"
   opacity="0.1"
   id="path2267"
   style="stroke-width:1" /><path
   d="m 188.6208,241.02255 c 0,0 -28.60235,-0.0783 -32.37248,-2.69119 -3.77013,-2.61294 -1.53606,-6.07422 -1.6143,-6.92049 -0.0783,-0.84627 -1.69048,-2.99798 -2.2279,-3.6157 -0.53741,-0.61772 0.46123,-1.38369 0.3068,-3.07418 -0.15443,-1.69048 -1.45987,0 -1.45987,0 -5.38443,-5.46061 -4.23136,-19.29953 -4.23136,-19.29953 0,0 5.14764,-1.30544 7.61851,-2.30819 0.66919,-0.2718 1.71107,-0.65891 2.88268,-1.07689 l 0.43446,-0.15649 c 3.02063,-1.08101 6.61163,-2.30202 6.61163,-2.30202 0,0 0.68978,-0.488 1.38368,0.97187 0.31709,0.67125 0.63624,1.75226 0.89157,3.47981 0.0226,0.14618 0.0432,0.29856 0.0639,0.45504 0.072,0.55595 0.13795,1.17367 0.2059,1.85315 0.53536,6.22247 4.44962,8.56362 6.21629,9.309 a 17.9282,17.9282 0 0 1 1.66372,0.80509 8.87659,8.87659 0 0 0 5.58004,1.00893 c 4.36108,-0.57241 7.91707,-3.7413 7.91707,-3.7413 l 0.0185,3.11947 0.0536,9.37282 z"
   fill="#dfe5ee"
   id="path2269"
   style="stroke-width:1" /><path
   d="m 187.38948,228.87412 -0.46123,2.9218 c 0,0 -11.3804,2.84356 -15.83825,3.68982 -4.45786,0.84628 -14.07159,-0.23061 -14.76344,1.61431 -0.69184,1.84491 2.9218,4.38372 2.9218,4.38372 l 11.53072,-0.15443 21.7601,1.69255 c 0,0 8.30417,-7.30554 5.61299,-12.38111 -2.69119,-5.07557 -10.76269,-1.76666 -10.76269,-1.76666 z"
   fill="#ee8e9e"
   id="path2271"
   style="stroke-width:1" /><path
   d="m 163.9389,205.80651 c 0,0 -5.23001,4.30548 -4.22931,6.38308 1.0007,2.07758 4.22931,-6.38308 4.22931,-6.38308 z"
   opacity="0.1"
   id="path2273"
   style="stroke-width:1" /><path
   d="m 157.47964,213.57121 c 0,0 -5.30619,9.15045 -4.99734,9.84228 0.30886,0.69185 1.76874,3.15242 1.69049,1.3075 -0.0783,-1.84491 3.30685,-11.14978 3.30685,-11.14978 z"
   opacity="0.1"
   id="path2275"
   style="stroke-width:1" /><path
   d="m 159.63341,215.18756 c 0,0 -1.23544,5.68918 -2.46058,8.07357 -1.22513,2.38438 2.46058,-8.07357 2.46058,-8.07357 z"
   opacity="0.1"
   id="path2277"
   style="stroke-width:1" /><path
   d="m 177.00154,197.64441 a 13.301501,13.301501 0 0 1 -10.10996,6.84018 h -0.0247 a 13.278852,13.278852 0 0 1 -9.36046,-2.45028 c 3.08858,-1.116 7.04609,-2.4585 7.04609,-2.4585 0,0 0.68978,-0.488 1.38368,0.97187 l 10.38176,-4.73583 a 5.5038564,5.5038564 0 0 0 0.68361,1.83256 z"
   opacity="0.1"
   id="path2279"
   style="stroke-width:1" /><path
   d="m 178.62408,190.81246 a 13.241789,13.241789 0 0 1 -1.7502,6.60134 13.398277,13.398277 0 0 1 -1.98286,2.6397 13.245906,13.245906 0 0 1 -8.06327,3.98634 h -0.0267 a 12.986466,12.986466 0 0 1 -1.4784,0.0844 13.301501,13.301501 0 0 1 -13.21708,-11.8025 12.918517,12.918517 0 0 1 -0.0844,-1.50105 13.301505,13.301505 0 1 1 26.60301,0 z"
   fill="#ee8e9e"
   id="path2281"
   style="stroke-width:1" /><path
   d="m 187.23711,215.98236 1.23543,-1.85315 c 0,0 6.76607,-8.07356 13.38387,-2.92179 l -0.23062,7.0749 c 0,0 -0.30885,2.15172 -0.77008,3.2945 a 2.2505481,2.2505481 0 0 0 0.23061,2.07759 c 0,0 0.38505,1.85315 -0.15237,1.85315 -0.53741,0 -1.46193,2.76737 -1.46193,2.76737 0,0 -1.3075,2.84561 -0.53741,4.15311 0.77008,1.3075 2.46057,5.68918 2.46057,5.68918 0,0 -2.69119,-1.6143 -3.46127,-4.30548 0,0 -6.53544,-5.07558 -11.61102,-1.85316 z"
   opacity="0.1"
   id="path2283"
   style="stroke-width:1" /><path
   d="m 201.44254,210.09552 c -0.0618,2.80444 -0.51889,4.01516 -0.51889,4.01516 l -11.61101,1.76873 -0.43447,-3.01446 c 1.51959,-1.58547 7.04609,-6.62604 12.56437,-2.76943 z"
   opacity="0.1"
   id="path2285"
   style="stroke-width:1" /><path
   d="m 187.23711,215.57055 1.23543,-1.85315 c 0,0 6.76607,-8.07356 13.38387,-2.9218 l -0.23062,7.07492 c 0,0 -0.30885,2.15171 -0.77008,3.29449 a 2.2505481,2.2505481 0 0 0 0.23061,2.07758 c 0,0 0.38505,1.85315 -0.15237,1.85315 -0.53741,0 -1.46193,2.76738 -1.46193,2.76738 0,0 -1.3075,2.84561 -0.53741,4.15311 0.77008,1.3075 2.46057,5.68918 2.46057,5.68918 0,0 -2.69119,-1.61431 -3.46127,-4.30549 0,0 -6.53544,-5.07557 -11.61102,-1.85315 z"
   fill="#dfe5ee"
   id="path2287"
   style="stroke-width:1" /><path
   d="m 198.15422,210.34261 c 0,0 -11.14772,6.8443 -10.61031,12.84645 0,0 6.22864,-11.00154 10.61031,-12.84645 z"
   opacity="0.1"
   id="path2289"
   style="stroke-width:1" /><path
   d="m 188.4849,216.84511 0.0535,9.37282 c -2.10847,0.0947 -4.09546,-0.17914 -5.66652,-1.54429 -1.09336,-0.95129 -1.72961,-2.26497 -2.05906,-3.68571 a 13.056474,13.056474 0 0 1 -0.26767,-3.48598 0.18737409,0.18737409 0 0 1 0,-0.035 c 0.12972,-2.58824 0.72478,-5.17647 0.41181,-7.74823 -0.31298,-2.57176 -1.87169,-5.2856 -4.41667,-5.82713 -0.50241,-0.10913 -1.0666,-0.14825 -1.42487,-0.51682 -0.39534,-0.41181 -0.37681,-1.05218 -0.33357,-1.62254 l 0.0741,-0.96158 c 0.0185,-0.24709 0.0267,-0.49211 0.0267,-0.73714 a 9.4366529,9.4366529 0 0 0 -7.6185,-9.2534 l -0.0824,-0.0144 c -0.71655,-0.14413 -1.46193,-0.28621 -2.17848,-0.12148 -1.3631,0.31503 -2.24437,1.63694 -3.50039,2.26495 -2.4091,1.20249 -6.42631,-0.11324 -8.94866,-0.52711 -0.16472,-0.0267 -0.32121,-0.0576 -0.47153,-0.0927 a 12.918517,12.918517 0 0 1 -0.0844,-1.50105 13.301501,13.301501 0 1 1 24.8528,6.60133 c 0.0391,0.0783 0.0823,0.15649 0.12766,0.23061 2.79826,4.63288 11.77162,1.70285 11.77162,1.70285 l 0.53948,16.53215 z"
   opacity="0.1"
   id="path2291"
   style="stroke-width:1" /><path
   d="m 161.98691,192.70062 c 1.24778,-0.63008 2.12907,-1.95199 3.50039,-2.26496 0.7145,-0.16473 1.45987,-0.0226 2.18054,0.11942 l 0.0823,0.0165 a 9.4448898,9.4448898 0 0 1 7.5835,9.9926 l -0.0741,0.96157 c -0.0453,0.5683 -0.0639,1.21279 0.33563,1.62049 0.35621,0.36857 0.92039,0.41181 1.42281,0.51476 2.54499,0.54359 4.10369,3.24301 4.41668,5.82919 0.31297,2.58617 -0.29239,5.18264 -0.41182,7.78116 -0.11942,2.59853 0.35827,5.4668 2.32261,7.17376 3.08859,2.67677 7.78324,1.15307 11.87047,0.90805 -1.80786,0 -3.16272,-1.86551 -3.26155,-3.66924 -0.0988,-1.80374 0.70419,-3.52099 1.47222,-5.14764 0.76803,-1.62666 1.53812,-3.37685 1.36721,-5.17647 -0.23472,-2.47087 -2.18259,-4.44963 -2.92797,-6.82784 -0.86893,-2.76736 -0.0309,-5.73858 0.36239,-8.61508 0.7392,-5.38649 -0.41181,-11.45041 -4.58139,-14.93228 -1.74609,-1.45575 -3.88133,-2.35143 -5.80037,-3.57039 -3.43862,-2.18055 -6.15039,-5.37827 -9.62608,-7.49909 -3.47569,-2.12083 -8.35565,-2.90738 -11.38864,-0.18943 -1.17366,1.05217 -1.9314,2.51205 -3.138,3.52716 -2.35762,1.98699 -6.10511,2.02405 -7.99532,4.46197 -1.62665,2.09818 -1.18601,5.07764 -0.66508,7.68235 0.69391,3.47362 0.30269,6.17716 4.01517,6.79488 2.51204,0.39739 6.52721,1.71314 8.93836,0.50858 z"
   fill="#603556"
   id="path2293"
   style="stroke-width:1" /><path
   d="m 192.57624,223.69353 c -2.97534,0.36445 -5.9239,0.55183 -8.09003,-1.32603 -1.96433,-1.70697 -2.44822,-4.57317 -2.32261,-7.17376 0.1256,-2.60058 0.72685,-5.19911 0.41181,-7.78323 -0.31504,-2.58411 -1.87168,-5.28353 -4.41668,-5.82713 -0.50241,-0.10706 -1.06453,-0.14618 -1.42281,-0.51476 -0.3974,-0.41181 -0.38092,-1.05424 -0.33562,-1.62253 l 0.0741,-0.96158 a 9.4428306,9.4428306 0 0 0 -7.58351,-9.99054 l -0.0823,-0.0165 c -0.72067,-0.14207 -1.46605,-0.28415 -2.18054,-0.11943 -1.36309,0.31504 -2.24437,1.64725 -3.50039,2.26497 -2.41116,1.20455 -6.42426,-0.11119 -8.95072,-0.52507 -3.7063,-0.60742 -3.3192,-3.31507 -4.01516,-6.79488 -0.38916,-1.94375 -0.73302,-4.09752 -0.20591,-5.93832 -0.0988,0.10502 -0.19355,0.20591 -0.28414,0.33151 -1.62665,2.09818 -1.18602,5.07764 -0.66508,7.68234 0.69391,3.47363 0.30268,6.17717 4.01516,6.79489 2.5244,0.4118 6.53956,1.7296 8.95071,0.52506 1.24779,-0.63008 2.12907,-1.95199 3.5004,-2.26497 0.71449,-0.16472 1.45987,-0.0226 2.18055,0.11943 l 0.0824,0.0165 a 9.4448898,9.4448898 0 0 1 7.58349,9.9926 l -0.0741,0.96158 c -0.0453,0.5683 -0.0639,1.21278 0.33563,1.62048 0.35621,0.36857 0.9204,0.41181 1.42281,0.51476 2.54498,0.54359 4.10369,3.24301 4.41667,5.82919 0.31297,2.58618 -0.29033,5.18264 -0.41181,7.78117 -0.12149,2.59853 0.35827,5.46679 2.32261,7.17376 3.08859,2.67677 7.78323,1.15307 11.87046,0.90804 -1.10983,0.006 -2.04258,-0.69802 -2.6253,-1.65754 z"
   opacity="0.1"
   id="path2295"
   style="stroke-width:1" /><path
   d="m 109.01152,230.56254 12.69408,-4.73583 a 1.2086659,1.2086659 0 0 1 1.55459,0.70832 v 0 a 1.2086659,1.2086659 0 0 1 -0.70832,1.55459 l -12.69407,4.73582 -2.72208,-0.27179 z"
   fill="#5c5c8e"
   id="path2297"
   style="stroke-width:1" /><path
   d="m 122.8772,226.14793 v 0 a 1.2086659,1.2086659 0 0 1 -0.71037,1.55458 l -12.70231,4.75231 -2.04259,-0.20591 -0.29444,0.31297 2.72207,0.2718 12.69408,-4.73583 a 1.2086659,1.2086659 0 0 0 0.7083,-1.55459 v 0 a 1.2086659,1.2086659 0 0 0 -0.49416,-0.60331 1.402217,1.402217 0 0 1 0.11942,0.20798 z"
   fill="#ffffff"
   opacity="0.1"
   id="path2299"
   style="stroke-width:1" /><polygon
   points="306.37,539.52 310.47,550.51 299.63,549.42 297.26,549.18 300.5,545.74 "
   fill="#efc8c4"
   id="polygon2301"
   transform="matrix(0.20590559,0,0,0.20590559,45.930288,119.47235)"
   style="stroke-width:4.85659" /><path
   d="m 107.80286,231.8371 a 0.53947265,0.53947265 0 0 1 0.13177,0.14207 0.20590559,0.20590559 0 0 1 0,0.22032 0.4385789,0.4385789 0 0 1 -0.12148,0.0885 0.41181118,0.41181118 0 0 0 -0.1812,0.30474 l -0.49005,-0.0474 z"
   fill="#727a9c"
   id="path2303"
   style="stroke-width:1" /><path
   d="m 148.86866,245.01505 c 0,0 10.99536,-2.3082 29.4445,0.61772 l -7.22729,-5.30413 -13.14912,-2.69118 -9.30282,2.47086 z"
   fill="#ffffff"
   id="path2305"
   style="stroke-width:1" /><path
   d="m 148.86866,245.01505 c 0,0 10.99536,-2.3082 29.4445,0.61772 l -7.22729,-5.30413 -13.14912,-2.69118 -9.30282,2.47086 z"
   opacity="0.1"
   id="path2307"
   style="stroke-width:1" /><path
   d="m 147.5797,247.51063 c 0,0 5.53679,-14.97758 33.97442,0.0474 l -10.20674,-6.5684 c 0,0 -24.45129,-6.75575 -27.27632,1.02954 z"
   fill="#ffffff"
   id="path2309"
   style="stroke-width:1" /><path
   d="m 147.5797,247.50033 c 0,0 5.53679,-16.01327 33.97442,0.28827 l -10.20674,-7.12433 c 0,0 -24.45953,-8.07974 -27.29073,0.3768 z"
   opacity="0.1"
   id="path2311"
   style="stroke-width:1" /><path
   d="m 147.5797,247.50651 c 0,0 5.53679,-16.25006 33.97442,0.0515 l -10.20674,-7.12433 c 0,0 -24.45129,-7.84913 -27.27632,0.61772 z"
   fill="#ffffff"
   id="path2313"
   style="stroke-width:1" /><path
   d="m 147.5797,247.51063 c 0,0 5.53679,-18.05998 33.97442,0.27797 l -10.21498,-8.0159 c 0,0 -24.45129,-8.23623 -27.27632,1.26837 z"
   opacity="0.1"
   id="path2315"
   style="stroke-width:1" /><path
   d="m 147.5797,247.50033 c 0,0 5.53679,-18.28029 33.97442,0.0576 l -10.21498,-8.01591 c 0,0 -24.45129,-8.23623 -27.27632,1.26838 z"
   fill="#ffffff"
   id="path2317"
   style="stroke-width:1" /><path
   d="m 232.89461,245.77896 c 0,0 -6.82576,7.31171 -0.68154,10.86358 0,0 0.80303,0.96776 1.94992,0.46123 0,0 -0.38709,-0.34386 0.38917,-1.00688 a 4.604049,4.604049 0 0 0 0.73096,-0.80303 2.2649615,2.2649615 0 0 0 0.42417,-1.37133 v 0 c 0,0 0.89363,-2.90121 -1.94581,-6.66722 0,0 -0.25738,-1.26015 -0.47565,-1.3981 l -0.51888,1.75637 c 0,0 1.30338,0.33151 1.79344,1.32398 0,0 -1.71725,-1.34869 -1.88403,-1.0666 -0.033,0.0576 -0.23268,0.94511 -0.23268,0.94511 0,0 2.26497,0.58477 2.97328,2.14142 0,0 -1.8305,-1.87991 -3.05152,-1.80579 l -0.22237,1.35486 c 0,0 2.4235,0.50241 3.29448,2.24437 0,0 -1.98081,-1.90051 -3.32743,-1.94375 l -0.0391,1.36103 c 0,0 2.35349,0.53536 3.07211,1.98905 0,0 -2.50999,-1.96227 -3.05976,-1.67607 0,0 0.0391,1.25396 0.2059,1.58136 0,0 1.6802,0.4118 2.022,1.30544 0,0 -1.81609,-1.13454 -1.97258,-0.96158 0,0 0.488,1.61841 1.16749,2.3082 0,0 -1.07895,-0.9451 -1.41663,-2.21966 0,0 -0.45712,0.79685 -0.34181,1.57929 0,0 -0.6733,-0.74537 0.22856,-1.97257 0,0 -0.32945,-1.27662 -0.24709,-1.4784 0,0 -1.06041,1.08512 -1.33221,2.05905 0,0 -0.2059,-1.21896 1.33015,-2.41115 v -1.37134 c 0,0 -1.4784,1.36105 -1.78314,2.2032 0,0 -0.0206,-1.27662 1.81403,-2.54705 l 0.2059,-1.33222 c 0,0 -1.36309,1.07483 -1.90462,1.93964 0,0 0.23473,-1.19014 1.97669,-2.3185 l 0.24092,-0.87304 c 0,0 -0.98012,0.80303 -1.23544,1.05835 -0.25532,0.25533 -0.3521,0.20591 -0.3521,0.20591 a 4.3240174,4.3240174 0 0 1 1.68842,-1.63489 c 0,0 0.63008,-1.77491 0.51683,-1.82227 z"
   fill="#ffb463"
   opacity="0.1"
   id="path2319"
   style="stroke-width:1" /><path
   d="m 263.40777,126.80671 c 0,0 -9.11956,4.11811 -4.82026,9.75787 0,0 0.36858,1.20455 1.62049,1.17983 0,0 -0.22445,-0.4674 0.74743,-0.78037 a 4.5113915,4.5113915 0 0 0 0.98423,-0.45917 2.2649615,2.2649615 0 0 0 0.9204,-1.10161 v 0 c 0,0 1.94375,-2.33084 0.77626,-6.89989 0,0 0.24915,-1.2622 0.10089,-1.47429 l -1.15718,1.42076 c 0,0 1.07482,0.80715 1.14483,1.91286 0,0 -1.06247,-1.90668 -1.32603,-1.70902 -0.0536,0.0391 -0.5786,0.78038 -0.5786,0.78038 0,0 1.85316,1.41251 1.91698,3.12359 0,0 -0.96363,-2.44204 -2.12083,-2.84561 l -0.72684,1.16543 c 0,0 2.04258,1.39809 2.17848,3.34184 0,0 -1.09541,-2.51617 -2.32055,-3.07623 l -0.56212,1.23544 c 0,0 1.96639,1.40221 2.05905,3.02063 0,0 -1.55871,-2.77973 -2.17642,-2.72619 0,0 -0.44682,1.16954 -0.41181,1.53812 0,0 1.3878,1.02952 1.36309,1.98493 0,0 -1.23543,-1.74609 -1.44134,-1.64725 0,0 -0.17501,1.68019 0.18738,2.58 0,0 -0.63213,-1.28898 -0.45093,-2.59441 0,0 -0.73097,0.56006 -0.92453,1.32603 0,0 -0.33356,-0.94922 0.97188,-1.73373 0,0 0.18737,-1.30338 0.3418,-1.45781 0,0 -1.39809,0.59095 -2.01993,1.37751 0,0 0.27797,-1.20454 2.15789,-1.71107 l 0.53535,-1.26015 c 0,0 -1.88815,0.68361 -2.49557,1.34251 0,0 0.47359,-1.18602 2.65618,-1.64725 l 0.70214,-1.14896 c 0,0 -1.67195,0.46742 -2.50587,1.05424 0,0 0.67743,-1.00482 2.72001,-1.37544 l 0.55801,-0.71244 c 0,0 -1.21485,0.3624 -1.55459,0.49829 -0.33975,0.1359 -0.41181,0.0556 -0.41181,0.0556 a 4.3240174,4.3240174 0 0 1 2.20113,-0.85657 c 0,0 1.23543,-1.39604 1.16131,-1.4784 z"
   fill="#ffb463"
   opacity="0.1"
   id="path2321"
   style="stroke-width:1" /><path
   d="m 176.85123,129.35582 c 0,0 -13.70095,3.91221 -7.03991,9.73522 0,0 0.59095,1.23543 2.48734,1.23543 0,0 -0.35415,-0.4777 1.11189,-0.76803 a 8.707747,8.707747 0 0 0 1.4784,-0.43652 2.6376506,2.6376506 0 0 0 1.3631,-1.08924 v 0 c 0,0 2.88267,-2.30614 0.9904,-6.95548 0,0 0.34386,-1.26839 0.11325,-1.48665 l -1.71314,1.40428 c 0,0 1.64725,0.84627 1.78521,1.96434 0,0 -1.66166,-1.95404 -2.05906,-1.76255 -0.0803,0.0391 -0.85657,0.77214 -0.85657,0.77214 0,0 2.85797,1.4784 2.9877,3.21007 0,0 -1.52371,-2.49352 -3.29449,-2.93209 l -1.07071,1.15719 c 0,0 3.12976,1.4681 3.38714,3.43656 0,0 -1.72548,-2.57176 -3.5951,-3.17094 l -0.82363,1.23543 c 0,0 3.01446,1.47016 3.21213,3.10917 0,0 -2.43587,-2.85179 -3.37067,-2.81679 0,0 -0.64449,1.17366 -0.58684,1.54635 0,0 2.12906,1.08718 2.11877,2.04258 0,0 -1.92315,-1.79961 -2.24025,-1.70489 0,0 -0.21826,1.6946 0.35416,2.61294 0,0 -0.99247,-1.31985 -0.75362,-2.63353 0,0 -1.08924,0.54565 -1.36309,1.31368 0,0 -0.53124,-0.9657 1.42486,-1.72344 0,0 0.24915,-1.31368 0.47771,-1.46604 0,0 -2.10025,0.56006 -3.02064,1.33838 0,0 0.3871,-1.21072 3.22036,-1.67195 l 0.77832,-1.26014 c 0,0 -2.84149,0.64242 -3.74336,1.29103 0,0 0.68567,-1.18602 3.98016,-1.59783 l 1.02952,-1.14277 c 0,0 -2.52028,0.42621 -3.76807,0.99864 0,0 0.99864,-0.99864 4.08105,-1.3178 l 0.82362,-0.7042 c 0,0 -1.83049,0.33357 -2.34115,0.46123 -0.51064,0.12766 -0.61771,0.0453 -0.61771,0.0453 a 8.1106212,8.1106212 0 0 1 3.29449,-0.80715 c 0,0 1.87786,-1.37545 1.75843,-1.46193 z"
   fill="#ffb463"
   opacity="0.1"
   id="path2323"
   style="stroke-width:1" /><path
   d="m 217.27256,282.01835 c 0,0 6.89784,-7.24582 0.78862,-10.8574 0,0 -0.7948,-0.97599 -1.94581,-0.48183 0,0 0.38504,0.34799 -0.39739,1.00483 a 4.6472892,4.6472892 0 0 0 -0.73921,0.79479 2.2505481,2.2505481 0 0 0 -0.43652,1.36721 v 0 c 0,0 -0.92452,2.89298 1.87992,6.68576 0,0 0.24503,1.2622 0.46122,1.40428 l 0.53742,-1.75226 c 0,0 -1.30132,-0.34386 -1.78108,-1.34045 0,0 1.70284,1.36309 1.87168,1.08307 0.035,-0.0576 0.24297,-0.94099 0.24297,-0.94099 0,0 -2.26496,-0.61772 -2.95269,-2.17025 0,0 1.81197,1.89845 3.03505,1.83463 l 0.23473,-1.3528 c 0,0 -2.41733,-0.52507 -3.27595,-2.26497 0,0 1.96227,1.91904 3.3089,1.97669 l 0.0515,-1.36309 c 0,0 -2.34938,-0.5683 -3.06182,-2.03023 0,0 2.49145,1.98905 3.04328,1.70696 0,0 -0.0267,-1.2519 -0.2059,-1.58136 0,0 -1.67607,-0.44064 -2.00964,-1.32603 0,0 1.8058,1.15308 1.96228,0.98011 0,0 -0.47152,-1.62253 -1.14483,-2.3185 0,0 1.07071,0.95541 1.39604,2.23202 0,0 0.46534,-0.79274 0.35621,-1.57518 0,0 0.66713,0.75362 -0.24708,1.97052 0,0 0.31709,1.28073 0.23267,1.48046 0,0 1.07071,-1.07482 1.35074,-2.0364 0,0 0.20591,1.22101 -1.3528,2.39673 l -0.0206,1.37134 c 0,0 1.49075,-1.34662 1.80373,-2.18672 0,0 0,1.27867 -1.83874,2.53058 l -0.20591,1.33015 c 0,0 1.37339,-1.06247 1.92317,-1.9211 0,0 -0.2471,1.18602 -1.99935,2.29791 l -0.24915,0.87098 c 0,0 0.98835,-0.79274 1.25191,-1.046 0.26356,-0.25326 0.35416,-0.20591 0.35416,-0.20591 a 4.309604,4.309604 0 0 1 -1.7049,1.61842 c 0,0 -0.61978,1.76461 -0.51682,1.81403 z"
   fill="#ffb463"
   opacity="0.1"
   id="path2325"
   style="stroke-width:1" /><path
   d="m 149.99703,119.72768 c 0,0 1.17572,9.93288 7.85529,7.53614 0,0 1.25809,0.0103 1.61225,-1.19219 0,0 -0.51477,0.0741 -0.51889,-0.94717 a 4.6102261,4.6102261 0 0 0 -0.14207,-1.07688 2.2484891,2.2484891 0 0 0 -0.77215,-1.20867 v 0 c 0,0 -1.639,-2.55735 -6.3563,-2.80855 0,0 -1.12837,-0.61772 -1.37545,-0.53947 l 1.00687,1.52987 c 0,0 1.09336,-0.78244 2.16819,-0.51476 0,0 -2.1373,0.44064 -2.02817,0.7495 0.0206,0.0639 0.5683,0.78655 0.5683,0.78655 0,0 1.92522,-1.35897 3.57246,-0.89568 0,0 -2.61706,0.18119 -3.35008,1.16336 l 0.87921,1.046 c 0,0 1.94787,-1.52782 3.84427,-1.07276 0,0 -2.73032,0.28826 -3.63424,1.2869 l 1.0254,0.9101 c 0,0 1.92728,-1.45369 3.5004,-1.06247 0,0 -3.12152,0.65067 -3.25743,1.25397 0,0 0.98217,0.77832 1.34457,0.86069 0,0 1.40839,-1.011 2.30202,-0.70214 0,0 -2.03846,0.65477 -2.00758,0.88539 0,0 1.55047,0.67125 2.51617,0.59712 0,0 -1.41869,0.20591 -2.60882,-0.35003 0,0 0.31297,0.86274 0.98628,1.28073 0,0 -1.00482,0.0309 -1.36103,-1.44134 0,0 -1.18602,-0.57242 -1.28691,-0.76391 0,0 0.14413,1.50929 0.70625,2.33909 0,0 -1.06658,-0.61772 -0.98422,-2.57177 l -1.02953,-0.89156 c 0,0 0.0844,2.00757 0.52917,2.7859 0,0 -0.98834,-0.80921 -0.77419,-3.03094 l -0.88334,-1.01511 c 0,0 -0.0597,1.73373 0.24915,2.7056 0,0 -0.75568,-0.94716 -0.49212,-3.00622 l -0.5127,-0.74744 c 0,0 -0.0186,1.26633 0,1.63283 0.0185,0.36652 -0.07,0.40153 -0.07,0.40153 a 4.3240174,4.3240174 0 0 1 -0.16061,-2.35351 c 0,0 -0.95746,-1.60812 -1.06041,-1.5587 z"
   fill="#ffb463"
   opacity="0.1"
   id="path2327"
   style="stroke-width:1" /><path
   d="m 199.9209,259.49021 c 0,0 -9.64051,-2.67677 -9.94937,4.41462 0,0 -0.48593,1.16131 0.49212,1.94375 0,0 0.1256,-0.50241 1.07277,-0.12148 a 4.6122852,4.6122852 0 0 0 1.05012,0.27797 2.2505481,2.2505481 0 0 0 1.41251,-0.25944 v 0 c 0,0 2.98563,-0.54771 5.01174,-4.80583 0,0 0.99865,-0.80922 1.02953,-1.06866 l -1.79756,0.3521 c 0,0 0.30886,1.30956 -0.34591,2.20319 0,0 0.4118,-2.14553 0.0762,-2.16201 -0.0679,0 -0.94511,0.22856 -0.94511,0.22856 0,0 0.52712,2.27732 -0.52506,3.62599 0,0 0.82362,-2.49145 0.1915,-3.54157 l -1.30545,0.43034 c 0,0 0.67537,2.38027 -0.46534,3.96162 0,0 0.77008,-2.63353 0.18531,-3.84837 l -1.22308,0.59507 c 0,0 0.61772,2.33497 -0.34386,3.64452 0,0 0.58065,-3.13388 0.0721,-3.49009 0,0 -1.0913,0.61771 -1.30338,0.91833 0,0 0.41181,1.68637 -0.22238,2.39675 0,0 0.16472,-2.13524 -0.0597,-2.1929 0,0 -1.21072,1.17984 -1.50722,2.10229 0,0 0.33974,-1.39397 1.31368,-2.28143 0,0 -0.91835,-0.037 -1.55871,0.42623 0,0 0.35004,-0.94099 1.85315,-0.70832 0,0 0.98011,-0.88333 1.19631,-0.90186 0,0 -1.44134,-0.44065 -2.4338,-0.23474 0,0 0.98422,-0.74949 2.75296,0.0659 l 1.21896,-0.61772 c 0,0 -1.89022,-0.68155 -2.77767,-0.56418 0,0 1.12219,-0.61771 3.08858,0.43035 l 1.2725,-0.43447 c 0,0 -1.58136,-0.71038 -2.59853,-0.79274 0,0 1.16337,-0.33974 2.96915,0.68361 l 0.8854,-0.19149 c 0,0 -1.16542,-0.49829 -1.51341,-0.61772 -0.34798,-0.11942 -0.34591,-0.20591 -0.34591,-0.20591 a 4.3240174,4.3240174 0 0 1 2.22996,0.74127 c 0,0 1.85314,-0.28827 1.84697,-0.40152 z"
   fill="#ffb463"
   opacity="0.1"
   id="path2329"
   style="stroke-width:1" /></svg>
