<?xml version="1.0" encoding="UTF-8" standalone="no"?>
<svg
   xmlns:dc="http://purl.org/dc/elements/1.1/"
   xmlns:cc="http://creativecommons.org/ns#"
   xmlns:rdf="http://www.w3.org/1999/02/22-rdf-syntax-ns#"
   xmlns:svg="http://www.w3.org/2000/svg"
   xmlns="http://www.w3.org/2000/svg"
   xmlns:xlink="http://www.w3.org/1999/xlink"
   xmlns:sodipodi="http://sodipodi.sourceforge.net/DTD/sodipodi-0.dtd"
   xmlns:inkscape="http://www.inkscape.org/namespaces/inkscape"
   version="1.1"
   id="_x34_"
   x="0px"
   y="0px"
   viewBox="0 0 300 300"
   xml:space="preserve"
   sodipodi:docname="surprise.svg"
   width="300"
   height="300"
   inkscape:version="1.0.1 (c497b03c, 2020-09-10)"><metadata
   id="metadata882"><rdf:RDF><cc:Work
       rdf:about=""><dc:format>image/svg+xml</dc:format><dc:type
         rdf:resource="http://purl.org/dc/dcmitype/StillImage" /><dc:title /></cc:Work></rdf:RDF></metadata><defs
   id="defs880"><clipPath
     clipPathUnits="userSpaceOnUse"
     id="clipPath900"><rect
       style="fill:#ffe6d5;fill-opacity:0.414925;stroke-width:1"
       id="rect902"
       width="361.06839"
       height="630.4104"
       x="-21.348534"
       y="-20.013029" /></clipPath><linearGradient
     id="5a1f6f01-7714-46af-aba4-b09e98a2a9e8"
     x1="368.48999"
     y1="311.39999"
     x2="368.48999"
     y2="311.39999"
     xlink:href="#8fdda24f-3500-4787-9acd-06391067bf0a"
     gradientTransform="matrix(6.1261027,0,0,6.1261027,-371.01314,-901.40272)" /><linearGradient
     id="8fdda24f-3500-4787-9acd-06391067bf0a"
     x1="373.64999"
     y1="193.72"
     x2="373.64999"
     y2="191.69"
     gradientUnits="userSpaceOnUse"><stop
       offset="0"
       stop-color="gray"
       stop-opacity="0.25"
       id="stop8822" /><stop
       offset="0.54"
       stop-color="gray"
       stop-opacity="0.12"
       id="stop8824" /><stop
       offset="1"
       stop-color="gray"
       stop-opacity="0.1"
       id="stop8826" /></linearGradient><linearGradient
     id="fba3f31e-455c-4283-9b41-fb0bd740b4d7"
     x1="450.66"
     y1="467.97"
     x2="450.66"
     y2="417.39999"
     xlink:href="#8fdda24f-3500-4787-9acd-06391067bf0a"
     gradientTransform="matrix(6.1261027,0,0,6.1261027,-579.03032,-939.74596)" /><linearGradient
     id="03abcd37-863a-4fdf-b76f-be25b3f5f7e8"
     x1="439.35999"
     y1="721.28998"
     x2="439.35999"
     y2="172.56"
     xlink:href="#8fdda24f-3500-4787-9acd-06391067bf0a"
     gradientTransform="translate(-40.580017,-7.4800083)" /><linearGradient
     id="7a137c36-2b0e-489c-9ead-72d7056953bc"
     x1="373.64999"
     y1="192.7"
     x2="373.64999"
     y2="190.66"
     xlink:href="#8fdda24f-3500-4787-9acd-06391067bf0a"
     gradientTransform="matrix(6.1261027,0,0,6.1261027,-579.03032,-939.74596)" /><linearGradient
     id="e02598f3-6440-4dab-b616-a11e89bded72"
     x1="698.5"
     y1="537.03003"
     x2="941.5"
     y2="537.03003"
     xlink:href="#a2a092df-2c92-4a00-bfa3-7775e0a35a00"
     gradientTransform="matrix(4.4171755,0,0,4.4171755,-675.57623,-1286.0291)" /><linearGradient
     id="a2a092df-2c92-4a00-bfa3-7775e0a35a00"
     x1="460.5"
     y1="532.56"
     x2="460.5"
     y2="81.559998"
     gradientUnits="userSpaceOnUse"><stop
       offset="0"
       stop-color="gray"
       stop-opacity="0.25"
       id="stop18998" /><stop
       offset="0.54"
       stop-color="gray"
       stop-opacity="0.12"
       id="stop19000" /><stop
       offset="1"
       stop-color="gray"
       stop-opacity="0.1"
       id="stop19002" /></linearGradient></defs><sodipodi:namedview
   pagecolor="#ffffff"
   bordercolor="#666666"
   borderopacity="1"
   objecttolerance="10"
   gridtolerance="10"
   guidetolerance="10"
   inkscape:pageopacity="0"
   inkscape:pageshadow="2"
   inkscape:window-width="2560"
   inkscape:window-height="1395"
   id="namedview878"
   showgrid="false"
   inkscape:zoom="0.84797571"
   inkscape:cx="352.80136"
   inkscape:cy="217.19023"
   inkscape:window-x="0"
   inkscape:window-y="23"
   inkscape:window-maximized="1"
   inkscape:current-layer="_x34_"
   inkscape:document-rotation="0" />

<g
   opacity="0.05"
   id="g8857"
   transform="matrix(0.16323592,0,0,0.16323592,60.562661,147.14129)"
   style="stroke-width:6.1261"><polygon
     points=""
     fill="url(#5a1f6f01-7714-46af-aba4-b09e98a2a9e8)"
     id="polygon8855"
     style="fill:url(#5a1f6f01-7714-46af-aba4-b09e98a2a9e8);stroke-width:6.1261" /></g><path
   d="m 233.51391,106.59802 c -2.40182,1.99972 -5.06708,3.45148 -7.94927,4.18803 -22.72284,5.80169 -29.35188,-9.07347 -88.28189,2.89462 a 129.50654,74.345552 0 0 1 -13.96779,2.36266 c -33.439628,4.42109 -48.386738,-3.23087 -53.075728,-9.44531 -1.90596,-2.52278 -2.1229,-4.8036 -1.19936,-5.95825 3.48962,-4.341031 0.30991,-11.418341 -6.33153,-31.700221 -6.64144,-20.28188 22.72284,-27.01227 45.557238,-30.19866 14.6341,-2.04064 21.76211,-4.84452 24.9945,-6.59517 a 38.922001,22.343873 0 0 1 13.05044,-4.72888 c 32.85081,-7.03639 48.80514,-0.71165 68.38546,8.25864 4.32329,1.97303 8.82633,4.09196 13.70747,6.20199 25.63292,11.10344 21.66293,50.93599 5.11046,64.720551 z"
   fill="#ff0000"
   opacity="0.27"
   style="isolation:isolate;fill:#00b6ca;fill-opacity:1;stroke-width:0.999997;opacity:0.7443609"
   id="path857" /><text
   xml:space="preserve"
   style="font-size:29.3333px;line-height:1.25;font-family:'Noto Sans JP';-inkscape-font-specification:'Noto Sans JP'"
   x="99.496735"
   y="85.574417"
   id="text9908-7"><tspan
     sodipodi:role="line"
     x="99.496735"
     y="85.574417"
     style="font-style:normal;font-variant:normal;font-weight:bold;font-stretch:normal;font-size:29.3333px;font-family:Mamelon;-inkscape-font-specification:Mamelon;fill:#ffffff"
     id="tspan18976">どっきり</tspan><tspan
     sodipodi:role="line"
     x="99.496735"
     y="122.24104"
     style="font-style:normal;font-variant:normal;font-weight:bold;font-stretch:normal;font-size:29.3333px;font-family:Mamelon;-inkscape-font-specification:Mamelon;fill:#ffffff"
     id="tspan22199" /></text><rect
   x="78.066254"
   y="243.81593"
   width="13.073819"
   height="13.073829"
   transform="rotate(-30)"
   fill="#ff6584"
   id="rect6874"
   style="stroke-width:1" /><path
   d="m 200.98134,185.7997 -6.82582,-11.82259 11.82258,-6.82567 6.82581,11.82272 z m -6.03679,-11.61109 6.24828,10.82205 10.82205,-6.248 -6.24828,-10.82219 z"
   fill="#2f2e41"
   id="path6876"
   style="stroke-width:1" /><circle
   cx="190.38939"
   cy="212.0824"
   r="5.4865994"
   fill="#d0cde1"
   id="circle6878"
   style="stroke-width:1" /><path
   d="m 194.43216,217.85778 a 5.7753677,5.7753677 0 1 1 5.77536,-5.77537 5.7753677,5.7753677 0 0 1 -5.77536,5.77537 z m 0,-10.97319 a 5.1978309,5.1978309 0 1 0 5.19784,5.19782 5.1978309,5.1978309 0 0 0 -5.19784,-5.19782 z"
   fill="#2f2e41"
   id="path6880"
   style="stroke-width:1" /><path
   d="m 225.00171,276.0678 h -53.13338 a 2.4573669,2.4573669 0 0 1 -2.45453,-2.45453 v -49.37938 a 2.4573669,2.4573669 0 0 1 2.45453,-2.45455 h 53.13338 a 2.4573669,2.4573669 0 0 1 2.45453,2.45455 v 49.37938 a 2.4573669,2.4573669 0 0 1 -2.45453,2.45453 z"
   fill="#63a7ff"
   id="path6882"
   style="stroke-width:1" /><path
   d="m 210.85164,277.80155 h -7.50798 a 2.4573641,2.4573641 0 0 1 -2.45453,-2.45453 v -52.5801 a 2.4573641,2.4573641 0 0 1 2.45453,-2.45455 h 7.50798 a 2.4573669,2.4573669 0 0 1 2.45453,2.45455 v 52.5801 a 2.4573669,2.4573669 0 0 1 -2.45453,2.45453 z"
   fill="#3f3d56"
   id="path6884"
   style="stroke-width:1" /><path
   d="m 239.11862,216.8913 c -0.31044,5.09398 -7.19143,8.81949 -7.19143,8.81949 0,0 -6.37775,-4.53348 -6.06733,-9.62746 0.31044,-5.09399 7.19143,-8.81948 7.19143,-8.81948 0,0 6.37773,4.53345 6.06733,9.62745 z"
   fill="#3f3d56"
   id="path6886"
   style="stroke-width:1" /><path
   d="m 239.43027,232.78485 c -5.09494,-0.29454 -8.84191,-7.16387 -8.84191,-7.16387 0,0 4.51354,-6.39187 9.60847,-6.09736 5.09493,0.29452 8.84191,7.16387 8.84191,7.16387 0,0 -4.51354,6.39186 -9.60847,6.09736 z"
   fill="#3f3d56"
   id="path6888"
   style="stroke-width:1" /><polygon
   points="729.5,497.049 744.97,517.469 744.97,582.749 680.04,497.049 "
   opacity="0.1"
   style="isolation:isolate;stroke-width:3.46299"
   id="polygon6890"
   transform="matrix(0.2887684,0,0,0.2887684,12.188007,78.391758)" /><path
   d="m 243.22938,260.08881 a 2.4513548,2.4513548 0 0 1 -1.95921,-0.9712 l -39.06296,-51.557 a 2.4545313,2.4545313 0 0 1 0.47402,-3.43871 l 5.75424,-4.35974 a 2.4540866,2.4540866 0 0 1 3.43857,0.47434 l 39.06297,51.55673 a 2.4545313,2.4545313 0 0 1 -0.47404,3.4387 l -5.75422,4.35972 a 2.4411151,2.4411151 0 0 1 -1.47937,0.49716 z"
   fill="#63a7ff"
   id="path6892"
   style="stroke-width:1" /><rect
   x="36.11256"
   y="312.81857"
   width="12.417043"
   height="12.417043"
   transform="rotate(-37.15004)"
   fill="#3f3d56"
   id="rect6894"
   style="stroke-width:1" /><rect
   x="-143.44511"
   y="217.84669"
   width="13.073829"
   height="13.073819"
   transform="rotate(-75.000001)"
   fill="#d0cde1"
   id="rect6896"
   style="stroke-width:1" /><path
   d="m 180.56847,200.21189 -13.18607,-3.53319 3.53319,-13.18633 13.18605,3.53318 z m -12.4788,-3.94152 12.07045,3.23427 3.23428,-12.07075 -12.07048,-3.23426 z"
   fill="#2f2e41"
   id="path6898"
   style="stroke-width:1" /><path
   d="m 107.63931,162.36436 c -3.12745,2.96259 3.12745,12.17954 3.12745,12.17954 0,0 -14.855366,0.65836 -13.682573,0.65836 1.172781,0 2.150115,-13.99003 2.150115,-13.99003 0,0 11.532458,-1.81046 8.405008,1.15213 z"
   fill="#ffb8b8"
   id="path6833"
   style="stroke-width:1" /><path
   d="m 113.67919,199.85562 -13.46403,5.48659 -7.367125,3.46524 c 0,0 -4.826724,15.01594 -7.113062,21.65763 -2.28635,6.64166 5.080765,17.3261 5.080765,17.3261 0,0 -0.762117,3.17645 0,4.62029 a 13.809518,15.697449 0 0 1 1.016148,2.31014 c 0.254041,0.57754 3.048459,0.28878 6.096913,0 3.048461,-0.28877 0.254049,-5.77537 0.254049,-5.77537 0,0 -2.540395,-11.55073 -2.794434,-11.8395 -0.237235,-0.26968 -0.917607,-2.30235 -0.178836,-3.04029 a 6.5922918,7.4935396 0 0 0 1.660606,-2.34766 7.6441395,8.689188 0 0 1 1.312674,-2.12002 c 0,0 8.051642,-13.49726 12.028032,-16.56676 3.97638,-3.06951 13.20998,0.57753 13.20998,0.57753 0,0 -4.40687,7.61493 -4.40687,9.34754 0,1.73261 -0.25405,2.59892 -1.01615,3.17645 -0.76212,0.57754 -0.50809,1.73262 -0.50809,2.88768 0,1.15508 -0.76212,3.46523 -2.03231,4.62031 -1.27018,1.15506 -1.52422,2.31014 -1.27018,4.62029 0.25404,2.31015 7.11307,1.15507 7.11307,1.15507 l 3.3025,-7.21921 c 0,0 5.08076,-9.24059 8.38325,-19.05872 1.65126,-4.90905 -0.0636,-8.22989 -2.19108,-10.32347 a 10.514881,11.952395 0 0 0 -7.37228,-2.81965 l -11.94166,0.61916 8.54906,-2.78074 z"
   fill="#2f2e41"
   id="path6835"
   style="stroke-width:1" /><path
   d="m 69.222491,174.15524 -14.480185,-7.508 c 0,0 -5.080768,-9.81812 -2.03231,-10.97318 3.048459,-1.15508 5.588849,8.66305 5.588849,8.66305 l 10.415565,2.31013 z"
   fill="#ffb8b8"
   id="path6837"
   style="stroke-width:1" /><path
   d="m 126.63513,179.35305 c 0,0 7.36711,7.508 7.62115,8.37429 0.25404,0.86631 4.82672,3.17644 6.85903,-0.86629 2.0323,-4.04276 -4.57268,-3.75401 -4.57268,-3.75401 l -4.57269,-6.64166 z"
   fill="#ffb8b8"
   id="path6839"
   style="stroke-width:1" /><path
   d="m 134.09048,174.91457 -7.8752,6.64168 -12.95595,-5.19784 c 2.40806,8.57015 0.52139,17.64649 8.43106,22.9036 l -29.976511,11.55072 c 2.653052,-12.14228 -1.536894,-22.19423 -5.128564,-34.45432 -5.689134,-3.33265 -12.824875,-2.54441 -20.577103,0 v -11.8395 l 31.500748,2.02138 4.87452,2.97857 5.7951,-1.82349 c 8.38873,-1.5459 18.86956,1.83253 25.9119,7.2192 z"
   fill="#63a7ff"
   id="path6841"
   style="stroke-width:1" /><path
   d="m 114.69533,237.97304 c -0.7621,0.57752 -2.03231,6.06412 -2.28633,8.08552 -0.25404,2.02137 2.0323,2.88768 3.30248,3.17645 1.27021,0.28876 1.01616,1.15507 1.77827,2.02136 0.76213,0.86631 3.55655,1.15509 7.36711,0.28878 3.81058,-0.8663 -1.77826,-6.3529 -2.28633,-6.64168 -0.50809,-0.28875 -2.03231,-6.93043 -2.03231,-6.93043 0,0 -5.08077,-0.57754 -5.84289,0 z"
   fill="#2f2e41"
   id="path6843"
   style="stroke-width:1" /><path
   d="m 93.610132,253.85529 -2.032297,6.06414 -1.921562,3.27641 a 6.5278499,7.4202876 0 0 0 -0.922583,6.03805 c 0.323632,1.3539 0.994439,2.63334 2.336076,3.10258 3.302499,1.15508 5.33481,-6.06413 5.33481,-6.06413 0,0 1.778272,-4.04276 3.048458,-7.79676 1.270186,-3.75397 -1.016149,-5.77535 -1.016149,-5.77535 z"
   fill="#2f2e41"
   id="path6845"
   style="stroke-width:1" /><ellipse
   cx="-103.35339"
   cy="159.0985"
   fill="#ffb8b8"
   id="circle6847"
   transform="scale(-1,1)"
   style="stroke-width:1"
   rx="6.0958629"
   ry="6.9292426" /><path
   d="m 96.443164,157.38611 a 5.7988492,6.5916235 0 0 1 0.393227,-5.35579 c 0.783043,-1.5785 2.291001,-3.0582 5.190029,-3.14166 6.32514,-0.18211 9.06603,5.23896 8.70966,6.82862 -0.35635,1.58967 -1.63135,5.37185 -1.63135,5.37185 0,0 0.79065,-3.64193 -0.79063,-4.00612 -1.58129,-0.36421 -7.70878,-1.82097 -9.487725,-0.1821 a 3.6156498,4.1099538 0 0 0 -1.383618,3.82402 z"
   fill="#2f2e41"
   id="path6849"
   style="stroke-width:1" /><path
   id="path8090"
   style="fill:#63a7ff;fill-opacity:1;stroke-width:1"
   d="m 89.548771,133.70745 a 3.9502731,4.1082841 1.464923 0 0 -3.786336,2.69532 3.9502731,4.1082841 1.464923 0 0 2.340879,5.26955 3.9502731,4.1082841 1.464923 0 0 0.957191,0.22928 l -0.02557,0.0299 3.251104,0.60728 3.251085,0.60782 -1.099374,-3.11927 -1.099384,-3.11928 -0.01162,0.0139 a 3.9502731,4.1082841 1.464923 0 0 -2.492904,-2.96535 3.9502731,4.1082841 1.464923 0 0 -1.285049,-0.24894 z m -0.07961,4.10748 2.332218,0.88674 -0.0011,0.002 z" /><path
   id="path8090-5"
   style="fill:#63a7ff;fill-opacity:1;stroke-width:1"
   d="m 79.345827,144.07239 a 2.7329195,2.6278074 58.111186 0 0 -1.118096,2.88248 2.7329195,2.6278074 58.111186 0 0 3.228027,2.07189 2.7329195,2.6278074 58.111186 0 0 0.615732,-0.22269 l -0.0034,0.0259 2.028603,-0.85163 2.028788,-0.85132 -1.751725,-1.33116 -1.751738,-1.33115 -0.0011,0.012 a 2.7329195,2.6278074 58.111186 0 0 -2.469752,-0.73594 2.7329195,2.6278074 58.111186 0 0 -0.805098,0.33166 z m 1.458031,2.31147 1.620237,-0.36028 7e-5,10e-4 z" /></svg>
