<?xml version="1.0" encoding="UTF-8" standalone="no"?>
<svg
   xmlns:dc="http://purl.org/dc/elements/1.1/"
   xmlns:cc="http://creativecommons.org/ns#"
   xmlns:rdf="http://www.w3.org/1999/02/22-rdf-syntax-ns#"
   xmlns:svg="http://www.w3.org/2000/svg"
   xmlns="http://www.w3.org/2000/svg"
   xmlns:xlink="http://www.w3.org/1999/xlink"
   xmlns:sodipodi="http://sodipodi.sourceforge.net/DTD/sodipodi-0.dtd"
   xmlns:inkscape="http://www.inkscape.org/namespaces/inkscape"
   version="1.1"
   id="_x34_"
   x="0px"
   y="0px"
   viewBox="0 0 300 300"
   xml:space="preserve"
   sodipodi:docname="unwind.svg"
   width="300"
   height="300"
   inkscape:version="1.0.1 (c497b03c, 2020-09-10)"><metadata
   id="metadata882"><rdf:RDF><cc:Work
       rdf:about=""><dc:format>image/svg+xml</dc:format><dc:type
         rdf:resource="http://purl.org/dc/dcmitype/StillImage" /><dc:title /></cc:Work></rdf:RDF></metadata><defs
   id="defs880"><clipPath
     clipPathUnits="userSpaceOnUse"
     id="clipPath900"><rect
       style="fill:#ffe6d5;fill-opacity:0.414925;stroke-width:1"
       id="rect902"
       width="361.06839"
       height="630.4104"
       x="-21.348534"
       y="-20.013029" /></clipPath><linearGradient
     id="5a1f6f01-7714-46af-aba4-b09e98a2a9e8"
     x1="368.48999"
     y1="311.39999"
     x2="368.48999"
     y2="311.39999"
     xlink:href="#8fdda24f-3500-4787-9acd-06391067bf0a"
     gradientTransform="matrix(6.1261027,0,0,6.1261027,-371.01314,-901.40272)" /><linearGradient
     id="8fdda24f-3500-4787-9acd-06391067bf0a"
     x1="373.64999"
     y1="193.72"
     x2="373.64999"
     y2="191.69"
     gradientUnits="userSpaceOnUse"><stop
       offset="0"
       stop-color="gray"
       stop-opacity="0.25"
       id="stop8822" /><stop
       offset="0.54"
       stop-color="gray"
       stop-opacity="0.12"
       id="stop8824" /><stop
       offset="1"
       stop-color="gray"
       stop-opacity="0.1"
       id="stop8826" /></linearGradient><linearGradient
     id="fba3f31e-455c-4283-9b41-fb0bd740b4d7"
     x1="450.66"
     y1="467.97"
     x2="450.66"
     y2="417.39999"
     xlink:href="#8fdda24f-3500-4787-9acd-06391067bf0a"
     gradientTransform="matrix(6.1261027,0,0,6.1261027,-579.03032,-939.74596)" /><linearGradient
     id="03abcd37-863a-4fdf-b76f-be25b3f5f7e8"
     x1="439.35999"
     y1="721.28998"
     x2="439.35999"
     y2="172.56"
     xlink:href="#8fdda24f-3500-4787-9acd-06391067bf0a"
     gradientTransform="translate(-40.580017,-7.4800083)" /><linearGradient
     id="7a137c36-2b0e-489c-9ead-72d7056953bc"
     x1="373.64999"
     y1="192.7"
     x2="373.64999"
     y2="190.66"
     xlink:href="#8fdda24f-3500-4787-9acd-06391067bf0a"
     gradientTransform="matrix(6.1261027,0,0,6.1261027,-579.03032,-939.74596)" /><linearGradient
     id="e02598f3-6440-4dab-b616-a11e89bded72"
     x1="698.5"
     y1="537.03003"
     x2="941.5"
     y2="537.03003"
     xlink:href="#a2a092df-2c92-4a00-bfa3-7775e0a35a00"
     gradientTransform="matrix(4.4171755,0,0,4.4171755,-675.57623,-1286.0291)" /><linearGradient
     id="a2a092df-2c92-4a00-bfa3-7775e0a35a00"
     x1="460.5"
     y1="532.56"
     x2="460.5"
     y2="81.559998"
     gradientUnits="userSpaceOnUse"><stop
       offset="0"
       stop-color="gray"
       stop-opacity="0.25"
       id="stop18998" /><stop
       offset="0.54"
       stop-color="gray"
       stop-opacity="0.12"
       id="stop19000" /><stop
       offset="1"
       stop-color="gray"
       stop-opacity="0.1"
       id="stop19002" /></linearGradient><linearGradient
     inkscape:collect="always"
     xlink:href="#a2a092df-2c92-4a00-bfa3-7775e0a35a00"
     id="linearGradient20468"
     gradientUnits="userSpaceOnUse"
     x1="460.5"
     y1="532.56"
     x2="460.5"
     y2="81.559998"
     gradientTransform="matrix(4.4171755,0,0,4.4171755,-198.8778,-658.22557)" /></defs><sodipodi:namedview
   pagecolor="#ffffff"
   bordercolor="#666666"
   borderopacity="1"
   objecttolerance="10"
   gridtolerance="10"
   guidetolerance="10"
   inkscape:pageopacity="0"
   inkscape:pageshadow="2"
   inkscape:window-width="2560"
   inkscape:window-height="1395"
   id="namedview878"
   showgrid="false"
   inkscape:zoom="0.84797571"
   inkscape:cx="352.80136"
   inkscape:cy="217.19023"
   inkscape:window-x="0"
   inkscape:window-y="23"
   inkscape:window-maximized="1"
   inkscape:current-layer="_x34_"
   inkscape:document-rotation="0" />

<g
   opacity="0.05"
   id="g8857"
   transform="matrix(0.16323592,0,0,0.16323592,60.562661,147.14129)"
   style="stroke-width:6.1261"><polygon
     points=""
     fill="url(#5a1f6f01-7714-46af-aba4-b09e98a2a9e8)"
     id="polygon8855"
     style="fill:url(#5a1f6f01-7714-46af-aba4-b09e98a2a9e8);stroke-width:6.1261" /></g><path
   d="m 233.51391,106.59802 c -2.40182,1.99972 -5.06708,3.45148 -7.94927,4.18803 -22.72284,5.80169 -29.35188,-9.07347 -88.28189,2.89462 a 129.50654,74.345552 0 0 1 -13.96779,2.36266 c -33.439628,4.42109 -48.386738,-3.23087 -53.075728,-9.44531 -1.90596,-2.52278 -2.1229,-4.8036 -1.19936,-5.95825 3.48962,-4.341031 0.30991,-11.418341 -6.33153,-31.700221 -6.64144,-20.28188 22.72284,-27.01227 45.557238,-30.19866 14.6341,-2.04064 21.76211,-4.84452 24.9945,-6.59517 a 38.922001,22.343873 0 0 1 13.05044,-4.72888 c 32.85081,-7.03639 48.80514,-0.71165 68.38546,8.25864 4.32329,1.97303 8.82633,4.09196 13.70747,6.20199 25.63292,11.10344 21.66293,50.93599 5.11046,64.720551 z"
   fill="#ff0000"
   opacity="0.27"
   style="isolation:isolate;fill:#ff6700;fill-opacity:1;stroke-width:0.999997;opacity:0.56140351"
   id="path857" /><text
   xml:space="preserve"
   style="font-size:29.3333px;line-height:1.25;font-family:'Noto Sans JP';-inkscape-font-specification:'Noto Sans JP'"
   x="99.496735"
   y="85.574417"
   id="text9908-7"><tspan
     sodipodi:role="line"
     x="99.496735"
     y="85.574417"
     style="font-style:normal;font-variant:normal;font-weight:bold;font-stretch:normal;font-size:29.3333px;font-family:Mamelon;-inkscape-font-specification:Mamelon;fill:#ffffff"
     id="tspan18976">ほっこり</tspan></text><g
   opacity="0.7"
   id="g19012"
   style="stroke-width:4.41718"
   transform="matrix(0.22638901,0,0,0.22638901,45.023775,149.01503)"><ellipse
     cx="460.5"
     cy="307.06"
     rx="460.5"
     ry="225.5"
     fill="url(#a2a092df-2c92-4a00-bfa3-7775e0a35a00)"
     id="ellipse19010"
     style="fill:url(#linearGradient20468);stroke-width:4.41718" /></g><ellipse
   cx="149.27589"
   cy="218.53006"
   rx="99.740211"
   ry="48.841167"
   fill="#fdff86"
   id="ellipse19014"
   style="stroke-width:0.999999" /><g
   opacity="0.5"
   id="g19018"
   style="stroke-width:4.41718"
   transform="matrix(0.22638901,0,0,0.22638901,45.023775,149.01503)"><path
     d="m 941.5,623.15 -7.87,-11.8 -15.63,-51.67 -6.43,-22.84 h -6.54 a 11.84,11.84 0 0 0 0.11,-1.48 10.38,10.38 0 0 0 -5.06,-8.91 8.89,8.89 0 0 0 0.06,-1 10.41,10.41 0 0 0 -2.3,-6.52 v 0 a 10.09,10.09 0 0 0 -1.6,-1.6 h -0.07 c -0.26,-0.21 -0.53,-0.4 -0.8,-0.58 l -0.23,-0.14 c -0.23,-0.14 -0.47,-0.27 -0.71,-0.39 l -0.32,-0.16 -0.68,-0.29 -0.36,-0.13 c -0.23,-0.08 -0.47,-0.14 -0.7,-0.21 l -0.39,-0.09 c -0.25,-0.06 -0.5,-0.1 -0.76,-0.14 h -0.35 a 10.92,10.92 0 0 0 -1.15,-0.07 10.31,10.31 0 0 0 -6.23,2.09 10.37,10.37 0 0 0 -1.67,-3 v 0 a 11,11 0 0 0 -1.6,-1.6 0.18,0.18 0 0 1 -0.07,0 q -0.39,-0.3 -0.81,-0.57 l -0.23,-0.15 c -0.23,-0.14 -0.46,-0.27 -0.7,-0.39 l -0.32,-0.15 c -0.22,-0.11 -0.45,-0.2 -0.68,-0.29 l -0.37,-0.14 -0.7,-0.2 -0.38,-0.1 a 6.71,6.71 0 0 0 -0.76,-0.13 l -0.35,-0.06 a 10.93,10.93 0 0 0 -1.15,-0.06 c -0.41,0 -0.82,0 -1.22,0.07 a 10.38,10.38 0 0 0 -1.08,-11.4 v 0 a 10.53,10.53 0 0 0 -1.4,-1.65 10.37,10.37 0 0 0 0.64,-13.75 v 0 a 10.09,10.09 0 0 0 -1.6,-1.6 L 869,482 c -0.26,-0.21 -0.53,-0.4 -0.8,-0.58 l -0.23,-0.14 c -0.23,-0.14 -0.47,-0.27 -0.71,-0.39 l -0.31,-0.16 -0.69,-0.29 -0.36,-0.13 c -0.23,-0.08 -0.47,-0.14 -0.7,-0.21 -0.23,-0.07 -0.25,-0.07 -0.38,-0.09 -0.13,-0.02 -0.51,-0.1 -0.77,-0.14 l -0.35,-0.05 a 10.92,10.92 0 0 0 -1.15,-0.07 c -0.27,0 -0.55,0 -0.82,0 -0.21,-0.33 -0.43,-0.64 -0.67,-1 v 0 a 11,11 0 0 0 -1.6,-1.6 0.18,0.18 0 0 1 -0.07,-0.05 9.08,9.08 0 0 0 -0.81,-0.57 l -0.23,-0.15 c -0.23,-0.14 -0.46,-0.27 -0.7,-0.39 l -0.32,-0.15 c -0.22,-0.11 -0.45,-0.2 -0.68,-0.29 l -0.37,-0.14 -0.7,-0.2 -0.38,-0.1 c -0.25,-0.06 -0.51,-0.1 -0.76,-0.14 L 854,475 A 10.93,10.93 0 0 0 852.85,474.94 10.29,10.29 0 0 0 844,480 v 0 c -0.26,-0.06 -0.51,-0.1 -0.77,-0.14 l -0.35,-0.05 a 10.92,10.92 0 0 0 -1.15,-0.07 h -0.51 a 10.44,10.44 0 0 0 -1.78,-9.75 v 0 a 11,11 0 0 0 -1.6,-1.6 l -0.07,-0.05 a 9.19,9.19 0 0 0 -0.81,-0.58 l -0.23,-0.14 c -0.23,-0.14 -0.46,-0.27 -0.7,-0.39 l -0.32,-0.16 -0.68,-0.29 -0.37,-0.13 c -0.23,-0.08 -0.46,-0.14 -0.7,-0.21 l -0.38,-0.09 c -0.25,-0.06 -0.51,-0.1 -0.76,-0.14 l -0.36,-0.05 a 10.57,10.57 0 0 0 -1.14,-0.07 10.41,10.41 0 0 0 -9,5.26 c -0.18,-0.13 -0.35,-0.26 -0.54,-0.38 l -0.23,-0.14 a 8.13,8.13 0 0 0 -0.71,-0.4 l -0.31,-0.15 c -0.22,-0.11 -0.45,-0.2 -0.68,-0.29 l -0.25,-0.1 a 10.4,10.4 0 0 0 2.25,-15.12 v 0 a 10.09,10.09 0 0 0 -1.6,-1.6 h -0.07 a 9,9 0 0 0 -0.8,-0.58 l -0.23,-0.14 c -0.23,-0.14 -0.47,-0.27 -0.71,-0.4 l -0.31,-0.15 -0.69,-0.29 -0.36,-0.13 c -0.23,-0.08 -0.46,-0.14 -0.7,-0.21 l -0.38,-0.1 -0.77,-0.13 h -0.35 a 10.92,10.92 0 0 0 -1.15,-0.07 10.41,10.41 0 0 0 -10.41,10.42 c 0,0.09 0,0.19 0,0.28 -0.23,0.06 -0.47,0.11 -0.7,0.18 a 10.43,10.43 0 0 0 -6.85,6.85 10.25,10.25 0 0 0 -0.47,3.1 10.93,10.93 0 0 0 0.06,1.15 l 0.06,0.35 v 0.24 l -0.12,-0.07 -0.23,-0.14 -0.7,-0.4 -0.32,-0.15 -0.68,-0.29 -0.37,-0.13 a 7.15,7.15 0 0 0 -0.7,-0.21 l -0.38,-0.1 -0.76,-0.13 -0.35,-0.05 a 10.92,10.92 0 0 0 -1.15,-0.07 10.42,10.42 0 0 0 -10.42,10.42 10.73,10.73 0 0 0 0.07,1.14 c 0,0.12 0,0.24 0,0.35 0,0.26 0.08,0.52 0.14,0.77 0.06,0.25 0.06,0.25 0.1,0.38 0.04,0.13 0.13,0.47 0.2,0.7 l 0.14,0.36 c 0.09,0.24 0.18,0.46 0.29,0.69 l 0.15,0.31 c 0.12,0.24 0.25,0.48 0.39,0.71 l 0.15,0.23 a 8.93,8.93 0 0 0 0.57,0.8 l 0.05,0.07 0.15,0.19 h -0.18 c -0.25,-0.06 -0.51,-0.1 -0.77,-0.14 l -0.35,-0.05 a 10.92,10.92 0 0 0 -1.15,-0.07 10.41,10.41 0 0 0 -9.94,7.32 10.72,10.72 0 0 0 -0.35,1.61 h -0.08 l -0.24,-0.15 c -0.23,-0.14 -0.46,-0.27 -0.7,-0.39 l -0.32,-0.15 c -0.22,-0.11 -0.45,-0.2 -0.68,-0.29 l -0.36,-0.14 -0.7,-0.2 -0.38,-0.1 c -0.26,-0.06 -0.51,-0.1 -0.77,-0.14 l -0.35,-0.05 a 10.92,10.92 0 0 0 -1.15,-0.07 10.42,10.42 0 0 0 -10.41,10.42 10.93,10.93 0 0 0 0.06,1.15 l 0.06,0.35 c 0,0.25 0.08,0.51 0.13,0.76 0.05,0.25 0.07,0.26 0.1,0.38 0.03,0.12 0.13,0.48 0.21,0.71 0.08,0.23 0.08,0.24 0.13,0.36 0.05,0.12 0.18,0.46 0.29,0.68 l 0.15,0.32 c 0.12,0.24 0.26,0.47 0.4,0.7 a 1.76,1.76 0 0 0 0.14,0.23 q 0.27,0.42 0.57,0.81 l 0.06,0.07 v 0.06 a 10.36,10.36 0 0 0 -1.54,5.44 10.74,10.74 0 0 0 0.06,1.14 l 0.06,0.35 c 0,0.26 0.08,0.52 0.13,0.77 0.05,0.25 0.07,0.25 0.1,0.38 0.03,0.13 0.13,0.47 0.21,0.7 0.08,0.23 0.08,0.24 0.13,0.36 0.05,0.12 0.19,0.47 0.29,0.69 l 0.15,0.31 a 8.13,8.13 0 0 0 0.4,0.71 c 0,0.08 0.09,0.16 0.14,0.23 v 0 a 10.38,10.38 0 0 0 -9.21,7.28 10.25,10.25 0 0 0 -0.47,3.1 10.93,10.93 0 0 0 0.06,1.15 l 0.06,0.35 a 6.71,6.71 0 0 0 0.13,0.76 l 0.09,0.37 h -15.59 l -22.47,74.2 -9.29,11.95 z m -139.88,-117.69 -0.2,-0.31 0.48,-0.13 z m 48.81,-9.66 0.17,-0.29 0.38,0.08 c -0.18,0.07 -0.37,0.13 -0.55,0.21 z"
     transform="translate(-139.5,-183.72)"
     fill="url(#e02598f3-6440-4dab-b616-a11e89bded72)"
     id="path19016"
     style="fill:url(#e02598f3-6440-4dab-b616-a11e89bded72);stroke-width:4.41718" /></g><circle
   cx="182.38754"
   cy="235.26476"
   fill="#795548"
   id="circle19020"
   style="stroke-width:0.999999"
   r="2.2321956" /><path
   d="m 180.50175,235.60883 a 2.227668,2.2276679 0 0 1 3.62223,-1.73867 2.2299318,2.2299318 0 1 0 -3.1355,3.13322 2.2095568,2.2095568 0 0 1 -0.48673,-1.39455 z"
   fill="#ffffff"
   opacity="0.05"
   id="path19022"
   style="stroke-width:0.999999" /><circle
   cx="190.11197"
   cy="235.78091"
   fill="#795548"
   id="circle19024"
   style="stroke-width:0.999999"
   r="2.2321956" /><path
   d="m 188.21482,236.12273 a 2.2299318,2.2299318 0 0 1 3.62223,-1.73866 2.2299318,2.2299318 0 1 0 -3.13549,3.13548 2.2299318,2.2299318 0 0 1 -0.48674,-1.39682 z"
   fill="#ffffff"
   opacity="0.05"
   id="path19026"
   style="stroke-width:0.999999" /><circle
   cx="194.57411"
   cy="236.12274"
   fill="#795548"
   id="circle19028"
   style="stroke-width:0.999999"
   r="2.2321956" /><path
   d="m 192.686,236.46458 a 2.227668,2.2276679 0 0 1 3.62223,-1.73867 2.2299318,2.2299318 0 1 0 -3.13549,3.13549 2.2344595,2.2344595 0 0 1 -0.48674,-1.39682 z"
   fill="#ffffff"
   opacity="0.05"
   id="path19030"
   style="stroke-width:0.999999" /><circle
   cx="196.804"
   cy="235.26476"
   fill="#795548"
   id="circle19032"
   style="stroke-width:0.999999"
   r="2.2321956" /><path
   d="m 194.91594,235.60883 a 2.2299318,2.2299318 0 0 1 3.62223,-1.73867 2.2299318,2.2299318 0 1 0 -3.13549,3.13322 2.2118205,2.2118206 0 0 1 -0.48674,-1.39455 z"
   fill="#ffffff"
   opacity="0.05"
   id="path19034"
   style="stroke-width:0.999999" /><circle
   cx="214.13861"
   cy="235.26476"
   fill="#795548"
   id="circle19036"
   style="stroke-width:0.999999"
   r="2.2321956" /><path
   d="m 212.25054,235.60883 a 2.227668,2.2276679 0 0 1 3.62223,-1.73867 2.2299318,2.2299318 0 1 0 -3.13549,3.13322 2.2231401,2.2231401 0 0 1 -0.48674,-1.39455 z"
   fill="#ffffff"
   opacity="0.05"
   id="path19038"
   style="stroke-width:0.999999" /><circle
   cx="205.38641"
   cy="235.09496"
   fill="#795548"
   id="circle19040"
   style="stroke-width:0.999999"
   r="2.2321956" /><path
   d="m 203.49835,235.43677 a 2.2299318,2.2299318 0 0 1 3.62222,-1.73866 2.2299318,2.2299318 0 1 0 -3.13549,3.13548 2.2163484,2.2163484 0 0 1 -0.48673,-1.39682 z"
   fill="#ffffff"
   opacity="0.05"
   id="path19042"
   style="stroke-width:0.999999" /><circle
   cx="185.64983"
   cy="233.20688"
   fill="#795548"
   id="circle19044"
   style="stroke-width:0.999999"
   r="2.2321956" /><path
   d="m 183.76175,233.54869 a 2.2299318,2.2299318 0 0 1 3.62223,-1.73866 2.2299318,2.2299318 0 1 0 -3.13549,3.13548 2.2299318,2.2299318 0 0 1 -0.48674,-1.39682 z"
   fill="#ffffff"
   opacity="0.05"
   id="path19046"
   style="stroke-width:0.999999" /><circle
   cx="203.67036"
   cy="228.57268"
   fill="#795548"
   id="circle19048"
   style="stroke-width:0.999999"
   r="2.2321956" /><path
   d="m 201.78232,228.91451 a 2.2299318,2.2299318 0 0 1 3.63807,-1.73188 2.2299318,2.2299318 0 1 0 -3.13548,3.13549 2.2163484,2.2163484 0 0 1 -0.50259,-1.40361 z"
   fill="#ffffff"
   opacity="0.05"
   id="path19050"
   style="stroke-width:0.999999" /><circle
   cx="196.804"
   cy="223.42459"
   fill="#795548"
   id="circle19052"
   style="stroke-width:0.999999"
   r="2.2321956" /><circle
   cx="199.02718"
   cy="219.99026"
   fill="#795548"
   id="circle19054"
   style="stroke-width:0.999999"
   r="2.2321956" /><path
   d="m 194.91594,223.76642 a 2.2321957,2.2321957 0 0 1 3.62223,-1.73867 2.2299318,2.2299318 0 1 0 -3.13549,3.13549 2.2186124,2.2186123 0 0 1 -0.48674,-1.39682 z"
   fill="#ffffff"
   opacity="0.05"
   id="path19056"
   style="stroke-width:0.999999" /><circle
   cx="189.59578"
   cy="225.14062"
   fill="#795548"
   id="circle19058"
   style="stroke-width:0.999999"
   r="2.2321956" /><path
   d="m 187.70998,225.48245 a 2.2299318,2.2299318 0 0 1 3.62223,-1.73867 2.2299318,2.2299318 0 1 0 -3.13549,3.13549 2.2163484,2.2163484 0 0 1 -0.48674,-1.39682 z"
   fill="#ffffff"
   opacity="0.05"
   id="path19060"
   style="stroke-width:0.999999" /><circle
   cx="185.13364"
   cy="228.40062"
   fill="#795548"
   id="circle19062"
   style="stroke-width:0.999999"
   r="2.2321956" /><path
   d="m 183.24558,228.74472 a 2.2321957,2.2321957 0 0 1 3.62223,-1.74094 2.2299318,2.2299318 0 1 0 -3.13549,3.13549 2.2163484,2.2163484 0 0 1 -0.48674,-1.39455 z"
   fill="#ffffff"
   opacity="0.05"
   id="path19064"
   style="stroke-width:0.999999" /><circle
   cx="198.52005"
   cy="229.60277"
   fill="#795548"
   id="circle19066"
   style="stroke-width:0.999999"
   r="2.2321956" /><path
   d="m 196.63423,229.94458 a 2.2299318,2.2299318 0 0 1 3.62222,-1.73867 2.2299318,2.2299318 0 1 0 -3.13548,3.13549 2.2163484,2.2163484 0 0 1 -0.48674,-1.39682 z"
   fill="#ffffff"
   opacity="0.05"
   id="path19068"
   style="stroke-width:0.999999" /><circle
   cx="203.49838"
   cy="218.96245"
   fill="#795548"
   id="circle19070"
   style="stroke-width:0.999999"
   r="2.2321956" /><path
   d="m 201.61026,219.3043 a 2.2299318,2.2299318 0 0 1 3.62223,-1.73868 2.2299318,2.2299318 0 1 0 -3.13549,3.1355 2.2299318,2.2299318 0 0 1 -0.48674,-1.39682 z"
   fill="#ffffff"
   opacity="0.05"
   id="path19072"
   style="stroke-width:0.999999" /><circle
   cx="198.00612"
   cy="216.73029"
   fill="#795548"
   id="circle19074"
   style="stroke-width:0.999999"
   r="2.2321956" /><path
   d="m 196.11807,217.07436 a 2.2299318,2.2299318 0 0 1 3.62221,-1.74093 2.2299318,2.2299318 0 1 0 -3.13548,3.13548 2.227668,2.2276679 0 0 1 -0.48673,-1.39455 z"
   fill="#ffffff"
   opacity="0.05"
   id="path19076"
   style="stroke-width:0.999999" /><circle
   cx="192.34187"
   cy="217.24644"
   fill="#795548"
   id="circle19078"
   style="stroke-width:0.999999"
   r="2.2321956" /><path
   d="m 190.45381,217.58826 a 2.2321957,2.2321957 0 0 1 3.62223,-1.73866 2.2299318,2.2299318 0 1 0 -3.13549,3.13548 2.2186124,2.2186123 0 0 1 -0.48674,-1.39682 z"
   fill="#ffffff"
   opacity="0.05"
   id="path19080"
   style="stroke-width:0.999999" /><circle
   cx="192.34187"
   cy="220.85056"
   fill="#795548"
   id="circle19082"
   style="stroke-width:0.999999"
   r="2.2321956" /><path
   d="m 190.45381,221.19238 a 2.2321957,2.2321957 0 0 1 3.62223,-1.73867 2.2299318,2.2299318 0 1 0 -3.13549,3.13549 2.2186124,2.2186123 0 0 1 -0.48674,-1.39682 z"
   fill="#ffffff"
   opacity="0.05"
   id="path19084"
   style="stroke-width:0.999999" /><circle
   cx="201.61028"
   cy="226.51254"
   fill="#795548"
   id="circle19086"
   style="stroke-width:0.999999"
   r="2.2321956" /><path
   d="m 199.72218,226.85663 a 2.227668,2.2276679 0 0 1 3.62222,-1.73867 2.2299318,2.2299318 0 1 0 -3.13096,3.13323 2.227668,2.2276679 0 0 1 -0.49126,-1.39456 z"
   fill="#ffffff"
   opacity="0.05"
   id="path19088"
   style="stroke-width:0.999999" /><circle
   cx="204.1843"
   cy="225.3127"
   fill="#795548"
   id="circle19090"
   style="stroke-width:0.999999"
   r="2.2321956" /><path
   d="m 202.29622,225.65451 a 2.2299318,2.2299318 0 0 1 3.62223,-1.73867 2.2299318,2.2299318 0 1 0 -3.13323,3.13549 2.2186124,2.2186123 0 0 1 -0.489,-1.39682 z"
   fill="#ffffff"
   opacity="0.05"
   id="path19092"
   style="stroke-width:0.999999" /><circle
   cx="189.59578"
   cy="233.03482"
   fill="#795548"
   id="circle19094"
   style="stroke-width:0.999999"
   r="2.2321956" /><circle
   cx="189.59578"
   cy="233.03482"
   fill="#ffffff"
   opacity="0.1"
   id="circle19096"
   style="stroke-width:0.999999"
   r="2.2321956" /><path
   d="m 187.70998,233.37664 a 2.2299318,2.2299318 0 0 1 3.62223,-1.73867 2.2299318,2.2299318 0 1 0 -3.13549,3.13549 2.2163484,2.2163484 0 0 1 -0.48674,-1.39682 z"
   fill="#ffffff"
   opacity="0.05"
   id="path19098"
   style="stroke-width:0.999999" /><circle
   cx="196.6342"
   cy="231.8327"
   fill="#795548"
   id="circle19100"
   style="stroke-width:0.999999"
   r="2.2321956" /><circle
   cx="196.6342"
   cy="231.8327"
   fill="#ffffff"
   opacity="0.1"
   id="circle19102"
   style="stroke-width:0.999999"
   r="2.2321956" /><path
   d="m 194.74615,232.17677 a 2.227668,2.2276679 0 0 1 3.62223,-1.73866 2.2299318,2.2299318 0 1 0 -3.1355,3.13322 2.2163484,2.2163484 0 0 1 -0.48673,-1.39456 z"
   fill="#ffffff"
   opacity="0.05"
   id="path19104"
   style="stroke-width:0.999999" /><circle
   cx="194.05791"
   cy="233.89284"
   fill="#795548"
   id="circle19106"
   style="stroke-width:0.999999"
   r="2.2321956" /><circle
   cx="194.05791"
   cy="233.89284"
   fill="#ffffff"
   opacity="0.1"
   id="circle19108"
   style="stroke-width:0.999999"
   r="2.2321956" /><path
   d="m 192.1721,234.23464 a 2.2299318,2.2299318 0 0 1 3.62222,-1.73866 2.2299318,2.2299318 0 1 0 -3.13548,3.13549 2.2163484,2.2163484 0 0 1 -0.48674,-1.39683 z"
   fill="#ffffff"
   opacity="0.05"
   id="path19110"
   style="stroke-width:0.999999" /><circle
   cx="185.64983"
   cy="235.60884"
   fill="#795548"
   id="circle19112"
   style="stroke-width:0.999999"
   r="2.2321956" /><circle
   cx="185.64983"
   cy="235.60884"
   fill="#ffffff"
   opacity="0.1"
   id="circle19114"
   style="stroke-width:0.999999"
   r="2.2321956" /><path
   d="m 183.76175,235.95294 a 2.2299318,2.2299318 0 0 1 3.62223,-1.74093 2.2299318,2.2299318 0 1 0 -3.13097,3.13549 2.227668,2.2276679 0 0 1 -0.49126,-1.39456 z"
   fill="#ffffff"
   opacity="0.05"
   id="path19116"
   style="stroke-width:0.999999" /><circle
   cx="187.87973"
   cy="233.89284"
   fill="#795548"
   id="circle19118"
   style="stroke-width:0.999999"
   r="2.2321956" /><circle
   cx="187.87973"
   cy="233.89284"
   fill="#ffffff"
   opacity="0.1"
   id="circle19120"
   style="stroke-width:0.999999"
   r="2.2321956" /><path
   d="m 185.99168,234.23464 a 2.2299318,2.2299318 0 0 1 3.62223,-1.73866 2.2299318,2.2299318 0 1 0 -3.13322,3.13549 2.2186124,2.2186123 0 0 1 -0.48901,-1.39683 z"
   fill="#ffffff"
   opacity="0.05"
   id="path19122"
   style="stroke-width:0.999999" /><circle
   cx="187.87973"
   cy="230.11665"
   fill="#795548"
   id="circle19124"
   style="stroke-width:0.999999"
   r="2.2321956" /><circle
   cx="187.87973"
   cy="230.11665"
   fill="#ffffff"
   opacity="0.1"
   id="circle19126"
   style="stroke-width:0.999999"
   r="2.2321956" /><path
   d="m 185.99168,230.46074 a 2.227668,2.2276679 0 0 1 3.62223,-1.73867 2.2299318,2.2299318 0 1 0 -3.13322,3.13323 2.2163484,2.2163484 0 0 1 -0.48901,-1.39456 z"
   fill="#ffffff"
   opacity="0.05"
   id="path19128"
   style="stroke-width:0.999999" /><circle
   cx="192.17207"
   cy="226.68462"
   fill="#795548"
   id="circle19130"
   style="stroke-width:0.999999"
   r="2.2321956" /><circle
   cx="192.17207"
   cy="226.68462"
   fill="#ffffff"
   opacity="0.1"
   id="circle19132"
   style="stroke-width:0.999999"
   r="2.2321956" /><path
   d="m 190.28402,227.02868 a 2.2299318,2.2299318 0 0 1 3.62223,-1.74093 2.2299318,2.2299318 0 1 0 -3.13549,3.1355 2.2163484,2.2163484 0 0 1 -0.48674,-1.39457 z"
   fill="#ffffff"
   opacity="0.05"
   id="path19134"
   style="stroke-width:0.999999" /><circle
   cx="199.72215"
   cy="235.09496"
   fill="#795548"
   id="circle19136"
   style="stroke-width:0.999999"
   r="2.2321956" /><circle
   cx="199.72215"
   cy="235.09496"
   fill="#ffffff"
   opacity="0.1"
   id="circle19138"
   style="stroke-width:0.999999"
   r="2.2321956" /><path
   d="m 197.83409,235.43677 a 2.2299318,2.2299318 0 0 1 3.62223,-1.73866 2.2299318,2.2299318 0 1 0 -3.13322,3.13548 2.2186124,2.2186123 0 0 1 -0.48901,-1.39682 z"
   fill="#ffffff"
   opacity="0.05"
   id="path19140"
   style="stroke-width:0.999999" /><circle
   cx="205.90034"
   cy="228.22859"
   fill="#795548"
   id="circle19142"
   style="stroke-width:0.999999"
   r="2.2321956" /><circle
   cx="205.90034"
   cy="228.22859"
   fill="#ffffff"
   opacity="0.1"
   id="circle19144"
   style="stroke-width:0.999999"
   r="2.2321956" /><path
   d="m 204.01224,228.57266 a 2.227668,2.2276679 0 0 1 3.62223,-1.73867 2.2299318,2.2299318 0 1 0 -3.11964,3.13322 2.2163484,2.2163484 0 0 1 -0.50259,-1.39455 z"
   fill="#ffffff"
   opacity="0.05"
   id="path19146"
   style="stroke-width:0.999999" /><circle
   cx="205.90034"
   cy="217.9324"
   fill="#795548"
   id="circle19148"
   style="stroke-width:0.999999"
   r="2.2321956" /><circle
   cx="205.90034"
   cy="217.9324"
   fill="#ffffff"
   opacity="0.1"
   id="circle19150"
   style="stroke-width:0.999999"
   r="2.2321956" /><path
   d="m 204.01224,218.27423 a 2.2299318,2.2299318 0 0 1 3.62223,-1.73867 2.2299318,2.2299318 0 1 0 -3.11964,3.13548 2.2186124,2.2186123 0 0 1 -0.50259,-1.39681 z"
   fill="#ffffff"
   opacity="0.05"
   id="path19152"
   style="stroke-width:0.999999" /><circle
   cx="208.13251"
   cy="222.22247"
   fill="#795548"
   id="circle19154"
   style="stroke-width:0.999999"
   r="2.2321956" /><circle
   cx="208.13251"
   cy="222.22247"
   fill="#ffffff"
   opacity="0.1"
   id="circle19156"
   style="stroke-width:0.999999"
   r="2.2321956" /><path
   d="m 206.24445,222.56656 a 2.2299318,2.2299318 0 0 1 3.62222,-1.74093 2.2299318,2.2299318 0 1 0 -3.13549,3.13549 2.2163484,2.2163484 0 0 1 -0.48673,-1.39456 z"
   fill="#ffffff"
   opacity="0.05"
   id="path19158"
   style="stroke-width:0.999999" /><circle
   cx="210.36247"
   cy="225.48245"
   fill="#795548"
   id="circle19160"
   style="stroke-width:0.999999"
   r="2.2321956" /><circle
   cx="210.36247"
   cy="225.48245"
   fill="#ffffff"
   opacity="0.1"
   id="circle19162"
   style="stroke-width:0.999999"
   r="2.2321956" /><path
   d="m 208.47437,225.8243 a 2.227668,2.2276679 0 0 1 3.62223,-1.73867 2.2299318,2.2299318 0 1 0 -3.13322,3.13322 2.2118205,2.2118206 0 0 1 -0.48901,-1.39455 z"
   fill="#ffffff"
   opacity="0.05"
   id="path19164"
   style="stroke-width:0.999999" /><circle
   cx="199.72215"
   cy="221.70859"
   fill="#795548"
   id="circle19166"
   style="stroke-width:0.999999"
   r="2.2321956" /><circle
   cx="199.72215"
   cy="221.70859"
   fill="#ffffff"
   opacity="0.1"
   id="circle19168"
   style="stroke-width:0.999999"
   r="2.2321956" /><path
   d="m 197.83409,222.05039 a 2.2299318,2.2299318 0 0 1 3.62223,-1.73866 2.2299318,2.2299318 0 1 0 -3.13322,3.13548 2.2186124,2.2186123 0 0 1 -0.48901,-1.39682 z"
   fill="#ffffff"
   opacity="0.05"
   id="path19170"
   style="stroke-width:0.999999" /><circle
   cx="193.03012"
   cy="223.42459"
   fill="#795548"
   id="circle19172"
   style="stroke-width:0.999999"
   r="2.2321956" /><circle
   cx="193.03012"
   cy="223.42459"
   fill="#ffffff"
   opacity="0.1"
   id="circle19174"
   style="stroke-width:0.999999"
   r="2.2321956" /><path
   d="m 191.14204,223.76642 a 2.2299318,2.2299318 0 0 1 3.62222,-1.73867 2.2299318,2.2299318 0 1 0 -3.1355,3.13549 2.2163484,2.2163484 0 0 1 -0.48672,-1.39682 z"
   fill="#ffffff"
   opacity="0.05"
   id="path19176"
   style="stroke-width:0.999999" /><circle
   cx="197.32019"
   cy="220.85056"
   fill="#795548"
   id="circle19178"
   style="stroke-width:0.999999"
   r="2.2321956" /><circle
   cx="197.32019"
   cy="220.85056"
   fill="#ffffff"
   opacity="0.1"
   id="circle19180"
   style="stroke-width:0.999999"
   r="2.2321956" /><path
   d="m 195.43211,221.19238 a 2.2299318,2.2299318 0 0 1 3.62223,-1.73867 2.2299318,2.2299318 0 1 0 -3.13549,3.13549 2.2163484,2.2163484 0 0 1 -0.48674,-1.39682 z"
   fill="#ffffff"
   opacity="0.05"
   id="path19182"
   style="stroke-width:0.999999" /><circle
   cx="201.26614"
   cy="218.96245"
   fill="#795548"
   id="circle19184"
   style="stroke-width:0.999999"
   r="2.2321956" /><circle
   cx="201.26614"
   cy="218.96245"
   fill="#ffffff"
   opacity="0.1"
   id="circle19186"
   style="stroke-width:0.999999"
   r="2.2321956" /><path
   d="m 199.37807,219.3043 a 2.2321957,2.2321957 0 0 1 3.62223,-1.73868 2.2299318,2.2299318 0 1 0 -3.13549,3.1355 2.2186124,2.2186123 0 0 1 -0.48674,-1.39682 z"
   fill="#ffffff"
   opacity="0.05"
   id="path19188"
   style="stroke-width:0.999999" /><circle
   cx="190.11197"
   cy="220.85056"
   fill="#795548"
   id="circle19190"
   style="stroke-width:0.999999"
   r="2.2321956" /><circle
   cx="190.11197"
   cy="220.85056"
   fill="#ffffff"
   opacity="0.1"
   id="circle19192"
   style="stroke-width:0.999999"
   r="2.2321956" /><path
   d="m 188.21482,221.19238 a 2.2299318,2.2299318 0 0 1 3.62223,-1.73867 2.2299318,2.2299318 0 1 0 -3.13549,3.13549 2.2299318,2.2299318 0 0 1 -0.48674,-1.39682 z"
   fill="#ffffff"
   opacity="0.05"
   id="path19194"
   style="stroke-width:0.999999" /><circle
   cx="198.00612"
   cy="228.05652"
   fill="#795548"
   id="circle19196"
   style="stroke-width:0.999999"
   r="2.2321956" /><circle
   cx="198.00612"
   cy="228.05652"
   fill="#ffffff"
   opacity="0.1"
   id="circle19198"
   style="stroke-width:0.999999"
   r="2.2321956" /><path
   d="m 196.11807,228.4006 a 2.227668,2.2276679 0 0 1 3.62221,-1.73866 2.2299318,2.2299318 0 1 0 -3.13548,3.13548 2.2344595,2.2344595 0 0 1 -0.48673,-1.39682 z"
   fill="#ffffff"
   opacity="0.05"
   id="path19200"
   style="stroke-width:0.999999" /><circle
   cx="188.56799"
   cy="227.88672"
   fill="#795548"
   id="circle19202"
   style="stroke-width:0.999999"
   r="2.2321956" /><circle
   cx="188.56799"
   cy="227.88672"
   fill="#ffffff"
   opacity="0.1"
   id="circle19204"
   style="stroke-width:0.999999"
   r="2.2321956" /><path
   d="m 186.67991,228.22855 a 2.2299318,2.2299318 0 0 1 3.62222,-1.73867 2.2299318,2.2299318 0 1 0 -3.13548,3.13549 2.2163484,2.2163484 0 0 1 -0.48674,-1.39682 z"
   fill="#ffffff"
   opacity="0.05"
   id="path19206"
   style="stroke-width:0.999999" /><circle
   cx="202.98218"
   cy="231.14674"
   fill="#795548"
   id="circle19208"
   style="stroke-width:0.999999"
   r="2.2321956" /><circle
   cx="202.98218"
   cy="231.14674"
   fill="#ffffff"
   opacity="0.1"
   id="circle19210"
   style="stroke-width:0.999999"
   r="2.2321956" /><path
   d="m 201.09636,231.48403 a 2.2299318,2.2299318 0 0 1 3.62222,-1.74093 2.2299318,2.2299318 0 1 0 -3.13548,3.13548 2.2163484,2.2163484 0 0 1 -0.48674,-1.39455 z"
   fill="#ffffff"
   opacity="0.05"
   id="path19212"
   style="stroke-width:0.999999" /><circle
   cx="206.41653"
   cy="232.34886"
   fill="#795548"
   id="circle19214"
   style="stroke-width:0.999999"
   r="2.2321956" /><circle
   cx="206.41653"
   cy="232.34886"
   fill="#ffffff"
   opacity="0.1"
   id="circle19216"
   style="stroke-width:0.999999"
   r="2.2321956" /><path
   d="m 204.52841,232.69068 a 2.2299318,2.2299318 0 0 1 3.62223,-1.73867 2.2299318,2.2299318 0 1 0 -3.13549,3.13549 2.2163484,2.2163484 0 0 1 -0.48674,-1.39682 z"
   fill="#ffffff"
   opacity="0.05"
   id="path19218"
   style="stroke-width:0.999999" /><circle
   cx="209.33243"
   cy="234.5788"
   fill="#795548"
   id="circle19220"
   style="stroke-width:0.999999"
   r="2.2321956" /><circle
   cx="209.33243"
   cy="234.5788"
   fill="#ffffff"
   opacity="0.1"
   id="circle19222"
   style="stroke-width:0.999999"
   r="2.2321956" /><path
   d="m 207.4443,234.92287 a 2.2299318,2.2299318 0 0 1 3.62223,-1.73867 2.2299318,2.2299318 0 1 0 -3.13549,3.13322 2.2163484,2.2163484 0 0 1 -0.48674,-1.39455 z"
   fill="#ffffff"
   opacity="0.05"
   id="path19224"
   style="stroke-width:0.999999" /><circle
   cx="214.13861"
   cy="231.66064"
   fill="#795548"
   id="circle19226"
   style="stroke-width:0.999999"
   r="2.2321956" /><circle
   cx="214.13861"
   cy="231.66064"
   fill="#ffffff"
   opacity="0.1"
   id="circle19228"
   style="stroke-width:0.999999"
   r="2.2321956" /><path
   d="m 212.25054,232.00472 a 2.227668,2.2276679 0 0 1 3.62223,-1.73867 2.2299318,2.2299318 0 1 0 -3.13549,3.13549 2.2344595,2.2344595 0 0 1 -0.48674,-1.39682 z"
   fill="#ffffff"
   opacity="0.05"
   id="path19230"
   style="stroke-width:0.999999" /><circle
   cx="211.56459"
   cy="229.08658"
   fill="#795548"
   id="circle19232"
   style="stroke-width:0.999999"
   r="2.2321956" /><circle
   cx="211.56459"
   cy="229.08658"
   fill="#ffffff"
   opacity="0.1"
   id="circle19234"
   style="stroke-width:0.999999"
   r="2.2321956" /><path
   d="m 209.67651,229.43068 a 2.227668,2.2276679 0 0 1 3.62222,-1.73867 2.2299318,2.2299318 0 1 0 -3.12417,3.13322 2.2231401,2.2231401 0 0 1 -0.49805,-1.39455 z"
   fill="#ffffff"
   opacity="0.05"
   id="path19236"
   style="stroke-width:0.999999" /><circle
   cx="195.77396"
   cy="215.01425"
   fill="#795548"
   id="circle19238"
   style="stroke-width:0.999999"
   r="2.2321956" /><circle
   cx="195.77396"
   cy="215.01425"
   fill="#ffffff"
   opacity="0.1"
   id="circle19240"
   style="stroke-width:0.999999"
   r="2.2321956" /><path
   d="m 193.88813,215.35833 a 2.2299318,2.2299318 0 0 1 3.62223,-1.74092 2.2299318,2.2299318 0 1 0 -3.13549,3.13548 2.2163484,2.2163484 0 0 1 -0.48674,-1.39456 z"
   fill="#ffffff"
   opacity="0.05"
   id="path19242"
   style="stroke-width:0.999999" /><circle
   cx="186.84969"
   cy="224.96857"
   fill="#795548"
   id="circle19244"
   style="stroke-width:0.999999"
   r="2.2321956" /><circle
   cx="186.84969"
   cy="224.96857"
   fill="#ffffff"
   opacity="0.1"
   id="circle19246"
   style="stroke-width:0.999999"
   r="2.2321956" /><path
   d="m 184.96387,225.31039 a 2.2299318,2.2299318 0 0 1 3.62223,-1.73866 2.2299318,2.2299318 0 1 0 -3.13549,3.13548 2.2163484,2.2163484 0 0 1 -0.48674,-1.39682 z"
   fill="#ffffff"
   opacity="0.05"
   id="path19248"
   style="stroke-width:0.999999" /><circle
   cx="183.41766"
   cy="231.31877"
   fill="#795548"
   id="circle19250"
   style="stroke-width:0.999999"
   r="2.2321956" /><circle
   cx="183.41766"
   cy="231.31877"
   fill="#ffffff"
   opacity="0.1"
   id="circle19252"
   style="stroke-width:0.999999"
   r="2.2321956" /><path
   d="m 181.52956,231.6606 a 2.2299318,2.2299318 0 0 1 3.62222,-1.73866 2.2299318,2.2299318 0 1 0 -3.12869,3.14681 2.2186124,2.2186123 0 0 1 -0.49353,-1.40815 z"
   fill="#ffffff"
   opacity="0.05"
   id="path19254"
   style="stroke-width:0.999999" /><circle
   cx="194.05791"
   cy="229.08658"
   fill="#795548"
   id="circle19256"
   style="stroke-width:0.999999"
   r="2.2321956" /><circle
   cx="194.05791"
   cy="229.08658"
   fill="#ffffff"
   opacity="0.1"
   id="circle19258"
   style="stroke-width:0.999999"
   r="2.2321956" /><path
   d="m 192.1721,229.43068 a 2.227668,2.2276679 0 0 1 3.62222,-1.73867 2.2299318,2.2299318 0 1 0 -3.13548,3.13322 2.2095568,2.2095568 0 0 1 -0.48674,-1.39455 z"
   fill="#ffffff"
   opacity="0.05"
   id="path19260"
   style="stroke-width:0.999999" /><circle
   cx="194.40204"
   cy="219.99254"
   fill="#795548"
   id="circle19262"
   style="stroke-width:0.999999"
   r="2.2321956" /><circle
   cx="194.40204"
   cy="219.99254"
   fill="#ffffff"
   opacity="0.1"
   id="circle19264"
   style="stroke-width:0.999999"
   r="2.2321956" /><path
   d="m 192.51621,220.33436 a 2.2299318,2.2299318 0 0 1 3.62223,-1.73867 2.2299318,2.2299318 0 1 0 -3.13549,3.13549 2.2299318,2.2299318 0 0 1 -0.48674,-1.39682 z"
   fill="#ffffff"
   opacity="0.05"
   id="path19266"
   style="stroke-width:0.999999" /><circle
   cx="195.26003"
   cy="217.58827"
   fill="#795548"
   id="circle19268"
   style="stroke-width:0.999999"
   r="2.2321956" /><circle
   cx="195.26003"
   cy="217.58827"
   fill="#ffffff"
   opacity="0.1"
   id="circle19270"
   style="stroke-width:0.999999"
   r="2.2321956" /><path
   d="m 193.37196,217.93238 a 2.227668,2.2276679 0 0 1 3.62223,-1.73867 2.2299318,2.2299318 0 1 0 -3.11964,3.13322 2.227668,2.2276679 0 0 1 -0.50259,-1.39455 z"
   fill="#ffffff"
   opacity="0.05"
   id="path19272"
   style="stroke-width:0.999999" /><circle
   cx="192.34187"
   cy="231.66064"
   fill="#795548"
   id="circle19274"
   style="stroke-width:0.999999"
   r="2.2321956" /><path
   d="m 190.45381,232.00472 a 2.2299318,2.2299318 0 0 1 3.62223,-1.73867 2.2299318,2.2299318 0 1 0 -3.13549,3.13549 2.2231401,2.2231401 0 0 1 -0.48674,-1.39682 z"
   fill="#ffffff"
   opacity="0.05"
   id="path19276"
   style="stroke-width:0.999999" /><circle
   cx="186.67989"
   cy="222.39453"
   fill="#795548"
   id="circle19278"
   style="stroke-width:0.999999"
   r="2.2321956" /><path
   d="m 184.79183,222.73636 a 2.2299318,2.2299318 0 0 1 3.62221,-1.73867 2.2299318,2.2299318 0 1 0 -3.13548,3.13548 2.2163484,2.2163484 0 0 1 -0.48673,-1.39681 z"
   fill="#ffffff"
   opacity="0.05"
   id="path19280"
   style="stroke-width:0.999999" /><circle
   cx="189.42598"
   cy="228.91681"
   fill="#795548"
   id="circle19282"
   style="stroke-width:0.999999"
   r="2.2321956" /><path
   d="m 187.53566,229.25862 a 2.2299318,2.2299318 0 0 1 3.62222,-1.73867 2.2299318,2.2299318 0 1 0 -3.13548,3.13549 2.2163484,2.2163484 0 0 1 -0.48674,-1.39682 z"
   fill="#ffffff"
   opacity="0.05"
   id="path19284"
   style="stroke-width:0.999999" /><circle
   cx="197.49219"
   cy="212.78432"
   fill="#795548"
   id="circle19286"
   style="stroke-width:0.999999"
   r="2.2321956" /><path
   d="m 195.60417,213.12613 a 2.2299318,2.2299318 0 0 1 3.62221,-1.73866 2.2299318,2.2299318 0 1 0 -3.13549,3.13548 2.2163484,2.2163484 0 0 1 -0.48672,-1.39682 z"
   fill="#ffffff"
   opacity="0.05"
   id="path19288"
   style="stroke-width:0.999999" /><circle
   cx="197.32019"
   cy="217.76033"
   fill="#795548"
   id="circle19290"
   style="stroke-width:0.999999"
   r="2.2321956" /><path
   d="m 195.43211,218.10443 a 2.2299318,2.2299318 0 0 1 3.62223,-1.74093 2.2299318,2.2299318 0 1 0 -3.13549,3.13549 2.2163484,2.2163484 0 0 1 -0.48674,-1.39456 z"
   fill="#ffffff"
   opacity="0.05"
   id="path19292"
   style="stroke-width:0.999999" /><circle
   cx="201.26614"
   cy="216.0443"
   fill="#795548"
   id="circle19294"
   style="stroke-width:0.999999"
   r="2.2321956" /><path
   d="m 199.37807,216.38613 a 2.2321957,2.2321957 0 0 1 3.62223,-1.73866 2.2299318,2.2299318 0 1 0 -3.13549,3.13548 2.2186124,2.2186123 0 0 1 -0.48674,-1.39682 z"
   fill="#ffffff"
   opacity="0.05"
   id="path19296"
   style="stroke-width:0.999999" /><circle
   cx="199.55009"
   cy="225.65453"
   fill="#795548"
   id="circle19298"
   style="stroke-width:0.999999"
   r="2.2321956" /><circle
   cx="200.76128"
   cy="224.64484"
   fill="#795548"
   id="circle19300"
   style="stroke-width:0.999999"
   r="2.2321956" /><path
   d="m 197.66204,225.99862 a 2.227668,2.2276679 0 0 1 3.62222,-1.73867 2.2299318,2.2299318 0 1 0 -3.13322,3.13322 2.2163484,2.2163484 0 0 1 -0.489,-1.39455 z"
   fill="#ffffff"
   opacity="0.05"
   id="path19302"
   style="stroke-width:0.999999" /><circle
   cx="198.35025"
   cy="231.8327"
   fill="#795548"
   id="circle19304"
   style="stroke-width:0.999999"
   r="2.2321956" /><path
   d="m 196.46217,232.17677 a 2.227668,2.2276679 0 0 1 3.62223,-1.73866 2.2299318,2.2299318 0 1 0 -3.13549,3.13322 2.2163484,2.2163484 0 0 1 -0.48674,-1.39456 z"
   fill="#ffffff"
   opacity="0.05"
   id="path19306"
   style="stroke-width:0.999999" /><circle
   cx="199.20824"
   cy="227.37056"
   fill="#795548"
   id="circle19308"
   style="stroke-width:0.999999"
   r="2.2321956" /><path
   d="m 197.32019,227.71464 a 2.227668,2.2276679 0 0 1 3.62222,-1.73866 2.2299318,2.2299318 0 1 0 -3.13548,3.13322 2.2163484,2.2163484 0 0 1 -0.48674,-1.39456 z"
   fill="#ffffff"
   opacity="0.05"
   id="path19310"
   style="stroke-width:0.999999" /><circle
   cx="203.15425"
   cy="223.59439"
   fill="#795548"
   id="circle19312"
   style="stroke-width:0.999999"
   r="2.2321956" /><circle
   cx="214.86761"
   cy="228.64511"
   fill="#795548"
   id="circle19314"
   style="stroke-width:0.999999"
   r="2.2321956" /><path
   d="m 201.26615,223.93847 a 2.227668,2.2276679 0 0 1 3.62222,-1.73866 2.2299318,2.2299318 0 1 0 -3.13322,3.13548 2.2231401,2.2231401 0 0 1 -0.489,-1.39682 z"
   fill="#ffffff"
   opacity="0.05"
   id="path19316"
   style="stroke-width:0.999999" /><circle
   cx="200.92427"
   cy="229.60277"
   fill="#795548"
   id="circle19318"
   style="stroke-width:0.999999"
   r="2.2321956" /><path
   d="m 199.03622,229.94458 a 2.2299318,2.2299318 0 0 1 3.62223,-1.73867 2.2299318,2.2299318 0 1 0 -3.12417,3.13549 2.2163484,2.2163484 0 0 1 -0.49806,-1.39682 z"
   fill="#ffffff"
   opacity="0.05"
   id="path19320"
   style="stroke-width:0.999999" /><circle
   cx="207.96043"
   cy="218.96245"
   fill="#795548"
   id="circle19322"
   style="stroke-width:0.999999"
   r="2.2321956" /><path
   d="m 206.07239,219.3043 a 2.2299318,2.2299318 0 0 1 3.62223,-1.73868 2.2299318,2.2299318 0 1 0 -3.1355,3.1355 2.2299318,2.2299318 0 0 1 -0.48673,-1.39682 z"
   fill="#ffffff"
   opacity="0.05"
   id="path19324"
   style="stroke-width:0.999999" /><circle
   cx="206.24448"
   cy="222.22247"
   fill="#795548"
   id="circle19326"
   style="stroke-width:0.999999"
   r="2.2321956" /><path
   d="m 204.35636,222.56656 a 2.2299318,2.2299318 0 0 1 3.62222,-1.74093 2.2299318,2.2299318 0 1 0 -3.13548,3.13549 2.227668,2.2276679 0 0 1 -0.48674,-1.39456 z"
   fill="#ffffff"
   opacity="0.05"
   id="path19328"
   style="stroke-width:0.999999" /><circle
   cx="207.61638"
   cy="225.3127"
   fill="#795548"
   id="circle19330"
   style="stroke-width:0.999999"
   r="2.2321956" /><path
   d="m 205.72828,225.65451 a 2.2299318,2.2299318 0 0 1 3.62223,-1.73867 2.2299318,2.2299318 0 1 0 -3.13324,3.13549 2.2186124,2.2186123 0 0 1 -0.48899,-1.39682 z"
   fill="#ffffff"
   opacity="0.05"
   id="path19332"
   style="stroke-width:0.999999" /><circle
   cx="211.0484"
   cy="231.66064"
   fill="#795548"
   id="circle19334"
   style="stroke-width:0.999999"
   r="2.2321956" /><path
   d="m 209.1626,232.00472 a 2.227668,2.2276679 0 0 1 3.62223,-1.73867 2.2299318,2.2299318 0 1 0 -3.13549,3.13549 2.2208764,2.2208762 0 0 1 -0.48674,-1.39682 z"
   fill="#ffffff"
   opacity="0.05"
   id="path19336"
   style="stroke-width:0.999999" /><circle
   cx="213.79449"
   cy="226.51254"
   fill="#795548"
   id="circle19338"
   style="stroke-width:0.999999"
   r="2.2321956" /><circle
   cx="189.96477"
   cy="223.48346"
   fill="#795548"
   id="circle19340"
   style="stroke-width:0.999999"
   r="2.2321956" /><path
   d="m 211.90643,226.85663 a 2.2299318,2.2299318 0 0 1 3.62223,-1.73867 2.2299318,2.2299318 0 1 0 -3.13549,3.13323 2.2163484,2.2163484 0 0 1 -0.48674,-1.39456 z"
   fill="#ffffff"
   opacity="0.05"
   id="path19342"
   style="stroke-width:0.999999" /><circle
   cx="208.13251"
   cy="228.91681"
   fill="#795548"
   id="circle19344"
   style="stroke-width:0.999999"
   r="2.2321956" /><path
   d="m 206.24445,229.25862 a 2.2299318,2.2299318 0 0 1 3.62222,-1.73867 2.2299318,2.2299318 0 1 0 -3.13549,3.13549 2.2163484,2.2163484 0 0 1 -0.48673,-1.39682 z"
   fill="#ffffff"
   opacity="0.05"
   id="path19346"
   style="stroke-width:0.999999" /><circle
   cx="208.47437"
   cy="231.66064"
   fill="#795548"
   id="circle19348"
   style="stroke-width:0.999999"
   r="2.2321956" /><path
   d="m 206.5863,232.00472 a 2.227668,2.2276679 0 0 1 3.62222,-1.73867 2.2299318,2.2299318 0 1 0 -3.13323,3.13549 2.2231401,2.2231401 0 0 1 -0.48899,-1.39682 z"
   fill="#ffffff"
   opacity="0.05"
   id="path19350"
   style="stroke-width:0.999999" /><circle
   cx="201.95441"
   cy="233.54871"
   fill="#795548"
   id="circle19352"
   style="stroke-width:0.999999"
   r="2.2321956" /><path
   d="m 200.06628,233.89279 a 2.227668,2.2276679 0 0 1 3.62223,-1.73866 2.2299318,2.2299318 0 1 0 -3.13549,3.13323 2.2095568,2.2095568 0 0 1 -0.48674,-1.39457 z"
   fill="#ffffff"
   opacity="0.05"
   id="path19354"
   style="stroke-width:0.999999" /><circle
   cx="194.57411"
   cy="226.34048"
   fill="#795548"
   id="circle19356"
   style="stroke-width:0.999999"
   r="2.2321956" /><path
   d="m 192.686,226.68457 a 2.227668,2.2276679 0 0 1 3.62223,-1.73867 2.2299318,2.2299318 0 1 0 -3.13096,3.14229 2.2231401,2.2231401 0 0 1 -0.49127,-1.40362 z"
   fill="#ffffff"
   opacity="0.05"
   id="path19358"
   style="stroke-width:0.999999" /><circle
   cx="196.804"
   cy="226.17068"
   fill="#795548"
   id="circle19360"
   style="stroke-width:0.999999"
   r="2.2321956" /><path
   d="m 194.91594,226.50346 a 2.2321957,2.2321957 0 0 1 3.62223,-1.73866 2.2299318,2.2299318 0 1 0 -3.13549,3.13548 2.2186124,2.2186123 0 0 1 -0.48674,-1.39682 z"
   fill="#ffffff"
   opacity="0.05"
   id="path19362"
   style="stroke-width:0.999999" /><circle
   cx="192.17207"
   cy="228.91681"
   fill="#795548"
   id="circle19364"
   style="stroke-width:0.999999"
   r="2.2321956" /><path
   d="m 190.28402,229.25862 a 2.2299318,2.2299318 0 0 1 3.62223,-1.73867 2.2299318,2.2299318 0 1 0 -3.13549,3.13549 2.2163484,2.2163484 0 0 1 -0.48674,-1.39682 z"
   fill="#ffffff"
   opacity="0.05"
   id="path19366"
   style="stroke-width:0.999999" /><circle
   cx="211.56459"
   cy="234.5788"
   fill="#795548"
   id="circle19368"
   style="stroke-width:0.999999"
   r="2.2321956" /><circle
   cx="211.56459"
   cy="234.5788"
   fill="#ffffff"
   opacity="0.1"
   id="circle19370"
   style="stroke-width:0.999999"
   r="2.2321956" /><path
   d="m 209.67651,234.92287 a 2.227668,2.2276679 0 0 1 3.62222,-1.73867 2.2299318,2.2299318 0 1 0 -3.12417,3.13322 2.227668,2.2276679 0 0 1 -0.49805,-1.39455 z"
   fill="#ffffff"
   opacity="0.05"
   id="path19372"
   style="stroke-width:0.999999" /><circle
   cx="209.33243"
   cy="226.51254"
   fill="#795548"
   id="circle19374"
   style="stroke-width:0.999999"
   r="2.2321956" /><circle
   cx="209.33243"
   cy="226.51254"
   fill="#ffffff"
   opacity="0.1"
   id="circle19376"
   style="stroke-width:0.999999"
   r="2.2321956" /><path
   d="m 207.4443,226.85663 a 2.2299318,2.2299318 0 0 1 3.62223,-1.73867 2.2299318,2.2299318 0 1 0 -3.13549,3.13323 2.2163484,2.2163484 0 0 1 -0.48674,-1.39456 z"
   fill="#ffffff"
   opacity="0.05"
   id="path19378"
   style="stroke-width:0.999999" /><circle
   cx="202.98218"
   cy="220.85056"
   fill="#795548"
   id="circle19380"
   style="stroke-width:0.999999"
   r="2.2321956" /><circle
   cx="202.98218"
   cy="220.85056"
   fill="#ffffff"
   opacity="0.1"
   id="circle19382"
   style="stroke-width:0.999999"
   r="2.2321956" /><path
   d="m 201.09636,221.19238 a 2.2299318,2.2299318 0 0 1 3.62222,-1.73867 2.2299318,2.2299318 0 1 0 -3.13548,3.13549 2.2163484,2.2163484 0 0 1 -0.48674,-1.39682 z"
   fill="#ffffff"
   opacity="0.05"
   id="path19384"
   style="stroke-width:0.999999" /><polygon
   points="595.58,353.15 766.73,353.15 789.92,429.9 572.39,429.9 "
   fill="#f55f44"
   id="polygon19386"
   style="stroke-width:4.41718"
   transform="matrix(0.22638901,0,0,0.22638901,45.023775,149.01503)" /><polygon
   points="759.22,353.48 595.58,353.15 572.39,429.9 580.89,429.9 602.11,359.68 760.52,360.01 "
   fill="#ffffff"
   opacity="0.05"
   id="polygon19388"
   style="stroke-width:4.41718"
   transform="matrix(0.22638901,0,0,0.22638901,45.023775,149.01503)" /><polygon
   points="574.67,423.05 787.63,423.05 795.47,434.8 565.53,434.8 "
   fill="#fdff86"
   id="polygon19390"
   style="stroke-width:4.41718"
   transform="matrix(0.22638901,0,0,0.22638901,45.023775,149.01503)" /><polygon
   points="574.67,423.05 787.63,423.05 795.47,434.8 565.53,434.8 "
   fill="#f55f44"
   id="polygon19392"
   style="stroke-width:4.41718"
   transform="matrix(0.22638901,0,0,0.22638901,45.023775,149.01503)" /><polygon
   points="574.67,423.05 787.63,423.05 795.47,434.8 565.53,434.8 "
   opacity="0.1"
   id="polygon19394"
   style="stroke-width:4.41718"
   transform="matrix(0.22638901,0,0,0.22638901,45.023775,149.01503)" /><polygon
   points="788.5,423.52 766.5,352.52 759.5,352.52 779.17,423.05 "
   opacity="0.05"
   id="polygon19396"
   style="stroke-width:4.41718"
   transform="matrix(0.22638901,0,0,0.22638901,45.023775,149.01503)" /><path
   d="m 183.18446,169.57116 c -0.1087,7.62931 -6.54491,13.66257 -14.17422,13.66257 h -1.06176 a 3.5882658,3.5882658 0 0 0 -2.51292,1.01422 3.4931824,3.4931824 0 0 0 -1.02102,1.78168 3.2713212,3.2713212 0 0 0 -0.10635,0.84444 v 13.46788 a 13.490522,13.490522 0 0 1 -2.12805,7.30557 c -1.99901,3.11964 -3.16945,6.6898 -3.16945,10.39352 v 0 a 6.4951008,6.4951008 0 0 1 -6.61282,6.49057 c -3.5679,-0.0656 -6.36607,-3.13322 -6.36607,-6.70337 v -3.36868 l -1.76809,0.20829 v 3.37319 a 6.4973646,6.4973646 0 0 1 -6.61509,6.49057 c -3.56788,-0.0656 -6.36379,-3.13322 -6.36379,-6.70337 v -1.70472 c -1.77036,0.73804 -11.7994,0.73804 -14.58399,0.0249 l -0.75613,-0.0589 v 1.95148 a 6.4951008,6.4951008 0 0 1 -6.61282,6.49057 c -3.57017,-0.0656 -6.36607,-3.13322 -6.36607,-6.70337 v -2.80044 l -0.59087,-0.0543 v 3.06758 a 6.6309342,6.6309342 0 0 1 -0.19922,1.61188 6.5041564,6.5041564 0 0 1 -6.413597,4.87869 c -3.26227,-0.0588 -5.8748,-2.62612 -6.3072,-5.7933 a 8.0141711,8.0141711 0 0 1 -0.0588,-0.90556 v -14.09732 a 21.588457,21.588456 0 0 1 4.60249,-13.35697 4.0025578,4.0025578 0 0 0 0.11093,-4.72699 c -3.30301,-4.83794 -8.18847,-13.00152 -8.02775,-18.79029 0.0407,-1.67528 0.50033,-3.14454 1.54625,-4.28328 0.0634,-0.0702 0.12903,-0.14036 0.19469,-0.20602 4.75416,-4.98055 13.130557,-1.06175 12.399317,5.78198 a 19.209108,19.209108 0 0 0 0.50259,6.84375 20.97947,20.97947 0 0 0 1.32663,3.66975 6.2211701,6.2211701 0 0 0 6.36607,3.53847 21.943888,21.943887 0 0 1 2.66006,-0.15847 h 27.27309 a 7.6632681,7.6632681 0 0 0 7.24446,-5.20695 7.4346153,7.4346153 0 0 0 0.41202,-2.47217 v -21.21481 a 4.1293356,4.1293356 0 0 1 4.26064,-4.12935 4.0116133,4.0116133 0 0 1 2.85703,1.31985 4.4485441,4.4485441 0 0 1 1.15006,2.97476 2.1869178,2.1869178 0 0 0 2.18918,2.18691 h 12.85437 a 13.857271,13.857271 0 0 1 13.86179,14.06556 z"
   fill="#f3ad55"
   id="path19398"
   style="stroke-width:0.999999" /><path
   d="m 102.16209,219.65293 a 6.5041564,6.5041564 0 0 1 -6.413587,4.87868 c -3.26227,-0.0588 -5.8748,-2.62611 -6.3072,-5.79329 3.93011,-1.06403 9.37477,-1.793 12.720787,0.91461 z"
   fill="#fbdca3"
   id="path19400"
   style="stroke-width:0.999999" /><path
   d="m 115.72959,219.65293 a 6.4996288,6.4996286 0 0 1 -6.41133,4.87868 c -3.26227,-0.0588 -5.88613,-2.62611 -6.3072,-5.79329 3.93011,-1.06403 9.37476,-1.793 12.71853,0.91461 z"
   fill="#fbdca3"
   id="path19402"
   style="stroke-width:0.999999" /><path
   d="m 144.04859,219.65293 a 6.5018924,6.5018924 0 0 1 -6.4136,4.87868 c -3.26226,-0.0588 -5.88611,-2.62611 -6.30493,-5.79329 3.92785,-1.06403 9.3725,-1.793 12.71853,0.91461 z"
   fill="#fbdca3"
   id="path19404"
   style="stroke-width:0.999999" /><path
   d="m 158.79784,219.65293 a 6.5041564,6.5041564 0 0 1 -6.4136,4.87868 c -3.26226,-0.0588 -5.88612,-2.62611 -6.30721,-5.79329 3.93013,-1.06403 9.37478,-1.793 12.72081,0.91461 z"
   fill="#fbdca3"
   id="path19406"
   style="stroke-width:0.999999" /><path
   d="m 100.71095,175.00449 c -4.584377,-1.84053 -10.187517,-5.20695 -14.642847,-8.13642 0.0407,-1.67527 0.50032,-3.14454 1.54624,-4.28327 0.0634,-0.0702 0.12904,-0.14036 0.19469,-0.20602 4.75417,-4.98057 13.130567,-1.06177 12.399327,5.78198 a 19.209108,19.209108 0 0 0 0.50259,6.84373 z"
   fill="#fbdca3"
   id="path19408"
   style="stroke-width:0.999999" /><path
   d="m 106.262,182.095 c 0,0 12.62119,15.88798 33.27918,-0.0407"
   fill="#fbdca3"
   id="path19410"
   style="stroke-width:0.999999" /><path
   d="m 146.01817,152.55576 c 0,0 7.67007,10.02904 0,22.4125"
   fill="#fbdca3"
   id="path19412"
   style="stroke-width:0.999999" /><path
   d="m 164.30814,186.77446 c 0,0 -6.75544,8.39223 -0.0905,15.0526"
   fill="#fbdca3"
   id="path19414"
   style="stroke-width:0.999999" /><path
   d="m 164.89675,185.00409 c -0.50032,0.47089 -0.33053,0.92594 -0.48221,1.61642 l -21.93029,-5.74575 c 1.17948,-0.90555 2.64196,-1.9877 3.12643,-3.42753 2.6261,2.03977 7.824,5.46276 19.28607,7.55686 z"
   opacity="0.1"
   id="path19416"
   style="stroke-width:0.999999" /><path
   d="m 165.43556,184.24795 a 3.4931824,3.4931824 0 0 0 -1.02102,1.78168 l -21.38018,-5.57369 a 7.6315737,7.6315737 0 0 0 2.57179,-3.59958 c 2.63063,2.04202 8.36507,5.2975 19.82941,7.39159 z"
   fill="#383f4d"
   id="path19418"
   style="stroke-width:0.999999" /><path
   d="m 146.40983,178.03584 c 0,0 6.68979,5.03036 17.89831,6.58566"
   opacity="0.1"
   id="path19420"
   style="stroke-width:0.999999" /><path
   d="m 146.40983,177.44723 c 0,0 6.68979,5.03036 17.89831,6.58792"
   fill="#f3ad55"
   id="path19422"
   style="stroke-width:0.999999" /><path
   d="m 163.12866,177.92491 c 0,0 11.20851,3.53846 14.15837,-7.67006 z"
   opacity="0.1"
   id="path19424"
   style="stroke-width:0.999999" /><path
   d="m 163.12866,177.33403 c 0,0 11.20851,3.54073 14.15837,-7.66779 z"
   fill="#fbdca3"
   id="path19426"
   style="stroke-width:0.999999" /><ellipse
   cx="183.18674"
   cy="168.19019"
   rx="1.1794868"
   ry="2.0646677"
   fill="#383f4d"
   id="ellipse19428"
   style="stroke-width:0.999999" /><path
   d="m 93.810613,210.66755 2.35897,-18.87857 c 0,0 -7.08145,11.20851 -2.35897,18.87857"
   opacity="0.1"
   id="path19430"
   style="stroke-width:0.999999" /><path
   d="m 96.753663,191.78898 c 0,0 -7.07918,11.20851 -2.36124,18.87857 z"
   fill="#fbdca3"
   id="path19432"
   style="stroke-width:0.999999" /></svg>
