<?xml version="1.0" encoding="UTF-8" standalone="no"?>
<svg
   xmlns:dc="http://purl.org/dc/elements/1.1/"
   xmlns:cc="http://creativecommons.org/ns#"
   xmlns:rdf="http://www.w3.org/1999/02/22-rdf-syntax-ns#"
   xmlns:svg="http://www.w3.org/2000/svg"
   xmlns="http://www.w3.org/2000/svg"
   xmlns:xlink="http://www.w3.org/1999/xlink"
   xmlns:sodipodi="http://sodipodi.sourceforge.net/DTD/sodipodi-0.dtd"
   xmlns:inkscape="http://www.inkscape.org/namespaces/inkscape"
   version="1.1"
   id="_x34_"
   x="0px"
   y="0px"
   viewBox="0 0 300 300"
   xml:space="preserve"
   sodipodi:docname="youth.svg"
   width="300"
   height="300"
   inkscape:version="1.0.1 (c497b03c, 2020-09-10)"><metadata
   id="metadata882"><rdf:RDF><cc:Work
       rdf:about=""><dc:format>image/svg+xml</dc:format><dc:type
         rdf:resource="http://purl.org/dc/dcmitype/StillImage" /><dc:title /></cc:Work></rdf:RDF></metadata><defs
   id="defs880"><clipPath
     clipPathUnits="userSpaceOnUse"
     id="clipPath900"><rect
       style="fill:#ffe6d5;fill-opacity:0.414925;stroke-width:1"
       id="rect902"
       width="361.06839"
       height="630.4104"
       x="-21.348534"
       y="-20.013029" /></clipPath><linearGradient
     id="5a1f6f01-7714-46af-aba4-b09e98a2a9e8"
     x1="368.48999"
     y1="311.39999"
     x2="368.48999"
     y2="311.39999"
     xlink:href="#8fdda24f-3500-4787-9acd-06391067bf0a"
     gradientTransform="matrix(6.1261027,0,0,6.1261027,-371.01314,-901.40272)" /><linearGradient
     id="8fdda24f-3500-4787-9acd-06391067bf0a"
     x1="373.64999"
     y1="193.72"
     x2="373.64999"
     y2="191.69"
     gradientUnits="userSpaceOnUse"><stop
       offset="0"
       stop-color="gray"
       stop-opacity="0.25"
       id="stop8822" /><stop
       offset="0.54"
       stop-color="gray"
       stop-opacity="0.12"
       id="stop8824" /><stop
       offset="1"
       stop-color="gray"
       stop-opacity="0.1"
       id="stop8826" /></linearGradient><linearGradient
     id="fba3f31e-455c-4283-9b41-fb0bd740b4d7"
     x1="450.66"
     y1="467.97"
     x2="450.66"
     y2="417.39999"
     xlink:href="#8fdda24f-3500-4787-9acd-06391067bf0a"
     gradientTransform="matrix(6.1261027,0,0,6.1261027,-579.03032,-939.74596)" /><linearGradient
     id="03abcd37-863a-4fdf-b76f-be25b3f5f7e8"
     x1="439.35999"
     y1="721.28998"
     x2="439.35999"
     y2="172.56"
     xlink:href="#8fdda24f-3500-4787-9acd-06391067bf0a"
     gradientTransform="translate(-40.580017,-7.4800083)" /><linearGradient
     id="7a137c36-2b0e-489c-9ead-72d7056953bc"
     x1="373.64999"
     y1="192.7"
     x2="373.64999"
     y2="190.66"
     xlink:href="#8fdda24f-3500-4787-9acd-06391067bf0a"
     gradientTransform="matrix(6.1261027,0,0,6.1261027,-579.03032,-939.74596)" /></defs><sodipodi:namedview
   pagecolor="#ffffff"
   bordercolor="#666666"
   borderopacity="1"
   objecttolerance="10"
   gridtolerance="10"
   guidetolerance="10"
   inkscape:pageopacity="0"
   inkscape:pageshadow="2"
   inkscape:window-width="2560"
   inkscape:window-height="1395"
   id="namedview878"
   showgrid="false"
   inkscape:zoom="0.59960938"
   inkscape:cx="125.63211"
   inkscape:cy="381.77867"
   inkscape:window-x="0"
   inkscape:window-y="23"
   inkscape:window-maximized="1"
   inkscape:current-layer="_x34_"
   inkscape:document-rotation="0" />

<g
   opacity="0.05"
   id="g8857"
   transform="matrix(0.16323592,0,0,0.16323592,60.562661,147.14129)"
   style="stroke-width:6.1261"><polygon
     points=""
     fill="url(#5a1f6f01-7714-46af-aba4-b09e98a2a9e8)"
     id="polygon8855"
     style="fill:url(#5a1f6f01-7714-46af-aba4-b09e98a2a9e8);stroke-width:6.1261" /></g><path
   d="m 233.51391,106.59802 c -2.40182,1.99972 -5.06708,3.45148 -7.94927,4.18803 -22.72284,5.80169 -29.35188,-9.07347 -88.28189,2.89462 a 129.50654,74.345552 0 0 1 -13.96779,2.36266 c -33.439628,4.42109 -48.386738,-3.23087 -53.075728,-9.44531 -1.90596,-2.52278 -2.1229,-4.8036 -1.19936,-5.95825 3.48962,-4.341031 0.30991,-11.418341 -6.33153,-31.700221 -6.64144,-20.28188 22.72284,-27.01227 45.557238,-30.19866 14.6341,-2.04064 21.76211,-4.84452 24.9945,-6.59517 a 38.922001,22.343873 0 0 1 13.05044,-4.72888 c 32.85081,-7.03639 48.80514,-0.71165 68.38546,8.25864 4.32329,1.97303 8.82633,4.09196 13.70747,6.20199 25.63292,11.10344 21.66293,50.93599 5.11046,64.720551 z"
   fill="#ff0000"
   opacity="0.27"
   style="isolation:isolate;fill:#0038ff;fill-opacity:1;stroke-width:0.999997;opacity:0.54135338"
   id="path857" /><path
   d="m 259.2718,230.50087 c -2.2024,5.29619 -6.81022,10.07997 -11.75642,14.61044 q -6.5221,5.97488 -13.953,11.54758 -2.05931,1.5469 -4.18436,3.05513 l -0.98421,0.69416 q -1.30906,0.92621 -2.6626,1.83501 l -0.10828,0.0734 q -1.31293,0.89333 -2.64907,1.76927 c -2.91396,1.91428 -5.99422,3.81503 -9.39932,5.38899 -1.16017,0.53755 -2.35709,1.03836 -3.59654,1.48696 q -1.00549,0.36545 -2.0535,0.6845 c -1.1447,0.34806 -2.32035,0.65163 -3.5482,0.90107 -0.20496,0.0426 -0.41185,0.0831 -0.61876,0.12182 -1.25685,0.2359 -2.52917,0.40799 -3.81503,0.52595 -4.71223,0.43119 -9.57916,0.11601 -14.29912,-0.62264 -2.35902,-0.36932 -4.6813,-0.84499 -6.92816,-1.3864 -0.27651,-0.0658 -0.55109,-0.13342 -0.8276,-0.19337 -7.65133,-1.91428 -14.83473,-4.51306 -22.54021,-6.34034 q -3.98326,-0.94554 -8.12121,-1.6049 -2.0187,-0.32098 -4.06061,-0.58009 c -3.204,-0.39832 -6.44862,-0.66516 -9.70677,-0.80051 -4.39318,-0.19337 -8.92946,-0.11022 -13.10994,0.65743 q -0.83534,0.15276 -1.64938,0.34418 -1.03256,0.2417 -2.02644,0.55109 a 36.077494,36.077494 0 0 0 -5.19951,2.14051 c -0.33064,0.16243 -0.65743,0.32678 -0.98421,0.49307 v 0 c -1.02481,0.52208 -2.0361,1.05576 -3.06285,1.57397 a 38.658878,38.658878 0 0 1 -5.75059,2.44023 30.448725,30.448725 0 0 1 -3.302635,0.84306 c -2.95264,0.59169 -6.09477,0.82565 -9.250442,0.84112 -1.521758,0 -3.045452,-0.0329 -4.551744,-0.11214 h -0.04641 c -0.514345,-0.027 -1.030617,-0.058 -1.546899,-0.0967 -2.351278,-0.16049 -4.694829,-0.40799 -7.003575,-0.74638 -7.910445,-1.16018 -15.412889,-3.3529 -21.447721,-6.69807 -8.196617,-4.54014 -13.401928,-11.30974 -12.620741,-18.07355 0.560753,-4.87272 4.0432,-9.39739 7.347756,-13.82732 6.146987,-8.24883 11.905301,-16.68521 14.935288,-25.57793 2.457632,-7.2182 3.190475,-14.85021 8.84632,-21.33751 1.811803,-2.07671 4.128276,-3.97165 6.825673,-5.63263 a 43.583811,43.583811 0 0 1 6.319077,-3.19434 54.618984,54.618984 0 0 1 7.616548,-2.48471 60.619009,60.619009 0 0 1 6.829545,-1.28392 c 1.24912,-0.16243 2.51371,-0.28811 3.78603,-0.37319 q 1.46956,-0.1025 2.95264,-0.12955 h 0.15275 q 0.90687,-0.0173 1.81374,0 a 84.510825,84.510825 0 0 1 13.14862,1.23558 c 2.71867,0.4544 5.41414,1.01129 8.05353,1.62424 q 2.36289,0.54721 4.68323,1.14665 c 0.47181,0.1218 0.94361,0.24556 1.40961,0.37124 11.00617,2.94878 20.68974,7.02098 31.29372,10.36228 0.0542,0.0173 0.10633,0.0348 0.16049,0.0483 v 0 a 65.329308,65.329308 0 0 0 6.62072,1.66291 c 1.64164,0.32872 3.32002,0.61296 5.02741,0.8624 2.61426,0.38672 5.28459,0.69224 7.97425,0.9552 l 0.59363,0.058 c 3.94652,0.38673 7.92783,0.67484 11.79508,1.01129 1.37287,0.11988 2.73414,0.24364 4.07607,0.38672 q 1.27619,0.12763 2.52918,0.27071 c 0.59942,0.0696 1.20078,0.13922 1.80214,0.2127 0.60134,0.0734 1.23751,0.15082 1.85627,0.2301 0.40219,0.0502 0.80245,0.1025 1.20464,0.15856 2.43637,0.32291 4.86692,0.6845 7.27042,1.09829 1.46181,0.25138 2.9159,0.52208 4.35258,0.81406 q 1.56043,0.31711 3.09379,0.66903 1.13697,0.25716 2.2546,0.54141 c 6.05416,1.52176 11.71967,3.51725 16.60207,6.21079 12.67875,6.97844 18.35199,18.45835 14.13864,28.58665 z"
   fill="#869bff"
   opacity="0.1"
   id="path16029"
   style="stroke-width:0.999999" /><circle
   cx="89.296867"
   cy="148.84406"
   r="4.1824212"
   fill="#869bff"
   opacity="0.1"
   id="circle16031"
   style="stroke-width:0.999999" /><circle
   cx="174.78416"
   cy="139.72897"
   r="4.1824212"
   fill="#869bff"
   opacity="0.1"
   id="circle16033"
   style="stroke-width:0.999999" /><circle
   cx="225.47403"
   cy="149.09543"
   r="4.1824212"
   fill="#869bff"
   opacity="0.1"
   id="circle16035"
   style="stroke-width:0.999999" /><circle
   cx="48.161022"
   cy="158.96269"
   r="7.0093751"
   fill="#869bff"
   opacity="0.1"
   id="circle16037"
   style="stroke-width:0.999999" /><circle
   cx="54.880341"
   cy="193.57451"
   r="7.0093751"
   fill="#869bff"
   opacity="0.1"
   id="circle16039"
   style="stroke-width:0.999999" /><circle
   cx="243.00618"
   cy="180.83388"
   r="7.0093751"
   fill="#869bff"
   opacity="0.1"
   id="circle16041"
   style="stroke-width:0.999999" /><path
   d="m 109.66949,181.82778 a 7.5411207,7.5411207 0 0 1 -0.1025,1.75959 c -0.38672,1.79633 -2.02257,3.02998 -3.6062,3.96585 -1.58364,0.93588 -3.3239,1.82147 -4.26557,3.40125 -1.13503,1.90848 -0.77345,4.47439 0.55881,6.25719 1.33228,1.7828 3.44378,2.84436 5.61718,3.28715 3.96392,0.81792 8.3049,-0.33065 11.27687,-3.07639 2.97198,-2.74574 4.4628,-7.03644 3.73383,-11.02163 -1.61265,0.22623 -3.04933,-1.19692 -3.5714,-2.73994 -0.52208,-1.54304 -0.4138,-3.21562 -0.61682,-4.83406 a 1.6590466,1.6590466 0 0 0 -0.23978,-0.77345 c -0.22624,-0.31324 -0.62649,-0.44087 -0.99968,-0.54334 -1.86401,-0.51241 -5.00035,-1.63392 -6.93203,-1.20465 -1.74026,0.39833 -0.88173,4.0606 -0.85273,5.52243 z"
   fill="#be6f72"
   id="path16043"
   style="stroke-width:0.999999" /><path
   d="m 109.66949,181.82778 a 7.5411207,7.5411207 0 0 1 -0.1025,1.75959 c -0.38672,1.79633 -2.02257,3.02998 -3.6062,3.96585 -1.58364,0.93588 -3.3239,1.82147 -4.26557,3.40125 -1.13503,1.90848 -0.77345,4.47439 0.55881,6.25719 1.33228,1.7828 3.44378,2.84436 5.61718,3.28715 3.96392,0.81792 8.3049,-0.33065 11.27687,-3.07639 2.97198,-2.74574 4.4628,-7.03644 3.73383,-11.02163 -1.61265,0.22623 -3.04933,-1.19692 -3.5714,-2.73994 -0.52208,-1.54304 -0.4138,-3.21562 -0.61682,-4.83406 a 1.6590466,1.6590466 0 0 0 -0.23978,-0.77345 c -0.22624,-0.31324 -0.62649,-0.44087 -0.99968,-0.54334 -1.86401,-0.51241 -5.00035,-1.63392 -6.93203,-1.20465 -1.74026,0.39833 -0.88173,4.0606 -0.85273,5.52243 z"
   opacity="0.1"
   id="path16045"
   style="stroke-width:0.999999" /><path
   d="m 107.41682,267.43109 a 38.658878,38.658878 0 0 1 -5.75059,2.44023 30.448725,30.448725 0 0 1 -3.302615,0.84306 20.786422,20.786422 0 0 1 0.2417,-4.44732 c 0.15082,-0.845 0.37318,-1.68226 0.43119,-2.53885 a 6.6593897,6.6593897 0 0 0 -0.76377,-3.5656 c 2.154055,-0.29391 4.199825,-0.77345 6.363555,-0.63229 l 0.13728,0.01 a 2.4131586,2.4131586 0 0 1 0.75411,0.14115 2.0361025,2.0361025 0 0 1 0.81792,0.71932 4.9520026,4.9520026 0 0 1 0.30745,0.47372 c 0.61102,1.05576 0.84306,2.27394 0.89139,3.52887 a 23.470288,23.470288 0 0 1 -0.12762,3.02805 z"
   fill="#be6f72"
   id="path16047"
   style="stroke-width:0.999999" /><path
   d="m 118.69177,262.67052 q -1.03255,0.2417 -2.02644,0.55108 a 36.077494,36.077494 0 0 0 -5.1995,2.14052 7.6745405,7.6745405 0 0 1 -0.15856,-1.60104 8.9410621,8.9410621 0 0 1 6.83535,-1.40574 0.90300087,0.90300087 0 0 1 0.43313,0.17403 0.58008621,0.58008621 0 0 1 0.11602,0.14115 z"
   fill="#be6f72"
   id="path16049"
   style="stroke-width:0.999999" /><path
   d="m 122.01567,252.9096 c -0.13149,1.26459 -0.32486,2.53304 -0.77345,3.72222 -0.48534,1.27619 -1.27426,2.51371 -1.17372,3.87691 0.0445,0.59168 0.24558,1.23365 0.27458,1.81954 q -0.83533,0.15275 -1.64937,0.34418 -1.03256,0.24171 -2.02644,0.55108 a 36.077494,36.077494 0 0 0 -5.19951,2.14052 c -0.33064,0.16243 -0.65743,0.32679 -0.98421,0.49308 v 0 c -0.13536,-0.0175 -0.26878,-0.0386 -0.40413,-0.0639 -0.9668,-0.17596 -1.98389,-0.60909 -2.5311,-1.38253 a 2.2197966,2.2197966 0 0 1 -0.29199,-0.58009 c -0.31517,-0.94168 0.0135,-2.11538 -0.64195,-2.86176 l -0.031,0.027 -0.0232,0.0154 a 6.4950319,6.4950319 0 0 1 -1.17564,0.84692 v 0 a 7.8795043,7.8795043 0 0 1 -6.380955,0.6149 6.9919725,6.9919725 0 0 1 -1.19691,-0.53755 c -0.8856,-0.50468 -1.74026,-1.35353 -1.67065,-2.36676 0.0386,-0.56461 0.36158,-1.10602 0.27457,-1.66484 -0.0638,-0.40026 -0.32678,-0.73284 -0.52401,-1.0867 -1.29358,-2.32034 0.24944,-5.30391 -0.56268,-7.82536 -0.0194,-0.0599 -0.0407,-0.11989 -0.0618,-0.17789 -0.0599,-0.16436 -0.12762,-0.32291 -0.19337,-0.48147 -0.16629,-0.36933 -0.35192,-0.73285 -0.49886,-1.11183 a 6.4737621,6.4737621 0 0 1 -0.29005,-0.98035 12.270757,12.270757 0 0 1 -0.19337,-2.94297 c 0,-2.59685 0.46408,-5.25558 1.12537,-7.75768 0.11796,-0.44474 0.24944,-1.07316 0.42347,-1.75767 v 0 a 13.458,13.458 0 0 1 0.6845,-2.11152 c 0.38672,-0.88945 0.91267,-1.59909 1.63197,-1.76732 1.08284,-0.2533 2.738015,0.28231 3.836305,0.41379 l 4.34099,0.51821 8.68002,1.03835 c 1.49855,0.17983 3.07252,0.38673 4.3081,1.22979 0.0812,0.0561 0.16049,0.11408 0.23978,0.17596 a 4.8997948,4.8997948 0 0 1 0.87013,0.8856 c 0.089,0.11408 0.17402,0.23396 0.25524,0.35578 a 8.0477294,8.0477294 0 0 1 0.71544,1.36514 c 1.07702,2.58718 1.10215,5.47408 1.10989,8.2759 0,2.92363 0.01,5.84534 -0.29197,8.7477 z"
   fill="#3f3d56"
   id="path16051"
   style="stroke-width:0.999999" /><path
   d="m 105.37492,261.87 c -0.26103,-1.00549 -0.81212,-2.4615 -0.89333,-2.85789 a 36.263123,36.263123 0 0 1 -0.59169,-4.0258 c -0.21463,-2.40929 -0.60136,-5.80086 0.24944,-8.0922 0.79858,0.42539 1.50049,1.63004 1.86982,2.45183 1.33806,2.97971 -0.16823,6.63811 1.08862,9.65264 a 1.5894363,1.5894363 0 0 1 0.17209,0.58008 1.4038086,1.4038086 0 0 1 -0.26684,0.71157 l -0.42346,0.70384 z"
   opacity="0.1"
   id="path16053"
   style="stroke-width:0.999999" /><path
   d="m 133.22293,169.87993 c 1.42314,-2.32035 3.37223,-4.60201 3.25041,-7.31489 -0.0445,-0.9668 -0.36158,-1.91235 -0.60329,-2.85982 a 18.245645,18.245645 0 0 1 -0.13342,-8.37064 9.4534716,9.4534716 0 0 1 6.83729,1.53142 c 0.63229,0.437 1.23171,0.98034 1.51015,1.69772 0.25718,0.66129 0.21464,1.39801 0.16823,2.10571 -0.10633,1.62618 -0.25136,3.36063 -1.25299,4.6407 -0.31131,0.40025 -0.69417,0.73863 -0.99774,1.14276 -0.4428,0.58009 -0.70191,1.28779 -0.95521,1.9781 l -3.28715,8.94299 c -1.65906,4.50727 -3.45732,9.22144 -7.11187,12.34037 -0.089,0.0755 -2.70706,-3.64295 -2.92363,-4.01613 -0.87593,-1.5295 -0.49307,-2.17533 0.56655,-3.45538 2.09025,-2.53111 3.22528,-5.5843 4.93267,-8.36291 z"
   fill="#be6f72"
   id="path16055"
   style="stroke-width:0.999999" /><path
   d="m 95.552125,246.10519 a 14.85214,14.85214 0 0 1 -0.16823,1.99356 c -0.0348,0.24364 -0.0754,0.48534 -0.12375,0.72704 -0.65936,3.44185 -2.30101,6.71547 -3.44958,10.06837 -1.51403,4.42606 -2.179188,8.26623 -2.707072,12.66135 -1.521758,0 -3.045452,-0.0329 -4.551744,-0.11215 h -0.04641 c -0.514345,-0.027 -1.030617,-0.058 -1.546899,-0.0966 0.466011,-4.09929 -0.386724,-8.39965 0.446671,-12.5028 0.336454,-1.65131 0.910734,-3.25429 1.256853,-4.89786 a 13.865994,13.865994 0 0 0 0.241701,-1.46569 c 0.04832,-0.46793 0.07344,-0.95327 0.284245,-1.37481 a 1.0132172,1.0132172 0 0 1 0.06578,-0.11794 3.3122922,3.3122922 0 0 1 0.680635,-0.77345 16.98299,16.98299 0 0 1 8.32617,-3.96972 c 0.43893,-0.0599 0.86627,-0.11022 1.29166,-0.13923 z"
   fill="#fbbebe"
   id="path16057"
   style="stroke-width:0.999999" /><path
   d="m 95.552125,246.10519 a 14.85214,14.85214 0 0 1 -0.16823,1.99356 c -0.0348,0.24364 -0.0754,0.48534 -0.12375,0.72704 -0.65936,3.44185 -2.30101,6.71547 -3.44958,10.06837 -1.51403,4.42606 -2.179188,8.26623 -2.707072,12.66135 -1.521758,0 -3.045452,-0.0329 -4.551744,-0.11215 h -0.04641 c -0.514345,-0.027 -1.030617,-0.058 -1.546899,-0.0966 0.466011,-4.09929 -0.386724,-8.39965 0.446671,-12.5028 0.336454,-1.65131 0.910734,-3.25429 1.256853,-4.89786 a 13.865994,13.865994 0 0 0 0.241701,-1.46569 c 0.04832,-0.46793 0.07344,-0.95327 0.284245,-1.37481 a 1.0132172,1.0132172 0 0 1 0.06578,-0.11794 3.3122922,3.3122922 0 0 1 0.680635,-0.77345 16.98299,16.98299 0 0 1 8.32617,-3.96972 c 0.43893,-0.0599 0.86627,-0.11022 1.29166,-0.13923 z"
   opacity="0.1"
   id="path16059"
   style="stroke-width:0.999999" /><path
   d="m 85.748665,254.9167 a 30.299836,30.299836 0 0 1 -0.264905,3.21175 c -0.516282,4.35257 -0.61296,8.89465 -0.966817,13.31298 -0.514344,-0.027 -1.030616,-0.058 -1.546898,-0.0967 -2.351278,-0.16049 -4.694829,-0.40799 -7.003564,-0.74638 q 0.266831,-1.49276 0.537538,-2.98551 c 0.220435,-1.22012 0.44087,-2.45183 0.377059,-3.68935 -0.05992,-1.16984 -0.373185,-2.30874 -0.622625,-3.45538 -0.531747,-2.4557 -0.829521,-5.10476 -1.705449,-7.42123 a 9.6681035,9.6681035 0 0 0 -2.138593,-3.48053 c 3.623607,-1.42314 7.106055,-1.50435 10.998441,-1.35353 a 1.3941405,1.3941405 0 0 1 0.788915,0.19336 1.3341983,1.3341983 0 0 1 0.396389,0.59942 14.999096,14.999096 0 0 1 1.088626,4.41252 14.473151,14.473151 0 0 1 0.06184,1.49857 z"
   fill="#fbbebe"
   id="path16061"
   style="stroke-width:0.999999" /><circle
   cx="114.93668"
   cy="173.28889"
   r="7.5411205"
   fill="#be6f72"
   id="circle16063"
   style="stroke-width:0.999999" /><path
   d="m 116.50484,190.91386 c 0.96681,-1.64938 1.81374,-3.70868 3.67388,-4.16696 1.04996,-0.26104 2.14246,0.0947 3.16534,0.44474 a 1.5468966,1.5468966 0 0 1 0.77344,0.4486 1.5198258,1.5198258 0 0 1 0.23398,0.80051 52.412723,52.412723 0 0 1 -0.0329,10.2482 c -0.24558,2.41122 -0.65937,4.81085 -0.73284,7.23367 -0.1025,3.3587 0.45052,6.7174 0.26877,10.07223 -0.13729,2.54271 -0.69418,5.04095 -1.24719,7.52565 l -2.32035,10.40288 a 1.7731302,1.7731302 0 0 1 -0.37319,0.8798 1.7402586,1.7402586 0 0 1 -0.68449,0.38672 25.477386,25.477386 0 0 1 -20.618205,-1.61457 c -0.83726,-0.4602 -1.67258,-0.99195 -2.21787,-1.777 -0.77344,-1.11377 -0.84499,-2.58718 -0.59362,-3.92138 0.25137,-1.3342 0.79472,-2.59299 1.16017,-3.90205 0.56462,-2.0303 0.69804,-4.14954 0.82566,-6.25333 0.17016,-2.76895 0.34032,-5.55529 0.0445,-8.31456 -0.20302,-1.90076 -0.62649,-3.7725 -0.94554,-5.65777 a 62.403741,62.403741 0 0 1 -0.81598,-8.59108 c -0.0483,-1.71899 0.031,-3.62748 1.22011,-4.86692 0.58009,-0.6033 1.35354,-0.96682 2.14052,-1.26073 1.320665,-0.48727 2.796015,-0.77345 4.130215,-0.32872 1.3342,0.44474 2.4093,1.84468 2.09411,3.21562 -0.14502,0.63615 -0.55688,1.19304 -0.65743,1.83887 -0.13342,0.85466 0.31905,1.71513 0.96682,2.29327 3.48438,3.14794 8.80376,-2.15018 10.54209,-5.13569 z"
   fill="#e3e8f4"
   id="path16065"
   style="stroke-width:0.999999" /><path
   d="m 116.78135,183.20837 a 5.7022475,5.7022475 0 0 1 3.30456,-0.19335 c 0.69803,0.16629 1.45215,0.4602 2.09605,0.14888 0.23396,-0.11214 0.42733,-0.29584 0.66323,-0.40026 0.63809,-0.28037 1.46568,0.0638 2.0303,-0.34418 0.35578,-0.25717 0.4718,-0.72511 0.59168,-1.1505 a 10.315866,10.315866 0 0 1 3.40897,-5.16664 c -0.20302,1.48309 -0.34998,3.17114 0.63037,4.30424 0.44667,0.51435 1.07316,0.83726 1.70738,1.08863 0.91074,0.36159 1.91042,0.60135 2.87143,0.40412 0.96101,-0.19722 1.86015,-0.92426 2.0129,-1.89301 -0.0329,1.45602 -1.41927,2.47311 -1.80793,3.87884 -0.14696,0.52595 -0.13342,1.08477 -0.2359,1.62231 -0.26104,1.37288 -1.24139,2.47504 -2.09799,3.58107 a 25.477386,25.477386 0 0 0 -5.06608,12.22435 5.8975431,5.8975431 0 0 1 -0.32871,1.5469 9.7280457,9.7280457 0 0 1 -0.64197,1.10603 c -1.41734,2.39382 -0.98034,5.41413 -0.49888,8.14827 0.75219,4.28297 1.50243,8.47893 2.72062,12.65362 0.20883,0.7135 0.44473,1.45795 0.97648,1.97809 -0.16823,1.68805 -1.87175,2.45763 -3.40319,3.18661 a 16.694881,16.694881 0 0 0 -4.13794,2.80182 c -0.44087,0.40605 -0.87593,0.86239 -1.03643,1.44054 -0.15081,0.54335 -0.0426,1.14083 -0.2359,1.66872 -0.19335,0.52787 -0.9668,0.90687 -1.30712,0.46213 -0.42539,-1.59136 0.30165,-3.25622 0.26877,-4.90366 -0.0232,-1.11183 -0.38672,-2.19273 -0.43893,-3.30455 -0.0502,-1.25879 0.32099,-2.49438 0.71544,-3.68936 1.0983,-3.32776 2.42476,-6.62458 2.80568,-10.10704 0.38093,-3.48244 -0.33065,-7.28588 -2.80181,-9.77058 -2.93331,-2.9623 -4.56141,-6.97843 -7.70547,-9.69903 -0.49888,-0.43121 -1.0635,-0.96682 -0.98036,-1.62039 a 1.8040681,1.8040681 0 0 1 0.36932,-0.78505 c 1.07896,-1.52368 2.51372,-2.76701 3.67389,-4.22495 1.16016,-1.45795 2.08831,-3.13633 1.87754,-4.99262 z"
   fill="#3f3d56"
   id="path16067"
   style="stroke-width:0.999999" /><path
   d="m 106.45775,186.32731 c -0.19336,0.19336 -0.32679,0.4602 -0.55108,0.62649 a 1.8176034,1.8176034 0 0 1 -0.86819,0.26878 28.070372,28.070372 0 0 1 -3.43606,0.30744 c -0.9668,0 -1.970355,-0.085 -2.900425,0.17983 -1.29746,0.36738 -2.33388,1.39221 -2.98358,2.57171 -0.6497,1.17951 -0.95714,2.5137 -1.20657,3.8421 a 51.382102,51.382102 0 0 0 -0.87981,8.87339 23.336868,23.336868 0 0 0 4.22497,-4.38545 c 0.92814,-1.25879 1.76926,-2.65099 3.093785,-3.49211 0.6091,-0.38673 1.2936,-0.64197 1.90656,-1.01903 1.27812,-0.78698 2.16372,-2.0593 3.01451,-3.28715 0.6265,-0.91074 2.4383,-2.68967 2.58139,-3.78023 0.12182,-1.04222 -1.31874,-1.55077 -1.9955,-0.70577 z"
   fill="#3f3d56"
   id="path16069"
   style="stroke-width:0.999999" /><path
   d="m 113.19449,168.12614 a 6.1141087,6.1141087 0 0 1 0.68449,0.4776 c 1.31294,0.91653 3.0706,0.74638 4.6581,0.53755 0.48727,-0.0618 0.98807,-0.13149 1.40574,-0.38673 0.67097,-0.41379 0.98615,-1.26459 0.92041,-2.05156 -0.0658,-0.78699 -0.46214,-1.5121 -0.94555,-2.127 a 7.651337,7.651337 0 0 0 -5.28845,-2.88496 3.4031724,3.4031724 0 0 0 -1.58363,0.16823 c -0.62456,0.25718 -1.09444,0.78699 -1.67066,1.14084 -1.69964,1.04416 -4.31777,0.58008 -5.41413,2.24686 -0.80245,1.22979 -0.2301,2.90043 -0.6091,4.31391 -0.2823,1.05576 -1.09635,2.01677 -0.93973,3.0938 0.087,0.58008 0.45053,1.08669 0.74058,1.6049 a 7.0925207,7.0925207 0 0 1 0.88753,3.91172 c 0.74444,0.52594 1.7828,-0.29198 1.98969,-1.17758 0.2069,-0.8856 -0.031,-1.8292 0.14502,-2.72253 0.31132,-1.56818 1.69579,-2.71868 2.32035,-4.1573 0.4486,-1.03061 1.17951,-2.77087 2.69934,-1.98775 z"
   fill="#3f3d56"
   id="path16071"
   style="stroke-width:0.999999" /><path
   d="m 94.910165,185.29088 c -0.058,0.35192 -0.0947,0.74058 0.10059,1.03836 0.38672,0.58009 1.27233,0.37126 1.96843,0.45827 1.08476,0.13342 1.88527,1.16017 2.09604,2.23913 0.21076,1.07897 -0.0405,2.17726 -0.31518,3.23689 q -0.932,3.60233 -2.2198,7.10218 c -2.30874,-0.27264 -4.7393,-1.16017 -5.96522,-3.13053 -1.11377,-1.79246 -0.999688,-4.07607 -1.70739,-6.06384 -0.496942,-1.39994 -1.388336,-2.61812 -2.270066,-3.8131 1.417341,0.1779 2.430554,-1.44248 2.513704,-2.86948 0.08313,-1.42702 -0.365458,-2.8753 -0.05993,-4.26944 0.07153,-0.33065 5.657772,0.71158 6.201122,1.08862 1.5701,1.08863 -0.0947,3.47086 -0.34224,4.98294 z"
   fill="#fbbebe"
   id="path16073"
   style="stroke-width:0.999999" /><path
   d="m 94.910165,185.29088 c -0.058,0.35192 -0.0947,0.74058 0.10059,1.03836 0.38672,0.58009 1.27233,0.37126 1.96843,0.45827 1.08476,0.13342 1.88527,1.16017 2.09604,2.23913 0.21076,1.07897 -0.0405,2.17726 -0.31518,3.23689 q -0.932,3.60233 -2.2198,7.10218 c -2.30874,-0.27264 -4.7393,-1.16017 -5.96522,-3.13053 -1.11377,-1.79246 -0.999688,-4.07607 -1.70739,-6.06384 -0.496942,-1.39994 -1.388336,-2.61812 -2.270066,-3.8131 1.417341,0.1779 2.430554,-1.44248 2.513704,-2.86948 0.08313,-1.42702 -0.365458,-2.8753 -0.05993,-4.26944 0.07153,-0.33065 5.657772,0.71158 6.201122,1.08862 1.5701,1.08863 -0.0947,3.47086 -0.34224,4.98294 z"
   opacity="0.1"
   id="path16075"
   style="stroke-width:0.999999" /><circle
   cx="93.666855"
   cy="175.41588"
   r="7.5411205"
   fill="#fbbebe"
   id="circle16077"
   style="stroke-width:0.999999" /><path
   d="m 91.344565,184.20806 c 0.27457,-0.42926 -0.19337,-1.02869 0.0213,-1.49082 0.12762,-0.27844 0.45053,-0.39832 0.69997,-0.58009 a 2.6084544,2.6084544 0 0 0 0.72897,-0.94554 10.9907,10.9907 0 0 0 1.00549,-7.33809 c -0.17789,-0.83532 -0.33645,-1.94522 0.42733,-2.32035 a 1.386406,1.386406 0 0 1 0.67484,-0.11602 c 1.37673,0.0445 2.70707,0.96682 4.0432,0.64003 a 2.3203448,2.3203448 0 0 0 1.701585,-2.0245 c 0.087,-1.24911 -0.848865,-2.32033 -1.769265,-3.16147 -1.65711,-1.52368 -4.18242,-1.86207 -6.43316,-1.89881 l -4.186288,-0.0696 c -1.340002,-0.0232 -2.84243,0.0194 -3.774431,0.98035 -1.341928,1.38253 -0.667095,3.64487 -0.860463,5.56109 a 5.8008621,5.8008621 0 0 1 -2.126979,3.89624 c -0.868201,0.69224 -2.06317,1.35354 -2.047704,2.45957 0,0.38673 0.166289,0.73865 0.272643,1.1041 0.42732,1.44635 0.01937,3.04546 -0.800527,4.31197 -0.819857,1.26653 -2.0187,2.24107 -3.262013,3.0938 -0.665169,0.4544 -1.353541,0.89139 -1.879477,1.50822 a 4.4473276,4.4473276 0 0 0 -0.980345,2.50017 3.2871552,3.2871552 0 0 0 0.409928,2.01676 c 0.817919,1.30714 2.780536,1.49856 4.124413,0.74059 1.343866,-0.75799 2.163712,-2.19273 2.707061,-3.63521 0.324852,-0.85659 0.655504,-1.83695 1.486952,-2.22173 1.051893,-0.48921 2.281678,0.28424 2.966176,1.22204 0.684509,0.93781 1.106039,2.08251 1.981967,2.84436 1.372871,1.19498 3.708687,1.00162 4.868857,-0.40219 0.82952,-1.00741 1.01321,-2.40156 0.96681,-3.70675 a 5.4006026,5.4006026 0 0 0 -0.96681,-2.96811 z"
   fill="#3f3d56"
   id="path16079"
   style="stroke-width:0.999999" /><path
   d="m 94.051635,194.03665 c -0.86046,0.18369 -1.7596,-0.22236 -2.39963,-0.82952 -0.64003,-0.60716 -1.07123,-1.39027 -1.51982,-2.14826 a 37.821621,37.821621 0 0 0 -3.896253,-5.40253 c -1.268454,-1.46375 -3.03385,-2.9507 -4.917191,-2.49824 a 4.6658267,4.6658267 0 0 0 -1.717062,0.91847 12.51826,12.51826 0 0 0 -4.673553,11.17246 c 0.14695,1.23172 0.481466,2.43637 0.620688,3.67388 a 23.549566,23.549566 0 0 1 0.08121,3.06866 c -0.05226,3.117 -0.158562,6.41381 -1.838871,9.03967 -2.604592,4.06061 -3.998729,8.91013 -5.911086,13.34199 -1.032553,2.39575 -1.651304,4.9462 -2.258463,7.48311 q -0.539486,2.25847 -1.077024,4.515 l -2.339687,9.84213 c -0.241702,1.01515 -0.483403,2.07865 -0.228163,3.0938 0.386725,1.51596 1.811804,2.57558 3.314221,3.00678 1.502428,0.4312 3.093797,0.35772 4.654223,0.37125 2.985516,0.0291 5.994226,0.40026 8.79605,1.43668 0.800516,0.29585 1.599095,0.6497 2.45182,0.71931 0.852736,0.0696 1.701586,-0.15276 2.500176,-0.46213 2.179188,-0.84306 4.047064,-2.32035 6.054172,-3.51339 a 23.924689,23.924689 0 0 1 3.944593,-1.90848 c 0.68836,-0.25718 1.42701,-0.50082 1.90074,-1.0635 0.35772,-0.42347 0.51821,-0.97648 0.63617,-1.51789 0.65356,-3.04739 0.21463,-6.20499 0,-9.31425 -0.21464,-3.10926 -2.07285,-6.39449 -0.53561,-9.10542 0.30937,-0.54722 0.67869,-1.07316 0.83726,-1.68032 0.20882,-0.79278 0.0329,-1.64551 0.20882,-2.44603 0.12956,-0.59169 0.44087,-1.12343 0.65357,-1.68999 0.37125,-0.99775 0.42153,-2.08443 0.41766,-3.14987 a 34.56347,34.56347 0 0 0 -0.73478,-6.96103 c -0.60908,-2.90043 1.40574,-5.76799 2.56011,-8.50793 0.413815,-0.98034 0.999695,-1.90654 1.171785,-2.9565 0.15469,-0.94748 -0.0445,-1.91236 -0.19336,-2.86176 a 25.040388,25.040388 0 0 1 -0.2707,-4.44733 c 0.0367,-1.3342 0.17789,-2.69353 -0.14116,-3.99099 -0.319055,-1.29747 -1.229795,-2.55625 -2.538855,-2.82309 a 1.0364207,1.0364207 0 0 0 -0.87399,0.13729 1.1311681,1.1311681 0 0 0 -0.30745,0.54141 c -0.42539,1.30326 -0.34225,2.70707 -0.58008,4.0606 -0.23784,1.35354 -0.51628,2.56979 -1.85048,2.85596 z"
   fill="#f86d70"
   id="path16081"
   style="stroke-width:0.999999" /><path
   d="m 75.804055,202.34156 c 0.0793,-0.53562 -0.170164,-1.24719 -0.711576,-1.22786 -0.498869,0.0194 -0.721241,0.6439 -0.719304,1.14471 0.0021,0.5008 0.06961,1.0751 -0.284245,1.42702 -0.31325,0.31131 -0.831458,0.30163 -1.194979,0.55494 a 0.98227931,0.98227931 0 0 0 -0.411855,0.80632 c 0,0.26877 0.121809,0.52594 0.129547,0.79472 0.0075,0.26877 -0.172091,0.58008 -0.438933,0.56268 a 1.2123802,1.2123802 0 0 0 0.175965,1.46956 c 0.139222,0.13535 0.320977,0.25136 0.367384,0.44086 a 1.0634914,1.0634914 0 0 1 -0.03097,0.39639 c -0.08121,0.53174 0.286182,1.1273 0.821793,1.18531 -0.29971,0.21464 -0.239775,0.71738 0.03481,0.96681 0.27457,0.24944 0.669032,0.29778 1.038354,0.29778 a 6.311338,6.311338 0 0 0 2.438293,-0.50468 1.4540828,1.4540828 0 0 0 0.672906,-0.46406 0.58008621,0.58008621 0 0 0 -0.05609,-0.75025 c 0.375123,0.0618 0.825658,0.0967 1.071233,-0.19336 0.342244,-0.40606 -0.02512,-1.00742 -0.386724,-1.39994 a 0.77344828,0.77344828 0 0 0 0.359646,-1.37674 c -0.123746,-0.0909 -0.291972,-0.17016 -0.309375,-0.32291 -0.01735,-0.15276 0.112144,-0.25138 0.16629,-0.38673 0.123756,-0.30358 -0.158552,-0.61296 -0.431195,-0.79665 -0.645829,-0.42927 -1.59717,-0.42153 -2.171461,-0.85466 -0.57428,-0.43313 -0.212697,-1.18918 -0.129547,-1.76926 z"
   fill="#be6f72"
   id="path16083"
   style="stroke-width:0.999999" /><path
   d="m 115.69465,173.0008 a 9.1537603,9.1537603 0 0 1 -1.4096,0.0329 0.30744569,0.30744569 0 0 0 -0.33838,0.26685 l -0.89914,6.74446 a 2.7380069,2.7380069 0 0 1 -0.58009,1.33614 2.9120328,2.9120328 0 0 0 -0.65549,2.22559 v 11.4567 c 0,0 -0.058,1.52756 1.11569,1.52756 a 16.967521,16.967521 0 0 0 4.23077,0 c 0,0 0.93974,-0.17789 0.93974,-1.58749 v -11.28075 a 2.7592767,2.7592767 0 0 0 -0.58009,-2.243 2.8076173,2.8076173 0 0 1 -0.56268,-1.3284 l -0.93394,-6.88562 a 0.30744569,0.30744569 0 0 0 -0.32679,-0.2649 z"
   fill="#3f3d56"
   id="path16085"
   style="stroke-width:0.999999" /><path
   d="m 115.69465,173.0008 a 9.1537603,9.1537603 0 0 1 -1.4096,0.0329 0.30744569,0.30744569 0 0 0 -0.33838,0.26685 l -0.89914,6.74446 a 2.7380069,2.7380069 0 0 1 -0.58009,1.33614 2.9120328,2.9120328 0 0 0 -0.65549,2.22559 v 11.4567 c 0,0 -0.058,1.52756 1.11569,1.52756 a 16.967521,16.967521 0 0 0 4.23077,0 c 0,0 0.93974,-0.17789 0.93974,-1.58749 v -11.28075 a 2.7592767,2.7592767 0 0 0 -0.58009,-2.243 2.8076173,2.8076173 0 0 1 -0.56268,-1.3284 l -0.93394,-6.88562 a 0.30744569,0.30744569 0 0 0 -0.32679,-0.2649 z"
   opacity="0.1"
   id="path16087"
   style="stroke-width:0.999999" /><rect
   x="112.13872"
   y="183.81166"
   width="5.69838"
   height="9.6352329"
   rx="11.05"
   fill="#869bff"
   id="rect16089"
   ry="11.05"
   style="stroke-width:0.999999" /><path
   d="m 134.85104,143.85726 a 8.9101242,8.9101242 0 0 1 -1.28779,0.58008 0.30937931,0.30937931 0 0 0 -0.21077,0.37513 l 1.76733,6.57431 a 2.7302724,2.7302724 0 0 1 -0.0154,1.45409 2.900431,2.900431 0 0 0 0.25136,2.30681 l 4.41252,10.57303 c 0,0 0.53369,1.43088 1.61845,0.97841 a 16.847637,16.847637 0 0 0 3.90591,-1.63584 c 0,0 0.79858,-0.52594 0.25717,-1.82534 l -4.34485,-10.41061 a 2.7670112,2.7670112 0 0 0 -1.398,-1.84854 2.8134181,2.8134181 0 0 1 -1.03062,-1.00742 l -3.51339,-5.99423 a 0.30937931,0.30937931 0 0 0 -0.41186,-0.11988 z"
   fill="#3f3d56"
   id="path16091"
   style="stroke-width:0.999999" /><rect
   x="65.497467"
   y="195.50745"
   width="5.6983805"
   height="9.635232"
   rx="11.05"
   transform="rotate(-22.649999)"
   fill="#869bff"
   id="rect16093"
   ry="11.05"
   style="stroke-width:0.999999" /><path
   d="m 80.587825,184.40723 c -2.078635,0.85659 -2.900429,3.52111 -2.413152,5.71384 0.487267,2.19273 1.95489,4.02 3.38577,5.75833 l 4.010331,4.89206 c 1.107965,1.35353 2.320337,2.77861 4.010321,3.25041 2.47117,0.69031 4.94235,-0.88367 7.07899,-2.30681 a 106.63918,106.63918 0 0 1 20.333965,-10.5885 c 0.69803,-0.27071 1.41347,-0.54529 1.98777,-1.02869 1.1911,-1.00161 1.52562,-2.84822 0.86238,-4.25396 -0.66323,-1.40575 -2.20819,-2.32035 -3.76475,-2.33195 -1.55656,-0.0116 -3.07059,0.81212 -4.00647,2.05737 -0.44666,0.59362 -0.77345,1.27233 -1.20464,1.87561 -1.09056,1.51596 -2.79215,2.45377 -4.45699,3.30069 a 113.82258,113.82258 0 0 1 -12.375185,5.41414 c -0.77345,0.2823 -1.64552,0.55108 -2.37449,0.17789 -0.44667,-0.2301 -0.74832,-0.66516 -1.01902,-1.09056 a 27.082292,27.082292 0 0 1 -2.919771,-6.22239 c -0.527873,-1.64358 -0.955204,-3.43412 -2.223658,-4.60202 -1.798265,-1.65518 -5.054487,-1.25879 -6.402217,0.77345 0,0 -1.579766,2.31067 -0.61296,3.27749 0.966806,0.96681 2.103776,-4.0664 2.103776,-4.0664 z"
   fill="#fbbebe"
   id="path16095"
   style="stroke-width:0.999999" /><path
   d="m 189.03302,176.4059 c 0.28231,0.75218 0.29005,1.5759 0.24944,2.37835 -0.0502,0.97842 -0.29585,2.12699 -1.20464,2.50018 -0.5917,0.23783 -1.3226,0.058 -1.84855,0.41766 -0.63809,0.43312 -0.60716,1.36514 -0.50854,2.12698 0.27264,2.09411 0.58009,4.26556 1.72092,6.03676 0.61296,0.94941 1.44249,1.74027 2.28361,2.49631 1.67644,1.51209 3.51532,2.98937 5.71772,3.49405 a 2.3918888,2.3918888 0 0 0 1.10216,0.0464 2.2816724,2.2816724 0 0 0 0.95328,-0.58009 c 1.27618,-1.17177 1.93361,-2.84436 2.78441,-4.36032 0.60136,-1.08476 1.31872,-2.12698 1.65711,-3.32195 a 5.8008621,5.8008621 0 0 0 -1.77507,-5.85307 c -0.37705,-0.32292 -0.79471,-0.59362 -1.16017,-0.92814 -0.9552,-0.86626 -1.51208,-2.10959 -1.74026,-3.37804 -0.22816,-1.26845 -0.19335,-2.57365 -0.0831,-3.86723 -1.93362,-0.1489 -3.8537,0.085 -5.74092,0.46213 -0.83919,0.16822 -2.02063,0.24557 -2.78054,0.64583 -0.85466,0.4544 0.13922,1.03642 0.37318,1.68418 z"
   fill="#fbbebe"
   id="path16097"
   style="stroke-width:0.999999" /><path
   d="m 189.03302,176.4059 c 0.28231,0.75218 0.29005,1.5759 0.24944,2.37835 -0.0502,0.97842 -0.29585,2.12699 -1.20464,2.50018 -0.5917,0.23783 -1.3226,0.058 -1.84855,0.41766 -0.63809,0.43312 -0.60716,1.36514 -0.50854,2.12698 0.27264,2.09411 0.58009,4.26556 1.72092,6.03676 0.61296,0.94941 1.44249,1.74027 2.28361,2.49631 1.67644,1.51209 3.51532,2.98937 5.71772,3.49405 a 2.3918888,2.3918888 0 0 0 1.10216,0.0464 2.2816724,2.2816724 0 0 0 0.95328,-0.58009 c 1.27618,-1.17177 1.93361,-2.84436 2.78441,-4.36032 0.60136,-1.08476 1.31872,-2.12698 1.65711,-3.32195 a 5.8008621,5.8008621 0 0 0 -1.77507,-5.85307 c -0.37705,-0.32292 -0.79471,-0.59362 -1.16017,-0.92814 -0.9552,-0.86626 -1.51208,-2.10959 -1.74026,-3.37804 -0.22816,-1.26845 -0.19335,-2.57365 -0.0831,-3.86723 -1.93362,-0.1489 -3.8537,0.085 -5.74092,0.46213 -0.83919,0.16822 -2.02063,0.24557 -2.78054,0.64583 -0.85466,0.4544 0.13922,1.03642 0.37318,1.68418 z"
   opacity="0.1"
   id="path16099"
   style="stroke-width:0.999999" /><path
   d="m 178.24341,182.09654 c -3.14019,-1.07702 -4.64068,-5.28458 -7.92783,-5.75638 -0.51821,-0.0754 -1.04996,-0.0464 -1.5585,-0.16629 -1.89302,-0.4486 -2.70708,-2.63746 -3.25429,-4.50341 -1.84467,-6.22045 -4.25396,-12.30749 -7.67647,-17.82218 -1.44442,-2.32035 -3.72802,-4.22689 -4.77024,-6.76767 -0.23978,-0.58009 -0.3616,-1.24139 -0.79279,-1.69965 -0.4312,-0.45828 -1.35353,-0.52401 -1.58751,0.0599 a 1.3535345,1.3535345 0 0 0 -0.0426,0.64003 l 0.22623,2.40736 -3.93299,-0.35385 a 2.2971414,2.2971414 0 0 0 -1.08862,0.0774 1.8466077,1.8466077 0 0 0 -0.85659,0.89139 c -1.33034,2.50018 0.087,5.77573 2.43443,7.35743 2.74186,1.84661 6.65744,2.12698 8.47892,4.8824 1.08283,1.6397 1.10409,3.74929 1.81761,5.58042 0.34031,0.87593 0.83724,1.68032 1.23364,2.52918 0.75605,1.61844 1.14278,3.37803 1.72866,5.06415 0.83919,2.41123 2.08251,4.65809 3.32196,6.89142 0.95521,1.72479 1.93362,3.48052 3.40317,4.79925 0.96682,0.86626 2.10379,1.50823 3.24074,2.12699 2.79603,1.52756 6.09285,2.99711 9.05516,1.82533 0.17015,-2.64132 -0.49308,-5.58622 -1.45216,-8.06319 z"
   fill="#fbbebe"
   id="path16101"
   style="stroke-width:0.999999" /><path
   d="m 187.77811,265.33504 c -0.23784,2.52338 -1.76927,4.80893 -2.12699,7.23755 -2.35902,-0.36932 -4.68129,-0.84499 -6.92817,-1.38641 -0.2765,-0.0658 -0.55107,-0.13342 -0.82758,-0.19335 1.27232,-3.48052 0.16435,-7.3787 0.50081,-11.08546 0.0329,-0.35578 0.0793,-0.71156 0.14114,-1.06348 2.91397,-0.99389 5.54563,-2.32035 8.60076,-1.93362 0.0599,0.61876 0.12181,1.23944 0.18175,1.85821 q 0.1837,1.85433 0.36353,3.70481 a 15.022299,15.022299 0 0 1 0.0947,2.86175 z"
   fill="#fbbebe"
   id="path16103"
   style="stroke-width:0.999999" /><path
   d="m 207.9303,271.64638 c -1.1447,0.34806 -2.32035,0.65163 -3.5482,0.90107 -0.20496,0.0426 -0.41185,0.0831 -0.61876,0.12182 -1.25685,0.2359 -2.52917,0.40799 -3.81503,0.52595 -0.13148,-2.68773 -1.93362,-5.1589 -2.19659,-7.91818 a 11.630729,11.630729 0 0 1 0.0213,-2.05931 c 0.0232,-0.27071 0.0502,-0.54141 0.0755,-0.81212 l 0.54527,-5.56302 a 8.5775414,8.5775414 0 0 1 1.30906,-0.0638 c 2.51372,0.0599 4.80118,1.14858 7.29169,1.99743 a 17.383251,17.383251 0 0 1 0.19336,3.55013 c -0.0947,3.02031 -0.58009,6.07736 0.54142,8.84825 0.0637,0.15662 0.13342,0.31325 0.20109,0.4718 z"
   fill="#fbbebe"
   id="path16105"
   style="stroke-width:0.999999" /><path
   d="m 175.29078,229.23436 c 0.33839,2.63745 -1.00935,5.16276 -1.5933,7.75574 -0.38672,1.71513 -0.43893,3.48052 -0.49114,5.24012 l -0.30551,10.54017 c -0.031,1.05382 -0.058,2.12698 0.26297,3.13826 0.64583,2.02643 2.63552,3.39544 4.70643,3.8827 2.07091,0.48728 4.23657,0.23978 6.34614,-0.0386 1.03449,-0.13729 2.11345,-0.29778 2.97004,-0.89526 1.17758,-0.82179 1.69192,-2.28554 2.13666,-3.65069 l 1.25491,-3.85369 c 1.44442,3.25235 0.8334,6.80827 1.69966,10.25978 a 1.987762,1.987762 0 0 0 0.38673,0.87593 c 0.36544,0.40607 0.9668,0.46988 1.51402,0.50855 3.78989,0.26684 7.632,0.53174 11.36002,-0.19337 1.02482,-0.19336 2.09411,-0.50661 2.80181,-1.27618 0.82372,-0.89527 0.96681,-2.21207 0.95715,-3.42831 -0.0522,-4.17856 -1.56237,-8.21016 -1.89882,-12.37518 -0.14502,-1.78473 -0.0734,-3.57913 -0.13729,-5.36966 a 35.949876,35.949876 0 0 0 -0.37706,-4.02194 5.4025362,5.4025362 0 0 0 -0.495,-1.75959 c -0.58008,-1.08283 -1.78473,-1.67065 -2.92557,-2.12698 -8.86371,-3.6004 -18.61303,-3.5656 -28.17285,-3.21174 z"
   fill="#f86d70"
   id="path16107"
   style="stroke-width:0.999999" /><circle
   cx="191.70142"
   cy="169.03493"
   r="8.3145685"
   fill="#fbbebe"
   id="circle16109"
   style="stroke-width:0.999999" /><path
   d="m 198.94863,183.68019 c -0.61683,1.35353 -1.58751,2.70706 -3.03192,3.05125 -1.3284,0.31904 -2.73607,-0.32099 -3.71448,-1.27426 -0.97842,-0.95327 -1.61845,-2.1908 -2.29714,-3.3761 -0.49501,-0.86626 -1.0461,-1.74027 -1.88335,-2.28554 -1.1447,-0.74251 -2.62199,-0.72318 -3.97166,-0.50467 -1.34966,0.2185 -2.68967,0.60908 -4.0606,0.52013 -1.70739,-0.11408 -3.44765,-0.9668 -5.05835,-0.39832 0.52207,2.33581 0.33452,4.90366 0.27457,7.29748 a 3.2871552,3.2871552 0 0 1 -0.15469,1.09056 3.5230569,3.5230569 0 0 1 -0.56269,0.90494 l -1.54688,1.99357 c 1.65904,1.24138 3.09378,2.86176 3.67387,4.85145 0.32678,1.1331 0.22623,2.33581 0.21463,3.51532 -0.0367,3.46312 0.71544,6.91269 0.47761,10.36807 -0.27844,4.04707 -1.89495,7.87177 -2.72834,11.8415 a 31.00174,31.00174 0 0 0 -0.39833,10.36421 c 8.66649,2.99904 17.59595,4.53434 26.75744,5.03707 1.61845,0.089 3.36644,0.1025 4.69483,-0.82758 1.1041,-0.77345 1.72287,-2.09798 1.93363,-3.43218 0.21077,-1.3342 0.0658,-2.6916 -0.0812,-4.03353 q -0.59748,-5.44314 -1.19304,-10.88629 c -0.22624,-2.06511 -0.45247,-4.14181 -0.30551,-6.21272 0.11022,-1.5469 0.42733,-3.06478 0.74251,-4.57881 l 1.93362,-9.29298 c 0.27651,-1.32067 0.55495,-2.65099 1.10216,-3.88272 0.4486,-1.00548 1.0693,-1.93362 1.5643,-2.91203 a 12.860511,12.860511 0 0 0 1.20659,-3.72608 2.4692336,2.4692336 0 0 0 -0.0154,-1.14084 c -0.20689,-0.63422 -0.83918,-1.01515 -1.42894,-1.32646 a 41.512903,41.512903 0 0 0 -11.4393,-4.01227 c -0.27071,1.13891 -0.2185,2.20627 -0.70384,3.26783 z"
   fill="#e3e8f4"
   id="path16111"
   style="stroke-width:0.999999" /><path
   d="m 198.14617,178.11135 c 0.96682,-1.85241 2.77475,-3.1518 3.82471,-4.96167 a 7.3342233,7.3342233 0 0 0 0.2359,-6.76767 c -0.36933,-0.75411 -0.87013,-1.44635 -1.16018,-2.23526 -0.32291,-0.89721 -0.35384,-1.88528 -0.72704,-2.76315 -0.51241,-1.20271 -1.6223,-2.06898 -2.83082,-2.56785 -1.2085,-0.49888 -2.5137,-0.67869 -3.81502,-0.85272 l -4.3932,-0.5917 c -0.63616,-0.085 -1.29552,-0.17015 -1.91428,0 -0.61876,0.17017 -1.19498,0.67484 -1.24525,1.3168 -0.0599,0.75991 0.60716,1.46763 0.45246,2.214 -0.0561,0.26298 -0.21076,0.52981 -0.12181,0.78505 a 0.79665173,0.79665173 0 0 0 0.38672,0.38672 c 1.04223,0.58009 2.28748,0.6323 3.41671,1.01129 1.12923,0.37899 2.26234,1.33033 2.14826,2.5137 -0.0618,0.63617 -0.47181,1.29746 -0.19337,1.86788 0.26684,0.52788 0.96681,0.62456 1.52563,0.78891 1.80793,0.52402 3.07639,2.48471 2.81341,4.35065 -0.0812,0.58009 -0.29004,1.13504 -0.33257,1.71706 -0.14116,2.03803 0.17982,2.62005 1.84467,3.80537 z"
   fill="#3f3d56"
   id="path16113"
   style="stroke-width:0.999999" /><path
   d="m 209.44045,186.9248 a 2.8211526,2.8211526 0 0 1 -0.20689,1.1273 c -0.60329,1.28586 -2.4499,1.20464 -3.67388,1.93362 -1.5237,0.9088 -1.86014,2.93716 -1.99936,4.7045 -0.15856,2.00129 -0.26684,4.0316 0.14308,5.99422 0.40993,1.96263 1.39608,3.87691 3.04352,5.02741 2.00517,1.39415 4.73157,1.44248 7.02098,0.59362 2.2894,-0.84885 4.20176,-2.4905 5.8608,-4.2849 1.57397,-1.70158 2.98358,-3.59846 3.82857,-5.75832 0.14889,-0.38672 0.28038,-0.79665 0.1605,-1.18337 -0.17983,-0.58009 -0.81213,-0.84306 -1.32647,-1.16017 -1.20078,-0.72512 -2.00129,-1.9897 -2.41702,-3.32584 -0.41573,-1.33613 -0.48534,-2.75734 -0.49888,-4.15922 -0.0154,-1.45601 -0.0194,-3.04737 -0.94748,-4.17082 -0.92814,-1.12343 -2.53691,-1.4386 -4.00259,-1.427 -1.19885,0 -4.51694,0.11408 -5.33486,1.16017 -0.67097,0.87013 0.39833,3.68355 0.34998,4.9288 z"
   fill="#be6f72"
   id="path16115"
   style="stroke-width:0.999999" /><path
   d="m 209.44045,186.9248 a 2.8211526,2.8211526 0 0 1 -0.20689,1.1273 c -0.60329,1.28586 -2.4499,1.20464 -3.67388,1.93362 -1.5237,0.9088 -1.86014,2.93716 -1.99936,4.7045 -0.15856,2.00129 -0.26684,4.0316 0.14308,5.99422 0.40993,1.96263 1.39608,3.87691 3.04352,5.02741 2.00517,1.39415 4.73157,1.44248 7.02098,0.59362 2.2894,-0.84885 4.20176,-2.4905 5.8608,-4.2849 1.57397,-1.70158 2.98358,-3.59846 3.82857,-5.75832 0.14889,-0.38672 0.28038,-0.79665 0.1605,-1.18337 -0.17983,-0.58009 -0.81213,-0.84306 -1.32647,-1.16017 -1.20078,-0.72512 -2.00129,-1.9897 -2.41702,-3.32584 -0.41573,-1.33613 -0.48534,-2.75734 -0.49888,-4.15922 -0.0154,-1.45601 -0.0194,-3.04737 -0.94748,-4.17082 -0.92814,-1.12343 -2.53691,-1.4386 -4.00259,-1.427 -1.19885,0 -4.51694,0.11408 -5.33486,1.16017 -0.67097,0.87013 0.39833,3.68355 0.34998,4.9288 z"
   opacity="0.1"
   id="path16117"
   style="stroke-width:0.999999" /><path
   d="m 199.13039,238.78064 a 1.6532456,1.6532456 0 0 0 0.40219,0.78891 1.5971706,1.5971706 0 0 0 0.65163,0.30745 c 6.34615,1.86208 13.12542,1.11957 19.69587,0.35965 -0.89915,-2.738 -1.80408,-5.50695 -2.05351,-8.37837 -0.2069,-2.36869 0.0251,-4.83405 -0.81405,-7.05579 -0.24751,-0.65743 -14.67232,2.36868 -16.09546,2.61426 -0.72898,0.12568 -1.56817,0.0831 -2.08445,0.6613 -0.62263,0.69997 -0.67483,2.36675 -0.74057,3.23881 -0.18563,2.51951 0.33452,5.05642 1.03835,7.46378 z"
   fill="#be6f72"
   id="path16119"
   style="stroke-width:0.999999" /><path
   d="m 213.58034,269.47493 c -1.16017,0.53755 -2.35709,1.03836 -3.59654,1.48696 q -1.00548,0.36545 -2.0535,0.68449 c -1.1447,0.34806 -2.32035,0.65163 -3.5482,0.90107 q -1.04996,-2.66259 -2.10184,-5.32712 c -0.51628,-1.30713 -1.03255,-2.62005 -1.46376,-3.95619 a 24.775482,24.775482 0 0 1 -0.73864,-2.78248 19.848617,19.848617 0 0 1 0.47954,-9.62363 c 2.68,0.50468 5.30005,0.8334 7.93945,1.21625 1.40961,0.19336 2.82309,0.42153 4.25396,0.69031 q 0.16823,1.398 0.30552,2.79601 0.20882,2.15792 0.34224,4.31584 0.29585,4.79537 0.18177,9.59849 z"
   fill="#be6f72"
   id="path16121"
   style="stroke-width:0.999999" /><path
   d="m 213.58034,269.47493 c -1.16017,0.53755 -2.35709,1.03836 -3.59654,1.48696 q -1.00548,0.36545 -2.0535,0.68449 c -1.1447,0.34806 -2.32035,0.65163 -3.5482,0.90107 q -1.04996,-2.66259 -2.10184,-5.32712 c -0.51628,-1.30713 -1.03255,-2.62005 -1.46376,-3.95619 a 24.775482,24.775482 0 0 1 -0.73864,-2.78248 19.848617,19.848617 0 0 1 0.47954,-9.62363 c 2.68,0.50468 5.30005,0.8334 7.93945,1.21625 1.40961,0.19336 2.82309,0.42153 4.25396,0.69031 q 0.16823,1.398 0.30552,2.79601 0.20882,2.15792 0.34224,4.31584 0.29585,4.79537 0.18177,9.59849 z"
   opacity="0.1"
   id="path16123"
   style="stroke-width:0.999999" /><path
   d="m 228.44988,261.09655 c 0.0154,1.11377 -0.30165,2.25074 -0.59556,3.34324 -0.0213,0.0774 -0.0407,0.15275 -0.0599,0.2301 a 3.1866069,3.1866069 0 0 1 -1.70739,-1.28006 3.6564768,3.6564768 0 0 1 -0.45827,-1.07316 q -1.31293,0.89333 -2.64906,1.76926 c -2.91397,1.91428 -5.99423,3.81504 -9.39933,5.389 -1.16017,0.53755 -2.35709,1.03836 -3.59654,1.48696 q -0.38672,-1.35353 -0.73477,-2.72448 a 25.23375,25.23375 0 0 1 -0.59556,-2.85982 14.525359,14.525359 0 0 1 0.64196,-6.50663 v 0 l 0.087,-0.25137 a 14.22178,14.22178 0 0 1 1.26653,-2.66647 c 0.48146,-0.77345 1.43474,-0.6439 2.40736,-0.38672 0.44086,0.11408 0.88753,0.25137 1.29358,0.33645 2.52725,0.52981 5.15117,-0.0175 7.73448,0.12761 a 9.2446405,9.2446405 0 0 1 3.5482,0.90301 c 1.24332,0.62456 2.24493,1.57977 2.63746,2.90043 a 4.3293768,4.3293768 0 0 1 0.12762,0.58008 5.1356966,5.1356966 0 0 1 0.0521,0.68257 z"
   fill="#be6f72"
   id="path16125"
   style="stroke-width:0.999999" /><path
   d="m 181.93083,172.04365 c -3.99293,-3.86724 -8.53113,-7.14473 -13.17375,-10.20951 a 36.179977,36.179977 0 0 1 -3.48052,-2.48084 c -1.16018,-0.96681 -2.17145,-2.10185 -3.40318,-2.97198 -1.23171,-0.87012 -2.7554,-1.46762 -4.23463,-1.18144 -1.47921,0.28618 -2.79407,1.70159 -2.57751,3.18274 0.19337,1.30326 1.36514,2.19659 2.44797,2.94491 2.04963,1.41734 4.10893,2.83855 6.3384,3.95039 a 19.866019,19.866019 0 0 1 2.2488,1.19884 c 1.38834,0.93587 2.39962,2.32035 3.44958,3.62167 a 50.357284,50.357284 0 0 0 14.3088,12.18181 c 0.0658,0.0386 2.35322,-4.89786 2.25654,-5.53789 -0.21271,-1.47149 -3.12861,-3.67774 -4.1805,-4.6987 z"
   fill="#be6f72"
   id="path16127"
   style="stroke-width:0.999999" /><path
   d="m 216.08244,234.53053 c -3.08219,0.19337 -6.03869,1.23366 -9.05321,1.89689 -3.01451,0.66324 -6.29007,0.9204 -9.08801,-0.38672 l 1.70158,11.61912 c 0.0947,0.64584 0.19336,1.30713 0.0523,1.9433 -0.12955,0.60714 -0.466,1.1795 -0.437,1.8002 0.0445,0.98227 0.96681,1.67258 1.835,2.12698 a 16.406771,16.406771 0 0 0 8.19856,1.88914 c -0.21076,0.8508 -0.47374,1.69192 -0.68644,2.54272 1.42122,1.52562 3.74543,1.6281 5.77379,2.1115 1.5469,0.36546 2.99712,0.99969 4.51308,1.44636 a 19.264663,19.264663 0 0 0 5.6481,0.78698 c 1.28973,-0.0135 2.6568,-0.19336 3.65842,-0.99775 1.23171,-0.99195 1.61457,-2.67806 1.8814,-4.23656 0.1489,-0.87013 0.28618,-1.75187 0.19337,-2.62972 -0.10059,-1.00935 -0.49114,-1.96457 -0.87787,-2.90044 l -2.64906,-6.42929 c -0.48147,-1.16017 -0.96681,-2.33775 -1.5469,-3.45731 -1.89494,-3.62167 -5.03901,-7.3787 -9.11701,-7.1254 z"
   fill="#3f3d56"
   id="path16129"
   style="stroke-width:0.999999" /><path
   d="m 218.44146,194.38471 a 2.900431,2.900431 0 0 1 3.03579,-1.85048 c 0.77345,0.10828 1.46375,0.53175 2.12698,0.94554 l 3.69321,2.30487 a 16.099326,16.099326 0 0 1 1.75766,1.21045 c 2.54659,2.11151 3.52886,5.58237 3.80924,8.87919 0.28037,3.29683 0,6.64972 0.65549,9.8924 -1.5585,1.29166 -3.28715,2.38416 -4.84565,3.67388 -0.81598,0.67483 -1.64164,1.35354 -2.2604,2.22173 -0.49114,0.68257 -0.84112,1.46375 -1.35353,2.12699 a 5.1163603,5.1163603 0 0 1 -3.38965,1.88334 c 0.845,0.49114 1.31874,1.44442 1.5469,2.39382 0.22816,0.94941 0.29005,1.93363 0.54335,2.88303 0.34806,1.28973 1.06929,2.46731 1.30712,3.78217 0.16629,0.90686 0.0928,1.83693 0.15277,2.75734 0.30163,4.76251 4.03933,8.92559 3.79762,13.69003 a 20.759352,20.759352 0 0 1 -4.96166,-2.60845 c -0.68837,-0.49308 -1.35354,-1.02675 -2.00517,-1.5585 l -4.92493,-3.99293 c -2.39576,-1.93362 -4.81471,-3.90978 -6.71933,-6.3384 -1.19498,-1.5237 -2.16953,-3.20982 -3.36837,-4.72964 -1.19885,-1.51983 -2.6742,-2.90044 -4.50533,-3.53853 -0.26878,0.40413 -0.74639,0.6845 -1.01516,1.08863 a 0.80825345,0.80825345 0 0 0 -0.11215,0.20883 0.91460258,0.91460258 0 0 0 0.0638,0.53368 11.110584,11.110584 0 0 1 0.38672,2.39575 l 0.12182,1.45409 a 4.9539362,4.9539362 0 0 1 0,1.16017 c -0.18369,1.24332 -1.33614,2.20819 -2.57945,2.40156 a 1.1215,1.1215 0 0 1 -0.54335,-0.0173 c -0.34612,-0.11602 -0.53755,-0.48147 -0.64197,-0.82952 -0.4892,-1.65131 0.26105,-3.39351 0.32099,-5.1125 a 12.284293,12.284293 0 0 0 -0.0445,-1.30713 l -0.11602,-1.71511 c -1.12344,-0.23398 -1.76927,-1.44056 -2.06704,-2.54852 -0.80439,-2.99131 -1.61457,-6.08703 -1.14857,-9.14989 0.12375,-0.81985 0.34031,-1.65131 0.19336,-2.47117 -0.19336,-1.09636 -0.98228,-1.98583 -1.39801,-3.01838 -1.35353,-3.36643 1.52176,-7.02098 1.25492,-10.63491 -0.11215,-1.5179 -1.07509,-2.83662 -1.65518,-4.2443 a 11.988449,11.988449 0 0 0 -1.16017,-2.34161 c -0.59169,-0.845 -1.39028,-1.52177 -2.16565,-2.20241 a 82.708692,82.708692 0 0 1 -6.80248,-6.70192 5.0274138,5.0274138 0 0 1 -2.92944,-1.34193 c -0.51048,-0.4834 -0.93007,-1.12151 -0.9436,-1.82341 -0.0135,-0.7019 0.50467,-1.43861 1.20657,-1.47535 0.40993,-0.0213 0.79279,0.18176 1.19305,0.27071 1.25298,0.27457 2.51371,-0.64777 3.07252,-1.806 0.55882,-1.15824 0.55882,-2.4905 0.54915,-3.77443 a 3.619738,3.619738 0 0 1 3.35097,1.17371 c 0.86432,0.93974 1.427,2.11151 2.10764,3.19047 a 4.9442681,4.9442681 0 0 0 1.05189,1.27038 c 0.93007,0.73865 2.27008,0.87787 3.08219,1.74027 0.41186,0.44086 0.64003,1.02482 1.01708,1.49662 1.05963,1.3284 2.99906,1.49082 4.44733,2.36481 1.44828,0.87401 2.45571,2.47118 4.06061,2.98938 0.58008,0.19337 1.21237,0.2185 1.78667,0.43314 1.32646,0.49307 2.13664,1.90268 2.32034,3.30455 0.18369,1.40188 -0.12955,2.81922 -0.44667,4.19983 l -0.74444,3.23108 c -0.16436,0.71544 -0.29005,1.5759 0.23783,2.08637 a 2.1501862,2.1501862 0 0 0 0.85659,0.43121 c 1.35354,0.44086 2.86176,0.87399 4.13409,0.24943 0.60135,-0.29778 1.07316,-0.80052 1.50436,-1.31486 1.88721,-2.22366 3.14213,-5.13569 4.10121,-7.87177 z"
   fill="#869bff"
   id="path16131"
   style="stroke-width:0.999999" /><path
   d="m 233.70352,260.13747 c -0.26684,1.76927 -1.24138,3.50953 -2.83661,4.31972 a 4.0606035,4.0606035 0 0 1 -3.07252,0.2127 3.1866069,3.1866069 0 0 1 -1.70739,-1.28006 3.6564768,3.6564768 0 0 1 -0.45827,-1.07316 c 0,-0.0194 -0.01,-0.0407 -0.0135,-0.0599 a 8.507931,8.507931 0 0 1 -0.17982,-2.08251 27.16737,27.16737 0 0 1 0.19336,-3.24656 17.578546,17.578546 0 0 1 0.53368,-2.68386 c 0.35965,-1.25492 0.87786,-2.46343 1.35353,-3.67388 0.24751,-0.6381 0.48534,-1.27813 0.68064,-1.93362 v 0 c 0.11794,-0.38672 0.2185,-0.78505 0.29971,-1.18724 l 0.0291,-0.14502 c 0.0154,-0.0812 0.029,-0.16243 0.0426,-0.24364 0.19336,-1.10217 0.24943,-2.243 0.74637,-3.23882 1.16018,-2.33774 3.41865,-1.74026 3.76283,0.41573 a 3.7976311,3.7976311 0 0 1 0.0445,0.50468 c 0.0523,2.72834 -1.03061,5.3948 -0.53561,8.1328 a 18.949482,18.949482 0 0 0 0.52595,1.97616 c 0.17403,0.59749 0.33064,1.20272 0.45053,1.81568 a 10.319734,10.319734 0 0 1 0.14115,3.47084 z"
   fill="#be6f72"
   id="path16133"
   style="stroke-width:0.999999" /><path
   d="m 234.76702,229.79897 c 0.0522,1.11763 0,2.2488 0.2243,3.34516 0.52401,2.59106 2.5137,4.88433 2.29327,7.51792 -0.0542,0.64196 -0.29197,1.33227 -0.85273,1.64938 -0.56075,0.31712 -1.48889,0.29197 -1.67258,0.93006 -0.0522,0.17791 -0.0251,0.37126 -0.0831,0.54723 -0.12182,0.37512 -0.58009,0.53561 -0.96681,0.52593 -0.38673,-0.01 -0.77345,-0.13728 -1.17371,-0.10441 -1.40187,0.11795 -1.91622,1.99357 -3.16534,2.63746 -0.84112,0.43313 -1.93361,0.19337 -2.62779,-0.44666 -0.69417,-0.64003 -0.99774,-1.63779 -0.9436,-2.58333 0.0405,-0.7135 0.26683,-1.40187 0.38672,-2.10571 0.2185,-1.25492 0.10441,-2.54077 -0.01,-3.80923 -0.16823,-1.85821 -0.34225,-3.73962 -0.95328,-5.50115 -0.28811,-0.83145 -0.67096,-1.62618 -0.9204,-2.46924 -0.35578,-1.19304 -0.437,-2.44796 -0.47374,-3.69128 -0.0755,-2.61618 0.10442,-5.41413 1.66678,-7.51791 1.17371,-1.57784 2.85596,-2.85983 4.18436,-4.31972 0.83146,-0.91459 1.07122,-1.20077 1.9897,-0.42539 0.75604,0.63616 1.54689,1.51403 1.63197,2.37642 0.23204,2.21013 0,4.38352 0.41379,6.63425 0.41379,2.25074 0.94362,4.49954 1.0519,6.81022 z"
   fill="#869bff"
   id="path16135"
   style="stroke-width:0.999999" /><circle
   cx="214.7115"
   cy="177.34949"
   r="9.8614655"
   fill="#be6f72"
   id="circle16137"
   style="stroke-width:0.999999" /><path
   d="m 223.74151,196.21391 c 0.21657,-0.30358 0.47374,-0.63036 0.84112,-0.69417 a 1.4676181,1.4676181 0 0 1 0.80053,0.16823 l 2.59685,1.08476 a 8.4769931,8.4769931 0 0 0 1.20658,-3.82084 c 0.0542,-0.82952 -0.0116,-1.67064 0.14696,-2.48664 0.2359,-1.21044 0.95327,-2.2952 1.11956,-3.51725 0.13149,-0.98615 -0.10633,-1.97809 -0.24944,-2.9623 -0.44087,-3.03965 0.0329,-6.14119 -0.22043,-9.20211 -0.2533,-3.06092 -1.48115,-6.34034 -4.21143,-7.74608 -0.77345,-0.38672 -1.60683,-0.61876 -2.41122,-0.92427 -1.79247,-0.68257 -3.3993,-1.77506 -5.1705,-2.51371 -1.77119,-0.73864 -3.85178,-1.07703 -5.56883,-0.22817 -1.71705,0.84886 -2.71673,3.23688 -1.60104,4.79538 0.36739,0.51241 0.90494,0.87593 1.41928,1.24525 1.04609,0.74831 2.11345,1.67259 2.35515,2.93718 0.43313,2.27586 -1.93362,4.0606 -2.60072,6.28619 a 5.3445276,5.3445276 0 0 0 -0.0639,2.66647 c 0.28811,1.31872 0.99194,2.56397 0.9668,3.91364 -0.0194,1.47923 -0.90493,2.81923 -1.07122,4.29071 -0.0599,0.53948 -0.0232,1.08669 -0.0909,1.62424 a 8.3822457,8.3822457 0 0 1 -0.62456,2.05544 c -1.5469,3.86724 -3.11506,7.77509 -5.41413,11.25174 a 14.902415,14.902415 0 0 0 7.08285,-1.65518 11.70614,11.70614 0 0 1 -1.77314,4.16502 13.419327,13.419327 0 0 0 5.54177,-1.93363 18.003943,18.003943 0 0 1 -1.7596,4.17856 c 0.0658,-0.11215 1.28198,-0.38672 1.50629,-0.51434 a 2.6239232,2.6239232 0 0 0 1.06349,-1.13503 c 0.65743,-1.17564 1.06736,-2.593 1.67645,-3.81504 a 55.558723,55.558723 0 0 1 4.50727,-7.51405 z"
   fill="#3f3d56"
   id="path16139"
   style="stroke-width:0.999999" /><path
   d="m 148.95293,137.03545 a 9.1537603,9.1537603 0 0 1 -1.40961,0.0329 0.30744569,0.30744569 0 0 0 -0.33838,0.26683 l -0.89913,6.74448 a 2.7380069,2.7380069 0 0 1 -0.58009,1.33613 2.9120328,2.9120328 0 0 0 -0.6555,2.2256 v 11.4567 c 0,0 -0.058,1.52756 1.1157,1.52756 a 16.967521,16.967521 0 0 0 4.23076,0 c 0,0 0.93974,-0.17789 0.93974,-1.5875 v -11.28076 a 2.7592767,2.7592767 0 0 0 -0.58008,-2.24301 2.8076173,2.8076173 0 0 1 -0.56268,-1.32839 l -0.93395,-6.88563 a 0.30744569,0.30744569 0 0 0 -0.32678,-0.26491 z"
   fill="#3f3d56"
   id="path16141"
   style="stroke-width:0.999999" /><rect
   x="145.39699"
   y="147.84631"
   width="5.69838"
   height="9.6352329"
   rx="11.05"
   fill="#869bff"
   id="rect16143"
   ry="11.05"
   style="stroke-width:0.999999" /><path
   d="m 162.29491,146.89691 a 9.1537603,9.1537603 0 0 1 -1.4096,0.0329 0.30744569,0.30744569 0 0 0 -0.33839,0.26685 l -0.89913,6.74447 a 2.7380069,2.7380069 0 0 1 -0.58008,1.33612 2.9120328,2.9120328 0 0 0 -0.65551,2.2256 v 11.4567 c 0,0 -0.058,1.52756 1.11571,1.52756 a 16.967521,16.967521 0 0 0 4.23075,0 c 0,0 0.93975,-0.17789 0.93975,-1.58749 v -11.28077 a 2.7592767,2.7592767 0 0 0 -0.58009,-2.243 2.8076173,2.8076173 0 0 1 -0.56268,-1.3284 l -0.93394,-6.88562 a 0.30744569,0.30744569 0 0 0 -0.32679,-0.26491 z"
   fill="#3f3d56"
   id="path16145"
   style="stroke-width:0.999999" /><rect
   x="158.73898"
   y="157.70778"
   width="5.69838"
   height="9.6352329"
   rx="11.05"
   fill="#869bff"
   id="rect16147"
   ry="11.05"
   style="stroke-width:0.999999" /><g
   opacity="0.2"
   id="g16163"
   transform="matrix(0.19336208,0,0,0.19336208,41.151639,135.54657)"
   style="stroke-width:5.17164"><path
     d="M 581.37,749.79 A 19,19 0 0 1 581,753 q -10.44,-1.66 -21,-3 c 0,-0.28 0,-0.57 0,-0.86 a 16.88,16.88 0 0 1 2.5,-8.48 c 2.06,-3.26 5.19,-5.3 8.64,-5.19 3.45,0.11 6.44,2.34 8.29,5.71 a 16.87,16.87 0 0 1 1.94,8.61 z"
     transform="translate(-32.42,-93.56)"
     fill="#3f3d56"
     id="path16149"
     style="stroke-width:28.4681" /><ellipse
     cx="571.21002"
     cy="732.33002"
     rx="14.01"
     ry="10.7"
     transform="rotate(-88.19,506.75518,702.28962)"
     fill="#3f3d56"
     id="ellipse16151"
     style="stroke-width:28.4681" /><ellipse
     cx="571.75"
     cy="715.21002"
     rx="14.01"
     ry="10.7"
     transform="rotate(-88.19,507.29774,685.16649)"
     fill="#3f3d56"
     id="ellipse16153"
     style="stroke-width:28.4681" /><ellipse
     cx="572.28998"
     cy="698.09003"
     rx="14.01"
     ry="10.7"
     transform="rotate(-88.19,507.8353,668.04853)"
     fill="#3f3d56"
     id="ellipse16155"
     style="stroke-width:28.4681" /><ellipse
     cx="572.83002"
     cy="680.96997"
     rx="14.01"
     ry="10.7"
     transform="rotate(-88.19,508.37785,650.92541)"
     fill="#3f3d56"
     id="ellipse16157"
     style="stroke-width:28.4681" /><path
     d="m 536.47,562.55 a 49.66,49.66 0 0 1 -3.8,-6 l 28.26,-3.73 -30.42,-0.73 a 51.38,51.38 0 0 1 0.31,-40.64 l 40.12,22.45 -36.75,-28.84 a 51.28,51.28 0 1 1 82.84,60 50.8,50.8 0 0 1 5.55,9.53 l -37.09,17.8 39.33,-11.83 a 51.34,51.34 0 0 1 -9.82,47.91 51.28,51.28 0 1 1 -80.56,-2.54 51.28,51.28 0 0 1 2,-63.38 z"
     transform="translate(-32.42,-93.56)"
     fill="#869bff"
     id="path16159"
     style="stroke-width:28.4681" /><path
     d="m 627,597.13 a 51,51 0 0 1 -12,31.34 51.28,51.28 0 1 1 -80.56,-2.54 C 527.87,617 627.18,591.38 627,597.13 Z"
     transform="translate(-32.42,-93.56)"
     opacity="0.1"
     id="path16161"
     style="stroke-width:28.4681" /></g><text
   xml:space="preserve"
   style="font-size:29.3333px;line-height:1.25;font-family:'Noto Sans JP';-inkscape-font-specification:'Noto Sans JP'"
   x="123.08232"
   y="84.395142"
   id="text9908-7"><tspan
     sodipodi:role="line"
     id="tspan9906-3"
     x="123.08232"
     y="84.395142"
     style="font-style:normal;font-variant:normal;font-weight:bold;font-stretch:normal;font-size:29.3333px;font-family:Mamelon;-inkscape-font-specification:Mamelon;fill:#ffffff"> </tspan></text></svg>
