<?xml version="1.0" encoding="UTF-8" standalone="no"?>
<svg
   xmlns:dc="http://purl.org/dc/elements/1.1/"
   xmlns:cc="http://creativecommons.org/ns#"
   xmlns:rdf="http://www.w3.org/1999/02/22-rdf-syntax-ns#"
   xmlns:svg="http://www.w3.org/2000/svg"
   xmlns="http://www.w3.org/2000/svg"
   xmlns:sodipodi="http://sodipodi.sourceforge.net/DTD/sodipodi-0.dtd"
   xmlns:inkscape="http://www.inkscape.org/namespaces/inkscape"
   id="Layer_1"
   data-name="Layer 1"
   viewBox="0 0 895.91133 267.60883"
   width="1000"
   height="270"
   class="illustration"
   version="1.1"
   sodipodi:docname="terms-title.svg"
   inkscape:export-filename="/Users/nari/Downloads/Money transfer _Monochromatic.png"
   inkscape:export-xdpi="96"
   inkscape:export-ydpi="96"
   inkscape:version="1.0.1 (c497b03c, 2020-09-10)">
  <metadata
     id="metadata5779">
    <rdf:RDF>
      <cc:Work
         rdf:about="">
        <dc:format>image/svg+xml</dc:format>
        <dc:type
           rdf:resource="http://purl.org/dc/dcmitype/StillImage" />
        <dc:title>13</dc:title>
      </cc:Work>
    </rdf:RDF>
  </metadata>
  <sodipodi:namedview
     pagecolor="#ffffff"
     bordercolor="#666666"
     borderopacity="1"
     objecttolerance="10"
     gridtolerance="10"
     guidetolerance="10"
     inkscape:pageopacity="0"
     inkscape:pageshadow="2"
     inkscape:window-width="1440"
     inkscape:window-height="782"
     id="namedview5777"
     showgrid="false"
     inkscape:zoom="0.50490195"
     inkscape:cx="335.95733"
     inkscape:cy="387.65624"
     inkscape:window-x="2560"
     inkscape:window-y="259"
     inkscape:window-maximized="0"
     inkscape:current-layer="Layer_1"
     inkscape:document-rotation="0" />
  <defs
     id="defs5684">
    <linearGradient
       id="linear-gradient"
       x1="206.7"
       y1="169.12"
       x2="203.96001"
       y2="145.92"
       gradientTransform="matrix(1,0,0,-1,0,352)"
       gradientUnits="userSpaceOnUse">
      <stop
         offset="0.01"
         id="stop5675" />
      <stop
         offset="0.08"
         stop-opacity="0.69"
         id="stop5677" />
      <stop
         offset="0.21"
         stop-opacity="0.32"
         id="stop5679" />
      <stop
         offset="1"
         stop-opacity="0"
         id="stop5681" />
    </linearGradient>
  </defs>
  <title
     id="title5686">13</title>
  <path
     d="M 610.56833,18.463587 C 589.20418,61.55941 430.46442,16.015466 412.93807,17.170248 347.18678,21.739477 278.38424,35.796027 229.1389,50.141876 187.95578,62.139294 104.04893,49.866959 82.613055,66.144306 62.130465,81.757966 52.844963,68.053604 29.12114,83.258851 14.113231,92.899311 10.933887,114.46372 -7.451388,123.52561 c -31.023496,15.31582 -5.826169,67.00951 21.710929,83.00606 15.688791,9.09592 16.029048,17.53416 43.457196,23.30313 70.245453,14.77129 189.034703,-2.5533 272.789983,1.3012 149.65385,-4.41712 126.51896,15.12372 158.82262,15.60872 27.86396,0.43395 -27.40091,1.62517 0,0 68.55675,-4.06722 100.52613,-5.6868 164.07117,-14.68912 45.18697,-6.40714 108.90236,-0.59708 156.8948,-4.44305 47.99245,-3.84599 56.3609,-12.05449 86.54003,-24.37524 26.93787,-11.00188 10.43676,-36.76012 15.12162,-50.17851 4.52142,-12.92488 12.93013,-23.06136 -2.56799,-34.94814 C 875.88685,92.422571 928.14374,88.021624 866.99557,67.379258 804.45841,46.385391 700.52891,24.175162 610.56833,18.463587 c -33.64235,-2.000267 34.24441,0.11141 0,0 -8.77044,-0.05105 24.75392,27.40601 0,0 z"
     fill="#68e1fd"
     opacity="0.18"
     style="isolation:isolate;fill:#ffaaaa;stroke-width:1"
     id="path5688-6"
     sodipodi:nodetypes="ccccccccccccsccccccc" />
  <text
     xml:space="preserve"
     style="font-size:63.4332px;line-height:1.25;font-family:'Noto Sans JP';-inkscape-font-specification:'Noto Sans JP';stroke-width:0.991144"
     x="318.5451"
     y="160.28006"
     id="text6640-2"><tspan
       sodipodi:role="line"
       x="318.5451"
       y="160.28006"
       style="font-style:normal;font-variant:normal;font-weight:bold;font-stretch:normal;font-size:63.4332px;font-family:'Noto Sans JP';-inkscape-font-specification:'Noto Sans JP Medium';fill:#ff2a2a;stroke-width:0.991144"
       id="tspan6646-8">利 用 規 約</tspan></text>
</svg>
