<?xml version="1.0" encoding="UTF-8" standalone="no"?>
<svg
   xmlns:dc="http://purl.org/dc/elements/1.1/"
   xmlns:cc="http://creativecommons.org/ns#"
   xmlns:rdf="http://www.w3.org/1999/02/22-rdf-syntax-ns#"
   xmlns:svg="http://www.w3.org/2000/svg"
   xmlns="http://www.w3.org/2000/svg"
   xmlns:sodipodi="http://sodipodi.sourceforge.net/DTD/sodipodi-0.dtd"
   xmlns:inkscape="http://www.inkscape.org/namespaces/inkscape"
   id="Layer_1"
   data-name="Layer 1"
   viewBox="0 0 895.91133 267.60883"
   width="1000"
   height="270"
   class="illustration"
   version="1.1"
   sodipodi:docname="contact.svg"
   inkscape:export-filename="/Users/nari/Downloads/Money transfer _Monochromatic.png"
   inkscape:export-xdpi="96"
   inkscape:export-ydpi="96"
   inkscape:version="1.0.1 (c497b03c, 2020-09-10)">
  <metadata
     id="metadata5779">
    <rdf:RDF>
      <cc:Work
         rdf:about="">
        <dc:format>image/svg+xml</dc:format>
        <dc:type
           rdf:resource="http://purl.org/dc/dcmitype/StillImage" />
        <dc:title>13</dc:title>
      </cc:Work>
    </rdf:RDF>
  </metadata>
  <sodipodi:namedview
     pagecolor="#ffffff"
     bordercolor="#666666"
     borderopacity="1"
     objecttolerance="10"
     gridtolerance="10"
     guidetolerance="10"
     inkscape:pageopacity="0"
     inkscape:pageshadow="2"
     inkscape:window-width="1440"
     inkscape:window-height="784"
     id="namedview5777"
     showgrid="false"
     inkscape:zoom="0.50490195"
     inkscape:cx="277.00592"
     inkscape:cy="427.26789"
     inkscape:window-x="2560"
     inkscape:window-y="259"
     inkscape:window-maximized="0"
     inkscape:current-layer="Layer_1"
     inkscape:document-rotation="0" />
  <defs
     id="defs5684">
    <linearGradient
       id="linear-gradient"
       x1="206.7"
       y1="169.12"
       x2="203.96001"
       y2="145.92"
       gradientTransform="matrix(1,0,0,-1,0,352)"
       gradientUnits="userSpaceOnUse">
      <stop
         offset="0.01"
         id="stop5675" />
      <stop
         offset="0.08"
         stop-opacity="0.69"
         id="stop5677" />
      <stop
         offset="0.21"
         stop-opacity="0.32"
         id="stop5679" />
      <stop
         offset="1"
         stop-opacity="0"
         id="stop5681" />
    </linearGradient>
  </defs>
  <title
     id="title5686">13</title>
  <path
     d="m 606.71029,18.463587 c -21.63196,43.095823 17.74606,-1.154782 0,0 C 540.13476,23.032816 225.21205,16.165605 175.34938,30.511454 133.65,42.508872 68.321725,40.051748 46.617139,56.329095 25.877784,71.942755 28.254134,58.238393 4.2329139,73.44364 -10.963131,83.0841 -10.256246,86.98113 -28.871995,96.04302 c -31.4124,15.31582 -23.566584,96.45514 4.315713,112.45169 15.8854626,9.09592 43.712575,15.57112 71.484556,21.34009 71.126036,14.77129 167.847896,3.33583 252.653116,7.19033 151.52988,-4.41712 151.66148,9.23459 184.37009,9.71959 28.21325,0.43395 -8.11398,-12.11613 19.63042,-13.7413 69.41616,-4.06722 82.15588,8.0545 146.49751,-0.94782 45.75342,-6.40714 96.52623,-8.44925 145.1203,-12.29522 48.59407,-3.84599 98.29131,-10.09145 128.84876,-22.4122 27.27556,-11.00188 6.64152,-24.98186 11.3851,-38.40025 4.5781,-12.92488 -2.61212,-30.91354 -18.30452,-42.80032 C 883.20696,90.459529 928.26676,88.021624 866.35205,67.379258 803.03094,46.385391 697.7986,24.175162 606.71029,18.463587 c -34.06408,-2.000267 34.67369,0.11141 0,0 -8.88038,-0.05105 25.06423,27.40601 0,0 z"
     fill="#68e1fd"
     opacity="0.18"
     style="isolation:isolate;fill:#ffaaaa;stroke-width:0.999998"
     id="path5688-6"
     sodipodi:nodetypes="ccccccccccccsccccccc" />
  <text
     xml:space="preserve"
     style="font-size:63.4332px;line-height:1.25;font-family:'Noto Sans JP';-inkscape-font-specification:'Noto Sans JP';stroke-width:0.991144"
     x="132.11388"
     y="170.09528"
     id="text6640-2"><tspan
       sodipodi:role="line"
       x="132.11388"
       y="170.09528"
       style="font-style:normal;font-variant:normal;font-weight:500;font-stretch:normal;font-size:63.4332px;font-family:'Noto Sans JP';-inkscape-font-specification:'Noto Sans JP Medium';fill:#ff2a2a;stroke-width:0.991144"
       id="tspan6646-8">お問い合わせフォーム</tspan></text>
</svg>
