<?xml version="1.0" encoding="iso-8859-1"?>
<!-- Generator: Adobe Illustrator 18.0.0, SVG Export Plug-In . SVG Version: 6.00 Build 0)  -->
<!DOCTYPE svg PUBLIC "-//W3C//DTD SVG 1.1//EN" "http://www.w3.org/Graphics/SVG/1.1/DTD/svg11.dtd">
<svg version="1.1" id="_x34_" xmlns="http://www.w3.org/2000/svg" xmlns:xlink="http://www.w3.org/1999/xlink" x="0px" y="0px"
	 viewBox="0 0 512 512" style="enable-background:new 0 0 512 512;" xml:space="preserve">
<g>
	<path style="fill:#D25B5A;" d="M38.36,83.889v333.268H15.482c-1.525,0-2.898-0.229-4.271-0.61c-5.11-1.449-9.152-5.491-10.601-10.6
		C0.229,404.65,0,403.201,0,401.753V83.889H38.36z"/>
	<g>
		<path style="fill:#CE4D4B;" d="M127.088,485.363c0,14.711,30.305,26.637,67.687,26.637c37.383,0,67.687-11.926,67.687-26.637
			v-80.591c0-14.711-30.304-26.637-67.687-26.637c-37.383,0-67.687,11.926-67.687,26.637V485.363z"/>
		<path style="opacity:0.06;fill:#191919;" d="M127.088,416.371c0,8.223,30.305,14.89,67.687,14.89
			c37.383,0,67.687-6.666,67.687-14.89v-45.049c0-8.223-30.304-14.89-67.687-14.89c-37.383,0-67.687,6.666-67.687,14.89V416.371z"/>
		<path style="fill:#EA5B5B;" d="M389.55,15.253v386.5c0,8.465-6.94,15.405-15.481,15.405H38.36V83.889H0V15.482
			C0,6.94,6.94,0,15.482,0h358.816C382.687,0.153,389.398,6.864,389.55,15.253z"/>
		<g>
			<rect x="167.671" y="302.697" style="fill:#FFFFFF;" width="54.21" height="15.565"/>
			<rect x="186.993" y="327.387" style="fill:#FFFFFF;" width="15.565" height="45.257"/>
			<rect x="157.741" y="324.435" style="fill:#FFFFFF;" width="74.069" height="15.565"/>
		</g>
		<g>
			<path style="fill:#FFFFFF;" d="M138.798,234.279c-0.839-1.907-2.059-3.66-3.661-5.109c-1.602-1.525-3.585-2.669-5.872-3.508
				c-2.364-0.839-5.033-1.296-7.931-1.296h-22.04v51.706h11.134v-19.447h10.906c2.898,0,5.567-0.381,7.931-1.296
				c2.288-0.839,4.271-1.983,5.872-3.432c1.601-1.525,2.822-3.203,3.661-5.186c0.915-1.983,1.296-4.042,1.296-6.177
				C140.095,238.321,139.714,236.262,138.798,234.279z M126.825,245.643c-1.449,1.296-3.508,1.907-6.025,1.907h-10.372v-14.185
				H120.8c2.517,0,4.576,0.686,6.025,1.983c1.449,1.296,2.212,3.05,2.212,5.186C129.037,242.668,128.274,244.346,126.825,245.643z"
				/>
			<path style="fill:#FFFFFF;" d="M190.199,243.583c-0.076-1.982-0.305-3.813-0.686-5.491c-0.305-1.678-0.915-3.203-1.678-4.652
				c-0.762-1.373-1.907-2.746-3.356-4.042c-1.907-1.754-4.042-3.05-6.482-4.042c-2.517-0.915-5.338-1.373-8.694-1.373
				c-3.279,0-6.177,0.458-8.618,1.373c-2.516,0.992-4.652,2.288-6.635,4.042c-1.373,1.296-2.517,2.669-3.279,4.042
				c-0.762,1.449-1.373,2.974-1.678,4.652c-0.382,1.678-0.534,3.508-0.61,5.491c-0.076,1.983-0.153,4.195-0.153,6.635
				c0,2.517,0.076,4.729,0.153,6.711c0.076,1.983,0.229,3.813,0.61,5.491c0.305,1.678,0.915,3.203,1.678,4.576
				c0.762,1.449,1.906,2.745,3.279,4.118c1.983,1.678,4.118,3.05,6.635,3.965c2.44,0.992,5.339,1.449,8.618,1.449
				c3.356,0,6.177-0.457,8.694-1.449c2.441-0.915,4.576-2.288,6.482-3.965c1.449-1.373,2.593-2.669,3.356-4.118
				c0.763-1.373,1.373-2.898,1.678-4.576c0.381-1.678,0.61-3.508,0.686-5.491c0.076-1.982,0.153-4.194,0.153-6.711
				C190.352,247.778,190.276,245.566,190.199,243.583z M179.065,256.395c-0.076,1.602-0.229,2.898-0.458,3.966
				c-0.229,1.068-0.534,1.906-0.839,2.517c-0.381,0.686-0.762,1.296-1.296,1.83c-0.839,0.839-1.83,1.449-3.05,1.983
				c-1.144,0.534-2.517,0.839-4.118,0.839c-1.525,0-2.898-0.305-4.118-0.839c-1.144-0.534-2.212-1.144-3.051-1.983
				c-0.534-0.534-0.992-1.144-1.296-1.83c-0.381-0.61-0.61-1.449-0.839-2.517c-0.229-1.068-0.382-2.364-0.458-3.966
				c-0.076-1.601-0.076-3.66-0.076-6.177c0-2.44,0-4.499,0.076-6.101c0.076-1.601,0.229-2.974,0.458-4.042
				c0.229-1.068,0.458-1.907,0.839-2.593c0.305-0.61,0.762-1.22,1.296-1.754c0.839-0.839,1.906-1.525,3.051-1.983
				c1.22-0.534,2.593-0.762,4.118-0.762c1.602,0,2.974,0.229,4.118,0.762c1.22,0.458,2.211,1.144,3.05,1.983
				c0.534,0.534,0.915,1.144,1.296,1.754c0.305,0.687,0.61,1.525,0.839,2.593c0.229,1.067,0.381,2.44,0.458,4.042
				c0.152,1.602,0.152,3.661,0.152,6.101C179.217,252.735,179.217,254.794,179.065,256.395z"/>
			<path style="fill:#FFFFFF;" d="M239.77,254.565c-0.686-1.83-1.83-3.356-3.356-4.576c-1.22-1.144-2.669-2.059-4.347-2.669
				c-1.754-0.61-3.889-1.068-6.482-1.449l-6.787-0.916c-1.22-0.152-2.288-0.381-3.127-0.762c-0.763-0.305-1.525-0.762-2.059-1.22
				c-0.61-0.534-0.991-1.068-1.296-1.754c-0.229-0.61-0.305-1.296-0.305-1.906c0-1.83,0.686-3.356,2.059-4.652
				c1.449-1.296,3.661-1.907,6.635-1.907c1.83,0,3.813,0.229,5.872,0.61c2.136,0.381,4.042,1.373,5.796,2.974l7.016-6.33
				c-2.441-2.212-5.11-3.737-8.084-4.652c-2.898-0.915-6.33-1.373-10.295-1.373c-3.051,0-5.872,0.382-8.313,1.144
				c-2.44,0.762-4.499,1.83-6.254,3.203c-1.677,1.373-2.974,3.051-3.889,4.957c-0.915,1.906-1.373,4.042-1.373,6.33
				c0,4.423,1.373,7.855,4.118,10.219c1.22,1.068,2.745,1.983,4.499,2.669c1.754,0.763,3.966,1.22,6.483,1.601l6.787,0.915
				c1.449,0.229,2.517,0.458,3.203,0.687c0.686,0.229,1.373,0.61,1.907,1.068c1.22,1.067,1.754,2.516,1.754,4.271
				c0,2.059-0.839,3.661-2.517,4.805c-1.754,1.144-4.271,1.678-7.626,1.678c-2.593,0-5.033-0.305-7.397-0.915
				c-2.364-0.687-4.423-1.83-6.254-3.432l-7.169,6.483c2.745,2.593,5.872,4.347,9.228,5.338c3.356,0.991,7.245,1.525,11.515,1.525
				c2.974,0,5.796-0.381,8.389-1.068c2.593-0.686,4.805-1.677,6.711-3.05c1.83-1.296,3.356-2.974,4.423-4.881
				c1.068-1.907,1.602-4.194,1.602-6.711C240.838,258.531,240.457,256.472,239.77,254.565z"/>
			<path style="fill:#FFFFFF;" d="M249.456,224.365v8.999h14.871v42.707h11.058v-42.707h14.871v-8.999H249.456z"/>
		</g>
		<g>
			<g>
				<path style="fill:#535353;" d="M171.073,52.777H65.467c-8.037,0-14.552,6.515-14.552,14.552v22.79
					c0,8.037,6.515,14.552,14.552,14.552h105.605c8.037,0,14.552-6.515,14.552-14.552v-22.79
					C185.625,59.292,179.11,52.777,171.073,52.777z"/>
				<path style="fill:#F0EFEF;" d="M187.759,58.112c0.076-0.076,0.076-0.152,0-0.152c-1.678-4.728-6.177-8.084-11.439-8.084H60.248
					c-5.338,0-9.838,3.355-11.516,8.084c-0.076,0-0.076,0.076,0,0.152c-0.534,1.22-0.762,2.593-0.762,3.966v33.25
					c0,6.787,5.491,12.279,12.278,12.279h116.072c6.711,0,12.202-5.491,12.202-12.279v-33.25
					C188.522,60.705,188.293,59.333,187.759,58.112z M182.726,95.328c0,3.585-2.898,6.406-6.406,6.406H60.248
					c-3.508,0-6.406-2.822-6.406-6.406v-33.25c0-1.525,0.534-2.898,1.449-3.966c0-0.076,0.076-0.152,0.076-0.152
					c1.22-1.373,2.974-2.288,4.881-2.288h116.072c1.907,0,3.661,0.915,4.881,2.288c0,0,0.076,0.076,0.076,0.152
					c0.915,1.068,1.449,2.44,1.449,3.966V95.328z"/>
			</g>
			<g>
				<path style="fill:#535353;" d="M325.219,52.777H217.343c-7.41,0-13.417,6.007-13.417,13.417v25.06
					c0,7.41,6.007,13.417,13.417,13.417h107.875c7.41,0,13.417-6.007,13.417-13.417v-25.06
					C338.636,58.784,332.629,52.777,325.219,52.777z"/>
				<path style="fill:#F0EFEF;" d="M340.818,58.112c0.076-0.076,0.076-0.152,0-0.152c-1.677-4.728-6.177-8.084-11.516-8.084H213.231
					c-5.262,0-9.762,3.355-11.439,8.084c-0.076,0-0.076,0.076,0,0.152c-0.534,1.22-0.762,2.593-0.762,3.966v33.25
					c0,6.787,5.491,12.279,12.202,12.279h116.072c6.787,0,12.279-5.491,12.279-12.279v-33.25
					C341.581,60.705,341.352,59.333,340.818,58.112z M335.709,95.328c0,3.585-2.898,6.406-6.406,6.406H213.231
					c-3.508,0-6.406-2.822-6.406-6.406v-33.25c0-1.525,0.534-2.898,1.449-3.966c0-0.076,0.076-0.152,0.076-0.152
					c1.22-1.373,2.974-2.288,4.881-2.288h116.072c1.906,0,3.661,0.915,4.881,2.288c0,0,0.076,0.076,0.076,0.152
					c0.915,1.068,1.449,2.44,1.449,3.966V95.328z"/>
			</g>
		</g>
		<rect x="96.342" y="120.669" style="opacity:0.18;fill:#FFFFFF;" width="196.867" height="71.537"/>
		<polygon style="fill:#CE4D4B;" points="361.073,34.679 361.073,73.03 334.09,73.03 334.09,58.086 55.464,58.086 55.464,73.03 
			28.482,73.03 28.482,34.679 		"/>
		<polygon style="fill:#CE4D4B;" points="361.073,57.974 361.073,73.03 334.09,73.03 334.09,58.086 55.464,58.086 55.464,73.03 
			28.482,73.03 28.482,57.974 		"/>
		<rect x="29.366" y="58.086" style="opacity:0.1;fill:#191919;" width="331.707" height="28.491"/>
	</g>
</g>
</svg>
