<?xml version="1.0" encoding="UTF-8" standalone="no"?>
<svg
   xmlns:dc="http://purl.org/dc/elements/1.1/"
   xmlns:cc="http://creativecommons.org/ns#"
   xmlns:rdf="http://www.w3.org/1999/02/22-rdf-syntax-ns#"
   xmlns:svg="http://www.w3.org/2000/svg"
   xmlns="http://www.w3.org/2000/svg"
   xmlns:xlink="http://www.w3.org/1999/xlink"
   xmlns:sodipodi="http://sodipodi.sourceforge.net/DTD/sodipodi-0.dtd"
   xmlns:inkscape="http://www.inkscape.org/namespaces/inkscape"
   id="Layer_1"
   data-name="Layer 1"
   viewBox="0 0 409.13794 451.36404"
   width="350"
   height="310"
   class="illustration"
   version="1.1"
   sodipodi:docname="youtube.svg"
   inkscape:export-filename="/Users/nari/Downloads/youtube.png"
   inkscape:export-xdpi="96"
   inkscape:export-ydpi="96"
   inkscape:version="1.0.1 (c497b03c, 2020-09-10)">
  <metadata
     id="metadata2182">
    <rdf:RDF>
      <cc:Work
         rdf:about="">
        <dc:format>image/svg+xml</dc:format>
        <dc:type
           rdf:resource="http://purl.org/dc/dcmitype/StillImage" />
        <dc:title>Iphone</dc:title>
      </cc:Work>
    </rdf:RDF>
  </metadata>
  <sodipodi:namedview
     pagecolor="#ffffff"
     bordercolor="#666666"
     borderopacity="1"
     objecttolerance="10"
     gridtolerance="10"
     guidetolerance="10"
     inkscape:pageopacity="0"
     inkscape:pageshadow="2"
     inkscape:window-width="1995"
     inkscape:window-height="1021"
     id="namedview2180"
     showgrid="false"
     inkscape:document-rotation="0"
     inkscape:zoom="1.7423111"
     inkscape:cx="175.35457"
     inkscape:cy="161.9142"
     inkscape:window-x="655"
     inkscape:window-y="205"
     inkscape:window-maximized="0"
     inkscape:current-layer="Layer_1" />
  <defs
     id="defs2150">
    <linearGradient
       id="linear-gradient"
       x1="272.42001"
       y1="378.23999"
       x2="596.96997"
       y2="121.68"
       gradientUnits="userSpaceOnUse">
      <stop
         offset="0"
         stop-color="#010101"
         stop-opacity="0"
         id="stop2144" />
      <stop
         offset="0.95"
         stop-color="#010101"
         id="stop2146" />
    </linearGradient>
    <linearGradient
       id="linear-gradient-2"
       x1="242.28999"
       y1="-16.559999"
       x2="233.88"
       y2="576.47998"
       xlink:href="#linear-gradient" />
    <linearGradient
       inkscape:collect="always"
       xlink:href="#linear-gradient"
       id="linearGradient2745"
       gradientUnits="userSpaceOnUse"
       x1="272.42001"
       y1="378.23999"
       x2="596.96997"
       y2="121.68"
       gradientTransform="translate(-123.45,-44.280004)" />
  </defs>
  <title
     id="title2152">Iphone</title>
  <path
     d="m 260.04891,233.8898 a 7.4196136,7.4196136 0 0 1 2.52896,6.12837 14.484638,14.484638 0 0 1 -2.13423,6.47627 28.099528,28.099528 0 0 1 -6.53648,7.74075 64.749342,64.749342 0 0 1 0.26092,-14.83923 c 0.17395,-1.33807 -0.70918,-4.83713 -0.12042,-5.72026 1.19088,-1.76625 4.66318,-0.83629 6.00125,0.2141 z"
     fill="#f5e0cd"
     id="path2156"
     style="stroke-width:1" />
  <path
     d="m 256.79071,328.98663 a 6.1685155,6.1685155 0 0 0 -0.79616,5.35229 c 1.33808,3.57265 5.47272,3.45223 8.34289,5.15158 5.57307,3.21806 4.56951,12.14301 0,16.6657 -4.56952,4.52268 -11.17291,6.11499 -17.14072,8.47 a 90.988949,90.988949 0 0 0 -17.78967,9.4401 c -1.52541,1.00355 -2.99729,2.00711 -4.42233,3.09764 -13.81561,10.09576 -25.06211,21.9377 -43.19968,29.65838 -10.99227,4.68326 -21.81059,8.69747 -29.55805,17.81644 -0.4148,0.4884 -0.82291,0.96341 -1.21765,1.43843 -21.67677,25.6174 -60.500954,29.0228 -85.48946,6.62346 -5.660048,-5.07799 -8.302741,-9.80138 -3.612796,-14.13674 16.163919,-14.91951 34.227898,-25.0621 46.023006,-44.52437 5.94774,-9.79469 9.89505,-20.68661 13.38073,-31.60528 3.1244,-9.86829 5.88752,-19.83693 8.59043,-29.82564 a 238.94635,238.94635 0 0 1 10.70458,-31.13696 c 7.77421,-18.27807 8.53691,-13.72862 21.40918,-31.68556 1.79971,-2.49551 5.51955,3.94731 6.52311,6.84424 3.09764,9.21932 1.33807,24.13884 -4.57621,28.68828 -2.49551,1.89338 -6.44283,13.31383 -5.64667,18.33829 a 9.8013831,9.8013831 0 0 0 0.47501,1.9469 c 0.50178,1.15074 1.33807,1.12398 3.34518,0.30106 4.39558,-1.79971 8.16894,-5.80054 11.71484,-9.21932 1.5254,-1.47857 3.09764,-2.89693 4.75016,-4.22162 19.98411,-16.54527 46.91951,-23.13528 72.92496,-25.36317 5.79385,-0.50178 11.88209,-0.74932 16.83295,2.95714 a 9.6608855,9.6608855 0 0 1 3.88711,6.21535 c 1.56554,10.70458 -15.99666,13.77546 -14.49802,23.23563 a 12.430696,12.430696 0 0 1 9.14573,21.26198 c -3.0575,3.07088 -7.62702,4.34874 -10.10245,8.21577 z"
     fill="#f5e0cd"
     id="path2158"
     style="fill:#ffe6d5;stroke-width:1" />
  <path
     d="m 246.24669,320.69727 c -1.97366,17.5622 -8.7443,34.17438 -15.44136,50.51893 a 19.803477,19.803477 0 0 1 -1.37152,2.87017 6.7639579,6.7639579 0 0 1 -1.37153,1.67259 6.8643134,6.8643134 0 0 1 -3.0508,1.42505 18.920349,18.920349 0 0 1 -5.04454,0.25423 L 182.715,375.71213 c -6.77065,-0.32783 -14.61845,-1.19758 -18.34498,-6.871 -2.14761,-3.25152 -0.72256,-7.3594 -0.84968,-11.24651 -0.30107,-8.94501 1.69936,-22.94794 1.87331,-31.89296 0.10035,-5.57307 -2.5758,-13.60151 -6.56995,-20.07109 0.50178,1.15074 1.33808,1.12398 3.34518,0.30106 4.39558,-1.7997 8.16895,-5.80054 11.71484,-9.21932 1.5254,-1.47857 3.09764,-2.89693 4.75016,-4.22162 7.5668,-2.17437 15.31424,-3.67301 19.58938,-5.35229 10.08907,-3.92055 18.65943,-4.29521 29.37739,-2.76981 7.47313,1.07046 13.59482,7.07172 16.46498,14.04977 2.87017,6.97804 3.01067,14.77901 2.18106,22.27891 z"
     fill="url(#linear-gradient)"
     id="path2160"
     style="fill:url(#linearGradient2745);stroke-width:1" />
  <rect
     x="173.13438"
     y="210.64079"
     width="79.494904"
     height="161.492"
     rx="10.76"
     fill="#68e1fd"
     id="rect2162"
     ry="10.76"
     style="stroke-width:1" />
  <rect
     x="173.13438"
     y="210.64079"
     width="79.494904"
     height="161.492"
     rx="10.76"
     fill="url(#linear-gradient-2)"
     id="rect2164"
     style="fill:#ffffff;stroke-width:1"
     ry="10.76" />
  <path
     d="m 254.16808,315.4654 q 0,22.60005 0,45.20679 c 0,8.85135 -5.03784,13.90927 -13.82898,13.90927 q -28.09953,0 -56.15891,0 c -8.751,0 -13.63496,-4.97763 -13.63496,-13.77546 q 0,-34.12086 0,-68.27517 c 0,-5.9009 0.087,-11.8018 -0.0401,-17.69601 -0.087,-4.28852 -0.51516,-8.56366 -0.66904,-12.8455 -0.0401,-0.95003 0.37466,-1.90675 0.52854,-2.87685 0.10705,-0.66904 0.38135,-1.48526 0.1405,-2.00711 -1.70605,-3.96739 -0.47502,-8.09534 -0.70918,-12.12963 -0.12043,-2.00711 0.66903,-4.01422 0.72925,-6.02133 0,-1.63245 -0.78946,-3.27159 -0.74263,-4.89735 0.15388,-4.74346 0.38804,-9.50031 0.88313,-14.22371 0.66903,-6.39599 5.93435,-10.79825 12.71169,-10.81832 13.82897,-0.0335 27.65127,0 41.48025,0 5.28539,0 10.56408,-0.0468 15.84947,0 8.50345,0.0401 13.46101,5.00439 13.48108,13.44094 0,2.40853 -0.0401,4.81707 0,7.2256 0.27431,11.25319 1.1842,22.53314 0.66904,33.7395 -0.35459,7.3594 -0.54192,14.7188 -0.6222,22.12503 -0.14719,9.89505 -0.0602,19.91053 -0.0669,29.91931 z m -80.71254,-24.28602 q 0,34.60925 0,69.21182 c 0,6.85093 4.01421,10.92536 10.81831,10.93205 q 27.97241,0.0401 55.93144,0 c 7.44638,0 11.37362,-3.96739 11.37362,-11.37362 q 0,-42.9789 0,-85.96448 0,-25.85826 0,-51.73659 c 0,-6.79072 -4.12126,-10.88522 -10.85177,-10.91198 -1.63245,0 -3.2649,0.0468 -4.89065,0 -1.75288,-0.0736 -2.67615,0.66903 -3.19131,2.38177 -0.86305,2.97721 -1.93351,3.80682 -4.9977,3.8202 q -15.02656,0.0803 -30.0598,0.0401 c -3.41878,0 -4.31529,-0.71587 -5.31884,-4.01422 a 2.7162877,2.7162877 0 0 0 -3.0575,-2.20782 c -1.86661,0.0602 -3.73322,0 -5.59314,0 -5.88083,0.0602 -10.12921,4.27514 -10.1359,10.16935 q -0.0602,34.7899 -0.0268,69.65338 z m 79.52835,53.79053 -0.0803,-0.0535 v 16.72591 h 0.0803 z m -80.746,12.44407 v 0 -12.98599 0 z"
     fill="#68e1fd"
     id="path2166"
     style="fill:#666666;fill-opacity:1;stroke-width:1" />
  <path
     d="m 247.86576,281.77273 c -1.93351,2.87686 -3.6128,6.19528 -3.29835,9.6475 0.31445,3.45223 3.34518,6.83087 6.79072,6.34916 1.70604,-0.24085 3.15116,-1.33807 4.47585,-2.43529 q 2.57579,-2.13423 4.98432,-4.48924 a 17.796368,17.796368 0 0 0 2.95046,-3.50575 10.28978,10.28978 0 0 0 0.32113,-9.788 c -1.27786,-2.48882 -4.89734,-5.98788 -7.96153,-4.9977 -3.06419,0.99017 -6.51641,6.63015 -8.2626,9.21932 z"
     fill="#f5e0cd"
     id="path2168"
     style="stroke-width:1" />
  <path
     d="m 247.86576,315.30483 c -1.93351,2.87686 -3.6128,6.19528 -3.29835,9.64751 0.31445,3.45223 3.34518,6.83086 6.79072,6.34915 1.70604,-0.24085 3.15116,-1.33807 4.47585,-2.43529 q 2.57579,-2.13422 4.98432,-4.48923 a 17.796368,17.796368 0 0 0 2.95046,-3.50575 10.28978,10.28978 0 0 0 0.32113,-9.78801 c -1.27786,-2.48881 -4.89734,-5.98787 -7.96153,-4.9977 -3.06419,0.99018 -6.51641,6.63015 -8.2626,9.21932 z"
     fill="#f5e0cd"
     id="path2170"
     style="stroke-width:1" />
  <path
     d="m 247.86576,346.48862 c -1.93351,2.87686 -3.6128,6.19528 -3.29835,9.6475 0.31445,3.45223 3.34518,6.83756 6.79072,6.34916 1.70604,-0.24085 3.15116,-1.33807 4.47585,-2.4286 q 2.57579,-2.13423 4.98432,-4.48924 a 17.796368,17.796368 0 0 0 2.95046,-3.50575 10.28978,10.28978 0 0 0 0.32113,-9.788 c -1.27786,-2.49551 -4.89734,-5.98788 -7.96153,-5.00439 -3.06419,0.98348 -6.51641,6.63015 -8.2626,9.21932 z"
     fill="#f5e0cd"
     id="path2172"
     style="stroke-width:1" />
  <ellipse
     cx="303.83817"
     cy="77.041611"
     fill="#68e1fd"
     id="circle3598"
     style="fill:#ffb380;stroke-width:1.55095"
     rx="25.600718"
     ry="26.524355" />
  <path
     d="m 293.18168,84.445429 a 2.0397318,2.1133227 0 0 0 0.52729,0.690062 3.6215646,3.752226 0 0 0 1.11004,0.575058 c 4.75939,1.71078 9.71302,3.177173 14.7499,2.702748 a 3.7186948,3.8528605 0 0 0 1.54021,-0.402532 1.3875726,1.4376345 0 0 0 0.76316,-1.337001 5.7306751,5.9374304 0 0 1 -0.0971,-0.704446 c 0,-0.891329 1.38757,-1.035093 1.72059,-1.840167 a 1.3875726,1.4376345 0 0 0 -0.4024,-1.523895 c -0.37465,-0.40254 -0.84642,-0.690063 -1.20718,-1.10698 a 4.3014752,4.4566668 0 0 0 1.52632,-1.437633 1.7344658,1.7970431 0 0 0 -0.12489,-2.041439 c -0.37463,-0.416917 -1.04067,-0.646938 -1.09618,-1.207613 -0.0555,-0.560682 0.48565,-0.876958 0.79092,-1.279498 a 2.2617434,2.3433443 0 0 0 -0.54115,-3.162796 4.8287529,5.002968 0 0 0 -3.27467,-0.876958 26.16962,27.113786 0 0 1 -3.45506,0.158142 0.9713008,1.0063441 0 0 1 -0.76316,-0.316278 c -0.22202,-0.316283 -0.0833,-0.776325 0,-1.15011 a 8.1728028,8.4676674 0 0 0 -0.5134,-7.633838 2.4976308,2.5877421 0 0 0 -2.42826,-1.322623 2.1229862,2.1995808 0 0 0 -1.38758,1.322623 8.7555836,9.0714732 0 0 0 -0.44401,1.940807 c -0.66604,3.93912 -2.46988,8.151388 -6.31345,9.617775 -0.65216,0.244398 -1.23495,0.115017 -1.6651,0.733194 a 3.3579258,3.4790754 0 0 0 -0.41627,1.897674 15.873831,16.446538 0 0 0 1.12394,7.389446 z"
     fill="#ffffff"
     id="path3600"
     style="stroke-width:1.55095" />
  <ellipse
     cx="241.57228"
     cy="57.495968"
     fill="#68e1fd"
     id="circle3606"
     style="fill:#ff78dd;fill-opacity:1;stroke-width:1.55096"
     rx="26.924551"
     ry="27.859613" />
  <path
     d="m 240.7498,52.927334 c 0,0 -9.82616,-12.33975 -16.03786,-0.64946 -6.21169,11.69029 19.69562,22.10405 19.69562,22.10405 0,0 14.5661,-13.88502 12.98612,-22.26082 -1.57998,-8.3758 -14.82582,-11.6455 -16.64388,0.80623 z"
     fill="#ffffff"
     id="path3608"
     style="stroke-width:1.55096" />
  <rect
     class="cls-2"
     x="197.16829"
     y="276.0723"
     width="32.969948"
     height="24.724127"
     rx="11.258353"
     ry="11.25834"
     id="rect2865"
     style="fill:#ff5555;stroke-width:1.45601" />
  <path
     class="cls-14"
     d="m 211.1532,281.77149 8.06273,5.56934 a 0.94209356,0.94209356 0 0 1 0.0399,1.52133 l -8.06938,6.2085 a 0.94209356,0.94209356 0 0 1 -1.51467,-0.74569 v -11.78116 a 0.94209356,0.94209356 0 0 1 1.48138,-0.77232 z"
     id="path2867"
     style="fill:#f2f2f2;stroke-width:1.45601" />
  <ellipse
     cx="235.71632"
     cy="175.87462"
     fill="#68e1fd"
     id="circle3598-0"
     style="fill:#87deaa;stroke-width:1.55095"
     rx="9.022789"
     ry="9.3483181" />
  <ellipse
     cx="223.02672"
     cy="122.57768"
     fill="#68e1fd"
     id="circle3598-0-9"
     style="fill:#aaeeff;stroke-width:1.55095"
     rx="23.90737"
     ry="24.769917" />
  <circle
     cx="124.91254"
     cy="109.51789"
     fill="#68e1fd"
     id="circle3606-0"
     style="fill:#ffd42a;fill-opacity:1;stroke-width:1.55095"
     r="30.836906" />
  <path
     d="m 124.92977,97.433968 a 3.6697521,3.6697521 0 1 1 3.66976,-3.66976 3.675972,3.675972 0 0 1 -3.66976,3.66976 z m 0,-6.095533 a 2.4257684,2.4257684 0 1 0 2.42577,2.425773 2.4319882,2.4319882 0 0 0 -2.42577,-2.425773 z"
     fill="#093f68"
     id="path4307"
     style="fill:#ffffff;stroke-width:1.47785" />
  <path
     d="m 125.57664,127.58813 a 5.199852,5.199852 0 1 1 5.19363,-5.19985 5.2060721,5.2060721 0 0 1 -5.19363,5.19985 z m 0,-9.15572 a 3.9558684,3.9558684 0 1 0 3.94966,3.95587 3.9620884,3.9620884 0 0 0 -3.94966,-3.95587 z"
     fill="#093f68"
     id="path4311"
     style="fill:#ffffff;stroke-width:1.47785" />
  <path
     d="m 139.44706,121.38687 -3.42095,-5.66634 v -10.08249 a 11.114995,11.114995 0 0 0 -11.115,-11.121222 v 0 a 11.121215,11.121215 0 0 0 -11.12122,11.121222 v 10.08249 l -3.41473,5.66634 a 0.96408738,0.96408738 0 0 0 0.82724,1.4679 h 27.41119 a 0.9703073,0.9703073 0 0 0 0.83347,-1.4679 z"
     fill="#ffbc0e"
     id="path4313"
     style="fill:#ffffff;stroke-width:1.47785" />
  <path
     d="m 138.63226,123.47677 h -27.41119 a 1.5549798,1.5549798 0 0 1 -1.38083,-0.80859 1.5798594,1.5798594 0 0 1 0,-1.60474 l 3.32765,-5.51706 v -9.90834 a 11.743207,11.743207 0 1 1 23.48021,0 v 9.92077 l 3.32766,5.51706 a 1.5922992,1.5922992 0 0 1 -1.36217,2.41334 z M 124.94843,95.138808 a 10.511663,10.511663 0 0 0 -10.49922,10.499232 v 10.08249 a 0.62199188,0.62199188 0 0 1 -0.0871,0.31721 l -3.41475,5.67257 a 0.32343578,0.32343578 0 0 0 0,0.34831 0.34209554,0.34209554 0 0 0 0.29856,0.17415 h 27.4112 a 0.34831546,0.34831546 0 0 0 0.30477,-0.17415 0.34209554,0.34209554 0 0 0 0,-0.34831 v 0 l -3.41473,-5.67257 a 0.57223251,0.57223251 0 0 1 -0.0933,-0.31721 V 105.63804 A 10.505443,10.505443 0 0 0 124.92975,95.138808 Z"
     fill="#093f68"
     id="path4315"
     style="fill:#ffffff;stroke-width:1.47785" />
  <ellipse
     cx="177.4662"
     cy="26.206415"
     fill="#68e1fd"
     id="circle3598-0-9-8"
     style="fill:#80b3ff;stroke-width:1.55095"
     rx="18.587154"
     ry="19.257751" />
  <ellipse
     cx="284.33374"
     cy="129.83409"
     fill="#68e1fd"
     id="circle3598-0-7"
     style="fill:#b380ff;stroke-width:1.55095"
     rx="14.102234"
     ry="14.611025" />
  <ellipse
     cx="181.94139"
     cy="74.868416"
     fill="#68e1fd"
     id="circle3598-0-9-3"
     style="fill:#ffb380;stroke-width:1.55095"
     rx="15.96842"
     ry="16.544537" />
  <ellipse
     cx="202.93848"
     cy="187.27924"
     fill="#68e1fd"
     id="circle3598-0-70"
     style="fill:#ffdd55;stroke-width:1.55095"
     rx="6.4057059"
     ry="6.636816" />
  <ellipse
     cx="179.84239"
     cy="155.95692"
     fill="#68e1fd"
     id="circle3598-0-70-3"
     style="fill:#87aade;stroke-width:1.55095"
     rx="9.7484226"
     ry="10.100134" />
  <ellipse
     cx="267.5321"
     cy="19.014505"
     fill="#68e1fd"
     id="circle3598-0-70-0"
     style="fill:#ff8080;stroke-width:1.55095"
     rx="7.3286862"
     ry="7.5930967" />
  <ellipse
     cx="143.64427"
     cy="54.973919"
     fill="#68e1fd"
     id="circle3598-0-7-0"
     style="fill:#b380ff;stroke-width:1.55095"
     rx="9.0881596"
     ry="9.416048" />
</svg>
