<?xml version="1.0" encoding="UTF-8" standalone="no"?>
<svg
   xmlns:dc="http://purl.org/dc/elements/1.1/"
   xmlns:cc="http://creativecommons.org/ns#"
   xmlns:rdf="http://www.w3.org/1999/02/22-rdf-syntax-ns#"
   xmlns:svg="http://www.w3.org/2000/svg"
   xmlns="http://www.w3.org/2000/svg"
   xmlns:sodipodi="http://sodipodi.sourceforge.net/DTD/sodipodi-0.dtd"
   xmlns:inkscape="http://www.inkscape.org/namespaces/inkscape"
   id="Layer_1"
   data-name="Layer 1"
   viewBox="0 0 895.91133 267.60883"
   width="1000"
   height="270"
   class="illustration"
   version="1.1"
   sodipodi:docname="sub-title2.svg"
   inkscape:export-filename="/Users/nari/Downloads/Money transfer _Monochromatic.png"
   inkscape:export-xdpi="96"
   inkscape:export-ydpi="96"
   inkscape:version="1.0.1 (c497b03c, 2020-09-10)">
  <metadata
     id="metadata5779">
    <rdf:RDF>
      <cc:Work
         rdf:about="">
        <dc:format>image/svg+xml</dc:format>
        <dc:type
           rdf:resource="http://purl.org/dc/dcmitype/StillImage" />
        <dc:title>13</dc:title>
      </cc:Work>
    </rdf:RDF>
  </metadata>
  <sodipodi:namedview
     pagecolor="#ffffff"
     bordercolor="#666666"
     borderopacity="1"
     objecttolerance="10"
     gridtolerance="10"
     guidetolerance="10"
     inkscape:pageopacity="0"
     inkscape:pageshadow="2"
     inkscape:window-width="1440"
     inkscape:window-height="784"
     id="namedview5777"
     showgrid="false"
     inkscape:zoom="0.50490195"
     inkscape:cx="341.8115"
     inkscape:cy="397.55915"
     inkscape:window-x="2560"
     inkscape:window-y="259"
     inkscape:window-maximized="0"
     inkscape:current-layer="Layer_1"
     inkscape:document-rotation="0" />
  <defs
     id="defs5684">
    <linearGradient
       id="linear-gradient"
       x1="206.7"
       y1="169.12"
       x2="203.96001"
       y2="145.92"
       gradientTransform="matrix(1,0,0,-1,0,352)"
       gradientUnits="userSpaceOnUse">
      <stop
         offset="0.01"
         id="stop5675" />
      <stop
         offset="0.08"
         stop-opacity="0.69"
         id="stop5677" />
      <stop
         offset="0.21"
         stop-opacity="0.32"
         id="stop5679" />
      <stop
         offset="1"
         stop-opacity="0"
         id="stop5681" />
    </linearGradient>
  </defs>
  <title
     id="title5686">13</title>
  <path
     d="M 413.04017,5.4830998 C 395.41326,5.5734053 377.8543,6.2002561 360.60459,7.3550374 295.89119,11.924267 242.41014,25.980816 193.94213,40.326665 153.40909,52.324083 87.999913,49.866959 66.902406,66.144306 46.743132,81.757966 51.345496,85.720983 27.996151,100.92623 c -14.77101,9.64046 -17.900168,46.90921 -35.9952337,55.9711 -30.5337933,15.31582 -46.1893993,35.60083 -19.0869713,51.59738 15.441145,9.09592 42.489931,15.57112 69.485128,21.34009 69.136636,14.77129 165.061316,15.11408 247.494526,18.96858 31.47209,1.47201 43.74262,13.70524 75.53637,14.19024 27.42412,0.43395 55.16993,1.08061 82.13832,-0.54456 67.47459,-4.06722 118.56975,-21.39114 181.11174,-30.39346 44.4737,-6.40714 93.82639,-8.44925 141.06128,-12.29522 47.23489,-3.84599 95.54209,-10.09145 125.24485,-22.4122 26.51266,-11.00188 33.93835,-24.98186 38.54925,-38.40025 4.45005,-12.92488 -20.48097,-25.02441 -35.73446,-36.91119 C 864.82767,96.348655 830.37998,70.354245 770.19703,49.711879 708.64702,28.718012 627.9515,14.359951 539.41094,8.648376 506.29963,6.6481093 472.69368,5.5860014 438.98982,5.4745911 c -8.632,-0.051053 -17.29081,-0.06807 -25.94965,0.00851 z"
     fill="#68e1fd"
     opacity="0.18"
     style="isolation:isolate;fill:#ffaaaa;stroke-width:0.999998"
     id="path5688-6"
     sodipodi:nodetypes="ccccccccccccsccccccc" />
  <text
     xml:space="preserve"
     style="font-size:26.4305px;line-height:1.25;font-family:'Noto Sans JP';-inkscape-font-specification:'Noto Sans JP';stroke-width:0.991144"
     x="161.00021"
     y="107.98424"
     id="text6640"><tspan
       sodipodi:role="line"
       x="161.00021"
       y="107.98424"
       style="font-style:normal;font-variant:normal;font-weight:500;font-stretch:normal;font-size:26.4305px;font-family:'Noto Sans JP';-inkscape-font-specification:'Noto Sans JP Medium';fill:#ff2a2a;stroke-width:0.991144"
       id="tspan6668">ユ ア チ ュ ー バ ー</tspan></text>
  <text
     xml:space="preserve"
     style="font-size:63.4332px;line-height:1.25;font-family:'Noto Sans JP';-inkscape-font-specification:'Noto Sans JP';stroke-width:0.991144"
     x="116.48651"
     y="172.05832"
     id="text6640-2"><tspan
       sodipodi:role="line"
       x="116.48651"
       y="172.05832"
       style="font-style:normal;font-variant:normal;font-weight:500;font-stretch:normal;font-size:63.4332px;font-family:'Noto Sans JP';-inkscape-font-specification:'Noto Sans JP Medium';fill:#ff2a2a;stroke-width:0.991144"
       id="tspan6646-8">YourTuberにようこそ！</tspan></text>
</svg>
