<?xml version="1.0" encoding="UTF-8" standalone="no"?>
<svg
   xmlns:dc="http://purl.org/dc/elements/1.1/"
   xmlns:cc="http://creativecommons.org/ns#"
   xmlns:rdf="http://www.w3.org/1999/02/22-rdf-syntax-ns#"
   xmlns:svg="http://www.w3.org/2000/svg"
   xmlns="http://www.w3.org/2000/svg"
   xmlns:sodipodi="http://sodipodi.sourceforge.net/DTD/sodipodi-0.dtd"
   xmlns:inkscape="http://www.inkscape.org/namespaces/inkscape"
   id="Layer_1"
   data-name="Layer 1"
   viewBox="0 0 363.74 303.29"
   width="406"
   height="306"
   class="illustration"
   version="1.1"
   sodipodi:docname="Money transfer _Monochromatic.svg"
   inkscape:export-filename="/Users/nari/Downloads/Money transfer _Monochromatic.png"
   inkscape:export-xdpi="96"
   inkscape:export-ydpi="96"
   inkscape:version="1.0.1 (c497b03c, 2020-09-10)">
  <metadata
     id="metadata5779">
    <rdf:RDF>
      <cc:Work
         rdf:about="">
        <dc:format>image/svg+xml</dc:format>
        <dc:type
           rdf:resource="http://purl.org/dc/dcmitype/StillImage" />
        <dc:title>13</dc:title>
      </cc:Work>
    </rdf:RDF>
  </metadata>
  <sodipodi:namedview
     pagecolor="#ffffff"
     bordercolor="#666666"
     borderopacity="1"
     objecttolerance="10"
     gridtolerance="10"
     guidetolerance="10"
     inkscape:pageopacity="0"
     inkscape:pageshadow="2"
     inkscape:window-width="2043"
     inkscape:window-height="930"
     id="namedview5777"
     showgrid="false"
     inkscape:zoom="1.4280784"
     inkscape:cx="56.018107"
     inkscape:cy="121.35441"
     inkscape:window-x="0"
     inkscape:window-y="23"
     inkscape:window-maximized="0"
     inkscape:current-layer="Layer_1" />
  <defs
     id="defs5684">
    <linearGradient
       id="linear-gradient"
       x1="206.7"
       y1="169.12"
       x2="203.96"
       y2="145.92"
       gradientTransform="matrix(1, 0, 0, -1, 0, 352)"
       gradientUnits="userSpaceOnUse">
      <stop
         offset="0.01"
         id="stop5675" />
      <stop
         offset="0.08"
         stop-opacity="0.69"
         id="stop5677" />
      <stop
         offset="0.21"
         stop-opacity="0.32"
         id="stop5679" />
      <stop
         offset="1"
         stop-opacity="0"
         id="stop5681" />
    </linearGradient>
  </defs>
  <title
     id="title5686">13</title>
  <path
     d="m 171.46212,-1.3280803 a 102.82,102.82 0 0 0 -19.56,2.19999994 c -24.14,5.37000006 -44.09,21.88999936 -62.169998,38.74999936 -15.12,14.1 -30,29.35 -37.87,48.48 -7.52,18.350001 -8,39.130001 -16.71,57.000001 -5.510001,11.33 -14.000001,20.87 -20.750001,31.52 -11.3900002,18 -17.2300002,41.84 -7.1200002,60.64 5.7600002,10.69 15.8500002,18.3 25.9200012,25.08 25.79,17.36 54.25,31.87 84.999998,36.4 11.74,1.73 23.64,2 35.5,2.57 10.23,0.51 20.58,1.27 30.64,-0.64 25.17,-4.78 44.23,-25.14 67.56,-35.72 16.59,-7.53 35,-9.93 52.62,-14.45 17.62,-4.52 35.64,-11.86 46.72,-26.34 9.89,-12.93 12.66,-29.36 14.38,-45.13 1.66,-15.19 -7.64,-29.41 -13.33,-43.38 -12.3,-30.19 -25.15,-60.740001 -47.6,-85.000001 a 161.55,161.55 0 0 0 -86.09,-48.2599993 212.17,212.17 0 0 0 -37.46,-3.73 c -3.22,-0.06 -6.45,-0.08 -9.68,0.01 z"
     fill="#68e1fd"
     opacity="0.18"
     style="isolation:isolate;fill:#ffaaaa"
     id="path5688" />
  <path
     d="m 189.47018,41.617879 27.39,140.390001 a 12.5,12.5 0 0 1 -9.87,14.66 l -60.77,11.85 a 12.5,12.5 0 0 1 -14.68,-9.83 v 0 l -27.39,-140.420001 a 12.5,12.5 0 0 1 9.86,-14.66 v 0 l 60.76,-11.86 a 12.5,12.5 0 0 1 14.7,9.82 v 0 z"
     fill="#68e1fd"
     id="path5692"
     style="fill:#4d4d4d" />
  <rect
     x="92.803947"
     y="66.743973"
     width="83.470001"
     height="163.52"
     rx="12.08"
     transform="rotate(-11.04)"
     fill="#473f47"
     id="rect5694"
     ry="12.08" />
  <path
     d="m 186.07018,45.557879 25.84,132.450001 a 11.54,11.54 0 0 1 -9.25,13.44 l -54.54,10.64 a 11.65,11.65 0 0 1 -6,-0.38 11.37,11.37 0 0 1 -7.65,-8.59 l -25.83,-132.460001 a 11.55,11.55 0 0 1 9.27,-13.44 l 9.21,-1.82 0.35,1.68 a 5.52,5.52 0 0 0 4.4,4.26 5.66,5.66 0 0 0 2.17,0 l 25.32,-4.94 a 5.61,5.61 0 0 0 4.44,-6.49 l -0.33,-1.59 9,-1.74 a 11.73,11.73 0 0 1 8.51,1.57 11.29,11.29 0 0 1 5.09,7.41 z"
     fill="#ffffff"
     id="path5696" />
  <rect
     style="fill:#ff0000;fill-opacity:0.38209;stroke-width:0.991144"
     id="rect6342"
     width="93.244499"
     height="167.8401"
     x="161.79683"
     y="12.640691" />
  <path
     sodipodi:type="star"
     style="fill:#ffffff;fill-opacity:1;stroke-width:1.33751"
     id="path6346"
     sodipodi:sides="3"
     sodipodi:cx="136.23889"
     sodipodi:cy="98.152107"
     sodipodi:r1="16.195097"
     sodipodi:r2="8.0975485"
     sodipodi:arg1="0"
     sodipodi:arg2="1.0471976"
     inkscape:flatsided="false"
     inkscape:rounded="0"
     inkscape:randomized="0"
     d="m 152.43399,98.152107 -12.14632,7.012683 -12.14633,7.01268 V 98.152107 84.126742 l 12.14633,7.012683 z"
     inkscape:transform-center-x="-2.9445632"
     transform="matrix(0.72727272,0,0,0.75506352,109.33624,17.542066)" />
  <path
     style="fill:#ff8080;fill-opacity:1;stroke-width:0.991147"
     id="path6350"
     sodipodi:type="arc"
     sodipodi:cx="171.537"
     sodipodi:cy="244.99619"
     sodipodi:rx="61.761433"
     sodipodi:ry="11.104643"
     sodipodi:start="0.3267012"
     sodipodi:end="0.32579887"
     sodipodi:arc-type="slice"
     d="m 230.03164,248.55989 a 61.761433,11.104643 0 0 1 -78.30195,6.95437 61.761433,11.104643 0 0 1 -38.69626,-14.07704 61.761433,11.104643 0 0 1 78.28449,-6.96072 61.761433,11.104643 0 0 1 38.73158,14.0739 l -58.5125,-3.55421 z" />
</svg>
